<svg width="140" height="140" viewBox="0 0 140 140" fill="none" xmlns="http://www.w3.org/2000/svg">
<path d="M64.5521 102.439V105.55C62.9734 106.309 62.0262 107.067 60.9211 107.067C59.737 107.067 58.6319 106.612 58.6319 105.398C58.6319 103.425 60.6053 102.363 64.5521 102.439ZM55.8692 97.5061C57.4479 96.4437 59.8949 95.609 61.6315 95.609C64.0785 95.609 64.631 96.3678 64.631 98.5684C57.7636 98.7202 52.7907 100.466 52.7907 105.853C52.7907 108.737 54.6062 111.469 59.5791 111.469C62.3419 111.469 64.3153 110.71 66.2097 109.268C67.4727 111.317 69.1304 111.469 70.1565 111.469C70.9459 111.469 71.7353 111.317 71.7353 111.089V106.84C70.1565 106.992 70.1565 105.702 70.1565 103.88V98.0373C70.1565 95.8366 69.8408 91.1318 62.184 91.1318C60.8421 91.1318 57.29 91.2836 53.5011 93.8636L55.8692 97.5061ZM13.0859 107.826C15.6119 110.33 17.901 111.469 21.3742 111.469C26.4261 111.469 32.1884 108.889 32.1884 100.997C32.1884 92.8013 25.7157 91.1318 21.5321 91.1318C19.7955 91.1318 16.638 91.7389 13.7174 94.0913L16.7959 97.3543C18.0589 95.9884 19.6376 95.3813 21.3742 95.3813C25.0052 95.3813 25.321 98.189 25.3999 99.5549L18.7693 99.1755V103.577L25.3999 103.197C25.321 104.336 24.8474 107.219 21.2953 107.219C18.8483 107.219 17.1906 105.929 16.1644 104.715L13.0859 107.826ZM38.5033 96.0643V112H44.0288V96.0643H49.5543V91.5113H33.7671V96.0643H38.5033ZM86.9699 112H92.1796V102.666C94.5477 102.514 95.0213 103.577 96.3632 106.384C97.5473 108.813 98.7313 111.469 102.204 111.469C102.757 111.469 103.231 111.393 104.02 111.089V106.84C102.441 106.688 102.599 106.081 101.415 104.184C99.7575 101.376 98.8102 100.693 97.7051 100.541C99.4417 100.086 100.231 99.0237 100.784 98.2649C101.652 97.0508 102.283 95.9125 103.625 95.9125C103.783 95.9125 103.231 95.9125 104.02 95.9884V91.5113C103.231 91.2077 103.073 91.1318 102.126 91.1318C99.0471 91.1318 97.3105 93.1048 95.4949 95.8366C94.5477 97.2784 93.6794 98.4926 92.1007 98.3408V91.5113H86.5752V98.4167C84.9965 98.5684 84.4439 97.2784 83.4967 95.9125C81.6812 93.1048 80.0235 91.2077 76.945 91.2077C75.9978 91.2077 75.5242 91.3595 74.7348 91.5871V95.9884C74.7348 95.9125 75.2874 95.9125 75.4452 95.9125C76.7872 95.9125 77.6554 97.0508 78.5237 98.2649C79.0763 99.0237 79.7867 100.086 81.5233 100.541C80.4182 100.693 78.9184 101.452 77.2608 104.184C76.0767 106.081 76.3135 106.764 73.9455 106.84V111.089C74.7348 111.393 75.8399 111.469 76.3925 111.469C79.8657 111.469 81.3654 108.813 82.6284 106.384C84.0492 103.577 83.4178 102.514 86.5752 102.666V112H86.9699ZM114.282 101.68V91.5113H108.756V112H114.282V108.282L121.386 101.148V112H126.911V91.5113H121.386V94.6225L114.282 101.68Z" fill="#3B4A69"/>
<path d="M74.2448 83.5437H33.9531L38.9624 45.2639L72.9381 24.7339L102.558 59.3782L102.776 60.8752L72.9381 28.3694V32.2188L102.776 62.3722L102.993 63.8692L73.1559 35.8543V40.1314L103.211 65.3661L103.429 66.8631L73.3736 43.7669V47.6163L103.865 68.3601L104.082 69.8571L73.5914 51.4656V55.1011L104.3 71.354L104.518 72.851L73.8092 58.9505V62.7999L104.954 74.5619L105.171 76.0588L74.027 66.6493V70.9263L105.389 77.7697L105.607 79.2666L74.027 74.5619V78.4112L105.825 80.5498L106.043 82.6883L74.2448 83.5437Z" fill="#3B4A69"/>
</svg>
