<svg width="140" height="140" viewBox="0 0 140 140" fill="none" xmlns="http://www.w3.org/2000/svg">
<path fill-rule="evenodd" clip-rule="evenodd" d="M104.856 103.181L98.2227 93.9272H101.821L106.338 100.28L110.924 93.9272H114.523L107.819 103.25V109.534H104.856V103.181Z" fill="#3B4A69"/>
<path fill-rule="evenodd" clip-rule="evenodd" d="M17.4297 109.534V93.9277H28.1555V96.828H20.3934V100.281H26.6031V103.181H20.3934V106.565H28.1555V109.534H17.4297Z" fill="#3B4A69"/>
<path fill-rule="evenodd" clip-rule="evenodd" d="M87.3585 109.534H84.3242V93.9272H91.3807C94.2738 93.9272 96.673 96.2751 96.673 99.1754C96.673 101.592 95.05 103.595 92.792 104.216L96.6024 109.534H92.9331L89.2637 104.424H87.2879V109.534H87.3585ZM87.3585 96.8275V101.454H91.3101C92.5803 101.454 93.6387 100.418 93.6387 99.1754C93.6387 97.9324 92.5803 96.8966 91.3101 96.8966H87.3585V96.8275Z" fill="#3B4A69"/>
<path fill-rule="evenodd" clip-rule="evenodd" d="M35.3546 109.534H32.3203V93.9272H35.3546L42.9756 104.562V93.9272H45.9393V109.534H42.905L35.3546 98.8992V109.534Z" fill="#3B4A69"/>
<path fill-rule="evenodd" clip-rule="evenodd" d="M139.997 109.534H137.033V96.8275H135.34V93.9272H139.997V109.534Z" fill="#3B4A69"/>
<path fill-rule="evenodd" clip-rule="evenodd" d="M62.7324 96.8275H57.934V109.534H54.8997V96.8275H50.1719V93.9272H62.7324V96.8275Z" fill="#3B4A69"/>
<path fill-rule="evenodd" clip-rule="evenodd" d="M132.166 109.464H121.652L128.215 100.28C128.638 99.7278 128.85 99.1753 128.85 98.6229C128.85 97.7942 128.074 96.8275 126.874 96.7584C125.533 96.7584 124.757 97.6561 124.757 98.8991H121.723C121.723 95.9988 123.981 93.7891 126.804 93.7891C129.697 93.7891 131.884 95.9298 131.884 98.6229C131.884 99.8659 131.602 100.695 130.755 101.868L127.509 106.426H132.166V109.464Z" fill="#3B4A69"/>
<path fill-rule="evenodd" clip-rule="evenodd" d="M77.1264 93.9272H80.1607V103.181C80.1607 106.702 77.1969 109.603 73.5276 109.603C69.8582 109.603 66.8945 106.702 66.8945 103.181V93.9272H69.8582V103.042C69.8582 104.976 71.4812 106.633 73.457 106.633C75.4328 106.633 77.0558 104.976 77.0558 103.042V93.9272H77.1264Z" fill="#3B4A69"/>
<path fill-rule="evenodd" clip-rule="evenodd" d="M11.502 105.322L13.1956 107.739C11.7843 108.913 10.0202 109.534 8.04436 109.534C3.59879 109.534 0 106.012 0 101.731C0 97.3805 3.59879 93.9277 8.04436 93.9277C10.0202 93.9277 11.8548 94.6183 13.1956 95.7922L11.4315 98.2091C10.5141 97.3805 9.24395 96.8971 7.97379 96.8971C5.22177 96.8971 2.96371 99.0378 2.96371 101.8C2.96371 104.493 5.22177 106.703 7.97379 106.703C9.38508 106.565 10.5847 106.081 11.502 105.322Z" fill="#3B4A69"/>
<path d="M37.3978 126.59H38.668L36.1276 123.552C37.6095 123.414 38.5268 122.585 38.5268 121.48C38.5268 120.237 37.4684 119.409 35.7748 119.409H32.1055V126.659H33.0934V123.621H34.928L37.3978 126.59ZM33.0934 120.168H35.7043C36.8333 120.168 37.3978 120.652 37.3978 121.48C37.3978 122.309 36.7627 122.792 35.7043 122.792H33.0934V120.168Z" fill="#3B4A69"/>
<path d="M42.621 126.729C44.4556 126.729 45.8669 125.624 45.8669 124.035C45.8669 122.447 44.4556 121.342 42.621 121.342C40.7863 121.342 39.375 122.447 39.375 124.035C39.4456 125.624 40.7863 126.729 42.621 126.729ZM42.621 125.969C41.2802 125.969 40.3629 125.14 40.3629 123.966C40.3629 122.792 41.2802 121.964 42.621 121.964C43.9617 121.964 44.879 122.792 44.879 123.966C44.879 125.14 43.9617 125.969 42.621 125.969Z" fill="#3B4A69"/>
<path d="M51.5812 121.412L49.5348 125.624L47.3473 121.412H46.3594L49.1114 126.591L48.0529 128.663H48.9703L52.6396 121.412H51.5812Z" fill="#3B4A69"/>
<path d="M56.3817 121.274C55.3232 121.274 54.4059 121.55 53.7708 121.964L54.1942 122.586C54.7587 122.172 55.5349 122.034 56.2405 122.034C57.3696 122.034 57.9341 122.517 57.9341 123.415V123.691C57.2285 123.484 56.5228 123.415 55.9583 123.415C54.6881 123.415 53.418 123.898 53.418 125.072C53.418 126.177 54.4764 126.729 55.6055 126.729C56.5228 126.729 57.4401 126.384 58.0047 125.693L58.0752 126.591H58.8514V123.415C58.8514 121.964 57.9341 121.274 56.3817 121.274ZM55.7466 125.97C54.9704 125.97 54.4059 125.624 54.4059 125.072C54.4059 124.381 55.1821 124.105 56.0994 124.105C56.6639 124.105 57.3696 124.174 57.9341 124.312V124.381C57.9341 125.348 56.8756 125.97 55.7466 125.97Z" fill="#3B4A69"/>
<path d="M60.8945 126.59H61.8824V118.787H60.8945V126.59Z" fill="#3B4A69"/>
<path d="M68.4449 125.761V123.275H73.2433V122.516H68.4449V120.099H73.455V119.339H67.457V126.59H73.5256V125.761H68.4449Z" fill="#3B4A69"/>
<path d="M77.4825 126.728C79.0349 126.728 80.0934 126.176 80.0934 125.071C80.0934 123.966 78.8938 123.759 77.553 123.552C76.3535 123.345 76.0006 123.207 76.0006 122.792C76.0006 122.24 76.5651 121.964 77.553 121.964C78.3293 121.964 78.9643 122.171 79.4583 122.378L79.8817 121.757C79.3172 121.411 78.4704 121.204 77.553 121.204C76.3535 121.204 74.9422 121.549 74.9422 122.792C74.9422 123.759 75.7889 124.035 77.2708 124.242C78.1881 124.381 79.0349 124.519 79.0349 125.071C79.0349 125.693 78.1881 125.9 77.4119 125.9C76.5651 125.9 75.6478 125.693 75.1539 125.347L74.7305 125.969C75.3655 126.452 76.5651 126.728 77.4825 126.728Z" fill="#3B4A69"/>
<path d="M85.521 125.555C85.0977 125.9 84.6743 125.969 84.1803 125.969C83.3335 125.969 82.9807 125.624 82.9807 124.864V122.102H85.6622V121.412H82.9807V119.823H82.0634V121.412H80.7227V122.102H82.0634V124.864C82.0634 126.038 82.8396 126.66 84.2509 126.66C85.0977 126.66 85.6622 126.452 86.015 126.176L85.521 125.555Z" fill="#3B4A69"/>
<path d="M89.9715 121.274C88.9131 121.274 87.9957 121.55 87.3606 121.964L87.784 122.586C88.3485 122.172 89.1247 122.034 89.8304 122.034C90.9594 122.034 91.5239 122.517 91.5239 123.415V123.691C90.8183 123.484 90.1126 123.415 89.5481 123.415C88.278 123.415 87.0078 123.898 87.0078 125.072C87.0078 126.177 88.0663 126.729 89.1953 126.729C90.1126 126.729 91.03 126.384 91.5945 125.693L91.6651 126.591H92.4413V123.415C92.4413 121.964 91.5239 121.274 89.9715 121.274ZM89.3364 125.97C88.5602 125.97 87.9957 125.624 87.9957 125.072C87.9957 124.381 88.7719 124.105 89.6893 124.105C90.2538 124.105 90.9594 124.174 91.5239 124.312V124.381C91.5239 125.348 90.3949 125.97 89.3364 125.97Z" fill="#3B4A69"/>
<path d="M98.3687 125.555C97.9453 125.9 97.5219 125.969 97.028 125.969C96.1812 125.969 95.8284 125.624 95.8284 124.864V122.102H98.5098V121.412H95.8284V119.823H94.911V121.412H93.5703V122.102H94.911V124.864C94.911 126.038 95.6872 126.66 97.0985 126.66C97.9453 126.66 98.5098 126.452 98.8627 126.176L98.3687 125.555Z" fill="#3B4A69"/>
<path d="M100.55 124.312H105.56C105.631 124.104 105.631 123.828 105.631 123.69C105.631 122.516 104.643 121.342 102.738 121.342C100.833 121.342 99.5625 122.447 99.5625 124.035C99.5625 125.693 100.903 126.798 102.808 126.798C103.796 126.798 104.643 126.521 105.278 125.969L104.714 125.417C104.22 125.831 103.514 126.038 102.808 126.038C101.538 125.969 100.692 125.347 100.55 124.312ZM100.55 123.621C100.692 122.654 101.538 122.033 102.738 122.033C104.008 122.033 104.643 122.723 104.643 123.621H100.55Z" fill="#3B4A69"/>
<path d="M109.518 126.728C111.07 126.728 112.129 126.176 112.129 125.071C112.129 123.966 110.929 123.759 109.588 123.552C108.389 123.345 108.036 123.207 108.036 122.792C108.036 122.24 108.6 121.964 109.588 121.964C110.364 121.964 110.999 122.171 111.493 122.378L111.917 121.757C111.352 121.411 110.506 121.204 109.588 121.204C108.389 121.204 106.977 121.549 106.977 122.792C106.977 123.759 107.824 124.035 109.306 124.242C110.223 124.381 111.07 124.519 111.07 125.071C111.07 125.693 110.223 125.9 109.447 125.9C108.6 125.9 107.683 125.693 107.189 125.347L106.766 125.969C107.471 126.452 108.6 126.728 109.518 126.728Z" fill="#3B4A69"/>
<path d="M85.7353 69.068C71.9752 74.9376 56.0982 68.3774 50.3119 54.4974C44.5256 40.6175 50.947 24.5968 64.7776 18.7271C71.4812 15.8959 79.0316 15.8959 85.8058 18.7271C87.2877 19.3486 88.699 20.1082 90.0397 21.0059L93.074 16.5865C87.7816 13.0647 81.5719 11.2002 75.2211 11.2002C57.3683 11.2002 42.832 25.8398 42.832 43.9321C42.832 62.0244 57.3683 76.664 75.2211 76.664C81.8542 76.664 88.2756 74.6614 93.709 70.7943L90.6748 66.3748C89.1224 67.4106 87.4994 68.3084 85.7353 69.068ZM84.0417 29.7759L80.3018 35.1621H84.959V58.0192H90.3219V29.7759H84.0417ZM70.3522 52.633L76.3502 43.863L76.4913 43.6559C79.2433 39.5816 78.1848 33.9882 74.0921 31.2951C70.0699 28.5329 64.5659 29.6378 61.8139 33.712C60.826 35.1621 60.332 36.9576 60.332 38.6839C60.332 38.822 60.332 38.8911 60.332 39.0292H65.6949C65.6949 38.8911 65.6949 38.822 65.6949 38.6839C65.6949 36.7504 67.2473 35.1621 69.2232 35.1621C71.1284 35.1621 72.8219 36.6123 72.7514 38.6839C72.6808 39.5816 71.9046 40.9627 71.6224 41.4461C71.3401 41.8604 60.2615 58.0192 60.2615 58.0192H75.3623L79.0316 52.633H70.3522Z" fill="#3B4A69"/>
<path d="M92.441 56.0166C92.5822 56.0166 92.7938 56.0857 92.935 56.1547C93.0761 56.2238 93.2172 56.3619 93.2878 56.5C93.3584 56.6381 93.4289 56.8453 93.4289 56.9834C93.4289 57.1905 93.3584 57.3286 93.2878 57.4667C93.2172 57.6049 93.0761 57.743 92.935 57.812C92.7938 57.8811 92.5822 57.9501 92.441 57.9501C92.2293 57.9501 92.0882 57.8811 91.9471 57.812C91.8059 57.743 91.6648 57.6049 91.5943 57.4667C91.5237 57.3286 91.4531 57.1215 91.4531 56.9834C91.4531 56.7762 91.5237 56.6381 91.5943 56.5C91.6648 56.3619 91.8059 56.2238 91.9471 56.1547C92.1588 56.0857 92.2999 56.0166 92.441 56.0166ZM92.441 56.2238C92.2999 56.2238 92.1588 56.2928 92.0176 56.3619C91.8765 56.4309 91.8059 56.569 91.6648 56.7071C91.5942 56.8453 91.5237 56.9834 91.5237 57.1215C91.5237 57.2596 91.5942 57.3977 91.6648 57.5358C91.7354 57.6739 91.8765 57.743 92.0176 57.8811C92.1588 57.9501 92.2999 58.0192 92.441 58.0192C92.5822 58.0192 92.7233 57.9501 92.8644 57.8811C93.0055 57.812 93.0761 57.6739 93.2172 57.5358C93.2878 57.3977 93.3584 57.2596 93.3584 57.1215C93.3584 56.9834 93.2878 56.8453 93.2172 56.7071C93.1467 56.569 93.0055 56.5 92.8644 56.3619C92.7233 56.2238 92.5822 56.2238 92.441 56.2238ZM92.0176 57.6049V56.5H92.3705C92.5116 56.5 92.5822 56.5 92.6527 56.5C92.7233 56.5 92.7233 56.569 92.7938 56.6381C92.7938 56.7071 92.8644 56.7071 92.8644 56.7762C92.8644 56.8453 92.8644 56.9143 92.7938 56.9834C92.7233 57.0524 92.6527 57.0524 92.5822 57.0524C92.6527 57.0524 92.6527 57.1215 92.6527 57.1215C92.7233 57.1905 92.7233 57.2596 92.7938 57.3286L92.935 57.5358H92.7233L92.6527 57.3977C92.5822 57.2596 92.5116 57.1905 92.441 57.1215C92.441 57.1215 92.3705 57.0524 92.2999 57.0524H92.2293V57.5358H92.0176V57.6049ZM92.2293 56.9834H92.441C92.5116 56.9834 92.5822 56.9834 92.6527 56.9143C92.7233 56.9143 92.7233 56.8453 92.7233 56.7762V56.7071L92.6527 56.6381C92.6527 56.6381 92.5822 56.6381 92.441 56.6381H92.2293V56.9834Z" fill="#3B4A69"/>
</svg>
