<svg width="140" height="140" viewBox="0 0 140 140" fill="none" xmlns="http://www.w3.org/2000/svg">
<g clip-path="url(#clip0_1231_28941)">
<path d="M6.28939 69.1857C5.66716 70.4712 5.32855 71.8684 5.29518 73.288C5.26179 74.7076 5.53439 76.1182 6.09552 77.43C6.65667 78.7417 7.49403 79.9255 8.5541 80.906C9.61416 81.8863 10.8736 82.6417 12.2521 83.1237C11.0813 75.2797 8.11357 71.0939 6.28939 69.1857ZM19.3219 83.1325C20.7846 82.6265 22.1142 81.8141 23.2155 80.7529C24.3168 79.6919 25.163 78.4084 25.6935 76.9939C26.2241 75.5795 26.4259 74.0691 26.2845 72.5704C26.1434 71.0718 25.6624 69.6218 24.8763 68.3238C23.0611 70.3289 20.0935 74.7697 19.3219 83.1325ZM22.4349 70.4607C23.1038 69.5896 23.8677 68.7907 24.7129 68.0777C24.1264 67.1705 23.3905 66.3626 22.5346 65.6858C20.411 67.9547 16.8443 73.2396 16.2453 83.5634C17.1547 78.7658 19.2818 74.2632 22.4349 70.4607ZM9.14819 71.7182C11.0006 74.0093 12.5579 76.5104 13.7858 79.1664C15.0453 75.1507 17.0743 71.4008 19.7667 68.1129C20.4989 67.147 21.3389 66.2623 22.2715 65.4747C20.4275 64.0777 18.1505 63.3246 15.8097 63.3378C13.8689 63.3365 11.9657 63.8558 10.3109 64.8384C8.65614 65.8209 7.31446 67.2282 6.43459 68.9043C7.45441 69.734 8.36843 70.6787 9.15728 71.7182H9.14819ZM132.286 103.42H136.642V102.54H133.23V100.482H136.079V99.6558H133.23V97.5804H136.642V96.754H132.286V103.42ZM120.987 97.6333H123.428V96.754H117.665V97.6333H120.079V103.463H120.987V97.6333ZM108.499 100.896H106.13L107.328 97.6333L108.499 100.896ZM110.423 103.463L107.854 96.754H106.793L104.206 103.428H105.177L105.821 101.669H108.807L109.461 103.428L110.423 103.463ZM94.5222 97.6333H96.9274V96.754H91.1916V97.6333H93.6057V103.463H94.5132L94.5222 97.6333ZM82.0252 101.643C82.0252 102.303 81.3899 102.769 80.5096 102.769C79.786 102.751 79.0845 102.525 78.4947 102.118L78.1862 102.945C78.8796 103.359 79.6769 103.581 80.4914 103.587C80.7884 103.621 81.0893 103.595 81.3757 103.512C81.662 103.428 81.9276 103.289 82.1558 103.101C82.3841 102.914 82.5699 102.683 82.702 102.423C82.8342 102.163 82.9095 101.88 82.9237 101.59C82.9237 100.315 81.8981 99.8317 80.8908 99.5943C79.8834 99.3567 79.2118 99.0755 79.2118 98.3895C79.2118 97.8354 79.6293 97.4046 80.6185 97.4046C81.2648 97.4151 81.8944 97.6044 82.4337 97.9498L82.7693 97.176C82.1209 96.7792 81.3672 96.5744 80.6003 96.5867C79.239 96.5867 78.2951 97.3431 78.2951 98.4598C78.2951 99.7525 79.3842 100.148 80.3554 100.412C81.4898 100.693 82.0252 100.966 82.0252 101.643ZM64.7816 103.402H69.147V102.523H65.7618V100.482H68.6025V99.6558H65.7618V97.5804H69.1832V96.754H64.8179L64.7816 103.402ZM45.8408 103.402H50.1064V102.523H46.821V96.754H45.9135L45.8408 103.402ZM34.9501 100.834H32.6722L33.8065 97.6333L34.9501 100.834ZM36.8561 103.402L34.3602 96.754H33.2803L30.7028 103.428H31.6557L32.3091 101.669H35.3132L35.9484 103.428L36.8561 103.402ZM17.6974 103.402H22.0536V102.523H18.6866V100.482H21.5364V99.6558H18.6866V97.5804H22.1081V96.754H17.7519L17.6974 103.402ZM4.5378 99.9196V97.5542H5.55426C6.60704 97.5542 7.27862 97.8883 7.27862 98.6797C7.27862 99.4711 6.63425 99.9196 5.51796 99.9196H4.5378ZM4.5378 103.437V100.799H5.68131L7.442 103.437H8.56737L6.64334 100.588C7.09602 100.492 7.4985 100.243 7.77811 99.8849C8.05771 99.5269 8.196 99.0839 8.16804 98.6356C8.16804 97.4574 7.33309 96.754 5.76299 96.754H3.63024V103.428L4.5378 103.437ZM3.63024 89.6487V90.528H136.642V89.6487H3.63024ZM50.5057 40.3072H48.4908V34.9079H47.6922C46.4489 38.5485 44.7971 39.8939 41.1397 40.5183V41.2657H43.4539V51.7567C43.4539 55.1861 44.4161 56.7074 47.7105 56.7074C48.7236 56.6835 49.7098 56.386 50.558 55.8484C51.4061 55.3108 52.0827 54.5547 52.5113 53.6648L51.9578 53.2163C51.7283 53.6002 51.4139 53.9303 51.0375 54.1826C50.6608 54.4349 50.2314 54.6035 49.7796 54.6761C48.7541 54.6761 48.4908 54.0694 48.4908 52.8383V41.2657H53.1829V51.7567C53.1829 55.1861 54.1451 56.7074 57.4395 56.7074C59.781 56.7074 61.3601 55.6082 62.6306 53.7L62.0679 53.2516C61.7716 53.656 61.3906 53.9951 60.9495 54.2466C60.5084 54.4982 60.0174 54.6566 59.5086 54.7114C58.4832 54.7114 58.2199 54.1045 58.2199 52.8734V41.2657H62.1134V40.3072H58.2199V34.9079H57.4213C57.013 36.346 56.2284 37.6576 55.1433 38.7156C54.5231 39.2712 53.7909 39.6964 52.9927 39.9643C52.1945 40.2321 51.3478 40.3369 50.5057 40.2721V40.3072ZM138.793 81.2771C138.551 81.2997 138.325 81.4091 138.162 81.5838C137.998 81.7587 137.907 81.9863 137.907 82.2223C137.907 82.4583 137.998 82.6859 138.162 82.8608C138.325 83.0356 138.551 83.1449 138.793 83.1676C139.036 83.1449 139.261 83.0356 139.424 82.8608C139.588 82.6859 139.679 82.4583 139.679 82.2223C139.679 81.9863 139.588 81.7587 139.424 81.5838C139.261 81.4091 139.036 81.2997 138.793 81.2771ZM138.793 83.3611C138.639 83.3622 138.486 83.3337 138.344 83.2771C138.201 83.2206 138.071 83.1371 137.963 83.0315C137.854 82.926 137.767 82.8003 137.709 82.6622C137.65 82.524 137.621 82.376 137.622 82.2267C137.619 81.9974 137.686 81.7723 137.815 81.5801C137.944 81.388 138.13 81.2378 138.348 81.1483C138.566 81.059 138.806 81.0347 139.039 81.0786C139.271 81.1225 139.484 81.2326 139.652 81.3947C139.819 81.5568 139.933 81.7637 139.978 81.9888C140.023 82.2139 139.998 82.447 139.906 82.6581C139.814 82.8693 139.659 83.0492 139.46 83.1743C139.262 83.2996 139.03 83.3645 138.793 83.3611ZM138.702 82.6225C138.702 82.6928 138.702 82.7104 138.82 82.7104V82.7896H138.285V82.684C138.376 82.684 138.43 82.684 138.43 82.6049V81.8047C138.43 81.743 138.43 81.743 138.294 81.743V81.655H138.857C139.065 81.655 139.301 81.655 139.301 81.9365C139.295 82.0139 139.26 82.0865 139.204 82.1413C139.147 82.1961 139.073 82.2294 138.993 82.2355C139.102 82.2355 139.156 82.3499 139.22 82.4553C139.283 82.5608 139.374 82.7104 139.447 82.7104V82.7896H139.174C139.056 82.7896 139.038 82.6664 138.975 82.5608C138.911 82.4553 138.884 82.3058 138.784 82.3058H138.702V82.6225ZM138.702 81.743V82.1212H138.775C138.809 82.124 138.843 82.1196 138.874 82.1081C138.906 82.0966 138.935 82.0784 138.958 82.0549C138.982 82.0311 138.999 82.0028 139.01 81.9717C139.021 81.9405 139.024 81.9075 139.02 81.875C139.02 81.743 138.947 81.6815 138.802 81.6815C138.748 81.6815 138.739 81.6815 138.739 81.6815L138.702 81.743ZM132.268 82.3673C132.268 82.6049 132.268 82.9126 132.268 83.2996H132.504L132.676 82.8687C133.232 83.2245 133.889 83.4001 134.555 83.3699C134.835 83.4003 135.119 83.3747 135.389 83.2948C135.659 83.2149 135.909 83.0821 136.124 82.9051C136.339 82.7281 136.515 82.5102 136.64 82.265C136.765 82.0198 136.837 81.7524 136.851 81.4792C136.851 80.5383 136.261 80.046 134.872 79.6149C133.965 79.3249 133.366 79.1929 133.357 78.6388C133.366 78.5216 133.399 78.4074 133.455 78.3028C133.51 78.1982 133.586 78.1055 133.68 78.03C133.773 77.9547 133.88 77.898 133.996 77.8637C134.113 77.8292 134.234 77.8177 134.355 77.8298C134.784 77.8227 135.201 77.9627 135.533 78.225C135.865 78.4873 136.091 78.8551 136.17 79.2632H136.433C136.433 78.9555 136.433 78.6741 136.433 78.4279C136.433 78.1817 136.433 77.8915 136.433 77.61H136.134L135.916 77.9794C135.408 77.6668 134.811 77.5162 134.21 77.5485C132.976 77.5485 132.077 78.2168 132.104 79.3072C132.132 80.3977 132.858 80.7933 134.264 81.2242C135.018 81.4529 135.462 81.6903 135.471 82.1828C135.461 82.3097 135.425 82.4332 135.365 82.5463C135.305 82.6595 135.222 82.7599 135.122 82.8417C135.021 82.9237 134.905 82.9852 134.779 83.0231C134.654 83.0608 134.522 83.0743 134.391 83.0622C133.922 83.0428 133.474 82.8708 133.118 82.574C132.763 82.2773 132.521 81.8731 132.431 81.4265H132.159C132.204 81.7782 132.204 82.1035 132.213 82.3058L132.268 82.3673ZM123.864 81.488C123.624 81.7683 123.326 81.9972 122.991 82.1608C122.655 82.3242 122.288 82.4185 121.912 82.4378C121.661 82.4601 121.407 82.4202 121.175 82.3217C120.944 82.2233 120.741 82.0696 120.587 81.875C120.213 81.3317 120.052 80.6766 120.134 80.0283H124.1V79.9492C124.122 79.6088 124.067 79.2678 123.938 78.9501C123.809 78.6327 123.61 78.3463 123.355 78.1116C123.1 77.8767 122.794 77.6991 122.46 77.5911C122.126 77.4832 121.772 77.4476 121.422 77.4869C120.998 77.4503 120.57 77.4997 120.167 77.6321C119.763 77.7643 119.393 77.9767 119.078 78.2555C118.764 78.5342 118.513 78.8733 118.342 79.2513C118.171 79.6293 118.082 80.0375 118.083 80.4504C118.085 80.8477 118.172 81.2405 118.338 81.6037C118.505 81.9669 118.747 82.2928 119.049 82.5612C119.352 82.8296 119.708 83.0344 120.096 83.163C120.484 83.2915 120.896 83.3411 121.304 83.3084C121.867 83.2743 122.411 83.1032 122.887 82.8112C123.363 82.5191 123.755 82.1154 124.027 81.6376L123.864 81.488ZM122.348 79.6766H120.134C120.179 78.7973 120.542 77.7683 121.332 77.7683C122.121 77.7683 122.348 78.507 122.348 79.404V79.6766ZM105.105 82.939V83.1589C105.903 83.1589 106.475 83.1589 106.92 83.1589C107.555 83.1589 108.199 83.1589 108.825 83.1589V82.939C108.127 82.939 107.918 82.8423 107.918 82.3235V79.6502C107.918 79.0522 108.344 78.4718 108.689 78.4718C109.034 78.4718 109.143 79.3511 109.76 79.3511C109.868 79.3613 109.976 79.349 110.079 79.3153C110.181 79.2814 110.275 79.227 110.354 79.1555C110.433 79.0841 110.495 78.9971 110.537 78.9003C110.578 78.8038 110.598 78.6996 110.595 78.595C110.595 78.0233 110.196 77.7156 109.488 77.7156C109.133 77.7514 108.793 77.8733 108.5 78.07C108.206 78.2668 107.969 78.5319 107.809 78.8411L107.691 77.6539C106.88 77.9057 106.037 78.0507 105.186 78.085V78.2871C105.885 78.2871 106.012 78.6126 106.012 79.4216V82.4553C106.012 82.9302 105.831 83.0446 105.168 83.1061L105.105 82.939ZM100.431 83.4754C101.166 83.4367 101.856 83.1212 102.355 82.5961C102.422 82.8576 102.58 83.0884 102.804 83.249C103.028 83.4095 103.302 83.4894 103.58 83.4754C103.88 83.4724 104.176 83.4043 104.446 83.2766C104.716 83.1488 104.953 82.9645 105.141 82.7367L104.977 82.5258C104.805 82.6752 104.651 82.8334 104.424 82.8334C104.197 82.8334 104.179 82.7279 104.179 82.4729V79.2984C104.179 78.1991 103.271 77.6627 101.61 77.6627C99.9494 77.6627 99.1054 78.1641 99.1054 78.8676C99.1041 78.9622 99.1229 79.0561 99.1607 79.1432C99.1984 79.2306 99.2544 79.3093 99.3252 79.3745C99.396 79.4398 99.48 79.4902 99.5718 79.5224C99.6635 79.5548 99.7613 79.5684 99.8587 79.5622C100.494 79.5622 100.676 79.1226 100.821 78.6829C100.966 78.2432 101.066 77.9353 101.638 77.9353C101.745 77.925 101.853 77.9382 101.954 77.9744C102.055 78.0106 102.146 78.0687 102.221 78.1442C102.295 78.2196 102.351 78.3105 102.383 78.4099C102.416 78.5095 102.425 78.6149 102.409 78.7179V79.5007C102.409 79.7381 102.291 79.8437 102.064 79.9228L101.111 80.2481C99.5774 80.7845 98.8695 81.2859 98.8695 82.0861C98.8603 82.2827 98.8954 82.479 98.9719 82.6612C99.0487 82.8436 99.1653 83.0078 99.3135 83.1423C99.4619 83.2768 99.6386 83.3787 99.8313 83.4408C100.024 83.5028 100.229 83.5235 100.431 83.5019V83.4754ZM102.346 80.1425V81.7606C102.348 81.875 102.327 81.9884 102.281 82.0939C102.236 82.1995 102.169 82.2947 102.083 82.3735C101.997 82.4522 101.896 82.5127 101.785 82.5511C101.674 82.5894 101.556 82.6047 101.438 82.5961C101.331 82.5852 101.227 82.5537 101.132 82.5034C101.038 82.453 100.955 82.3848 100.888 82.3028C100.821 82.2208 100.772 82.1267 100.743 82.0261C100.715 81.9256 100.707 81.8202 100.721 81.7167C100.721 80.8901 101.238 80.424 102.327 80.1251L102.346 80.1425ZM41.0125 51.44C40.3691 52.246 39.555 52.9092 38.6252 53.3855C37.6955 53.8617 36.6716 54.1399 35.6218 54.2012C34.7967 54.2301 33.9803 54.0292 33.2694 53.6224C32.5584 53.2157 31.9827 52.6201 31.6103 51.9061C30.9348 50.4256 30.645 48.8071 30.7662 47.1927H41.6569V46.9816C41.6569 42.5848 38.9344 39.8412 34.2875 39.8412C28.7514 39.8412 25.0849 43.4202 25.0849 48.4062C25.0849 53.2427 28.7151 56.6898 33.9427 56.6898C35.5414 56.6084 37.0904 56.1243 38.4369 55.2854C39.7836 54.4464 40.881 53.2816 41.6207 51.9061L41.0125 51.44ZM36.8651 46.2078H30.7753C30.8842 43.5697 31.7827 40.6942 33.9609 40.6942C36.139 40.6942 36.8651 42.7958 36.8651 45.434V46.2078ZM76.4801 51.44C75.8386 52.2461 75.0264 52.9098 74.0982 53.386C73.1698 53.8623 72.1468 54.1403 71.0981 54.2012C70.2727 54.2322 69.4555 54.0324 68.744 53.6253C68.0327 53.2184 67.4574 52.6214 67.0868 51.9061C66.3893 50.4311 66.0775 48.8122 66.1792 47.1927H77.1425V46.9816C77.1425 42.5848 74.42 39.8412 69.7551 39.8412C64.228 39.8412 60.5705 43.4202 60.5705 48.4062C60.5705 53.2427 64.2007 56.6898 69.4193 56.6898C71.017 56.6095 72.5653 56.1258 73.9106 55.2867C75.2558 54.4476 76.3512 53.2822 77.088 51.9061L76.4801 51.44ZM72.3324 46.2078H66.2518C66.3698 43.5697 67.2773 40.6942 69.4465 40.6942C71.6156 40.6942 72.3416 42.7958 72.3416 45.434L72.3324 46.2078ZM122.72 69.0714C122.083 69.8818 121.272 70.5484 120.342 71.0251C119.413 71.5019 118.388 71.7774 117.338 71.8326C116.515 71.8652 115.699 71.6678 114.988 71.2642C114.277 70.8603 113.7 70.2672 113.327 69.5551C112.651 68.0778 112.358 66.4626 112.474 64.8503H123.365V64.657C123.365 60.2601 120.642 57.5165 115.977 57.5165C110.45 57.5165 106.793 61.113 106.793 66.0816C106.793 71.05 110.423 74.3651 115.641 74.3651C117.235 74.2827 118.779 73.799 120.121 72.9616C121.462 72.1242 122.555 70.9621 123.292 69.5902L122.72 69.0714ZM118.582 63.848H112.537C112.646 61.2097 113.545 58.3167 115.723 58.3167C117.901 58.3167 118.627 60.4271 118.627 63.074L118.582 63.848ZM95.6658 80.9956V81.9541C95.6658 82.7191 95.0034 83.1676 93.996 83.1676C92.4894 83.1676 91.5184 81.5935 91.5184 79.4919C91.5184 77.3901 92.5256 75.7722 94.1412 75.7722C94.7792 75.7659 95.3979 75.9845 95.8822 76.3874C96.3662 76.7901 96.6828 77.3497 96.773 77.9618H97.2269L97.1088 75.5084H96.764C96.7502 75.6375 96.7034 75.7615 96.6278 75.869C96.5461 76.0096 96.4554 76.1414 96.4554 76.1414C95.6256 75.5739 94.6191 75.3006 93.6057 75.3676C92.8975 75.3463 92.195 75.496 91.5613 75.8029C90.9277 76.11 90.3827 76.5648 89.9755 77.1263C89.4337 77.8514 89.1531 78.7291 89.1767 79.6237C89.1767 81.9453 90.9919 83.581 93.6147 83.581C94.518 83.5499 95.4064 83.3467 96.2285 82.9831C96.6978 82.8354 97.1997 82.8141 97.6807 82.9214V80.9253C97.6807 80.3625 97.9076 80.1778 98.6609 80.1778V79.8613H94.5677V80.1778H94.7221C95.3663 80.1778 95.6296 80.424 95.6296 80.978L95.6658 80.9956ZM115.514 83.4402C116.355 83.2089 117.214 83.0471 118.083 82.9566V82.7631C117.447 82.7631 117.175 82.6225 117.175 82.2267V75.1214C116.231 75.3347 115.267 75.4496 114.298 75.4644V75.649C115.124 75.649 115.324 75.7722 115.324 76.3173V78.3576C115.078 78.1112 114.781 77.9185 114.452 77.7926C114.123 77.6668 113.771 77.6104 113.418 77.6277C113.03 77.6282 112.647 77.7053 112.292 77.8537C111.936 78.0022 111.615 78.2191 111.349 78.4913C111.083 78.7633 110.876 79.0852 110.742 79.4371C110.607 79.7891 110.548 80.1636 110.568 80.5383C110.531 80.9094 110.575 81.2838 110.698 81.637C110.821 81.9901 111.02 82.3141 111.281 82.5875C111.543 82.8608 111.861 83.0773 112.215 83.2229C112.569 83.3683 112.951 83.4394 113.336 83.4314C113.735 83.4545 114.133 83.3729 114.487 83.1948C114.842 83.0168 115.14 82.7491 115.351 82.4202L115.514 83.4402ZM114.026 78.1641C114.2 78.1497 114.376 78.1733 114.54 78.2331C114.704 78.2926 114.852 78.3871 114.974 78.5091C115.095 78.6312 115.187 78.7781 115.243 78.9388C115.299 79.0998 115.317 79.2706 115.296 79.439V81.2594C115.296 82.2355 114.788 82.7543 113.899 82.7543C113.009 82.7543 112.628 81.875 112.628 80.5119C112.628 79.149 113.136 78.1641 114.026 78.1641ZM83.4954 83.4578C84.3387 83.2248 85.2009 83.063 86.073 82.9743V82.7808C85.4376 82.7808 85.1655 82.6399 85.1655 82.2443V75.1214C84.2188 75.3358 83.2513 75.4508 82.2793 75.4644V75.649C83.1144 75.649 83.323 75.7722 83.323 76.3173V78.3576C83.0754 78.1139 82.778 77.9231 82.4496 77.7974C82.1215 77.6717 81.7698 77.6139 81.4171 77.6277C81.0299 77.6282 80.6469 77.7053 80.2913 77.8537C79.9358 78.0022 79.6149 78.2191 79.3485 78.4913C79.082 78.7633 78.8754 79.0852 78.7412 79.4371C78.6069 79.7891 78.5477 80.1636 78.5674 80.5383C78.5306 80.9056 78.5737 81.2763 78.694 81.6263C78.8142 81.9765 79.0089 82.2982 79.2655 82.571C79.5221 82.8436 79.8349 83.061 80.1836 83.2093C80.5324 83.3574 80.9093 83.4331 81.2901 83.4314C81.6873 83.453 82.0833 83.3704 82.4362 83.1925C82.7891 83.0147 83.0862 82.7478 83.2958 82.4202L83.4954 83.4578ZM82.007 78.1817C82.1819 78.1675 82.3578 78.1913 82.5221 78.2509C82.6865 78.3105 82.8351 78.4047 82.9575 78.5266C83.0798 78.6484 83.1727 78.7952 83.2296 78.9559C83.2866 79.1166 83.3061 79.2877 83.2868 79.4567V81.2771C83.2868 82.2532 82.7693 82.7719 81.8891 82.7719C81.0088 82.7719 80.6003 81.8926 80.6003 80.5295C80.6003 79.1664 81.1177 78.1817 82.007 78.1817ZM124.245 83.0972V83.3084C124.817 83.3084 125.361 83.3084 125.869 83.3084C126.378 83.3084 126.94 83.3084 127.739 83.3084V83.0972C127.095 83.0972 126.94 82.8951 126.94 82.3146V79.9404C126.94 78.9643 127.485 78.3576 128.256 78.3576C128.792 78.3576 129.055 78.7268 129.055 79.4302V82.3673C129.055 82.939 128.928 83.0972 128.302 83.0972V83.3084C128.946 83.3084 129.5 83.3084 129.972 83.3084C130.444 83.3084 131.106 83.3084 131.714 83.3084V83.0972C130.988 83.0446 130.934 82.9302 130.934 82.3673V79.6502C130.934 78.3223 130.28 77.6627 129.055 77.6627C128.617 77.666 128.186 77.7714 127.799 77.9704C127.412 78.1695 127.08 78.4561 126.831 78.8059L126.75 77.6627C125.936 77.9068 125.095 78.0543 124.245 78.1024V78.2871C124.916 78.2871 125.071 78.4541 125.071 79.1664V82.4114C125.071 82.9654 124.998 83.071 124.245 83.1413V83.0972ZM71.0347 83.1413V83.3522C71.6156 83.3522 72.16 83.3522 72.6682 83.3522C73.1765 83.3522 73.7392 83.3522 74.5379 83.3522V83.1413C73.8843 83.1413 73.7392 82.939 73.7392 82.3587V79.9843C73.7392 79.0082 74.2838 78.4015 75.0551 78.4015C75.5726 78.4015 75.8447 78.7708 75.8447 79.4743V82.4114C75.8447 82.9829 75.7085 83.1413 75.0914 83.1413V83.3522C75.7268 83.3522 76.2985 83.3522 76.7704 83.3522C77.2424 83.3522 77.8868 83.3522 78.513 83.3522V83.1413C77.7688 83.0884 77.7234 82.9743 77.7234 82.4114V79.6502C77.7234 78.3223 77.07 77.6627 75.8447 77.6627C75.4071 77.662 74.9759 77.766 74.5897 77.9654C74.2033 78.1649 73.8738 78.4536 73.6302 78.8059L73.5487 77.6627C72.7315 77.9053 71.8877 78.053 71.0347 78.1024V78.2871C71.7063 78.2871 71.8697 78.4541 71.8697 79.1664V82.4114C71.8697 82.9654 71.797 83.071 71.0347 83.1413ZM66.3063 83.4842C67.042 83.4473 67.7332 83.1313 68.2302 82.6049C68.2978 82.8681 68.4579 83.1001 68.6834 83.2607C68.909 83.4214 69.1853 83.5003 69.4645 83.4842C69.7639 83.4823 70.0591 83.4149 70.3278 83.2869C70.5966 83.1591 70.8319 82.9741 71.0164 82.7455L70.844 82.5346C70.6716 82.684 70.5264 82.8423 70.2996 82.8423C70.0727 82.8423 70.0637 82.7367 70.0637 82.4817V79.2984C70.0637 78.1991 69.156 77.6627 67.5044 77.6627C65.8525 77.6627 64.9903 78.1641 64.9903 78.8676C64.989 78.9622 65.0078 79.0561 65.0455 79.1432C65.0833 79.2306 65.1393 79.3093 65.2101 79.3745C65.2808 79.4398 65.3649 79.4902 65.4565 79.5224C65.5484 79.5548 65.6462 79.5684 65.7436 79.5622C66.3608 79.5622 66.5422 79.1226 66.6511 78.6829C66.7601 78.2432 66.9144 77.9353 67.4861 77.9353C68.0578 77.9353 68.2394 78.1992 68.2394 78.7179V79.5007C68.2485 79.5963 68.221 79.6921 68.1627 79.7697C68.1042 79.8475 68.0185 79.9019 67.9217 79.9228L66.9507 80.2481C65.426 80.7845 64.718 81.2859 64.718 82.0861C64.7092 82.2819 64.7439 82.4773 64.82 82.6589C64.8961 82.8405 65.0118 83.0041 65.1591 83.1386C65.3064 83.2729 65.4818 83.375 65.6736 83.4377C65.8654 83.5003 66.0687 83.5222 66.2701 83.5019L66.3063 83.4842ZM68.185 80.1425V81.7606C68.1879 81.875 68.166 81.9884 68.1207 82.0939C68.0755 82.1995 68.008 82.2947 67.9224 82.3735C67.8369 82.4522 67.7355 82.5127 67.6242 82.5511C67.5132 82.5894 67.395 82.6047 67.2775 82.5961C67.1685 82.5875 67.0627 82.5574 66.9662 82.5081C66.8698 82.4587 66.7846 82.3909 66.7158 82.3087C66.6471 82.2265 66.5963 82.1317 66.5666 82.03C66.5366 81.9282 66.5284 81.8215 66.5422 81.7167C66.5422 80.8901 67.0686 80.424 68.1485 80.1251L68.185 80.1425ZM124.726 71.4809C124.726 72.1667 124.726 73.0549 124.681 74.1189H125.497L125.997 72.879C127.508 73.9243 129.343 74.4392 131.197 74.3388C135.009 74.3388 137.595 72.1667 137.55 69.0626C137.55 66.3366 136.07 64.9032 132.041 63.6457C129.418 62.8278 127.975 62.2651 127.966 60.6821C127.966 59.3367 129.182 58.3167 130.861 58.3167C133.103 58.3167 134.836 59.4072 135.689 62.4496H136.415C136.415 61.5703 136.37 60.7526 136.361 60.0227C136.352 59.2928 136.361 58.519 136.361 57.6835H135.626L135.018 58.7652C133.715 57.8881 132.156 57.441 130.571 57.49C127.158 57.49 124.444 59.583 124.472 62.7048C124.499 65.8264 126.614 66.7498 130.48 68.1129C132.485 68.8428 133.684 69.4584 133.693 70.9004C133.686 71.2609 133.604 71.6163 133.45 71.9447C133.297 72.2732 133.075 72.5675 132.8 72.8098C132.524 73.0522 132.2 73.2371 131.848 73.3534C131.496 73.4696 131.123 73.5147 130.752 73.4857C127.766 73.4857 126.133 71.34 125.307 68.7284H124.563C124.644 69.8275 124.653 70.7157 124.653 71.4456L124.726 71.4809ZM77.0245 73.2836V73.9607C78.3133 73.8903 79.838 73.8551 81.5625 73.8551C83.1506 73.8551 84.6753 73.8551 86.1909 73.9607V73.2836C84.4574 73.1692 84.2305 72.5713 84.2305 70.795V64.3491C84.2305 61.4912 85.8098 59.6181 87.6521 59.6181C89.1677 59.6181 89.7304 60.4974 89.7304 62.2563V71.05C89.7304 72.8087 89.3584 73.2572 87.6521 73.2836V73.9607C88.0968 73.9607 89.6759 73.8551 92.326 73.8551C93.7327 73.8551 95.1758 73.8551 96.6915 73.9607V73.2836C94.9942 73.2836 94.7673 72.6767 94.7673 70.795V64.3491C94.7673 61.4561 96.3192 59.6181 98.2434 59.6181C99.6773 59.6181 100.276 60.5591 100.276 62.4322V70.9004C100.276 72.7823 99.8679 73.2836 98.1617 73.3275V73.9607C99.5956 73.8903 101.302 73.8551 103.162 73.8551C104.614 73.8551 106.012 73.8551 107.473 73.9607V73.2836C105.386 73.2131 105.286 72.8175 105.286 70.9004V63.1619C105.286 59.3895 104.006 57.4812 100.349 57.4812C99.1856 57.5023 98.0476 57.8146 97.0457 58.3878C96.0438 58.961 95.2121 59.7756 94.6312 60.7526C94.3314 59.7698 93.6997 58.9131 92.8374 58.32C91.975 57.7266 90.9319 57.4314 89.8756 57.4812C88.6846 57.4994 87.5201 57.8263 86.5035 58.4276C85.4869 59.0292 84.6551 59.8836 84.0945 60.9021L83.8677 57.4812C81.6578 58.1914 79.3589 58.6085 77.0336 58.7211V59.2752C78.9305 59.2752 79.1936 59.926 79.1936 61.7287V71.05C79.1936 72.7119 78.9305 73.0725 77.0065 73.2836H77.0245ZM68.2575 57.5517C62.6216 57.5517 59.1003 61.1571 59.1003 66.0025C59.1003 70.8477 62.903 74.3651 68.1758 74.3651C73.7664 74.3651 77.5147 70.8477 77.5147 65.7299C77.5147 60.9988 73.5305 57.5517 68.2302 57.5517H68.2575ZM68.3484 73.5474C65.5077 73.5474 64.718 70.7071 64.718 66.0816C64.718 61.4561 65.6257 58.3782 68.2847 58.3782C70.7715 58.3782 71.9876 61.2538 71.9876 65.6946C71.9876 70.5574 71.0801 73.5474 68.3574 73.5474H68.3484ZM30.0402 82.684V83.4578C32.6812 83.3875 34.8867 83.3434 36.7017 83.3434C38.0994 83.3434 40.3319 83.3434 43.4086 83.4578V82.684C40.577 82.5608 39.7784 81.6991 39.7784 78.9819V70.6278H51.2862V78.9819C51.2862 81.875 50.8597 82.6049 47.656 82.684V83.4578C50.3787 83.3875 52.584 83.3434 54.3265 83.3434C55.8874 83.3434 58.1384 83.3434 61.0425 83.4578V82.684C58.1836 82.6311 57.4123 81.6991 57.4123 78.9819V62.1243C57.4123 59.6622 58.1201 58.7564 60.8791 58.7564H61.0243V57.9385C59.6266 58.0617 57.9658 58.0617 56.069 58.0617C53.9 58.0617 51.1046 58.0617 47.6378 57.9385V58.7564C50.9776 58.8091 51.268 59.5478 51.268 62.1243V69.3967H39.8147V62.1243C39.8147 59.706 40.6132 58.7564 42.9821 58.7564H43.4086V57.9385C40.7676 58.0177 38.5259 58.0617 36.7017 58.0617C34.8775 58.0617 32.6722 58.0617 30.0402 57.9385V58.7564H30.2853C33.3256 58.7564 33.6432 59.583 33.6432 62.1243V78.9379C33.6432 81.8309 33.2166 82.5608 30.0129 82.6399L30.0402 82.684ZM76.8704 55.6346V56.303C79.0484 56.2325 80.6458 56.2325 81.7621 56.2325C83.5771 56.2325 85.1382 56.2766 86.8353 56.303V55.6699C84.9021 55.6699 84.2487 55.3796 84.2487 53.9112V45.6626C84.2487 43.9039 85.4196 42.2331 86.3997 42.2331C87.3798 42.2331 87.6158 44.8184 89.3219 44.8184C89.6274 44.8418 89.9343 44.8012 90.2219 44.6994C90.5096 44.5975 90.7714 44.4369 90.9893 44.2282C91.2071 44.0197 91.3761 43.768 91.4846 43.4905C91.5932 43.213 91.6386 42.9161 91.6181 42.62C91.6181 40.9844 90.5018 40.0522 88.5778 40.0522C87.5919 40.1686 86.6514 40.5215 85.8415 41.0788C85.0318 41.6362 84.3782 42.3805 83.9402 43.2443L83.7223 39.9115C81.5187 40.6173 79.2252 41.0257 76.9066 41.125V41.6878C78.8398 41.6878 79.2118 42.6376 79.2118 44.9855V53.7792C79.2118 55.1511 78.6764 55.4764 76.8704 55.661V55.6346ZM0 56.3821C1.8968 56.2678 3.63024 56.1886 5.22754 56.1886C7.86854 56.1886 10.2645 56.3821 12.3973 56.3821C19.9935 56.3821 23.8779 53.9638 23.8779 49.5054C23.8779 45.5043 20.7741 43.3499 15.1018 42.6727C19.7939 42.022 22.208 39.9819 22.208 36.8777C22.208 32.7974 18.6866 30.8013 11.5078 30.8013C9.46584 30.8013 7.26048 31.0299 4.81007 31.0299C3.63024 31.0299 2.01479 30.9596 0 30.8013V31.6279C3.01311 31.6279 3.63024 32.3314 3.63024 34.8639V52.0205C3.63024 54.6585 2.92234 55.4499 0 55.494V56.3821ZM10.5368 42.3562C10.2645 42.3562 9.94685 42.3562 9.6292 42.3562V32.6831C9.6292 32.1115 9.73811 31.962 11.0268 31.962C14.2487 31.962 15.7825 34.1077 15.7825 37.0448C15.7825 40.6062 14.3576 42.4089 10.5095 42.4089L10.5368 42.3562ZM9.60199 50.8947V43.385C10.0467 43.385 10.5095 43.385 10.8726 43.385C15.0473 43.385 16.9532 45.39 16.9532 49.0833C16.9532 52.7766 15.5828 55.1511 12.7058 55.1511C10.3734 55.1511 9.69274 53.9374 9.69274 50.8421" fill="#3B4A69"/>
</g>
<defs>
<clipPath id="clip0_1231_28941">
<rect width="140" height="140" fill="white"/>
</clipPath>
</defs>
</svg>
