<svg width="140" height="140" viewBox="0 0 140 140" fill="none" xmlns="http://www.w3.org/2000/svg">
<g clip-path="url(#clip0_1231_28943)">
<path d="M19.6381 65.4343V65.2292C19.6381 62.5625 18.8835 60.3061 17.374 58.7676C15.6759 57.024 13.1288 56.1009 10.1098 56.1009H0.015625V83.8957H5.77049V74.8702H9.07237L13.9779 83.8957H20.4873L14.8269 73.6394C16.9967 72.5112 19.6381 70.255 19.6381 65.4343ZM13.8833 65.5369C13.8833 68.101 12.2795 69.6393 9.63809 69.6393H5.77011V61.5368H9.63809C12.3739 61.5368 13.8833 62.8701 13.8833 65.5369ZM100.488 55.9985L90.8652 83.8961H96.62L98.6012 77.9473H107.563L109.544 83.8961H115.488L105.865 55.9985H100.488ZM105.771 72.7164H100.299L103.035 64.2038L105.771 72.7164ZM132.186 69.7421L139.828 56.2036H133.507L128.979 65.0241L124.545 56.2036H117.941L125.488 69.8448L117.564 83.9985H123.884L128.696 74.6652L133.507 83.9985H140.017L132.186 69.7421ZM31.4296 78.5625V72.6138H41.7127V67.2806H31.4296V61.5368H43.0334V56.1009H25.7692V83.8957H36.5237L39.1653 78.5625H31.4296ZM80.485 56.1009L74.7302 65.1264L68.8812 56.1009H68.7867L62.9377 68.2035V83.8957H68.5035V66.665L74.5412 75.1776V75.2802H74.8243L80.9564 66.6648V83.8956H86.5223V56.1008L80.485 56.1009Z" fill="#3B4A69"/>
<path d="M55.8732 56.0981L42.3828 83.8926H49.3639L62.8543 56.0981H55.8732Z" fill="#3B4A69"/>
</g>
<defs>
<clipPath id="clip0_1231_28943">
<rect width="140" height="140" fill="white"/>
</clipPath>
</defs>
</svg>
