<svg width="140" height="140" viewBox="0 0 140 140" fill="none" xmlns="http://www.w3.org/2000/svg">
<path d="M125.598 51.9114L122.27 59.7515H123.051L129.378 51.9114H125.598Z" fill="#3B4A69"/>
<path d="M7.84811 70.9126C5.71739 70.9126 3.83513 70.3946 2.4506 69.7037L1.06568 70.9126H0.426351L0 63.2454L0.745429 63.1761C2.98297 68.1504 5.61121 69.7378 8.06111 69.7378C10.6183 69.7378 12.1096 68.1158 12.1096 65.9397C12.1096 63.8668 11.2925 62.8649 7.95531 61.5177C6.81848 61.0691 5.50479 60.62 4.40323 60.1017C1.91752 58.8928 0.603756 56.9926 0.603756 54.4715C0.603756 50.3607 4.26148 47.8741 7.84811 47.8741C9.62389 47.8741 10.831 48.358 12.0037 49.014L13.388 47.8398H13.9917L14.5962 54.6093L13.8852 54.7135C11.9322 50.914 9.83757 49.0481 7.52896 49.0481C5.50479 49.0481 4.15506 50.3607 4.15506 52.3988C4.15506 54.0222 4.86514 55.266 7.38611 56.337C8.62936 56.8894 10.0862 57.3731 11.4 57.9949C14.2755 59.3422 15.626 61.1031 15.626 63.66C15.626 68.2183 11.6836 70.9126 7.84811 70.9126Z" fill="#3B4A69"/>
<path d="M26.4906 70.9473C21.093 70.9473 18.4297 67.1831 18.4297 62.5888C18.4297 58.3406 21.4834 54.2648 26.9521 54.2648C32.3504 54.2648 34.9432 57.995 34.9432 62.5546C34.9432 66.8378 31.9603 70.9473 26.4906 70.9473ZM26.6332 55.2314C24.1474 55.2314 22.6202 57.9256 22.6202 62.6584C22.6202 67.3215 24.2543 69.9791 26.7752 69.9791C29.3675 69.9791 30.7882 67.2871 30.7882 62.5546C30.7882 57.892 29.2612 55.2314 26.6332 55.2314Z" fill="#3B4A69"/>
<path d="M42.6492 70.8091C39.8434 70.8091 38.9562 69.4628 38.9562 66.9761V56.6473H36.3281V56.1644L39.5949 53.6422L42.188 50.3607H42.7204V54.8515H48.1187V56.6473H42.7204V65.5939C42.7204 66.9761 42.9328 67.8045 43.6438 68.288C44.2474 68.7032 45.0644 68.8408 46.2365 68.8408C46.8044 68.8408 47.5149 68.8058 48.1889 68.7715L48.2242 69.2556C46.8393 70.0833 44.5665 70.8091 42.6492 70.8091Z" fill="#3B4A69"/>
<path d="M59.2404 56.8898C57.8905 56.8898 56.8611 57.132 55.5465 57.7538V69.1867L57.5351 69.9109V70.395H49.5099V69.9109L51.747 69.1867V48.3235L49.2969 46.7691V46.4237L55.4047 44.8002L55.5465 44.9038V56.993L55.6892 57.0623C57.7844 55.1281 59.7023 54.2649 61.6197 54.2649C64.8156 54.2649 66.165 56.6137 66.165 59.0661V69.1867L68.4031 69.9109V70.395H60.3764V69.9109L62.3657 69.1867V60.4823C62.3657 58.2369 61.4423 56.8898 59.2404 56.8898Z" fill="#3B4A69"/>
<path d="M73.6554 61.4144C73.6554 65.8017 74.9336 68.6685 78.9464 68.6685C80.7223 68.6685 82.1786 68.3228 84.3094 67.563L84.522 67.9778C82.3559 69.807 79.9413 70.9473 77.6681 70.9473C72.8034 70.9473 69.6055 67.7014 69.6055 62.9C69.6055 57.9607 73.4419 54.2648 77.7747 54.2648C82.4633 54.2648 84.7348 57.3387 84.6987 61.4144H73.6554ZM80.7223 60.2404C80.5804 56.9929 79.6214 55.2314 77.5259 55.2314C75.4662 55.2314 73.8682 57.3387 73.6905 60.5508L80.7223 60.2404Z" fill="#3B4A69"/>
<path d="M94.1512 70.9473C92.3051 70.9473 89.8546 70.5332 88.1499 70.0492V48.3238L85.6641 46.7693V46.4234L91.807 44.8004L91.9502 44.9037V56.4749L92.0917 56.5447C93.3346 55.3354 95.0399 54.2648 97.2402 54.2648C100.615 54.2648 103.669 57.27 103.669 62.2089C103.669 67.1488 99.8336 70.9473 94.1512 70.9473ZM94.7544 56.6827C93.6898 56.6827 92.802 56.8897 91.9502 57.2352V68.1845C93.0497 69.2902 94.4712 69.7723 95.8206 69.7723C97.9154 69.7723 99.655 67.9431 99.655 63.0727C99.655 58.7899 97.773 56.6827 94.7544 56.6827Z" fill="#3B4A69"/>
<path d="M113.396 71.463C111.62 75.7124 109.951 77.5781 107.749 77.5781C105.867 77.5781 104.98 76.5077 104.98 75.4014C104.98 74.3308 105.974 73.4338 107.11 73.4338C108.317 73.4338 109.028 74.0546 109.88 75.091C110.555 74.3658 111.371 73.1217 111.833 72.1539L112.437 70.8424L106.151 56.0937L103.984 55.2651V54.8163H112.65V55.2651L110.377 56.0937L114.212 66.2151H114.39L117.87 56.3361L115.812 55.2651V54.8163H121.918V55.2651L119.61 56.4047L113.396 71.463Z" fill="#3B4A69"/>
<path d="M133.643 70.9468C131.69 70.9468 130.021 70.6354 128.387 70.0139L128.352 65.4553L129.062 65.3868C130.98 68.668 132.436 69.9103 134.318 69.9103C135.987 69.9103 137.017 68.8749 137.017 67.2866C137.017 65.4902 135.135 64.7993 133.111 64.0048C130.874 63.0722 128.494 62.0357 128.494 59.1693C128.494 56.4401 130.98 54.2643 134.602 54.2643C135.987 54.2643 137.939 54.5406 138.899 54.886L139.006 58.9964L138.331 59.1693C136.591 56.3714 135.454 55.3002 133.82 55.3002C132.329 55.3002 131.405 56.2678 131.405 57.5108C131.405 59.3073 133.323 60.0323 135.347 60.827C137.585 61.7257 140 62.7614 140 65.6976C140 68.9098 137.087 70.9468 133.643 70.9468Z" fill="#3B4A69"/>
<path d="M135.885 92.2483H136.678V88.7071L139.459 84.2096H138.61L136.299 88.0447L133.975 84.2096H133.116L135.885 88.7071V92.2483ZM128.749 92.2483H129.542V84.9266H132.211V84.2096H126.08V84.9266H128.749V92.2483ZM121.703 92.2483H126.538V91.5414H122.496V84.2096H121.703V92.2483ZM114.891 89.0871L116.309 85.0895H116.331L117.749 89.0871H114.891ZM112.992 92.2483H113.762L114.644 89.7713H117.995L118.877 92.2483H119.704L116.777 84.1772H115.918L112.992 92.2483ZM106.805 92.2483H111.976V91.5414H107.598V88.3485H110.691V87.6531H107.598V84.9266H111.741V84.2096H106.805V92.2483ZM99.4232 87.9572V84.9157H101.344C102.729 84.9157 103.488 85.3069 103.488 86.4152C103.488 87.5777 102.717 87.9572 101.355 87.9572H99.4232ZM98.6419 92.2483H99.4232V88.6414H101.478L103.5 92.2483H104.392L102.305 88.5548C103.5 88.3378 104.281 87.6855 104.281 86.3826C104.281 84.9705 103.254 84.2096 101.411 84.2096H98.6419V92.2483ZM89.0715 92.2483H93.9074V91.5414H89.8641V84.2096H89.0715V92.2483ZM82.0584 89.0871L83.4766 85.0895H83.4991L84.9169 89.0871H82.0584ZM80.1597 92.2483H80.93L81.8127 89.7713H85.1625L86.0445 92.2483H86.8714L83.9456 84.1772H83.0853L80.1597 92.2483ZM71.8401 92.2483H72.5883V85.4154H72.6106L77.3116 92.2483H78.0155V84.2096H77.2671V90.8362H77.2448L72.6884 84.2096H71.8401V92.2483ZM65.8205 91.7047C64.2566 91.7047 63.1289 90.4125 63.1289 88.2291C63.1289 86.0452 64.2566 84.7641 65.8205 84.7641C67.384 84.7641 68.5117 86.0452 68.5117 88.2291C68.5117 90.4125 67.384 91.7047 65.8205 91.7047ZM65.8205 92.3999C67.8418 92.3999 69.3045 90.7488 69.3045 88.2291C69.3045 85.7092 67.8418 84.058 65.8205 84.058C63.7989 84.058 62.3359 85.7092 62.3359 88.2291C62.3359 90.7488 63.7989 92.3999 65.8205 92.3999ZM59.1644 92.2483H59.9572V84.2096H59.1644V92.2483ZM53.804 92.2483H54.597V84.9266H57.2662V84.2096H51.1349V84.9266H53.804V92.2483ZM45.8082 89.0871L47.2266 85.0895H47.2489L48.6673 89.0871H45.8082ZM43.9097 92.2483H44.6804L45.5626 89.7713H48.9126L49.7951 92.2483H50.6215L47.6954 84.1772H46.8356L43.9097 92.2483ZM35.6007 92.2483H36.3493V85.4154H36.3716L41.0732 92.2483H41.7767V84.2096H41.0285V90.8362H41.0062L36.4496 84.2096H35.6007V92.2483ZM27.996 87.9572V84.9157H29.9167C31.3016 84.9157 32.0609 85.3069 32.0609 86.4152C32.0609 87.5777 31.2904 87.9572 29.9281 87.9572H27.996ZM27.2142 92.2483H27.996V88.6414H30.0503L32.0719 92.2483H32.9658L30.8774 88.5548C32.0719 88.3378 32.8537 87.6855 32.8537 86.3826C32.8537 84.9705 31.826 84.2096 29.9837 84.2096H27.2142V92.2483ZM19.8994 92.2483H25.07V91.5414H20.6924V88.3485H23.7856V87.6531H20.6924V84.9266H24.8355V84.2096H19.8994V92.2483ZM14.6505 92.2483H15.4437V84.9266H18.1127V84.2096H11.9812V84.9266H14.6505V92.2483ZM4.01895 92.2483H4.7672V85.4154H4.78961L9.49131 92.2483H10.1948V84.2096H9.44641V90.8362H9.42407L4.86758 84.2096H4.01895V92.2483ZM0.367188 92.2483H1.16018V84.2096H0.367188V92.2483Z" fill="#3B4A69"/>
</svg>
