<svg width="140" height="140" viewBox="0 0 140 140" fill="none" xmlns="http://www.w3.org/2000/svg">
<path d="M108.585 50.7145C107.832 49.9061 106.564 49.1392 105.038 49.1392C100.137 49.1392 98.5244 53.3678 98.5244 57.3478C98.5244 61.0582 100.201 64.7273 104.823 64.7273C106.091 64.7273 107.574 64.0225 108.047 63.2555V64.5407C108.047 66.8416 107.854 67.9402 104.758 67.9402C103.275 67.9402 101.534 67.422 100.008 66.655L98.9973 69.412C100.996 70.3655 102.888 70.9459 104.973 70.9459C106.586 70.9459 108.864 70.6972 110.326 69.4742C111.874 68.2512 111.938 66.0746 111.938 63.9603L111.96 49.0977L108.886 49.5745C108.886 49.533 108.649 50.3829 108.585 50.7145ZM108.047 58.4879C108.047 59.1926 107.983 59.8974 107.703 60.4778C107.359 61.1826 106.693 61.6387 105.833 61.6387C103.361 61.6387 103.082 59.9803 103.082 56.8296C103.082 54.0104 103.619 52.3521 105.769 52.3521C106.844 52.3521 107.639 52.8703 108.047 53.3057V58.4879Z" fill="#3B4A69"/>
<path d="M93.4079 87.011L93.4294 81.8909C93.4294 80.3155 93.3649 79.8388 93.15 79.1962C92.5481 77.5379 90.7424 76.5636 88.0553 76.5636C86.572 76.5636 85.2392 76.8124 83.6915 77.455C82.8316 77.8074 81.9932 78.2634 81.1979 78.7194L82.7241 81.3313C84.6158 80.1912 86.0991 79.7351 87.4319 79.7351C88.9796 79.7351 89.3451 80.3985 89.3451 82.0568V82.6372H88.3777C83.3475 82.6372 80.8109 84.2955 80.8109 87.8194C80.8109 90.5556 82.3587 92.2554 85.3252 92.5248H87.0019C87.9478 92.4212 88.7432 92.131 89.3881 91.7371C89.732 91.5506 90.0545 91.2189 90.3984 90.8873C90.7424 91.5299 91.3872 92.131 92.1181 92.5248L92.6126 92.7529L92.8275 92.5248L94.9557 90.3276C93.5584 89.3119 93.4079 88.5656 93.4079 87.011ZM87.0664 89.7057C85.9916 89.7057 85.2607 88.8766 85.2607 87.7157C85.2607 85.9123 86.2066 85.249 89.0871 85.249H89.3236V88.7729C88.7002 89.4155 87.8618 89.7057 87.0664 89.7057Z" fill="#3B4A69"/>
<path d="M17.3747 43.9984H0.671875V59.9803L9.07704 68.0439L25.8014 52.0619L17.3747 43.9984Z" fill="#3B4A69"/>
<path d="M0.671875 76.1074V92.1101H17.3747L25.8014 84.0466L9.07704 68.0439L0.671875 76.1074Z" fill="#3B4A69"/>
<path d="M34.2059 92.1101H50.8228V75.9831L42.5251 68.0439L25.8014 84.0466L34.2059 92.1101Z" fill="#3B4A69"/>
<path d="M25.8014 52.0619L42.5251 68.0439L50.8228 60.1047V43.9984H34.2059L25.8014 52.0619Z" fill="#3B4A69"/>
<path d="M139.24 61.8252C138.509 62.0118 138.165 62.1569 137.778 62.1569C136.359 62.1569 135.972 61.6386 135.972 59.7109V52.1448H138.573L139.648 49.3879H135.972V45.2214L131.888 45.864V49.3879H130.276V52.1448H131.888V60.3535C131.888 61.763 131.888 62.0118 132.146 62.6751C132.619 64.0225 134.296 64.9138 136.359 64.9138C137.434 64.9138 138.573 64.6651 139.777 64.209L139.24 61.8252Z" fill="#3B4A69"/>
<path d="M63.2272 53.8031L69.6977 64.52H75.1578L67.7415 53.4922L74.4269 43.9984H69.3322L63.2272 53.3678V43.9984H58.8849V64.52H63.2272V53.8031Z" fill="#3B4A69"/>
<path d="M83.2841 52.4557C84.4235 52.4557 84.7459 53.1605 84.7459 54.881V64.4992H88.7658V53.4922C88.7658 52.5179 88.7013 51.896 88.5078 51.3156C88.0349 50.0305 86.4227 49.1391 84.6814 49.1391C83.7356 49.1391 82.6823 49.3257 81.8654 49.7817C81.199 50.1134 80.5326 50.6109 80.0597 51.1913L79.8017 49.1806L76.3193 49.7195V64.5199H80.4681V55.6065C80.4681 54.5079 80.812 53.7409 81.3495 53.2434C81.9514 52.7252 82.6178 52.4557 83.2841 52.4557Z" fill="#3B4A69"/>
<path d="M91.9034 64.52H96.0738V49.077L91.9034 49.6988V64.52Z" fill="#3B4A69"/>
<path d="M123.632 49.0148C121.827 49.0148 120.279 49.6574 119.14 50.8596C119.14 50.6731 119.204 49.761 119.204 49.3257V43.6253L114.991 44.2886V64.5407H119.204V56.187C119.204 54.7774 119.398 53.969 119.87 53.43C120.494 52.7252 121.547 52.3314 122.493 52.3314C123.697 52.3314 124.105 52.974 124.105 54.3836V64.52H128.125V53.9482C128.125 52.4765 128.061 52.0205 127.717 51.1913C127.244 49.8439 125.653 49.0148 123.632 49.0148Z" fill="#3B4A69"/>
<path d="M94.0094 42.7754C92.5906 42.7754 91.4513 43.874 91.4513 45.2421C91.4513 46.6102 92.5906 47.7089 94.0094 47.7089C95.4282 47.7089 96.5675 46.6102 96.5675 45.2421C96.5675 43.8947 95.4282 42.7754 94.0094 42.7754Z" fill="#3B4A69"/>
<path d="M58.8411 92.0064H63.0545V82.9064H68.5576V79.5898H63.0545V74.7807H69.8904L70.4278 71.5055H58.8411V92.0064Z" fill="#3B4A69"/>
<path d="M74.7929 78.8643L74.3844 76.8121L71.031 77.3304V92.0064H75.1798V82.637C75.1798 81.87 75.3088 81.2274 75.7817 80.7299C76.1902 80.3153 76.8566 80.0251 77.6089 80.0251C78.0819 80.0251 78.6193 80.1495 79.0277 80.3361L80.081 76.8121C79.4146 76.5634 79.1352 76.5012 78.5333 76.5012C76.9855 76.5012 75.4593 77.8486 74.7929 78.8643Z" fill="#3B4A69"/>
<path d="M112.455 71.8994V92.0064H116.604V83.4246V71.2568L112.455 71.8994Z" fill="#3B4A69"/>
<path d="M125.718 76.8743H120.688L116.604 83.4246L122 92.0064H126.858L120.624 83.2381L125.718 76.8743Z" fill="#3B4A69"/>
<path d="M105.231 76.6256C104.285 76.6256 103.211 76.8122 102.415 77.2682C101.749 77.5999 101.082 78.0974 100.61 78.6778L100.352 76.6671L96.8691 77.206V92.0064H101.018V83.093C101.018 81.9944 101.362 81.2274 101.899 80.7092C102.501 80.191 103.168 79.9422 103.834 79.9422C104.973 79.9422 105.317 80.647 105.317 82.3882V92.0064H109.337V80.9787C109.337 80.0252 109.273 79.3826 109.079 78.8022C108.585 77.5377 106.973 76.6256 105.231 76.6256Z" fill="#3B4A69"/>
</svg>
