<svg width="140" height="140" viewBox="0 0 140 140" fill="none" xmlns="http://www.w3.org/2000/svg">
<path d="M84.89 54.3101H72.8501H69.0701V55.7394C69.8167 55.8316 70.4234 55.8777 70.9367 56.016C71.5434 56.1544 71.9634 56.3388 72.29 56.6154C73.2234 57.3993 73.2234 58.9208 73.2234 61.5951V79.7154C73.2234 83.4041 73.5501 88.6142 68.2767 88.522C65.9901 88.4759 63.7034 86.9083 62.9567 84.0035H61.1367C61.8834 88.8909 64.5434 92.2106 70.9367 92.2106C76.3501 92.2106 81.2034 89.7208 81.2034 81.3753V67.3125V61.5951C81.2034 58.8747 81.2034 57.4915 82.1367 56.6616C82.7434 56.1544 83.21 55.9238 84.89 55.7394V54.3562V54.3101Z" fill="#3B4A69"/>
<path d="M103.086 54.3101H87.2656V55.6472V55.7394C88.899 55.8777 89.459 56.1544 90.019 56.6616C90.7656 57.3071 90.9056 58.3214 90.9056 60.1196C90.9056 60.6729 90.9056 61.2262 90.9056 61.9178V83.5885C90.9056 84.234 90.9056 84.8334 90.9056 85.3867C90.859 87.1388 90.7656 88.2454 90.019 88.8448C89.4123 89.352 88.9456 89.5825 87.2656 89.7669V89.8592V91.1963H103.086H103.132H111.159L113.679 83.9574H111.859C110.039 87.9226 107.192 88.3837 104.579 88.3837C102.432 88.3837 101.032 88.2454 100.052 87.646C99.259 87.1388 98.979 85.8017 98.9323 83.4963V62.0101V61.5951C98.9323 58.8747 98.9323 57.3993 99.8656 56.6154C100.472 56.1083 101.452 55.9238 103.132 55.7855L103.086 54.3101Z" fill="#3B4A69"/>
<path d="M129.406 54.3101H113.586V55.6472V55.7394C115.219 55.8777 115.779 56.1544 116.339 56.6616C117.086 57.3071 117.226 58.3214 117.226 60.1196C117.226 60.6729 117.226 61.2262 117.226 61.9178V83.5885C117.226 84.234 117.226 84.8334 117.226 85.3867C117.179 87.1388 117.086 88.2454 116.339 88.8448C115.733 89.352 115.266 89.5825 113.586 89.7669V89.8592V91.1963H129.406H129.453H137.479L139.999 83.9574H138.179C136.359 87.9226 133.513 88.3837 130.899 88.3837C128.753 88.3837 127.353 88.2454 126.373 87.646C125.579 87.1388 125.299 85.8017 125.253 83.4963V62.0101V61.5951C125.253 58.8747 125.253 57.3993 126.186 56.6154C126.793 56.1083 127.773 55.9238 129.453 55.7855V54.3101H129.406Z" fill="#3B4A69"/>
<path d="M23.2401 102.402C23.9867 102.079 24.6867 101.664 25.3867 101.203C25.5267 101.111 25.6667 101.019 25.8067 100.926C26.6467 100.327 27.3934 99.6353 28.1401 98.8053C29.0734 97.8371 29.9134 96.7305 30.7067 95.5778C31.3134 94.7017 31.8267 93.7335 32.3401 92.7652C34.2534 88.9844 35.5134 84.8347 36.1667 80.7311C36.5867 78.0568 36.7734 75.3826 36.7734 72.7544C36.7734 70.1263 36.5867 67.452 36.1667 64.7778C35.5134 60.6742 34.3001 56.4784 32.3401 52.7437C32.1067 52.3287 31.8734 51.8676 31.6401 51.4526C30.6134 53.2969 29.7734 55.2796 29.0734 57.3544C30.3334 61.0431 31.0801 64.9622 31.3601 68.8353C31.4534 70.1263 31.5001 71.5095 31.5001 72.8005C31.5001 74.0916 31.4534 75.4748 31.3601 76.7658C31.0334 81.5149 30.0534 86.264 28.1867 90.6904C27.4867 92.3964 26.6467 94.0562 25.6201 95.6239C25.3867 95.9928 25.2001 96.3616 24.9201 96.7305C24.4067 97.4682 23.8934 98.1598 23.3334 98.8976C22.6801 99.6814 21.9801 100.465 21.1867 101.203C20.3934 101.987 19.5534 102.678 18.6201 103.324C18.5267 103.37 18.4801 103.416 18.3867 103.462V103.554C20.0201 103.508 21.7467 103.093 23.2401 102.402Z" fill="#3B4A69"/>
<path d="M32.9508 102.402C33.6974 102.079 34.3974 101.664 35.0974 101.203C35.2374 101.111 35.3774 101.018 35.5174 100.926C38.3641 98.8053 40.4641 95.9466 42.0508 92.8574C43.9641 89.0765 45.2241 84.9268 45.8775 80.8232C46.2975 78.149 46.4841 75.4747 46.4841 72.8466C46.4841 70.2184 46.2975 67.5442 45.8775 64.8699C45.2241 60.7663 44.0108 56.5705 42.0508 52.8358C40.6041 49.9771 38.6441 47.3029 36.1241 45.228C35.3308 46.058 34.5841 46.9801 33.8841 47.9484C34.1174 48.2711 34.3508 48.5939 34.5841 48.9167C38.5975 54.8184 40.5575 61.8268 41.0241 68.8813C41.1175 70.1723 41.1641 71.5556 41.1641 72.8466C41.1641 74.1376 41.1175 75.5208 41.0241 76.8119C40.5575 83.8664 38.5975 90.9208 34.5841 96.7765C34.0708 97.5143 33.5574 98.2059 32.9974 98.9436C32.3441 99.7274 31.6441 100.511 30.8508 101.249C30.0574 102.033 29.2174 102.724 28.2841 103.37C28.1908 103.416 28.1441 103.462 28.0508 103.508V103.6C29.7774 103.508 31.4574 103.093 32.9508 102.402Z" fill="#3B4A69"/>
<path d="M45.2674 100.88C48.1141 98.7587 50.2141 95.9 51.8008 92.8108C53.7141 89.0299 54.9741 84.8802 55.6274 80.7766C56.0474 78.1024 56.2341 75.4281 56.2341 72.8C56.2341 70.1719 56.0474 67.4976 55.6274 64.8233C54.9741 60.7198 53.7608 56.5239 51.8008 52.7892C50.2141 49.7 48.0674 46.7491 45.2674 44.7204C43.1208 43.0605 40.4608 42.0461 37.8474 42V42.0922C40.4141 43.8443 42.6074 46.288 44.2874 48.8701C48.3008 54.7719 50.2608 61.7802 50.7274 68.8347C50.8208 70.1257 50.8674 71.509 50.8674 72.8C50.8674 74.091 50.8208 75.4742 50.7274 76.7653C50.2608 83.8198 48.3008 90.8742 44.2874 96.7299C42.5608 99.2659 40.3674 101.71 37.8008 103.508V103.6C40.4608 103.508 43.1208 102.493 45.2674 100.88Z" fill="#3B4A69"/>
<path d="M32.9474 43.1527C32.2007 43.4754 31.5007 43.8904 30.8007 44.3515C30.6607 44.4437 30.5207 44.5359 30.3807 44.6281C29.5874 45.2275 28.7941 45.9192 28.0474 46.703C27.1141 47.6713 26.2741 48.7778 25.4807 49.9305C24.8741 50.8066 24.3607 51.7748 23.8474 52.7431C21.9341 56.524 20.6741 60.6737 20.0207 64.7772C19.6007 67.4515 19.4141 70.1257 19.4141 72.7539C19.4141 75.382 19.6007 78.0563 20.0207 80.7305C20.6741 84.8341 21.8874 89.0299 23.8474 92.7647C24.0807 93.1796 24.3141 93.6407 24.5474 94.0557C25.5741 92.2114 26.4141 90.2287 27.1141 88.1539C25.8541 84.4653 25.1074 80.5461 24.8274 76.673C24.7341 75.382 24.6874 73.9988 24.6874 72.7078C24.6874 71.4168 24.7341 70.0335 24.8274 68.7425C25.1541 63.9934 26.1341 59.2443 28.0007 54.818C28.7474 53.1581 29.5874 51.4521 30.6141 49.8844C30.8474 49.5156 31.0341 49.1467 31.3141 48.7778C31.8274 48.0401 32.3407 47.3485 32.9007 46.6108C33.5541 45.8269 34.2541 45.0431 35.0474 44.3054C35.8407 43.5216 36.6807 42.8299 37.6141 42.1844C37.7074 42.1383 37.7541 42.0922 37.8474 42.0461V42C36.1674 42.0461 34.5341 42.4611 32.9474 43.1527Z" fill="#3B4A69"/>
<path d="M23.2404 43.1527C22.4937 43.4754 21.7937 43.8904 21.0937 44.3515C20.9537 44.4437 20.8137 44.5359 20.6737 44.6281C17.8737 46.7491 15.7737 49.6078 14.1404 52.697C12.227 56.4778 10.967 60.6275 10.3137 64.7311C9.8937 67.4515 9.70703 70.0796 9.70703 72.7539C9.70703 75.382 9.8937 78.0563 10.3137 80.7305C10.967 84.8341 12.1804 89.0299 14.1404 92.7647C15.587 95.6234 17.547 98.2976 20.067 100.372C20.8604 99.5425 21.607 98.6204 22.307 97.6521C22.0737 97.3293 21.8404 97.0066 21.607 96.6838C17.5937 90.782 15.6337 83.7737 15.167 76.7192C15.0737 75.4282 15.027 74.0449 15.027 72.7539C15.027 71.4629 15.0737 70.0796 15.167 68.7886C15.6337 61.7341 17.5937 54.6796 21.607 48.824C22.1204 48.0862 22.6337 47.3946 23.1937 46.6569C23.847 45.8731 24.547 45.0892 25.3404 44.3515C26.1337 43.6138 26.9737 42.9222 27.8604 42.3228C27.9537 42.2766 28.0004 42.2305 28.0937 42.1844V42C26.4604 42.0461 24.7804 42.4611 23.2404 43.1527Z" fill="#3B4A69"/>
<path d="M10.9667 44.6743C8.12 46.7952 6.02 49.6539 4.43333 52.7431C2.52 56.524 1.26 60.6737 0.606667 64.7772C0.186667 67.4976 0 70.1258 0 72.8C0 75.4281 0.186667 78.1024 0.606667 80.7766C1.26 84.8802 2.47333 89.076 4.43333 92.8108C6.02 95.9 8.16667 98.8509 10.9667 100.88C13.1133 102.401 15.7267 103.462 18.3867 103.554V103.462C15.7733 101.71 13.6267 99.2659 11.9 96.6838C7.88667 90.782 5.92667 83.7737 5.46 76.7192C5.36667 75.4281 5.32 74.0449 5.32 72.7539C5.32 71.4629 5.36667 70.0796 5.46 68.7886C5.92667 61.7341 7.88667 54.6796 11.9 48.824C13.58 46.288 15.7733 43.8443 18.3867 42.0922V42C15.7267 42.0461 13.0667 43.0605 10.9667 44.6743Z" fill="#3B4A69"/>
<path d="M29.8204 100.419C30.6138 99.5893 31.3604 98.6671 32.0604 97.6989C31.8271 97.3761 31.5938 97.0534 31.3604 96.7306C31.1271 96.3617 30.8937 95.9929 30.6604 95.624C29.9137 96.7306 29.0738 97.8833 28.0938 98.8516C28.6071 99.4049 29.2604 99.912 29.8204 100.419Z" fill="#3B4A69"/>
<path d="M35.0959 101.203C34.4426 101.664 33.7426 102.033 32.9492 102.402C34.4426 103.094 36.1692 103.509 37.8026 103.555V103.462C36.8692 102.817 35.9359 102.033 35.0959 101.203Z" fill="#3B4A69"/>
<path d="M27.2089 103.509C27.4889 103.462 27.7222 103.416 28.0022 103.416C27.7222 103.232 27.4889 103.048 27.2089 102.863C26.5555 102.356 25.9489 101.849 25.3889 101.295C24.7355 101.756 24.0355 102.125 23.2422 102.494C24.2222 102.955 25.3422 103.278 26.4155 103.462C26.6955 103.416 26.9289 103.462 27.2089 103.509ZM28.0955 103.555V103.462C28.0489 103.416 28.0022 103.416 27.9555 103.37C27.6755 103.416 27.4422 103.462 27.1622 103.462C27.4889 103.555 27.8155 103.555 28.0955 103.555Z" fill="#3B4A69"/>
<path d="M26.4119 45.1816C25.6185 46.0116 24.8719 46.9337 24.1719 47.902C24.4052 48.2248 24.6385 48.5475 24.8719 48.8703C25.1052 49.2391 25.3385 49.608 25.5719 49.9768C26.3185 48.8703 27.1585 47.7176 28.1385 46.7493C27.5785 46.1499 27.0185 45.6427 26.4119 45.1816Z" fill="#3B4A69"/>
<path d="M21.0934 44.3976C21.7467 43.9365 22.4467 43.5677 23.2401 43.1988C21.7467 42.4611 20.0201 42.0461 18.3867 42V42.0922C19.3667 42.7377 20.2534 43.5216 21.0934 44.3976Z" fill="#3B4A69"/>
<path d="M32.9471 43.1527C31.9671 42.6916 30.8471 42.3689 29.7737 42.1844C29.4937 42.1383 29.2604 42.0922 28.9804 42.0922C28.7004 42.0461 28.4204 42 28.0938 42V42.0922C28.1404 42.1383 28.1871 42.1383 28.2337 42.1844C28.5137 42.3689 28.7471 42.5533 29.0271 42.7377C29.6804 43.2449 30.2871 43.7521 30.8471 44.3054C31.5471 43.8904 32.2471 43.4754 32.9471 43.1527Z" fill="#3B4A69"/>
</svg>
