<svg width="140" height="140" viewBox="0 0 140 140" fill="none" xmlns="http://www.w3.org/2000/svg">
<g clip-path="url(#clip0_1231_28951)">
<path d="M58.0223 78.9218H46.4766V73.3135H58.3334C59.0364 73.3833 59.688 73.7013 60.1632 74.2065C60.6385 74.7116 60.9039 75.3684 60.9087 76.0509C60.9047 76.7968 60.602 77.5123 60.0639 78.0474C59.5259 78.5826 58.7942 78.8959 58.0223 78.9218ZM46.4766 60.5611H58.5754C59.2417 60.6522 59.8528 60.9691 60.2993 61.4553C60.7457 61.9416 60.9985 62.5654 61.0124 63.2151C61.0062 63.8882 60.7553 64.5377 60.3035 65.0503C59.8517 65.5628 59.2278 65.9058 58.5408 66.0193H46.4421L46.4766 60.5611ZM63.6569 69.5245C68.0816 68.1057 68.8421 64.517 68.8421 61.596C68.8421 57.1227 65.5754 53.2503 55.9137 53.2503H37.9211V86.7334H55.8964C65.6791 86.7334 69.1359 81.9263 69.1359 77.1024C69.1293 75.4383 68.5982 73.8155 67.6133 72.4499C66.6284 71.0843 65.2364 70.0407 63.6223 69.4577M109.528 53.2002V86.8002H140V79.1388H118.015V73.23H137.84V65.9358H118.015V60.5278H140V53.2002H109.528ZM96.4272 63.6491C96.3199 64.2766 95.991 64.8488 95.4963 65.2687C95.0017 65.6886 94.3718 65.9302 93.7137 65.9525H81.8223V60.5945H93.7137C94.3852 60.5907 95.0344 60.8275 95.5356 61.2592C96.0368 61.6908 96.3545 62.2866 96.4272 62.9313V63.6491ZM91.8124 53.2002H73.405V86.7501H81.8569V73.23H91.1729C92.4535 73.2563 93.671 73.7718 94.5587 74.6635C95.4464 75.5552 95.9319 76.7503 95.9087 77.9871V86.7835H104.188V75.934C104.148 74.4846 103.645 73.0825 102.748 71.9201C101.85 70.7576 100.602 69.8917 99.1754 69.441C100.748 68.9057 102.101 67.8965 103.035 66.5621C103.968 65.2277 104.433 63.6389 104.361 62.03C104.291 54.7692 97.8272 53.2002 91.8124 53.2002ZM32.4248 78.6881C32.3038 78.6881 20.8618 78.9051 16.8692 78.5379C14.5066 78.4681 12.2693 77.4954 10.6488 75.8335C9.02841 74.1716 8.15743 71.9564 8.22724 69.6747C8.1962 67.4717 9.04398 65.3415 10.5949 63.7257C12.1459 62.1098 14.2811 61.1321 16.5581 60.9951C18.9606 60.678 32.1137 60.8282 32.2692 60.8282H32.5458L32.6668 53.2002H32.3902H17.4742C15.0014 53.272 12.559 53.746 10.2495 54.6023C7.56576 55.7867 5.2309 57.5998 3.45687 59.8768C1.21303 62.766 8.41887e-05 66.2802 8.41887e-05 69.8917C-0.00319458 71.0099 0.0893018 72.1265 0.276627 73.23C0.791733 75.7623 1.91997 78.141 3.56914 80.1717C5.2183 82.2024 7.3416 83.8275 9.76552 84.9141C12.7604 86.1062 15.9634 86.735 19.2026 86.7668H22.0198H32.684V78.6881H32.4248Z" fill="#3B4A69"/>
</g>
<defs>
<clipPath id="clip0_1231_28951">
<rect width="140" height="140" fill="white"/>
</clipPath>
</defs>
</svg>
