<svg width="140" height="140" viewBox="0 0 140 140" fill="none" xmlns="http://www.w3.org/2000/svg">
<g clip-path="url(#clip0_1231_28953)">
<path d="M105.822 55.3794H102.569V39.4413H105.822V55.3839V55.3794ZM9.59629 55.3794H0V39.4413H9.26725C12.3369 39.4413 14.0987 41.0069 14.0987 43.7367C14.0987 45.7257 12.9158 46.6915 12.2161 47.0928C13.6489 47.7367 14.5277 49.1612 14.5277 50.8679C14.5277 53.6507 12.6368 55.3794 9.59629 55.3794ZM3.13212 45.8271H8.79243C10.6167 45.8271 10.9999 44.879 10.9999 44.0807C10.9999 42.9562 10.2169 42.3343 8.79243 42.3343H3.13212V45.8227V45.8271ZM9.22143 52.4555C10.5459 52.4555 11.3706 51.7279 11.3706 50.5592C11.3706 49.3905 10.5293 48.6628 9.22143 48.6628H3.13212V52.4599H9.22143V52.4555ZM30.8756 52.3673H20.3588V48.7025H29.7677V45.7169H20.3588V42.4446H30.8756V39.4413H17.1475V55.3794H30.8756V52.3717V52.3673ZM140 42.449V39.4413H126.272V55.3794H140V52.3717H129.483V48.7069H138.892V45.7213H129.483V42.449H140ZM44.9076 49.1832L48.4937 55.3794H44.9534L41.6672 49.536H37.0398V55.3794H33.7869V39.4413H42.6627C46.053 39.4413 48.0772 41.3332 48.0772 44.4997C48.0772 46.8018 46.9235 48.5041 44.9076 49.1832ZM44.8451 44.5217C44.8451 43.1546 43.9497 42.4049 42.3295 42.4049H37.0398V46.6166H42.3295C43.9288 46.6166 44.8451 45.8536 44.8451 44.5217ZM112.519 55.3794H109.266V39.4413H118.142C121.532 39.4413 123.556 41.3332 123.556 44.4997C123.556 46.8018 122.403 48.5041 120.387 49.1832L123.973 55.3794H120.433L117.146 49.536H112.519V55.3794ZM112.519 46.6166H117.809C119.408 46.6166 120.324 45.8536 120.324 44.5217C120.324 43.1899 119.429 42.4049 117.809 42.4049H112.519V46.6166ZM74.6253 52.6319C73.1175 52.6319 70.3186 52.2306 68.5318 49.5316L68.4527 49.4126L66.3827 51.8381L66.4285 51.9131C67.7738 54.0961 71.0975 55.6176 74.5087 55.6176C78.8945 55.6176 81.6184 53.5933 81.6184 50.3387C81.6184 46.8767 78.7737 46.2505 74.7586 45.7389C71.2599 45.2847 70.5602 45.0333 70.5602 43.9925C70.5602 43.1061 71.3057 42.1579 73.8923 42.1579C76.233 42.1579 78.1781 43.0355 79.2277 44.5614L79.3027 44.6717L81.3602 42.449L81.3061 42.3696C80.0107 40.438 77.1577 39.1943 74.0422 39.1943C70.0562 39.1943 67.3823 41.2539 67.3823 44.3189C67.3823 47.6397 70.2895 48.2836 73.5257 48.6981L73.6007 48.7069C77.4659 49.1788 78.3239 49.3067 78.3239 50.6827C78.3239 51.8425 76.9494 52.6231 74.6295 52.6231L74.6253 52.6319ZM14.9151 72.3981V63.1324H11.6622V69.3904H3.25291V63.1324H0V79.075H3.25291V72.4025H11.6622V79.075H14.9151V72.4025V72.3981ZM29.626 75.419H21.8707L20.238 79.075H16.731L23.9824 63.1368H27.5435L34.7949 79.075H31.2462L29.6344 75.419H29.626ZM28.3015 72.4554L25.7484 66.6914L23.1785 72.4554H28.3015ZM78.328 63.1324L85.5794 79.0706H82.0308L80.4189 75.4146H72.6636L71.0309 79.0706H67.5239L74.7752 63.1324H78.3364H78.328ZM79.0902 72.4554L76.5371 66.6914L73.9672 72.4554H79.0902ZM121.565 79.075L119.954 75.419H112.198L110.566 79.075H107.059L114.31 63.1368H117.871L125.122 79.075H121.574H121.565ZM118.625 72.4554L116.072 66.6914L113.502 72.4554H118.625ZM33.0664 66.1401H39.139V79.0706H42.4128V66.1401H48.4854V63.1324H33.0664V66.1401ZM53.8583 55.3794H54.0374V50.5107L56.2449 48.4512L62.0218 55.3794H66.2993L58.6273 46.2152L65.9037 39.4413H61.3346L54.0458 46.4446V39.4413H50.7929V55.3794H53.8667H53.8583ZM65.6996 72.4025V63.1368H62.4467V69.3948H54.0374V63.1368H50.7845V79.0794H54.0374V72.4069H62.4467V79.0794H65.6996V72.4069V72.4025ZM87.4662 55.3794V48.7069H95.8712V55.3794H99.1242V39.4413H95.8712V45.6992H87.4662V39.4369H84.2133V55.3794H87.4662ZM108.416 63.1324L103.464 79.0706H99.9822L96.6584 67.3397L93.2972 79.0706H89.8319L89.8069 78.9912L84.8797 63.128H88.2908L91.7395 74.5502L95.0257 63.128H98.3453L101.611 74.5502L105.059 63.128H108.408L108.416 63.1324ZM91.7978 74.6913H91.7895L91.7937 74.709V74.6913H91.7978ZM136.318 63.1324H136.102L131.374 69.2228L126.647 63.1324H122.669L129.721 72.2084V79.0706H132.974V72.2084L140.004 63.1324H136.322H136.318ZM5.54369 92.5037H1.44944V88.6493H0V97.8091H1.44944V93.9414H5.54785V97.8091H6.98896V88.6493H5.54785V92.5037H5.54369ZM20.3088 90.7353C20.6378 91.4497 20.8045 92.2832 20.8045 93.227C20.8045 94.1708 20.6378 95.0043 20.3088 95.7187C19.9798 96.4376 19.505 96.9932 18.8844 97.3946C18.2638 97.7959 17.5224 97.9943 16.6602 97.9943C15.7981 97.9943 15.0525 97.7959 14.4361 97.3946C13.8197 96.9932 13.3448 96.4376 13.0158 95.7187C12.6868 95.0043 12.5202 94.1708 12.5202 93.227C12.5202 92.2832 12.6868 91.4497 13.0158 90.7353C13.3448 90.0209 13.8197 89.4608 14.4361 89.0595C15.0525 88.6581 15.7939 88.4597 16.6602 88.4597C17.5266 88.4597 18.2679 88.6581 18.8844 89.0595C19.505 89.4608 19.9756 90.0209 20.3088 90.7353ZM19.2717 93.227C19.2717 92.5567 19.1759 91.9745 18.9802 91.4806C18.7844 90.9867 18.497 90.603 18.1097 90.3252C17.7223 90.0517 17.2392 89.9062 16.6602 89.8974C16.0813 89.8974 15.5981 90.0297 15.2108 90.3031C14.8276 90.5809 14.536 90.9646 14.3444 91.4674C14.1487 91.9657 14.0529 92.5523 14.0529 93.2226C14.0529 93.8929 14.1487 94.4751 14.3403 94.969C14.5319 95.4629 14.8234 95.8466 15.2066 96.1244C15.594 96.4023 16.0771 96.5434 16.6561 96.5522C17.235 96.5522 17.7181 96.4199 18.1055 96.1465C18.4928 95.8731 18.7802 95.485 18.976 94.9822C19.1718 94.4839 19.2675 93.8973 19.2675 93.227H19.2717ZM30.634 95.1366L27.6435 88.6493H26.3398V97.8091H27.6976V91.9393L30.3466 97.8091H30.9214L33.5745 91.9393V97.8091H34.924V88.6493H33.6203L30.6298 95.1366H30.634ZM40.9467 97.8091H46.532V96.3714H42.3919V93.7827H45.8114V92.345H42.3919V90.087H46.532V88.6493H40.9467V97.8091ZM57.9859 93.2932C57.7402 93.1123 57.4861 92.9668 57.2237 92.8654C56.9613 92.7639 56.7197 92.6846 56.5073 92.6228L54.9579 92.1642C54.7621 92.1112 54.5664 92.0407 54.379 91.9569C54.1874 91.8731 54.0291 91.7629 53.9 91.6217C53.7709 91.4806 53.7084 91.2954 53.7084 91.0705C53.7084 90.8323 53.7834 90.625 53.9333 90.4486C54.0832 90.2722 54.2832 90.1355 54.5289 90.0385C54.7746 89.9415 55.0412 89.8974 55.3328 89.9018C55.6285 89.9106 55.9075 89.9723 56.1699 90.0914C56.4323 90.2105 56.6531 90.3825 56.8363 90.6118C57.0196 90.8411 57.1404 91.1146 57.207 91.4365L58.7648 91.1498C58.6357 90.5854 58.4149 90.1046 58.1025 89.7077C57.7901 89.3108 57.4028 89.0065 56.9363 88.7948C56.4698 88.5832 55.945 88.4773 55.3494 88.4729C54.7663 88.4729 54.2332 88.5655 53.7542 88.764C53.2752 88.9624 52.8962 89.2623 52.613 89.6636C52.3298 90.065 52.1881 90.5589 52.1881 91.1498C52.1881 91.5512 52.2506 91.8907 52.3756 92.1642C52.5005 92.4376 52.663 92.6625 52.8629 92.8389C53.0628 93.0153 53.2711 93.152 53.4918 93.2535C53.7126 93.3549 53.9208 93.4343 54.1124 93.4916L56.3449 94.1928C56.5031 94.2457 56.6448 94.3031 56.7697 94.3736C56.8905 94.4442 56.9905 94.5192 57.0696 94.6074C57.1487 94.6912 57.207 94.7882 57.2487 94.8984C57.2903 95.0087 57.307 95.1234 57.307 95.2512C57.307 95.5335 57.2237 95.776 57.0529 95.9701C56.8822 96.1641 56.6614 96.3141 56.3907 96.4155C56.12 96.5169 55.8284 96.5699 55.5202 96.5699C54.9996 96.5699 54.5414 96.4199 54.1416 96.1244C53.7417 95.829 53.4793 95.41 53.3502 94.8632L51.8466 95.1057C51.9341 95.7055 52.1423 96.2215 52.4672 96.6537C52.7921 97.0903 53.2086 97.421 53.7167 97.6548C54.2249 97.8885 54.7913 98.0032 55.4244 98.0032C55.8701 98.0032 56.2949 97.9458 56.6989 97.8267C57.1071 97.7077 57.4653 97.5313 57.7818 97.2931C58.0984 97.055 58.3483 96.7595 58.5357 96.3979C58.7231 96.0407 58.8148 95.6217 58.8148 95.1498C58.8148 94.6779 58.7356 94.3163 58.5773 94.0164C58.4191 93.7209 58.2191 93.4784 57.9734 93.2976L57.9859 93.2932ZM64.4667 97.8091H70.0521V96.3714H65.912V93.7827H69.3315V92.345H65.912V90.087H70.0521V88.6493H64.4667V97.8091ZM80.8396 94.3384L82.4389 97.8091H80.7979L79.3318 94.6118H77.2743V97.8091H75.8248V88.6493H79.3985C79.4818 88.6493 79.59 88.6493 79.7233 88.6581C79.8566 88.6625 79.9774 88.6802 80.0899 88.6978C80.5897 88.7772 81.002 88.9536 81.331 89.227C81.6559 89.5005 81.9016 89.84 82.0599 90.2546C82.2182 90.6691 82.2973 91.1278 82.2973 91.6305C82.2973 92.3759 82.1182 93.0197 81.7642 93.5534C81.5351 93.8973 81.2269 94.1575 80.8396 94.3339V94.3384ZM77.2784 93.1785H79.3443C79.4234 93.1785 79.5151 93.1785 79.615 93.1653C79.715 93.1564 79.8066 93.1388 79.8899 93.1123C80.1315 93.0506 80.3189 92.9359 80.4564 92.7772C80.5938 92.614 80.6938 92.4332 80.7521 92.2303C80.8104 92.0275 80.8396 91.829 80.8396 91.6305C80.8396 91.4321 80.8104 91.2336 80.7521 91.0308C80.6938 90.8279 80.598 90.6427 80.4564 90.4795C80.3189 90.3163 80.1273 90.2061 79.8899 90.1443C79.8066 90.1179 79.715 90.1046 79.615 90.0958C79.5151 90.0914 79.4234 90.087 79.3443 90.087H77.2784V93.1785ZM91.0856 96.3185L88.8031 88.6493H87.3121L90.0402 97.8091H92.1602L94.8883 88.6493H93.3972L91.0856 96.3185ZM100.245 97.8047H101.694V88.6449H100.245V97.8047ZM110.037 90.3119C110.424 90.0385 110.907 89.8974 111.486 89.8974C112.132 89.8974 112.656 90.065 113.06 90.4045C113.464 90.7441 113.752 91.2072 113.918 91.8069L115.376 91.3792C115.11 90.4839 114.643 89.7739 113.977 89.2447C113.31 88.7155 112.481 88.4509 111.486 88.4509C110.62 88.4509 109.878 88.6493 109.262 89.0506C108.645 89.452 108.171 90.012 107.842 90.7265C107.513 91.4409 107.346 92.2744 107.346 93.2182C107.346 94.1619 107.513 94.9955 107.842 95.7099C108.171 96.4287 108.645 96.9844 109.262 97.3857C109.878 97.7871 110.62 97.9855 111.486 97.9855C112.481 97.9855 113.314 97.7209 113.977 97.1917C114.643 96.6625 115.11 95.9525 115.376 95.0572L113.918 94.6294C113.752 95.2248 113.464 95.6878 113.06 96.0274C112.656 96.367 112.132 96.5346 111.486 96.5346C110.907 96.5346 110.42 96.3979 110.032 96.12C109.645 95.8466 109.354 95.4585 109.158 94.9602C108.962 94.4618 108.866 93.8797 108.866 93.2094C108.866 92.539 108.97 91.9569 109.162 91.4586C109.358 90.9602 109.645 90.5721 110.032 90.2987L110.037 90.3119ZM121.037 97.8047H126.622V96.367H122.482V93.7783H125.901V92.3406H122.482V90.0826H126.622V88.6449H121.037V97.8047ZM138.076 93.2887C137.83 93.1079 137.576 92.9624 137.314 92.861C137.051 92.7595 136.81 92.6802 136.597 92.6184L135.048 92.1598C134.852 92.1068 134.656 92.0363 134.469 91.9525C134.277 91.8687 134.119 91.7584 133.99 91.6173C133.861 91.4762 133.798 91.291 133.798 91.0661C133.798 90.8279 133.873 90.6206 134.023 90.4442C134.173 90.2678 134.373 90.1311 134.619 90.0341C134.864 89.9371 135.131 89.893 135.423 89.8974C135.718 89.9062 135.997 89.9679 136.26 90.087C136.522 90.2061 136.743 90.3781 136.926 90.6074C137.109 90.8367 137.23 91.1102 137.297 91.4321L138.855 91.1454C138.726 90.5809 138.505 90.1002 138.192 89.7033C137.88 89.3064 137.493 89.0021 137.026 88.7904C136.56 88.5787 136.035 88.4729 135.439 88.4685C134.856 88.4685 134.323 88.5611 133.844 88.7596C133.365 88.958 132.986 89.2579 132.703 89.6592C132.42 90.0605 132.278 90.5545 132.278 91.1454C132.278 91.5468 132.34 91.8863 132.465 92.1598C132.59 92.4332 132.753 92.6581 132.953 92.8345C133.153 93.0109 133.361 93.1476 133.582 93.2491C133.802 93.3505 134.011 93.4299 134.202 93.4872L136.435 94.1884C136.593 94.2413 136.735 94.2987 136.86 94.3692C136.98 94.4398 137.08 94.5148 137.159 94.603C137.239 94.6868 137.297 94.7838 137.339 94.894C137.38 95.0043 137.397 95.1189 137.397 95.2468C137.397 95.5291 137.314 95.7716 137.143 95.9657C136.972 96.1597 136.751 96.3097 136.481 96.4111C136.21 96.5125 135.918 96.5655 135.61 96.5655C135.089 96.5655 134.631 96.4155 134.231 96.12C133.832 95.8246 133.569 95.4056 133.44 94.8587L131.936 95.1013C132.024 95.7011 132.232 96.2171 132.557 96.6493C132.882 97.0858 133.298 97.4166 133.807 97.6503C134.315 97.8841 134.881 97.9987 135.514 97.9987C135.96 97.9987 136.385 97.9414 136.789 97.8223C137.197 97.7033 137.555 97.5269 137.872 97.2887C138.188 97.0506 138.438 96.7551 138.626 96.3935C138.813 96.0362 138.905 95.6173 138.905 95.1454C138.905 94.6735 138.825 94.3119 138.667 94.012C138.509 93.7165 138.309 93.474 138.063 93.2932L138.076 93.2887Z" fill="#3B4A69"/>
</g>
<defs>
<clipPath id="clip0_1231_28953">
<rect width="140" height="140" fill="white"/>
</clipPath>
</defs>
</svg>
