<svg width="18" height="18" viewBox="0 0 18 18" fill="none" xmlns="http://www.w3.org/2000/svg">
<path fill-rule="evenodd" clip-rule="evenodd" d="M1.5 9C1.5 4.85786 4.85786 1.5 9 1.5C13.1421 1.5 16.5 4.85786 16.5 9C16.5 13.1421 13.1421 16.5 9 16.5C4.85786 16.5 1.5 13.1421 1.5 9ZM10 13C10 13.5523 9.55229 14 9 14C8.44772 14 8 13.5523 8 13C8 12.4477 8.44772 12 9 12C9.55229 12 10 12.4477 10 13ZM7.75 7C7.75 6.30964 8.30964 5.75 9 5.75C9.69036 5.75 10.25 6.30964 10.25 7V7.12132C10.25 7.48502 10.1055 7.83382 9.84835 8.09099L8.46967 9.46967C8.17678 9.76256 8.17678 10.2374 8.46967 10.5303C8.76256 10.8232 9.23744 10.8232 9.53033 10.5303L10.909 9.15165C11.4475 8.61317 11.75 7.88284 11.75 7.12132V7C11.75 5.48122 10.5188 4.25 9 4.25C7.48122 4.25 6.25 5.48122 6.25 7V7.5C6.25 7.91421 6.58579 8.25 7 8.25C7.41421 8.25 7.75 7.91421 7.75 7.5V7Z" fill="#B8C6E3"/>
</svg>
