<svg width="87" height="57" viewBox="0 0 87 57" fill="none" xmlns="http://www.w3.org/2000/svg">
<path d="M56.3992 56.9999C56.3229 56.9999 56.2484 56.9618 56.2058 56.8918L47.7654 43.1984H39.0131L30.5728 56.8918C30.5065 56.9986 30.3666 57.0317 30.2603 56.9663C30.1536 56.9005 30.1205 56.7606 30.1859 56.6539L38.6925 42.8524C38.7338 42.7851 38.8069 42.7443 38.886 42.7443H47.8921C47.9707 42.7443 48.0438 42.7851 48.0856 42.8524L56.5927 56.6539C56.6862 56.8056 56.5754 56.9999 56.3997 56.9999H56.3992Z" fill="white"/>
<path d="M27.6641 14.445C28.6637 12.9118 29.3063 12.6552 29.389 12.3705C29.4235 12.2515 29.3122 12.1679 29.2046 12.1861C29.087 12.2056 28.9966 12.3028 28.9144 12.3818C28.2986 12.9749 27.8421 13.6371 27.5151 14.3578C27.4697 14.4577 27.6023 14.5399 27.6641 14.445Z" fill="white"/>
<path d="M29.097 15.7223C29.6719 15.2586 29.9463 14.8621 31.7728 12.5959C31.8845 12.4574 32.0603 12.2989 32.0939 12.1195C32.118 11.9924 32.0022 11.9129 31.8886 11.9619C31.7528 12.0205 31.8382 11.9478 30.394 13.7685C29.9131 14.3753 29.3718 14.9711 29.0271 15.6687C29.0039 15.7154 29.0579 15.754 29.097 15.7223Z" fill="white"/>
<path d="M32.6255 15.051C32.9666 14.957 33.8672 13.6826 34.0679 13.3729C34.1251 13.2848 34.1946 13.1849 34.1356 13.0791C34.0961 13.0082 34.0143 12.9764 33.9362 12.9978C33.7763 13.0418 33.9094 13.1013 32.67 14.7122C32.6133 14.7862 32.5511 14.8643 32.5329 14.9583C32.522 15.0133 32.5669 15.0673 32.6255 15.051Z" fill="white"/>
<path d="M43.6016 14.059C44.4504 12.865 44.9886 12.6298 45.064 12.3705C45.0985 12.2515 44.9872 12.1679 44.8796 12.1861C44.762 12.2056 44.6716 12.3028 44.5894 12.3818C44.0489 12.9023 43.6316 13.4759 43.3164 14.0953C43.4177 14.0717 43.5112 14.0599 43.6021 14.0585L43.6016 14.059Z" fill="white"/>
<path d="M45.5879 14.9003C45.9594 14.4611 46.4903 13.7867 47.4499 12.596C47.5616 12.4574 47.7374 12.2989 47.771 12.1196C47.795 11.9919 47.6792 11.9129 47.5657 11.962C47.4299 12.0206 47.5153 11.9479 46.0711 13.7686C45.8145 14.0919 45.5411 14.4125 45.2891 14.7468L45.5879 14.9003Z" fill="white"/>
<path d="M48.2994 15.0519C48.6404 14.9579 49.541 13.6836 49.7417 13.3739C49.799 13.2858 49.8684 13.1858 49.8094 13.08C49.7699 13.0092 49.6881 12.9774 49.61 12.9987C49.4502 13.0428 49.5832 13.1023 48.3439 14.7131C48.2871 14.7872 48.2249 14.8653 48.2067 14.9593C48.1958 15.0142 48.2408 15.0683 48.2994 15.0519Z" fill="white"/>
<path d="M41.1599 11.7832C41.1077 12.88 41.0959 13.9727 41.1263 15.0526C41.2757 14.9822 41.4251 14.9118 41.5745 14.8419C41.5509 13.8387 41.565 12.8246 41.6131 11.8073C43.0578 11.8613 44.5092 11.8904 45.9611 11.8922C45.958 12.9576 45.9557 14.0235 45.9566 15.0894L46.5502 15.3919C46.5533 14.2029 46.552 13.038 46.5479 11.8895C47.9548 11.8845 49.3604 11.8568 50.7574 11.8023C50.8096 12.6116 50.83 13.434 50.8178 14.267C50.9704 14.1875 51.1225 14.1098 51.2742 14.0331C51.2796 13.2615 51.2578 12.4985 51.2088 11.7469C51.6307 11.6188 51.7302 11.3064 51.583 11.0734L50.7329 9.72413C50.6915 9.65827 50.6189 9.61831 50.5408 9.61831H41.8384C41.6831 9.61831 41.7566 9.57335 40.6572 11.0689C40.4696 11.3241 40.6076 11.7092 41.1599 11.7832Z" fill="white"/>
<path d="M28.4478 27.8972C28.4197 27.671 28.2285 27.5003 28.0005 27.4989L8.59436 27.3545C8.37954 27.3609 8.16927 27.5234 8.14021 27.7519C7.66971 31.4727 7.66926 35.3234 8.13975 39.5243C8.16292 39.7327 8.32641 39.8985 8.53486 39.9244C14.7335 40.6978 21.3863 40.1546 28.0196 39.8308C28.2403 39.8199 28.4215 39.6514 28.4483 39.4321C28.9506 35.3175 28.9501 31.9759 28.4478 27.8972ZM27.9138 33.53L22.0221 33.5282C22.0221 31.8065 22.0257 30.0807 22.0221 28.3622L27.5936 28.4036C27.8034 30.2052 27.9088 31.8678 27.9138 33.53ZM15.4429 33.5282C15.4429 31.7901 15.4465 30.048 15.4429 28.3136L21.2446 28.3568L21.2396 33.5282H15.4429ZM8.99219 28.2655L14.6654 28.3077L14.6604 33.5286L8.69518 33.5304C8.69245 31.7297 8.79145 29.9822 8.99219 28.2655ZM8.7038 34.1072L14.6604 34.109L14.6672 39.403C12.7425 39.3785 10.8542 39.2813 9.00263 39.066C8.82188 37.3584 8.72515 35.7122 8.7038 34.1072ZM15.4424 39.4057C15.4461 37.6364 15.4424 35.8747 15.4424 34.109H21.2396L21.2464 39.2649C19.2741 39.3535 17.3403 39.4112 15.4424 39.4057ZM22.0217 39.2282C22.0253 37.5183 22.0217 35.8157 22.0217 34.109L27.9083 34.1072C27.8906 35.6663 27.788 37.239 27.5909 38.9425L22.0217 39.2282Z" fill="white"/>
<path d="M10.1207 32.1254C10.4822 31.7185 11.8964 30.0818 11.9877 29.9751C12.0822 29.8652 12.1394 29.7484 12.2021 29.619C12.2511 29.5182 12.1485 29.3956 12.0417 29.4587C11.9209 29.53 11.8069 29.5945 11.7098 29.6971C11.2093 30.2276 10.3818 31.2385 9.90725 31.9606C9.82323 32.0882 10.0176 32.2408 10.1202 32.125L10.1207 32.1254Z" fill="white"/>
<path d="M12.5093 32.6008C12.8317 32.1026 13.1483 31.8288 13.29 31.5899C13.3372 31.5104 13.2427 31.4137 13.1623 31.4623C12.8585 31.6467 12.517 32.1953 12.3485 32.5068C12.2913 32.6127 12.4443 32.7012 12.5093 32.6008Z" fill="white"/>
<path d="M16.5097 32.4744C17.0869 31.8954 17.2341 31.5934 18.3731 30.4371C18.8694 29.933 18.9208 29.8921 18.9993 29.7323C19.0643 29.5997 18.9353 29.482 18.8063 29.5393C18.5338 29.6601 18.3208 29.9312 18.1165 30.1451C17.6878 30.5929 16.7023 31.7001 16.3303 32.3359C16.2649 32.4476 16.417 32.5671 16.5097 32.4744Z" fill="white"/>
<path d="M23.5769 31.5547C24.8517 30.3358 25.051 30.2663 25.0647 30.0388C25.0678 29.9839 25.0156 29.9384 24.9634 29.9375C24.7836 29.9348 24.6441 30.1115 24.5261 30.2291C23.9588 30.7931 23.9048 30.8731 23.4488 31.4271C23.3762 31.5157 23.4911 31.6365 23.5769 31.5547Z" fill="white"/>
<path d="M24.5294 32.9901C25.2628 32.3447 25.9027 31.6835 26.6298 30.951C26.8496 30.7293 27.133 30.4968 27.2624 30.208C27.3169 30.0858 27.2057 29.9655 27.0803 30.0259C26.8183 30.1526 26.7352 30.2806 25.6929 31.3806C25.2424 31.8561 24.8001 32.3384 24.3827 32.8434C24.2982 32.9456 24.4281 33.0795 24.5294 32.9901Z" fill="white"/>
<path d="M23.1166 37.2262C23.7193 36.7789 24.9042 35.6862 25.1144 35.4782C25.2157 35.3783 25.3052 35.2975 25.3302 35.1526C25.3429 35.0804 25.297 34.9809 25.2071 34.9909C25.0649 35.0068 24.9873 35.06 24.8815 35.1544C24.5563 35.4455 23.4795 36.4751 22.9877 37.0587C22.9159 37.1436 23.0126 37.3034 23.1166 37.2262Z" fill="white"/>
<path d="M25.2092 37.8402C26.3818 36.6077 26.5562 36.644 26.6365 36.3951C26.6883 36.2348 26.4603 36.1604 26.3136 36.2789C25.6442 36.8189 25.2487 37.3611 25.0211 37.6954C24.9444 37.8084 25.1165 37.9379 25.2092 37.8402Z" fill="white"/>
<path d="M16.6412 37.9456C17.336 37.4256 17.9736 36.813 18.5295 36.2916C18.7361 36.0977 18.9823 35.9142 19.1285 35.669C19.2003 35.5491 19.0595 35.4205 18.9428 35.4832C18.7652 35.5781 18.7411 35.6045 17.7148 36.6172C17.3142 37.0128 16.9245 37.4147 16.5667 37.8493C16.5263 37.8984 16.5812 37.9906 16.6412 37.9456Z" fill="white"/>
<path d="M10.6399 37.2734C11.1917 36.8638 12.5473 35.6699 12.5946 35.6272C12.689 35.5422 12.7517 35.4292 12.8253 35.3261C12.8943 35.2293 12.7644 35.1335 12.6759 35.1766C12.3679 35.327 12.4415 35.2716 12.0882 35.5845C11.5028 36.1031 11.011 36.545 10.5364 37.139C10.4819 37.2071 10.555 37.3357 10.6395 37.2725L10.6399 37.2734Z" fill="white"/>
<path d="M81.0474 27.8626C81.0193 27.6364 80.8281 27.4656 80.6001 27.4643L61.1903 27.3203C60.9619 27.3203 60.7684 27.4906 60.7398 27.7177C60.2693 31.4385 60.2689 35.2892 60.7394 39.4901C60.7625 39.6985 60.926 39.8643 61.1345 39.8902C67.3286 40.6631 73.9791 40.1204 80.6192 39.7966C80.8399 39.7857 81.0211 39.6172 81.0479 39.3979C81.5502 35.2833 81.5502 31.9413 81.0479 27.863L81.0474 27.8626ZM68.0425 28.279L73.8442 28.3222L73.8392 33.4935H68.0425C68.0425 31.7555 68.0461 30.0129 68.0425 28.279ZM61.5918 28.2313L67.265 28.2736L67.26 33.4944C65.5774 33.4944 61.5051 33.5176 61.2957 33.5312C61.2916 31.7183 61.3902 29.9594 61.5922 28.2318L61.5918 28.2313ZM61.6022 39.0314C61.4215 37.3238 61.3248 35.6775 61.3034 34.0726L67.26 34.0739L67.2668 39.3684C65.3421 39.3438 63.4538 39.2467 61.6022 39.0314ZM68.042 39.3715C68.0457 37.6022 68.042 35.8406 68.042 34.0744H73.8392C73.8465 39.2294 73.832 38.9914 73.8724 39.2294C71.8905 39.3184 69.9481 39.3765 68.0416 39.3715H68.042ZM80.1905 38.9083C79.3489 38.9501 75.6327 39.1454 74.6213 39.194C74.6249 37.4837 74.6213 35.7811 74.6213 34.0744L80.5079 34.073C80.4902 35.6321 80.3876 37.2048 80.1905 38.9083ZM74.6213 33.4944C74.6213 31.7728 74.6249 30.0466 74.6213 28.3285L80.1927 28.3698C80.4026 30.1719 80.5079 31.8336 80.5129 33.4958L74.6213 33.4944Z" fill="white"/>
<path d="M62.7203 32.0922C63.0818 31.6853 64.496 30.0486 64.5873 29.9419C64.6818 29.832 64.739 29.7152 64.8017 29.5858C64.8507 29.485 64.7481 29.3624 64.6413 29.4255C64.5205 29.4968 64.4066 29.5613 64.3094 29.6639C63.8089 30.1944 62.9814 31.2053 62.5069 31.9274C62.4228 32.055 62.6172 32.2076 62.7199 32.0918L62.7203 32.0922Z" fill="white"/>
<path d="M65.1128 32.5676C65.4352 32.0694 65.7518 31.7956 65.8935 31.5567C65.9407 31.4772 65.8462 31.3805 65.7659 31.4291C65.462 31.6135 65.1205 32.1621 64.952 32.4736C64.8948 32.5794 65.0478 32.668 65.1128 32.5676Z" fill="white"/>
<path d="M69.1093 32.4402C69.6865 31.8612 69.8337 31.5592 70.9727 30.4029C71.4691 29.8988 71.5204 29.8579 71.5989 29.6981C71.6639 29.5655 71.5349 29.4479 71.4059 29.5051C71.1334 29.6259 70.9204 29.897 70.7161 30.1109C70.2874 30.5587 69.3019 31.6659 68.9299 32.3017C68.8645 32.4134 69.0167 32.5329 69.1093 32.4402Z" fill="white"/>
<path d="M76.1785 31.5215C77.4532 30.3026 77.6526 30.2331 77.6662 30.0056C77.6694 29.9507 77.6172 29.9052 77.565 29.9043C77.3851 29.9016 77.2457 30.0783 77.1276 30.1959C76.5604 30.7599 76.5063 30.8399 76.0504 31.3939C75.9777 31.4825 76.0926 31.6033 76.1785 31.5215Z" fill="white"/>
<path d="M77.129 32.9566C77.8624 32.3113 78.5023 31.6501 79.2294 30.9175C79.4492 30.6959 79.7326 30.4634 79.8621 30.1745C79.9166 30.0524 79.8053 29.932 79.6799 29.9924C79.4179 30.1191 79.3348 30.2472 78.2925 31.3471C77.842 31.8226 77.3997 32.3049 76.9823 32.8099C76.8978 32.9121 77.0277 33.0461 77.129 32.9566Z" fill="white"/>
<path d="M75.7163 37.1932C76.3189 36.7458 77.5038 35.6532 77.714 35.4452C77.8153 35.3452 77.9048 35.2644 77.9298 35.1195C77.9425 35.0473 77.8966 34.9479 77.8067 34.9579C77.6645 34.9737 77.5869 35.0269 77.4811 35.1213C77.1559 35.4125 76.0791 36.442 75.5873 37.0256C75.5155 37.1105 75.6123 37.2704 75.7163 37.1932Z" fill="white"/>
<path d="M77.8127 37.807C78.9853 36.5745 79.1597 36.6108 79.2401 36.3619C79.2918 36.2016 79.0639 36.1271 78.9172 36.2457C78.2478 36.7857 77.8522 37.3279 77.6247 37.6622C77.5479 37.7752 77.72 37.9047 77.8127 37.807Z" fill="white"/>
<path d="M69.2407 37.9124C69.9355 37.3924 70.5732 36.7798 71.129 36.2584C71.3357 36.0645 71.5818 35.881 71.7281 35.6358C71.7998 35.5159 71.659 35.3873 71.5423 35.45C71.3647 35.5449 71.3407 35.5713 70.3143 36.584C69.9137 36.9796 69.5241 37.3815 69.1662 37.8161C69.1258 37.8652 69.1807 37.9574 69.2407 37.9124Z" fill="white"/>
<path d="M63.2395 37.239C63.7913 36.8294 65.1469 35.6354 65.1942 35.5927C65.2886 35.5078 65.3513 35.3947 65.4249 35.2916C65.4939 35.1949 65.364 35.0991 65.2755 35.1422C64.9676 35.2925 65.0411 35.2371 64.6878 35.55C64.1024 36.0687 63.6106 36.5106 63.136 37.1046C63.0815 37.1727 63.1546 37.3012 63.2391 37.2381L63.2395 37.239Z" fill="white"/>
<path d="M55.0477 43.1959L55.0409 42.7418C54.4905 42.7431 49.8877 42.7395 48.1493 42.7318C48.7424 37.2402 48.7406 32.3495 48.1443 27.7895C48.0666 27.1945 47.6161 26.7495 47.0234 26.6822C44.7604 26.4238 42.3307 26.4261 39.8038 26.69C39.1526 26.7576 38.6616 27.2595 38.6621 27.8412C38.3578 32.3577 38.3519 37.3374 38.6435 42.6482C36.6825 42.6228 34.7283 42.5919 32.7822 42.5565L32.7695 43.0106C44.8939 43.2336 34.2546 43.2186 55.0482 43.1964L55.0477 43.1959ZM39.1153 27.8562C39.1153 27.4924 39.4314 27.185 39.8501 27.1409C42.3448 26.8807 44.7409 26.878 46.9717 27.1328C47.3595 27.1768 47.6429 27.4575 47.6937 27.848C48.2869 32.3845 48.2864 37.2548 47.6928 42.7291L46.9321 42.725C47.4194 37.5872 47.4194 33.1911 46.9281 28.9212C46.8627 28.3553 46.4775 27.9307 45.9694 27.8648C44.0883 27.6205 42.9965 27.6223 40.8897 27.8721C40.3329 27.9384 39.9133 28.4157 39.9137 28.9693C39.6589 33.2656 39.6548 37.6276 39.8992 42.6637L39.0981 42.6541C38.8056 37.3506 38.8115 32.3777 39.1153 27.8562ZM40.3533 42.6691C40.109 37.6372 40.1135 33.2842 40.3679 28.9829C40.3679 28.646 40.6154 28.3626 40.9437 28.3235C43.006 28.0787 44.0737 28.0774 45.9112 28.3154C46.255 28.3603 46.443 28.6782 46.4775 28.9734C46.9662 33.2229 46.9671 37.5977 46.4789 42.7223C44.4307 42.71 42.3884 42.6923 40.3538 42.6687L40.3533 42.6691Z" fill="white"/>
<path d="M46.2035 35.1296C46.1935 35.0047 46.0832 34.912 45.9587 34.9216C45.8338 34.9316 45.7407 35.0415 45.7507 35.1664L45.8438 36.3054C45.8534 36.4243 45.9528 36.5138 46.07 36.5138C46.2044 36.5138 46.3071 36.3994 46.2966 36.2681L46.2035 35.1296Z" fill="white"/>
<path d="M25.4835 11.7827C25.4018 13.5044 25.4181 15.2161 25.5444 16.885C25.553 16.9981 25.6434 17.0871 25.756 17.0944C28.7429 17.2883 31.931 17.3015 35.2381 17.0944C35.3494 17.0876 35.4393 17.0004 35.4498 16.8896C35.6183 15.1379 35.6401 13.4149 35.5315 11.7459C35.9525 11.6183 36.0529 11.3059 35.9053 11.0724L35.0551 9.72315C35.0138 9.6573 34.9411 9.61733 34.863 9.61733H26.1607C26.0053 9.61733 26.0789 9.57237 24.9794 11.0679C24.7919 11.3231 24.9299 11.7087 25.4822 11.7827H25.4835ZM30.8715 11.889C32.2785 11.884 33.6845 11.8563 35.081 11.8018C35.1823 13.3768 35.1655 15.0008 35.0165 16.6534C33.6277 16.737 32.2435 16.777 30.8683 16.7847C30.8779 15.1075 30.8774 13.4826 30.8715 11.889ZM25.9372 11.8072C27.3819 11.8613 28.8333 11.8903 30.2852 11.8922C30.2807 13.5244 30.2775 15.1561 30.2852 16.7883C28.836 16.7851 27.3987 16.742 25.9831 16.6539C25.8709 15.0666 25.8596 13.4412 25.9372 11.8068V11.8072Z" fill="white"/>
<path d="M86.3087 23.2651C83.6447 21.7087 81.081 20.3322 78.1768 18.8344L77.9792 15.278C78.006 15.2762 78.0328 15.2753 78.0596 15.2734C78.3521 15.2512 78.5805 15.0037 78.5805 14.7094V13.559C78.5805 13.2779 78.3721 13.0372 78.0955 12.9982C76.3166 12.7479 74.4296 12.7488 72.4863 13.0009C72.2061 13.0372 71.9945 13.2784 71.9945 13.5622V14.7085C71.9945 14.9633 72.1698 15.1726 72.4055 15.2417L72.4291 15.9133C69.2178 14.2929 65.4875 12.4132 60.891 10.038C59.5327 9.33593 58.9677 9.23784 57.4086 9.95085C55.9608 10.613 54.5194 11.2901 53.0852 11.9809L53.151 9.14383C53.3767 9.27371 53.6124 9.41632 53.9285 9.23375C54.3377 8.99714 54.3286 8.40765 53.9299 8.17422C50.4888 6.16417 43.3646 2.59548 42.657 2.26623C38.4725 0.163528 38.4067 0.0113898 37.8381 0.000490326C37.4316 -0.0104092 37.0561 0.16262 36.7586 0.298864C31.5291 2.69131 26.4317 5.39984 21.6073 8.34907C21.2136 8.58931 21.2159 9.16381 21.6241 9.39361C21.8194 9.50351 22.0601 9.49897 22.2518 9.38316C22.3603 9.31731 22.4707 9.25328 22.5797 9.18788C22.3594 12.5663 22.3067 15.9769 22.4362 19.3617C19.2839 19.3576 18.4138 19.4807 15.1526 20.5247L0.199753 25.3096C0.152067 25.3251 0.113011 25.3546 0.0857617 25.3918C-0.0818184 25.5249 0.012644 25.7969 0.227001 25.7969L1.95639 25.7529C1.77791 26.2588 1.96911 26.9559 2.49866 26.9559L3.62631 26.9337C3.53548 32.6709 3.54184 38.3918 3.64584 43.9578C3.65492 44.4465 4.06047 44.8439 4.55004 44.8439H5.94246C6.43203 44.8439 6.8285 44.4606 6.84576 43.9714C6.86665 43.3842 6.88527 42.7984 6.90252 42.2139C14.3542 42.5409 21.9893 42.7875 29.7556 42.9519L29.7693 43.8488C29.7784 44.3974 30.1839 44.8439 30.6735 44.8439H32.0659C32.5559 44.8439 32.9528 44.4133 32.9696 43.8634C33.194 36.5184 33.1944 29.3733 32.971 22.6274C32.9674 22.5234 31.1385 22.558 54.9422 22.558C54.8722 22.6965 54.8314 22.855 54.8286 23.0235C54.7169 30.0359 54.7169 37.0471 54.8286 43.862C54.8377 44.4033 55.2437 44.8439 55.7328 44.8439H57.1253C57.6153 44.8439 58.0122 44.4188 58.0285 43.8765L58.0494 43.1844C66.8549 43.124 74.7239 42.8592 82.9853 42.0372C83.0852 42.0272 83.1665 41.9528 83.1856 41.8547C84.35 35.8404 85.0444 31.0669 85.1275 24.6216L85.4127 24.7851C85.9899 25.1184 86.7406 24.732 86.7406 24.0176C86.7406 23.7097 86.5749 23.4217 86.3074 23.2664L86.3087 23.2651ZM72.4486 13.5618C72.4486 13.5064 72.4909 13.4578 72.5449 13.451C74.5073 13.1966 76.3384 13.2103 78.0324 13.4478C78.085 13.455 78.1264 13.5041 78.1264 13.559V14.7094C78.1264 14.7671 78.0819 14.8161 78.0251 14.8207C76.2548 14.9551 74.4128 14.9555 72.5508 14.8198C72.4936 14.8157 72.4486 14.7671 72.4486 14.7089V13.5627V13.5618ZM72.8583 15.2907C74.6076 15.4033 75.9383 15.3997 77.526 15.3034L77.7085 18.5933C76.2153 17.8262 74.6285 17.0233 72.8896 16.1459L72.8583 15.2907ZM36.9475 1.60635C37.7409 1.24394 37.9575 1.2671 38.6883 1.64904C38.6883 1.64904 48.0273 6.36627 50.0855 7.46076H25.5475C29.2375 5.3567 33.0527 3.38843 36.948 1.6059L36.9475 1.60635ZM23.0488 8.90722C23.4666 8.65744 23.8953 8.41901 24.3168 8.17332H51.3994C51.8354 8.41174 52.2768 8.64926 52.7019 8.88996L52.6251 12.203C50.6205 13.1735 48.6304 14.1712 46.6567 15.194C46.0304 14.8733 45.3733 14.535 44.6812 14.1771C43.856 13.7502 43.4977 13.7062 42.5857 14.1235C39.0638 15.7349 35.6028 17.4933 32.2485 19.3744L22.8899 19.3617C22.7554 15.8834 22.8117 12.3769 23.0488 8.90722ZM6.39297 43.9546C6.38434 44.194 6.1827 44.3893 5.94337 44.3893H4.55095C4.30753 44.3893 4.10543 44.1917 4.10089 43.9492C3.99689 38.3832 3.99053 32.6618 4.08136 26.9246L6.43566 26.8783C6.61641 32.3312 6.60188 38.0703 6.39297 43.9551V43.9546ZM2.50139 26.5013C2.29382 26.495 2.29064 25.7633 2.49821 25.7601L29.7357 25.2215L29.727 25.9632L2.50139 26.5013ZM6.91615 41.7588C7.05648 36.6388 7.0474 31.645 6.88935 26.8687L29.722 26.4178C29.6671 31.8289 29.6766 37.2174 29.7502 42.4968C21.9902 42.332 14.3614 42.0858 6.91615 41.7588ZM32.5164 43.8488C32.5073 44.1467 32.3057 44.3888 32.0668 44.3888H30.6744C30.431 44.3888 30.2293 44.1427 30.2243 43.8406C30.1144 37.0198 30.1131 30.0037 30.2198 22.9808C30.9687 22.5421 30.9319 22.5571 30.9778 22.5571H32.5105C32.5968 23.0925 32.8443 33.126 32.5169 43.8484L32.5164 43.8488ZM32.6563 21.587C35.942 19.7513 39.3304 18.0328 42.7756 16.4565C43.5517 16.1023 43.7611 16.1318 44.4705 16.4987C48.971 18.8253 51.948 20.2859 54.4712 21.587H32.6563ZM57.5758 43.8615C57.5667 44.1522 57.365 44.3888 57.1262 44.3888H55.7337C55.4903 44.3888 55.2887 44.1486 55.2837 43.8538C55.1724 37.0439 55.1724 30.0378 55.2837 23.0298C55.2869 22.8259 55.3836 22.6483 55.523 22.5571H56.3196C56.7451 22.785 57.1648 23.0139 57.5849 23.2474C57.8006 29.8052 57.7965 36.7401 57.5753 43.8615H57.5758ZM49.6695 18.6282C44.2043 15.8897 44.2211 15.7635 43.6425 15.7521C43.237 15.7421 42.8773 15.9106 42.5862 16.0437C37.6605 18.2972 32.8507 20.8399 28.2892 23.6016C28.1539 23.3854 27.9613 22.7219 27.9613 22.493C27.9613 22.4431 27.9881 22.3972 28.0322 22.3699C32.7267 19.5002 37.6869 16.8648 42.7751 14.5368C43.5549 14.1799 43.7688 14.2166 44.4709 14.5795C51.7845 18.3612 55.2573 19.9457 59.124 22.2042C59.1821 22.2382 59.1962 22.29 59.1962 22.3395C59.1962 22.5484 59.0118 23.2333 58.8728 23.454C55.9776 21.7895 52.7709 20.1828 49.6691 18.6287L49.6695 18.6282ZM82.7732 41.6008C74.5945 42.4078 66.79 42.6689 58.0635 42.7293C58.2484 36.0983 58.2425 29.6404 58.0481 23.5062C58.2779 23.6357 58.5086 23.7674 58.7407 23.9013C58.8415 23.959 58.9582 23.9576 59.0617 23.8981C59.4387 23.6806 59.6508 22.5303 59.6508 22.3391C59.6508 22.2046 59.6044 21.9585 59.3533 21.8118C56.2465 19.997 53.4181 18.63 48.6341 16.2017C51.5901 14.7008 54.5811 13.2575 57.598 11.8773C59.5363 10.9904 58.9096 11.1216 69.3395 16.348C74.5009 18.9343 79.8294 21.6047 84.6779 24.3627C84.6107 30.8425 83.9285 35.6124 82.7732 41.6012V41.6008Z" fill="white"/>
<path d="M12.6298 49.3577C12.8233 48.068 11.7256 47.1388 11.2392 47.1565C11.0058 47.1651 10.8364 47.4767 11.0348 47.6497C11.2042 47.7978 11.439 47.8214 11.7292 48.1193C12.0217 48.4195 12.1979 48.8259 12.1625 49.2942C12.1539 49.4104 12.2597 49.5149 12.3687 49.5276C12.474 49.5403 12.6116 49.4758 12.6293 49.3573L12.6298 49.3577Z" fill="white"/>
<path d="M13.6089 49.3471C14.2406 47.2353 14.2597 47.2784 14.3096 46.8974C14.3455 46.6254 13.88 46.4401 13.7283 46.8188C13.6643 46.9796 13.7088 46.822 13.1706 49.2263C13.107 49.5106 13.5249 49.6282 13.6089 49.3471Z" fill="white"/>
<path d="M14.4461 49.7596C14.7022 49.0748 15.0946 48.7015 15.1768 48.5729C15.4443 48.1551 15.1273 47.8318 14.7286 48.1969C14.6005 48.3141 14.4202 48.6315 14.3421 48.7864C14.2045 49.0584 14.0955 49.3459 14.0219 49.6424C13.9524 49.9217 14.3416 50.0394 14.4461 49.7596Z" fill="white"/>
<path d="M58.1124 48.9619C58.4784 48.4092 58.0983 47.451 57.6868 47.3384C57.3717 47.2521 57.0678 47.6831 57.477 47.9651C57.5124 47.9896 57.4598 47.9528 57.453 47.946C57.5783 48.0704 57.6378 48.0972 57.7436 48.3243C57.7586 48.3566 57.7386 48.3221 57.7377 48.3098C57.7422 48.3552 57.8349 48.446 57.8086 48.8797C57.7995 49.0292 58.012 49.1141 58.1128 48.9619H58.1124Z" fill="white"/>
<path d="M59.4948 48.6838C59.532 48.2465 59.7486 47.7969 59.983 47.513C60.2995 47.1293 60.4244 47.1647 60.5611 46.8636C60.626 46.7201 60.5493 46.562 60.3835 46.5538C60.131 46.5416 60.002 46.6297 59.7527 46.8758C59.3331 47.29 59.0461 47.9622 59.0978 48.6838C59.1164 48.9404 59.473 48.9386 59.4948 48.6838Z" fill="white"/>
<path d="M60.4127 49.0638C61.2678 48.2341 61.3173 48.2327 61.4363 47.9203C61.4854 47.7918 61.3337 47.6401 61.2052 47.6891C60.8964 47.8068 60.9082 47.8399 60.0616 48.7128C59.9713 48.8063 59.9617 48.9726 60.0616 49.0638C60.162 49.156 60.3132 49.1606 60.4127 49.0638Z" fill="white"/>
<path d="M70.2367 44.6725C69.9597 44.5217 69.6895 44.7919 69.7676 45.033C69.838 45.2506 69.9492 45.2074 70.1554 45.3668C70.0328 45.2719 70.1327 45.341 70.2172 45.4395C70.2458 45.4731 70.1799 45.3868 70.2054 45.4245C70.2317 45.4631 70.2263 45.4572 70.2435 45.4917C70.2222 45.435 70.2612 45.5272 70.2435 45.4917C70.2739 45.573 70.2903 45.6484 70.2762 45.7665C70.2667 45.8455 70.3375 45.9468 70.4483 45.9618C70.8334 46.0135 70.8103 44.9845 70.2367 44.6725Z" fill="white"/>
<path d="M71.3937 45.4273C71.3623 45.3187 71.3764 45.3278 71.3678 45.3151C71.3814 45.3355 71.3714 45.3542 71.3696 45.3269C71.3483 45.0467 71.4137 44.9223 71.5676 44.7088C71.5953 44.6707 71.5526 44.7279 71.5526 44.7279C71.5626 44.7202 71.5708 44.7061 71.579 44.6966C71.6112 44.6593 71.6575 44.6125 71.703 44.5794C71.9877 44.3723 71.955 44.0031 71.5767 44.0308C71.1675 44.0607 70.6575 44.8546 70.9986 45.5944C71.0435 45.692 71.1784 45.7211 71.2688 45.683C71.366 45.6421 71.4246 45.5322 71.3941 45.4277L71.3937 45.4273Z" fill="white"/>
<path d="M71.9219 45.8279C71.9287 45.8088 71.936 45.7897 71.9433 45.7707C71.9596 45.7284 71.921 45.8183 71.9405 45.7775C71.9755 45.7048 72.0377 45.5876 72.0836 45.5377C72.0741 45.5481 72.05 45.5799 72.0736 45.5513C72.1817 45.4178 72.2703 45.3619 72.2771 45.351C72.2712 45.3601 72.2271 45.3887 72.2607 45.3637C72.5087 45.1816 72.5228 45.272 72.6449 45.0731C72.7185 44.9527 72.649 44.7838 72.5132 44.7488C72.3988 44.7193 72.3397 44.7148 72.218 44.7847C71.8556 44.9936 71.6008 45.3537 71.5118 45.7148C71.4442 45.9886 71.8293 46.0958 71.9224 45.8279H71.9219Z" fill="white"/>
<path d="M66.9989 55.1289C66.9934 54.4113 66.5511 53.7955 66.2377 53.6552C65.8626 53.4871 65.6146 53.9336 65.8544 54.152C66.0252 54.3073 66.5066 54.5321 66.6574 55.1752C66.7023 55.3673 67.0002 55.3242 66.9989 55.1289Z" fill="white"/>
<path d="M67.6728 54.7889C67.6982 54.7326 67.7309 54.6844 67.7568 54.6272C67.8422 54.4392 67.9135 53.9701 68.3281 53.3978C68.408 53.2875 68.4957 53.2135 68.5275 53.0986C68.5956 52.8515 68.3672 52.6603 68.1369 52.757C67.9253 52.8465 67.418 53.5886 67.3617 54.2635C67.3385 54.5437 67.354 54.5541 67.4198 54.7557C67.4534 54.8579 67.6205 54.9047 67.6728 54.7889Z" fill="white"/>
<path d="M68.2328 55.2408C68.4731 54.6999 68.7696 54.5201 69.2292 54.1827C69.2651 54.1563 69.3128 54.1309 69.3423 54.0987C69.4172 54.0169 69.4654 53.8902 69.4063 53.7867C69.3023 53.6036 69.0748 53.6681 68.9177 53.7263C68.4167 53.912 67.9903 54.5632 67.8436 55.0769C67.8145 55.1791 67.8708 55.2876 67.9667 55.328C68.0552 55.3653 68.1892 55.338 68.2324 55.2408H68.2328Z" fill="white"/>
<path d="M18.9786 55.2107C18.8787 54.7125 18.5753 54.2284 18.3623 54.0385C18.2801 53.9654 18.1516 53.8673 18.0726 53.8146C17.9995 53.7656 17.9295 53.7493 17.8428 53.742C17.6016 53.7211 17.4495 54.0267 17.5689 54.2193C17.6352 54.326 17.7338 54.3742 17.8487 54.4586C18.2679 54.7674 18.4659 55.0368 18.6089 55.3669C18.687 55.5468 19.0317 55.4759 18.9786 55.2111V55.2107Z" fill="white"/>
<path d="M19.7729 55.1245C19.7802 55.011 19.8006 54.8993 19.8097 54.7862C19.8142 54.7285 19.7924 54.0055 20.1003 53.2739C20.1971 53.0436 20.3565 52.8379 20.3728 52.5813C20.3865 52.3642 20.1358 52.2598 19.965 52.3474C19.4332 52.6213 19.1189 54.1595 19.326 54.8516C19.3619 54.9724 19.425 55.0914 19.4818 55.2035C19.5563 55.3511 19.7638 55.268 19.7729 55.1245Z" fill="white"/>
<path d="M20.6442 55.3281C20.7568 54.8213 21.1737 54.4198 21.5807 54.2695C21.7101 54.2218 21.7532 54.1827 21.8204 54.1296C21.7868 54.1555 21.7791 54.1614 21.7973 54.1482C21.9095 54.0706 21.993 53.9943 21.974 53.8526C21.9608 53.7545 21.8886 53.6632 21.7896 53.6387C21.6683 53.6087 21.5248 53.5892 21.4058 53.6332C20.6669 53.9066 20.2368 54.5606 20.1919 55.2668C20.1755 55.5252 20.5888 55.5815 20.6447 55.3281H20.6442Z" fill="white"/>
</svg>
