<svg width="58" height="57" viewBox="0 0 58 57" fill="none" xmlns="http://www.w3.org/2000/svg">
<path d="M7.58434 35.165C7.2948 35.0935 7.01063 35.0019 6.73394 34.8906C6.49872 35.361 6.22732 35.8948 5.94385 36.4527L6.2635 36.6215C6.28113 36.6306 6.29678 36.6431 6.30958 36.6583C6.32237 36.6735 6.33206 36.691 6.33808 36.7099C6.3441 36.7288 6.34634 36.7487 6.34467 36.7685C6.343 36.7882 6.33745 36.8075 6.32834 36.8251C6.31923 36.8427 6.30674 36.8584 6.29158 36.8712C6.27642 36.884 6.25889 36.8936 6.23999 36.8997C6.22109 36.9057 6.20119 36.9079 6.18142 36.9063C6.16165 36.9046 6.14241 36.899 6.12479 36.8899L5.82323 36.7211L4.91854 38.5033C5.21035 38.6228 5.51343 38.7127 5.82323 38.7717C6.34191 37.7041 6.98122 36.4677 7.58434 35.165ZM8.45283 33.2712C8.15127 33.2018 7.87685 33.1204 7.60846 33.033C7.4034 33.5426 7.23151 33.8864 6.86663 34.6222C7.14137 34.7336 7.42478 34.8224 7.71401 34.8876C7.96431 34.3568 8.21159 33.814 8.45283 33.2712ZM4.7738 35.7742C5.09647 35.9762 5.41914 36.1601 5.67848 36.3049C5.95591 35.7591 6.2243 35.2344 6.4565 34.77C6.1273 34.6184 5.80801 34.4462 5.50056 34.2543C5.29851 34.6614 5.0452 35.1921 4.7738 35.7742ZM7.325 32.9304C6.98742 32.8055 6.65718 32.6615 6.33588 32.4992C6.13552 33.0086 5.90181 33.5042 5.63626 33.9829C5.94118 34.1791 6.25962 34.3534 6.58919 34.5046C6.92694 33.8231 7.13501 33.4069 7.325 32.9304ZM3.78468 37.9333C4.05004 38.1009 4.32605 38.251 4.61095 38.3827C4.91251 37.8006 5.23217 37.1764 5.53976 36.5733C5.28343 36.4285 4.96679 36.2476 4.63508 36.0486C4.36066 36.6638 4.06513 37.3151 3.78468 37.9333ZM5.31057 31.5493C5.54277 31.7061 5.83227 31.887 6.17605 32.074C6.36905 31.5553 6.54396 31.0155 6.70378 30.4908C6.351 30.3184 6.00773 30.1271 5.67546 29.9178C5.61116 30.4729 5.48886 31.0197 5.31057 31.5493ZM7.72004 32.7525C7.99145 32.843 8.27793 32.9214 8.57647 32.9907C8.59457 32.9515 9.065 31.8569 9.258 31.3955C8.93533 31.3261 8.62171 31.2417 8.31412 31.1452C8.09699 31.7574 7.8859 32.3122 7.72004 32.7525ZM6.44444 32.2157C6.76645 32.3796 7.09772 32.5246 7.43658 32.65C7.60545 32.2157 7.80749 31.6639 8.0397 31.0487C7.67179 30.919 7.31897 30.7743 6.99027 30.6235C6.81536 31.1512 6.64046 31.691 6.44444 32.2157ZM10.8472 27.1133C10.4802 27.0826 10.118 27.0097 9.76764 26.8962C9.60178 27.3998 9.41783 27.9517 9.22483 28.5156C9.58623 28.5913 9.95349 28.6356 10.3225 28.6483C10.5487 28.018 10.7206 27.5084 10.8472 27.1133ZM8.41363 30.8617C8.71519 30.9582 9.04691 31.0457 9.37259 31.112C9.71336 30.2797 9.97572 29.559 10.2139 28.9438C9.84881 28.9264 9.48571 28.879 9.12833 28.8021C8.89311 29.4987 8.64583 30.2073 8.41363 30.8617ZM14.867 25.9433C14.7947 25.7955 14.7193 25.6417 14.6499 25.4517C14.2187 25.5905 13.6156 25.7865 13.0818 26.0066C13.1723 26.2388 13.2567 26.471 13.3411 26.7032C13.8278 26.4081 14.3382 26.1539 14.867 25.9433ZM4.56873 33.226C4.84617 33.434 5.09948 33.624 5.38898 33.8291C5.65137 33.3558 5.88109 32.8651 6.07654 32.3605C5.73276 32.1735 5.43723 31.9896 5.20201 31.8328C5.07536 32.08 4.84617 32.5806 4.56873 33.226ZM13.1813 27.1586C12.735 27.4601 12.3098 27.7617 11.9027 28.0632C11.9871 28.2804 12.1108 28.6151 12.2404 28.989C12.6053 28.8021 13.0818 28.5819 13.5733 28.3648C13.4587 27.9848 13.314 27.5747 13.1813 27.1586ZM2.84381 37.2458C3.04585 37.4116 3.27806 37.5865 3.52835 37.7584C3.8088 37.1553 4.10433 36.4919 4.3878 35.8827C4.11941 35.7108 3.85705 35.5299 3.62787 35.355C3.36249 35.9883 3.09109 36.6426 2.84381 37.2458ZM5.63927 39.0551C5.33522 38.9888 5.03755 38.8959 4.74967 38.7777C4.47525 39.3115 4.21892 39.806 4.00482 40.2161C4.30638 40.3579 4.5808 40.4815 4.83109 40.575C5.06933 40.1257 5.34374 39.613 5.63927 39.0551ZM3.75151 35.0745C3.9975 35.2664 4.25315 35.4456 4.51747 35.6113C4.78887 35.0293 5.04218 34.4955 5.24423 34.1035C4.94267 33.8924 4.65619 33.6904 4.43303 33.5245C4.22496 33.9829 3.98974 34.5317 3.75151 35.0745ZM4.47224 38.651C4.19194 38.5202 3.92002 38.3722 3.65802 38.2077L3.00364 39.6583C3.24488 39.803 3.49216 39.9417 3.73643 40.0654C3.94752 39.6583 4.20083 39.1788 4.47224 38.651ZM2.15625 39.1004C2.34623 39.2391 2.54828 39.3778 2.75937 39.5105C2.94332 39.0973 3.16949 38.6058 3.41677 38.0419C3.16949 37.876 2.94332 37.7072 2.74128 37.5443C2.50304 38.1112 2.301 38.642 2.15625 39.1004ZM36.2688 14.6498C36.425 14.6665 36.5829 14.648 36.7311 14.5959C36.8792 14.5437 37.0139 14.4591 37.1252 14.3483C37.1828 14.2786 37.2213 14.1952 37.237 14.1061C37.2526 14.0171 37.2449 13.9255 37.2145 13.8404C37.1841 13.7552 37.132 13.6795 37.0635 13.6205C36.995 13.5615 36.9124 13.5213 36.8237 13.5039C36.2748 13.3471 35.2586 13.5039 35.2586 14.1251C35.2495 14.5684 35.8315 14.6498 36.2688 14.6498ZM35.4425 14.0919C35.4425 13.6969 36.3924 13.6215 36.7392 13.724C37.2036 13.8567 37.1433 14.4176 36.3351 14.4327C36.0185 14.4418 35.4425 14.4086 35.4425 14.0919ZM30.2014 16.3989C30.4004 16.3989 30.5421 16.233 30.6809 16.1214C31.0043 15.8294 31.3654 15.582 31.7544 15.3856C33.2984 14.7463 33.7146 15.4882 34.2755 15.06C34.577 14.8428 34.4112 14.3935 34.191 14.1131C34.0845 13.9881 33.9536 13.8862 33.8064 13.8136C33.6591 13.741 33.4986 13.6993 33.3346 13.6909C32.8413 13.6799 32.3509 13.7691 31.8931 13.9532C31.0209 14.1525 30.1908 14.5047 29.4415 14.9936C29.2877 15.0992 29.0735 15.2439 29.1399 15.4731C29.2967 15.835 29.8546 16.3989 30.2014 16.3989ZM33.2562 13.8688C34.0282 13.8688 34.372 14.6709 34.1609 14.879C34.0191 15.0147 33.6542 14.9906 33.3587 14.9243C32.1826 14.7403 31.4468 15.2258 30.521 15.9405C30.3672 16.0581 30.2526 16.2089 30.0777 16.1214C29.6797 15.9224 29.3359 15.4218 29.3811 15.3464C30.129 14.6287 32.3907 13.8688 33.2683 13.8688H33.2562Z" fill="white"/>
<path d="M57.38 56.8706C54.476 48.2188 52.2535 40.8125 50.9326 36.3886C49.9435 33.0715 49.5364 31.7355 49.4248 31.636C49.3947 31.6119 49.0841 31.5365 47.4707 30.9726C47.9683 29.3502 47.9261 27.8967 47.2687 26.8503C47.2234 26.7749 46.1107 25.0409 44.4461 25.0409C43.074 25.0409 41.3551 26.4281 41.15 28.5179C39.3648 27.7338 38.9607 27.4805 38.9064 27.5016C36.6115 28.3762 32.1424 30.0951 30.0254 31.0781L20.7193 27.2152C20.6831 27.2152 18.8104 27.8183 16.6331 28.5058C16.5732 27.7922 16.4481 27.0856 16.2592 26.3949C16.4824 26.3135 17.0825 26.1506 17.2031 26.0933C17.2265 26.0806 17.2448 26.06 17.2547 26.0353C17.2646 26.0105 17.2655 25.983 17.2574 25.9576C16.9346 24.9252 16.6808 23.8724 16.4974 22.8063C19.2688 22.2032 21.7114 21.6363 23.0383 21.2774C23.1649 21.6333 23.6836 21.7207 23.9852 21.2141C24.1541 21.3709 24.5521 21.3649 24.73 20.8583C25.0649 20.811 25.3868 20.6972 25.6769 20.5235C26.6178 19.833 25.9001 18.5785 24.7481 18.7715C24.1118 18.88 22.9719 19.073 21.5365 19.2932C20.8279 18.6508 19.3593 17.4205 18.8496 16.9802C18.9371 15.1859 18.7019 13.7384 18.1319 12.5563C17.6675 11.5943 16.8895 10.8404 16.1416 10.0895C16.2743 9.78797 16.5758 8.88329 15.9908 8.40079C16.2147 8.1746 16.3928 7.90736 16.5155 7.61372C16.8121 6.92297 17.0404 6.20485 17.1971 5.46962C17.4814 5.77422 17.6692 6.15615 17.7369 6.5673C17.7821 6.86886 18.3189 5.66262 18.0776 4.33576C18.1465 4.4228 18.229 4.49816 18.3219 4.55891C18.3292 4.56245 18.3372 4.56411 18.3453 4.56373C18.3533 4.56335 18.3612 4.56095 18.3681 4.55675C18.375 4.55254 18.3807 4.54667 18.3848 4.53967C18.3888 4.53268 18.391 4.52477 18.3912 4.51669C18.3823 4.07607 18.274 3.64315 18.0746 3.25014C18.5119 2.84906 19.2808 1.87201 18.916 1.38951C18.5511 0.907012 17.3147 1.05779 16.7688 1.10303C16.214 0.300876 15.0077 -0.0609969 14.1453 0.00836203C13.3563 0.103795 12.6337 0.497467 12.1257 1.10865C11.6177 1.71984 11.3627 2.50222 11.4131 3.29537C11.0181 3.59693 10.3818 4.12768 10.1013 4.68255C9.79978 5.16203 9.90231 5.8315 10.4662 5.99735C10.9276 6.11306 11.412 6.09845 11.8655 5.95514C12.0555 6.46176 12.0374 6.20242 12.0464 6.64269C11.8626 6.62983 11.6782 6.65477 11.5044 6.71597C11.3307 6.77717 11.1713 6.87334 11.0362 6.99854C10.5446 7.42675 10.3818 8.07209 10.1767 8.6541C9.10761 8.84099 8.09016 9.25209 7.19128 9.86034C2.86088 12.2427 1.07564 17.2486 3.05991 21.5036C3.07498 21.5398 3.12022 21.5277 3.15942 21.5217C3.1765 21.776 3.22512 22.0272 3.30417 22.2696C3.03277 22.3118 2.44472 22.3962 2.1311 22.4234C0.677578 22.553 -0.178854 23.904 0.0744566 24.7514C0.273486 25.4842 1.25054 25.7858 1.97429 25.7858C2.31505 25.7858 2.25776 25.7858 5.17988 25.1826C4.4501 27.0704 4.16362 26.9437 4.86324 27.381C4.56168 28.3339 4.26012 30.4268 4.42597 31.1113C2.4598 35.0979 0.746937 40.1943 0.807249 40.2757C0.94538 40.4595 1.09336 40.6357 1.25054 40.8035C0.948982 41.2347 0.324752 42.1394 0.228252 42.3475C-0.281385 43.4361 0.0744566 43.8764 1.17515 44.383C1.55813 44.5609 3.09006 45.0404 3.12022 45.0494C3.35845 45.1309 3.62081 45.2093 3.81079 45.0494C4.15155 44.7238 3.85301 44.3227 3.58764 43.9668C3.31284 43.53 3.14257 43.0357 3.09006 42.5224C3.10514 42.5043 3.26798 42.263 3.30719 42.2208C3.46788 42.2903 3.63576 42.3419 3.80778 42.3746C3.84095 42.3746 3.80778 42.4621 4.68532 40.8487C4.43201 40.7522 4.15457 40.6316 3.86507 40.4898C3.59367 41.0176 3.41876 41.3523 3.40972 41.3674C3.38887 41.3978 3.35759 41.4196 3.32178 41.4285C3.28598 41.4375 3.24815 41.4329 3.21544 41.4158C3.18274 41.3988 3.15744 41.3703 3.14434 41.3358C3.13124 41.3013 3.13124 41.2632 3.14434 41.2287C3.14434 41.2287 3.32528 40.8789 3.59668 40.3572C3.35845 40.2335 3.11419 40.1008 2.87897 39.9591L2.57741 40.6467C2.55884 40.6788 2.52906 40.703 2.49376 40.7146C2.45847 40.7261 2.42015 40.7243 2.38614 40.7093C2.35214 40.6944 2.32485 40.6674 2.30951 40.6336C2.29416 40.5998 2.29184 40.5615 2.30299 40.526L2.62264 39.8023C2.42361 39.6756 2.2276 39.546 2.04365 39.4133C1.9954 39.5671 1.95016 39.7148 1.91398 39.8415C1.90318 39.8815 1.87694 39.9155 1.84103 39.9362C1.80511 39.9568 1.76247 39.9624 1.72248 39.9516C1.6825 39.9408 1.64843 39.9145 1.62779 39.8786C1.60715 39.8427 1.60162 39.8001 1.61242 39.7601C1.65765 39.6002 1.71495 39.4193 1.78129 39.2233L1.63654 39.1057C1.61896 39.0941 1.60401 39.0789 1.59266 39.0611C1.58131 39.0433 1.57382 39.0234 1.57066 39.0025C1.56751 38.9817 1.56876 38.9604 1.57434 38.9401C1.57992 38.9197 1.5897 38.9008 1.60305 38.8845C1.6164 38.8681 1.63303 38.8548 1.65185 38.8453C1.67068 38.8358 1.69129 38.8304 1.71235 38.8293C1.73341 38.8283 1.75445 38.8317 1.77412 38.8393C1.79378 38.8469 1.81164 38.8586 1.82652 38.8735C1.92604 38.9519 1.77224 39.1298 2.47789 37.3657C2.41155 37.3114 2.35124 37.2571 2.29093 37.2028C2.264 37.1754 2.24858 37.1387 2.24781 37.1003C2.24704 37.0618 2.26098 37.0245 2.28679 36.996C2.31259 36.9675 2.34831 36.95 2.38663 36.9469C2.42496 36.9439 2.463 36.9556 2.49297 36.9797L2.59852 37.0701C2.8458 36.467 3.1172 35.8066 3.38258 35.1854C3.29819 35.1143 3.21861 35.0378 3.14434 34.9562C3.12028 34.9265 3.10838 34.8888 3.11104 34.8507C3.11371 34.8126 3.13073 34.777 3.15869 34.7509C3.18664 34.7249 3.22343 34.7104 3.26163 34.7105C3.29983 34.7105 3.33659 34.7251 3.36448 34.7512L3.50622 34.8929C3.74445 34.341 3.97665 33.8133 4.18171 33.3489C4.09124 33.2826 4.00982 33.2253 3.94649 33.1861C3.92678 33.1775 3.90911 33.1649 3.89468 33.149C3.88024 33.1331 3.86937 33.1143 3.8628 33.0938C3.85622 33.0734 3.85409 33.0517 3.85655 33.0304C3.859 33.0091 3.86599 32.9885 3.87704 32.9701C3.88809 32.9517 3.90296 32.9358 3.92063 32.9236C3.9383 32.9114 3.95838 32.9031 3.97952 32.8993C4.00065 32.8955 4.02236 32.8962 4.04319 32.9015C4.06402 32.9067 4.08349 32.9163 4.10029 32.9297C4.1606 32.9659 4.22996 33.0111 4.30837 33.0654C4.58882 32.4322 4.9326 31.6933 4.93561 31.6843L4.76372 31.5637C4.5858 31.44 4.76372 31.1988 4.91752 31.3013L5.0502 31.3978C5.21412 30.8615 5.32918 30.3114 5.39398 29.7543C5.24171 29.6497 5.09756 29.5338 4.96275 29.4075C4.93396 29.3795 4.91747 29.3412 4.9169 29.3011C4.91634 29.2609 4.93174 29.2222 4.95974 29.1934C4.98773 29.1646 5.02601 29.1481 5.06617 29.1475C5.10632 29.147 5.14505 29.1624 5.17384 29.1904C5.2591 29.2727 5.34977 29.3493 5.44525 29.4196C5.47996 29.1686 5.5293 28.9199 5.59301 28.6747C5.60381 28.6347 5.63005 28.6007 5.66596 28.58C5.70187 28.5594 5.74452 28.5538 5.7845 28.5646C5.82449 28.5754 5.85856 28.6017 5.8792 28.6376C5.89984 28.6735 5.90537 28.7161 5.89457 28.7561C5.82269 29.0392 5.76731 29.3261 5.72872 29.6156C6.07265 29.837 6.42908 30.0384 6.79624 30.2187C6.83243 30.0981 7.05257 29.3653 7.12494 29.1331C7.13654 29.0931 7.16355 29.0593 7.20002 29.0393C7.2365 29.0192 7.27946 29.0144 7.31945 29.026C7.35944 29.0376 7.39318 29.0646 7.41326 29.1011C7.43334 29.1376 7.4381 29.1805 7.4265 29.2205L7.08272 30.3484C7.42994 30.5103 7.78524 30.6542 8.14723 30.7796C8.3734 30.1373 8.61465 29.4407 8.84987 28.7501C8.58045 28.6809 8.31798 28.587 8.06581 28.4696C8.03639 28.4498 8.01489 28.4203 8.00508 28.3862C7.99528 28.3522 7.9978 28.3157 8.0122 28.2833C8.0266 28.2509 8.05197 28.2246 8.08383 28.2091C8.1157 28.1935 8.15203 28.1897 8.18643 28.1982C8.42707 28.312 8.67867 28.4009 8.93732 28.4636C9.13032 27.8906 9.3203 27.3267 9.48918 26.8111C9.20103 26.6991 8.92921 26.549 8.68099 26.3648C8.649 26.3408 8.62785 26.305 8.6222 26.2655C8.61654 26.2259 8.62684 26.1857 8.65084 26.1537C8.67483 26.1217 8.71055 26.1005 8.75014 26.0949C8.78973 26.0892 8.82994 26.0995 8.86193 26.1235C9.0827 26.2887 9.32523 26.4227 9.58266 26.5216C9.77264 25.9456 9.93548 25.439 10.0531 25.056C10.0569 25.0351 10.0651 25.0152 10.0772 24.9976C10.0892 24.9801 10.1048 24.9653 10.123 24.9542C10.1412 24.9432 10.1615 24.9361 10.1826 24.9334C10.2037 24.9308 10.2251 24.9326 10.2455 24.9388C10.2658 24.945 10.2846 24.9555 10.3006 24.9695C10.3166 24.9834 10.3295 25.0007 10.3384 25.02C10.3473 25.0393 10.352 25.0603 10.3522 25.0816C10.3524 25.1029 10.3481 25.1239 10.3396 25.1434C10.231 25.5023 10.0652 26.021 9.86613 26.6241C10.2173 26.7369 10.5808 26.8068 10.9487 26.8322L11.1055 26.3436C11.1809 26.1205 11.7087 26.0421 11.5428 26.5306L10.6894 28.9642C10.6894 28.9944 10.6743 28.9431 11.1236 30.2971C9.85708 30.7102 9.91739 30.6891 9.91739 30.7223C6.94401 40.526 3.1353 56.8616 3.26798 56.9581C3.40067 57.0546 7.72203 54.8079 17.5921 50.7429C19.1904 51.0837 29.3922 56.566 30.3843 56.9943C30.4145 57.0093 30.333 57.0304 31.3885 56.5449C33.608 55.5166 37.7213 53.6077 42.7724 50.7942C48.7282 54.2018 56.9005 56.8797 57.2322 56.9882C57.25 56.9965 57.2698 56.9996 57.2892 56.9973C57.3087 56.995 57.3271 56.9873 57.3425 56.9751C57.3578 56.9629 57.3695 56.9467 57.3761 56.9282C57.3827 56.9097 57.3841 56.8898 57.38 56.8706ZM2.90611 42.64C2.9519 43.2071 3.16143 43.7487 3.50923 44.199C3.6429 44.3361 3.72859 44.5128 3.75349 44.7027C3.75892 44.7568 3.74491 44.8111 3.71397 44.8558C3.68303 44.9006 3.63718 44.9329 3.58462 44.9469C2.62083 44.6533 1.67529 44.3029 0.752968 43.8975C0.0623941 43.4753 0.164925 43.1315 0.412204 42.5073C0.509494 42.2692 0.627558 42.0401 0.76503 41.8227C0.973107 42.6731 1.92905 43.1014 2.90611 42.64ZM3.08705 42.1153C3.02673 42.2087 2.93627 42.3535 2.90309 42.4168C2.72234 42.5214 2.5222 42.5882 2.31484 42.6131C2.10748 42.638 1.89723 42.6204 1.69685 42.5616C1.44354 42.4379 0.96406 42.0911 0.955013 41.6569C0.955013 41.6569 1.27165 41.1985 1.41339 40.9874C1.90122 41.4581 2.46765 41.8398 3.08705 42.1153ZM30.0888 32.1638V31.2199C30.6406 30.9756 31.1141 30.7675 31.5574 30.5806C31.2438 30.9123 30.1431 32.1185 30.0888 32.1728V32.1638ZM43.4268 36.4489C44.4883 36.4218 50.0822 36.2861 50.6039 36.265C50.7215 36.66 51.6745 39.8113 52.154 41.3734L43.4268 36.4489ZM42.4467 48.0651L56.1798 54.054C56.406 54.7386 56.9548 56.3067 57.1086 56.7229C49.5243 54.0782 45.0462 51.7019 43.3544 50.8062C43.1343 50.6886 42.9654 50.5982 42.8448 50.5409C42.8237 50.5409 42.8176 50.5258 42.685 50.5951C42.6699 49.8201 42.5131 48.8491 42.4467 48.0741V48.0651ZM17.4715 50.562C14.8781 51.542 4.62802 56.0956 3.52431 56.6113C3.5997 56.2826 5.41509 48.3998 5.73776 47.088C5.79742 47.1132 5.86293 47.1212 5.92688 47.111C5.99084 47.1009 6.05068 47.0731 6.09964 47.0307L6.5188 46.6658C6.74799 47.2931 8.5664 52.2115 8.72623 52.6246C8.7594 52.7091 8.8951 52.6669 8.86193 52.5764C8.68401 52.0849 8.5091 51.6024 8.34928 51.1349C10.0652 49.9558 14.3805 47.3745 14.9384 47.0428L17.6162 48.9094C17.6012 49.0904 17.5348 50.0644 17.4715 50.571V50.562ZM44.036 35.7523L40.1157 35.8458C40.0041 35.0527 39.1808 28.0052 39.1627 27.8484C39.5668 28.0444 40.1941 28.346 41.1168 28.7531C41.0294 30.7404 42.0547 33.2675 44.036 35.7614V35.7523ZM22.8785 50.4323C23.2976 51.0083 25.0859 53.4479 25.8187 54.4189C25.7161 54.3647 21.3375 52.0517 20.5715 51.6717L22.8785 50.4323ZM19.2839 51.0867C18.767 50.8706 18.2348 50.6932 17.6916 50.5559C17.764 50.1458 17.8213 49.7357 17.8846 49.2592L19.2839 51.0867ZM29.9561 39.7571L29.0755 39.0785C29.2927 39.0574 29.751 39.0092 29.9289 38.979L29.9561 39.7571ZM46.3218 45.8214L54.2287 52.4859L42.3774 47.2991C42.302 46.5301 41.9944 44.3227 41.8919 43.7015C43.1283 44.3709 46.1318 45.74 46.3218 45.8214ZM8.27992 50.948C8.16834 50.6283 7.909 49.8895 7.83361 49.6814C9.4741 48.6501 13.1923 46.5331 13.7261 46.2074L14.7152 46.895C13.7412 47.4499 8.97351 50.4805 8.27992 50.948ZM7.77028 49.4944C7.5622 48.8913 7.16716 47.7816 7.10082 47.5614C8.48498 46.8256 11.772 45.3148 12.1761 45.1309L13.4818 46.0355C12.8365 46.4095 8.41261 49.0904 7.77028 49.4944ZM7.03749 47.3835C7.03749 47.3835 6.78418 46.6447 6.73593 46.4788L9.01271 44.5006C9.32037 44.681 9.67844 44.7562 10.0327 44.7149C10.3869 44.6735 10.718 44.5178 10.9759 44.2714L11.9258 44.9348C11.1628 45.2877 7.61649 47.0729 7.03749 47.3835ZM9.82089 42.1876C10.0696 42.1876 10.3082 42.2864 10.4841 42.4623C10.6599 42.6382 10.7587 42.8768 10.7587 43.1255C10.7587 43.3742 10.6599 43.6128 10.4841 43.7887C10.3082 43.9645 10.0696 44.0633 9.82089 44.0633C9.12127 44.0633 8.7594 43.798 8.78051 43.023C8.8489 42.7947 8.985 42.5927 9.17078 42.4435C9.35657 42.2943 9.58328 42.2051 9.82089 42.1876ZM29.368 42.7093C28.2191 42.833 24.6335 43.228 23.9973 43.3125L19.3442 38.2704L19.7513 35.1341L21.4038 34.0304L29.9893 40.6406C29.9893 40.8698 30.0526 42.0248 30.0767 42.4952C29.862 42.6244 29.6184 42.698 29.368 42.7093ZM17.5077 37.1033L19.51 35.3482C19.51 35.3482 19.2085 37.7215 19.1361 38.1347L17.5077 37.1033ZM13.313 40.7673L16.9618 37.5707L18.3822 38.4754C18.1379 38.6714 14.9142 41.298 14.875 41.3222C14.7906 41.3764 14.8358 41.3463 13.313 40.7673ZM17.7911 35.9423C17.571 35.9031 14.5252 35.4116 14.0096 35.3211C14.0488 35.2819 15.0168 34.344 15.258 34.1149C16.0662 34.0726 19.0698 34.0455 19.6759 34.0244L19.6457 34.3712L17.7911 35.9423ZM15.4932 36.3162C15.5045 36.3078 15.5136 36.2969 15.5199 36.2843C15.5262 36.2718 15.5294 36.2579 15.5294 36.2439C15.5294 36.2298 15.5262 36.216 15.5199 36.2034C15.5136 36.1909 15.5045 36.1799 15.4932 36.1715C15.3567 36.0858 15.2147 36.0093 15.068 35.9423C14.8539 35.8579 14.875 36.0026 14.1634 36.9314C14.1151 36.9948 14.2146 37.0641 14.2629 37.0008C14.4348 36.7807 14.8841 36.2348 14.9746 36.1383C15.0319 36.1594 15.1706 36.2348 15.2761 36.2831C15.1042 36.47 14.5283 37.1184 14.3714 37.3355C14.1694 37.3024 12.9752 37.0973 12.3269 36.9616C12.3269 36.9616 13.4517 35.8549 13.8166 35.5051C14.5886 35.6438 16.8623 36.0418 17.5559 36.1504L16.0029 37.5074C15.5475 37.4712 15.062 37.429 14.5795 37.3657C14.8208 37.0943 15.4239 36.3856 15.5023 36.3132L15.4932 36.3162ZM11.8293 38.3096C11.8564 38.3307 12.4324 38.4362 13.0747 38.6111C12.9439 38.7325 12.807 38.8473 12.6646 38.9549C12.5319 38.9006 12.1399 38.777 11.4915 38.584C11.8202 38.3005 11.8052 38.2915 11.8383 38.3066L11.8293 38.3096ZM13.2647 38.6111C13.2746 38.6041 13.2824 38.5944 13.2871 38.5833C13.2919 38.5721 13.2936 38.5598 13.2919 38.5478C13.2919 38.4845 13.2919 38.4815 12.1731 38.198C11.8142 38.1105 11.7901 38.0834 11.7117 38.1437C11.6333 38.204 11.3558 38.4694 11.2714 38.5297C11.2581 38.5385 11.2476 38.5509 11.2411 38.5654C11.2346 38.5799 11.2323 38.596 11.2345 38.6117C11.2367 38.6275 11.2433 38.6423 11.2536 38.6545C11.2639 38.6666 11.2773 38.6757 11.2925 38.6805C11.38 38.7137 12.0283 38.9459 12.3872 39.0605C11.7418 38.9941 10.4331 38.8735 10.3667 38.8675C10.5416 38.6865 11.9891 37.2782 12.1369 37.1305C13.3438 37.398 14.5682 37.5794 15.8008 37.6733L13.9915 39.2474C13.7563 39.2052 13.2436 39.1479 12.6706 39.0906C12.8154 39.0092 13.1712 38.7016 13.2738 38.6172L13.2647 38.6111ZM11.4553 43.1134C11.4734 43.1285 14.7273 44.9228 14.8901 44.9228C15.053 44.9228 15.5928 44.1749 15.6199 44.1025C15.6252 44.0934 15.628 44.083 15.628 44.0724C15.628 44.0618 15.6252 44.0514 15.6199 44.0422C15.0512 43.6498 14.4624 43.2874 13.8558 42.9566C13.9462 42.8058 14.3232 42.3203 14.4348 42.1032C14.4468 42.0711 14.4468 42.0358 14.4348 42.0037C14.4137 41.9464 14.3835 41.9464 14.2176 41.8589C13.6718 41.5574 13.3522 41.4337 13.2376 41.5363C13.123 41.6388 11.6152 42.7425 11.4493 42.9445C11.434 42.7921 11.3964 42.6428 11.3377 42.5013L13.1471 40.9241C13.71 41.1737 14.2893 41.3843 14.8811 41.5544C14.9987 41.5363 18.2736 38.8584 18.6023 38.59C19.0094 38.8463 18.9039 38.7649 19.0456 38.9157L18.0987 45.9119C17.77 45.9632 15.828 46.4246 15.4058 46.515L11.3589 43.6924C11.426 43.509 11.4587 43.3148 11.4553 43.1195V43.1134ZM13.6748 42.7666C13.6145 42.833 13.515 42.9415 13.6115 43.0682C13.8139 43.2131 14.0265 43.3432 14.2478 43.4572C14.6398 43.6804 15.1193 43.9548 15.3847 44.1448C14.8358 44.7268 14.9565 44.766 14.7182 44.6454C14.1151 44.3438 12.2846 43.418 11.6845 43.0712L13.3642 41.7413C13.4306 41.675 13.4306 41.6991 14.1543 42.1032C14.0141 42.3398 13.8537 42.5638 13.6748 42.7727V42.7666ZM18.3249 45.927C18.5149 44.5187 19.0667 40.3361 19.2296 39.1298L27.613 48.252C25.3392 48.445 25.11 48.4541 25.0799 48.4722L22.7186 49.7417C20.6077 46.8287 20.9093 46.9915 20.6077 46.7502C19.8624 46.436 19.1003 46.1631 18.3249 45.933V45.927ZM40.8967 39.5158C40.8213 39.1962 40.2936 36.9375 40.2453 36.6299L40.3268 36.5243L42.0909 36.4821L46.4846 38.967C45.6463 39.0544 41.4154 39.4645 40.8967 39.5218V39.5158ZM41.4998 41.7474L45.7217 45.2937C44.817 44.8625 42.2206 43.614 41.8647 43.4331C41.735 42.8571 41.6174 42.2902 41.4878 41.7685L41.4998 41.7474ZM27.236 43.1828C28.014 43.9518 28.7619 44.7539 29.4977 45.541C28.982 45.6043 26.7837 45.8637 26.4158 45.924L24.2174 43.5356C24.7964 43.4783 26.6419 43.2582 27.2239 43.1888L27.236 43.1828ZM30.1008 42.7516C30.134 43.3366 30.2486 45.4143 30.2486 45.4143C30.0839 45.4744 29.9111 45.509 29.7359 45.5169C28.9881 44.6725 28.1859 43.8583 27.4803 43.1526C28.9941 42.9747 29.7932 42.9114 30.0888 42.7576L30.1008 42.7516ZM34.2533 37.1214C33.7045 37.0551 32.254 36.8983 31.8408 36.856C32.0881 36.5273 32.9626 35.297 33.0652 35.1854C33.2341 35.0014 33.2491 35.0376 36.5241 34.9834C36.1441 35.3271 34.3649 37.0219 34.2413 37.1274L34.2533 37.1214ZM31.7413 40.7944C31.6147 40.9271 30.4838 42.1334 30.3059 42.3022C30.2878 41.9675 30.2396 41.096 30.2245 40.71L31.7413 40.7944ZM34.1206 37.3295C33.8553 37.5858 31.4639 39.8536 31.2347 40.0888L30.3481 40.0466L30.1943 39.9289C30.1782 39.5671 30.1662 39.2052 30.1581 38.8433C30.2969 38.6895 31.2558 37.5979 31.6659 37.0611L34.1206 37.3295ZM37.088 41.1352C36.8721 41.1248 36.6683 41.0323 36.5184 40.8767C36.3684 40.721 36.2836 40.514 36.2813 40.2978C36.279 40.0817 36.3594 39.8729 36.506 39.7141C36.6525 39.5552 36.8543 39.4584 37.0699 39.4434C38.1615 39.4434 38.1736 41.1141 37.0729 41.1352H37.088ZM35.5802 40.2486C35.5802 40.2486 32.6822 40.1491 31.5513 40.1039C32.1756 39.5188 36.8256 34.9773 36.8256 34.9773C37.1272 34.9773 37.4529 34.9773 37.7936 34.9984C38.0952 35.8096 38.436 36.6238 38.7556 37.4109L37.6157 38.8403C37.3861 38.7555 37.1395 38.7273 36.8967 38.758C36.6539 38.7887 36.422 38.8776 36.2208 39.0169C36.0196 39.1563 35.855 39.3421 35.7409 39.5586C35.6267 39.7751 35.5664 40.0159 35.5651 40.2607L35.5802 40.2486ZM35.7551 40.9995C35.8818 41.2402 36.0713 41.4421 36.3035 41.5839C36.5356 41.7257 36.8018 41.802 37.0739 41.8048C37.3459 41.8076 37.6136 41.7367 37.8486 41.5997C38.0836 41.4627 38.2772 41.2647 38.4088 41.0266L40.8726 41.2196L41.2013 41.4971C41.343 42.073 41.4757 42.6852 41.5933 43.3064C40.5167 43.8418 39.3073 44.0514 38.1133 43.9095C38.1133 43.9095 32.9868 43.608 32.2721 43.5748C32.6701 43.1014 34.0362 41.4639 34.4976 40.9181L35.7551 40.9995ZM40.2091 40.4808C40.2996 40.3903 40.6735 39.9983 40.7761 39.8958L40.954 40.5381L40.2091 40.4808ZM39.6543 44.181C39.1627 44.8022 37.6941 46.7774 37.3081 47.3685H37.0518C37.0066 47.3685 30.6497 50.5529 30.6346 50.5348V49.6513C30.7311 49.5427 35.1098 44.389 35.4174 44.0302C36.1562 44.0362 38.7194 44.2202 39.6543 44.181ZM37.5434 47.3654C37.9927 46.7352 39.4583 44.7147 39.8985 44.1478C40.4795 44.0013 41.045 43.7993 41.5873 43.5447C41.6476 43.5778 42.0396 46.512 42.115 47.275L37.5434 47.3654ZM40.948 39.7752C41.0656 39.745 41.3611 39.7028 41.4938 39.6877C42.5462 40.4808 45.4141 42.6128 45.972 43.032L44.2802 43.225L41.1862 40.6225C41.1319 40.3783 41.0897 40.2215 40.96 39.7631L40.948 39.7752ZM39.8895 40.4718L38.5656 40.3692C38.5656 40.1672 38.5656 39.552 38.1615 39.2474L40.0523 36.8741C40.2031 37.6853 40.6012 39.3439 40.6735 39.6304C40.4006 39.8919 40.1429 40.1688 39.9016 40.4597L39.8895 40.4718ZM32.0097 40.8125L34.2021 40.9241C33.409 41.871 30.9151 44.7509 30.4748 45.2545C30.4476 44.7479 30.3451 42.9777 30.324 42.6008C30.5291 42.4017 31.7082 41.1171 32.0097 40.8125ZM44.1204 39.4404C44.7235 39.8897 47.9472 42.2238 48.6076 42.6852C47.7029 42.8088 46.9671 42.9053 46.2765 42.9868C45.975 42.7546 42.4889 40.137 41.8315 39.6455L44.1204 39.4404ZM30.1099 36.7837C30.3753 36.853 31.0809 36.9797 31.3855 37.0219C31.0839 37.3777 30.1491 38.5026 30.1461 38.5086C30.1189 38.0412 30.0978 37.0762 30.0948 36.7837H30.1099ZM20.8309 33.5932L19.8719 34.2295C19.9292 33.8193 19.9835 33.4092 20.0378 32.9991L20.8309 33.5932ZM19.8417 32.8634L19.7121 33.8344C19.2115 33.8344 16.3678 33.8676 15.4721 33.9008C15.5777 33.8043 16.1265 33.2795 16.3105 33.1167L19.8417 32.8634ZM18.0535 46.1562C17.9962 46.5844 17.7911 48.1133 17.7791 48.1977L15.5988 46.6899C15.9969 46.5934 17.6856 46.1954 18.0535 46.1562ZM18.2947 46.1562C18.6295 46.2316 20.1041 46.711 20.3031 46.8045C20.7012 46.9885 20.6047 47.0759 22.4714 49.8563L20.1644 51.1168L18.0022 48.3666C18.1832 47.0005 18.2194 46.7171 18.2947 46.1712V46.1562ZM30.2486 45.6526C30.2697 46.0928 30.3753 48.4752 30.3934 49.5729C30.2969 49.6874 30.1943 49.8111 30.0918 49.9377L26.6238 46.1682C27.1847 46.1109 29.7601 45.7973 30.2486 45.6676V45.6526ZM32.058 43.8221C32.4289 43.8613 34.5669 43.9638 35.1429 43.994C34.5609 44.6846 30.6195 49.2984 30.6195 49.2984C30.5954 48.0651 30.5502 46.8045 30.4808 45.547C30.7552 45.351 31.9012 44.0121 32.0489 43.8372L32.058 43.8221ZM49.3374 47.4408L44.5546 43.409C46.1016 43.219 52.3319 42.3143 52.4525 42.2992C52.8837 43.6954 53.8457 46.7502 54.0055 47.2569C53.4205 47.2931 50.2059 47.4257 49.3283 47.4619L49.3374 47.4408ZM48.87 42.6159C48.5141 42.3324 45.1306 39.8747 44.4431 39.3771C44.9255 39.3379 46.4092 39.2112 46.8555 39.1479L52.157 42.1364C51.2101 42.2962 49.5213 42.5495 48.8609 42.649L48.87 42.6159ZM28.5568 32.978L25.6769 31.2651L26.455 30.7585C27.23 31.2078 29.3198 32.3718 29.5822 32.5166C29.353 32.6191 28.7921 32.8724 28.5568 32.978ZM28.774 38.8463L25.4779 36.3072C25.6196 36.0931 26.2228 35.2005 26.3524 35.0075C26.7535 35.2306 29.4977 36.5605 29.8747 36.7143C29.8747 36.7384 29.9048 38.1708 29.9229 38.7227C29.754 38.7529 29.0454 38.8343 28.774 38.8463ZM29.8717 36.4942C29.6515 36.3947 26.7083 34.9291 26.4761 34.8235C27.1395 33.8344 27.1516 33.8706 27.8723 33.5419C28.4754 33.2705 29.546 32.782 29.8596 32.6372C29.8475 33.8857 29.8505 35.1884 29.8717 36.4942ZM27.3265 33.5449C26.7807 33.2433 24.8084 32.3025 24.3772 32.1034L25.4749 31.3888C25.7765 31.5818 27.6823 32.7458 28.3035 33.0956C27.7336 33.361 27.4049 33.5117 27.3265 33.5449ZM25.0587 33.7982C24.7572 33.6384 23.6987 32.9267 23.4092 32.7337L24.1691 32.2392C24.4375 32.3598 26.5002 33.3368 27.1395 33.6685C26.8108 33.8827 26.7686 33.9701 25.306 36.1745L22.016 33.6414L23.183 32.8815C23.4092 33.0262 24.6908 33.756 24.9924 33.9188C25.0003 33.9242 25.0092 33.9279 25.0186 33.9298C25.0279 33.9317 25.0376 33.9318 25.047 33.93C25.0564 33.9281 25.0653 33.9245 25.0733 33.9192C25.0812 33.914 25.0881 33.9072 25.0934 33.8992C25.0988 33.8913 25.1025 33.8824 25.1044 33.8731C25.1063 33.8637 25.1064 33.854 25.1045 33.8447C25.1027 33.8353 25.0991 33.8264 25.0938 33.8184C25.0885 33.8104 25.0817 33.8036 25.0738 33.7982H25.0587ZM29.8626 32.3598C29.7118 32.4563 30.0707 32.4985 26.6238 30.6409C27.1878 30.276 27.227 30.273 27.2782 30.1433C27.6341 30.2911 29.2233 30.9666 29.8777 31.247C29.8717 31.6179 29.8656 31.9889 29.8626 32.3598ZM21.437 33.1981L20.1403 32.1999L20.7736 27.4504C21.3224 27.6886 26.3404 29.7543 26.5816 29.8629L21.437 33.1981ZM20.2639 29.706C20.1554 30.5233 20.0438 31.3405 19.9352 32.1577L14.0699 32.592C14.5252 31.7928 14.9746 30.9877 15.4329 30.0951C15.9576 30.089 19.6819 29.7633 20.2639 29.706ZM10.1164 38.8433C10.1037 38.8659 10.0971 38.8913 10.0971 38.9172C10.0971 38.9431 10.1037 38.9685 10.1164 38.9911C10.1677 39.0725 10.2974 39.0785 10.3908 39.0846C10.6924 39.1027 13.0114 39.3138 13.8226 39.4193L10.9397 41.9434C10.7397 41.7579 10.4962 41.6256 10.2317 41.5589C9.96723 41.4922 9.69019 41.4932 9.42614 41.5616C9.16209 41.6301 8.91953 41.764 8.72079 41.9509C8.52206 42.1377 8.37356 42.3716 8.28896 42.6309L6.90782 42.5073C7.10986 41.7474 9.16651 34.1661 9.3203 33.6354L16.027 33.1378C15.2641 33.8585 10.1586 38.7318 10.1164 38.8433ZM49.5967 47.6881C49.8229 47.6881 53.6768 47.5041 54.0598 47.477C54.473 48.7767 55.5314 52.0668 55.8089 52.9232L49.5967 47.6881ZM39.9166 35.9483L38.9185 37.1998C38.6169 36.4278 38.3153 35.6257 37.9897 34.8446C37.9474 34.7451 37.8751 34.7572 37.7997 34.7572C37.1966 34.7572 33.991 34.7813 33.2763 34.8567C32.83 34.9049 32.9144 35.0376 31.5272 36.8289C31.0458 36.7675 30.5677 36.6819 30.0948 36.5726C30.0767 35.2336 30.0767 33.8585 30.0948 32.4744C30.2878 32.2753 31.9373 30.5474 32.1092 30.3634C32.6008 30.1584 38.0319 28.0836 38.9124 27.7549C38.9456 28.0354 39.8292 35.3271 39.9166 35.9483ZM20.2911 29.5281C20.2911 29.5281 15.9667 29.8598 15.5415 29.9051C15.7224 29.5613 15.9064 29.2175 16.0934 28.8737C16.8925 28.6144 19.7392 27.6977 20.5745 27.4383C20.478 28.1359 20.3836 28.8325 20.2911 29.5281ZM15.8159 28.9642C15.1645 30.1554 14.4649 31.3767 13.8347 32.6131L9.50425 32.9358C9.65503 32.3809 10.0109 31.0872 10.0833 30.8248C10.5989 30.6831 15.252 29.1512 15.8159 28.9642ZM5.94584 46.2677C6.1901 45.2877 6.44945 44.2744 6.73593 43.1737L8.22564 43.3094C8.2565 43.5737 8.35176 43.8264 8.50307 44.0452L5.94584 46.2677ZM23.1348 50.2966L25.294 49.1356L28.207 48.8883L30.4114 51.3008C30.4114 51.6325 30.2938 56.1258 30.2757 56.753C29.0966 56.1288 26.265 54.6602 26.265 54.6602C26.0268 54.3285 23.4424 50.7308 23.1257 50.2966H23.1348ZM30.6467 51.3279L37.2177 48.0409L42.1512 47.9565L42.4528 50.7278C38.445 52.893 34.9137 54.7718 30.4687 56.759C30.5652 55.2482 30.6346 51.8074 30.6376 51.3279H30.6467ZM44.7326 35.7373C45.892 34.3888 46.7926 32.8379 47.3893 31.1626C47.9924 31.3676 48.6257 31.5848 49.3012 31.8079C49.4701 32.3899 50.2059 34.9261 50.3959 35.6076L44.7326 35.7373ZM46.0383 27.7881C46.0383 28.19 45.8787 28.5754 45.5945 28.8596C45.3103 29.1438 44.9249 29.3035 44.523 29.3035C44.1211 29.3035 43.7356 29.1438 43.4515 28.8596C43.1673 28.5754 43.0076 28.19 43.0076 27.7881C43.0468 25.7858 45.9991 25.7858 46.0383 27.7942V27.7881ZM18.8014 17.5532C18.8014 17.4567 18.8255 17.3541 18.8376 17.2516C18.9793 17.3782 20.7404 18.9373 21.2289 19.3625L17.179 19.9867C16.8521 19.8554 16.5718 19.6297 16.3738 19.3384C16.1311 17.3085 16.0545 15.2621 16.1446 13.2197C16.4733 12.5261 16.5306 12.7553 15.5717 11.3109C15.632 11.1601 15.9396 10.5449 16.0753 10.2584C18.4093 12.5442 18.7591 14.429 18.6295 17.532C18.6299 17.5531 18.6378 17.5733 18.6519 17.589C18.6661 17.6046 18.6853 17.6147 18.7063 17.6172C18.7272 17.6198 18.7483 17.6147 18.7658 17.603C18.7833 17.5912 18.7959 17.5735 18.8014 17.5532ZM4.46819 22.9209C4.26055 22.6986 4.09046 22.444 3.96459 22.167C3.95899 22.151 3.94726 22.1379 3.932 22.1306C3.91673 22.1232 3.89916 22.1222 3.88317 22.1278C3.86717 22.1334 3.85405 22.1451 3.8467 22.1604C3.83935 22.1757 3.83836 22.1933 3.84396 22.2092C3.93302 22.519 4.0861 22.8067 4.29329 23.0536C4.40788 23.1742 4.14854 23.2104 4.03395 23.123C3.84153 22.9368 3.68781 22.7144 3.5816 22.4686C3.4696 22.1497 3.3957 21.8187 3.36147 21.4825C3.77548 21.3865 4.17939 21.2511 4.56771 21.0784C4.7788 21.4553 5.29145 21.5941 5.397 21.9831C5.397 22.0012 5.32764 22.0042 5.28542 22.0072C5.24302 22.001 5.19975 22.0052 5.15931 22.0194C5.11888 22.0336 5.08248 22.0573 5.05322 22.0886C4.89641 22.2846 5.21305 22.4565 5.35478 22.6495C5.49651 22.8425 5.41811 23.1652 5.10449 22.9028C4.84526 22.6697 4.61357 22.4076 4.41391 22.1218C4.40631 22.1082 4.39363 22.0982 4.37864 22.0939C4.36365 22.0897 4.3476 22.0916 4.334 22.0992C4.3204 22.1068 4.31038 22.1195 4.30614 22.1345C4.3019 22.1494 4.30378 22.1655 4.31138 22.1791C4.46486 22.4723 4.65209 22.7466 4.86927 22.9963C4.88126 23.0113 4.88779 23.0299 4.88779 23.0491C4.88779 23.0683 4.88126 23.0869 4.86927 23.1019C4.85885 23.1178 4.84335 23.1298 4.82529 23.1358C4.80722 23.1418 4.78765 23.1415 4.76975 23.135C4.65239 23.091 4.54847 23.0172 4.46819 22.9209ZM5.58698 17.3933C5.41963 18.8795 5.42166 20.3798 5.59301 21.8655H5.54778C5.40906 21.4342 5.09845 21.5006 4.68532 20.9608C4.84213 20.6261 5.27034 18.5091 5.58698 17.3933ZM10.7738 18.298C10.9759 16.2263 10.5115 14.1154 10.0863 12.0527C9.99278 11.5913 9.98373 11.7029 11.4644 10.6715C11.766 10.9429 12.0675 11.2174 12.4173 11.5159C11.9107 14.052 11.5036 15.8071 10.7738 18.295V18.298ZM15.7435 13.7022C14.1694 17.3933 14.4529 19.9144 14.869 12.3573C15.0634 12.2832 15.2462 12.1816 15.4118 12.0557C15.4674 11.909 15.498 11.7541 15.5023 11.5973C15.6229 11.7783 16.1295 12.5292 16.1506 12.6136C16.0417 12.9859 15.9057 13.3498 15.7435 13.7022ZM12.5832 11.6576C12.9388 11.9698 13.3157 12.257 13.711 12.5171C14.0281 12.5979 14.3636 12.5637 14.6579 12.4206C14.5735 13.5665 14.3021 19.1152 14.2478 20.4391L10.0742 21.1176C11.1329 18.0275 11.9713 14.8663 12.5832 11.6576ZM14.5463 17.9904C14.9128 16.5277 15.3793 15.0919 15.9426 13.6932C15.8208 15.8449 15.9218 18.0035 16.2441 20.1345L14.4348 20.4361C14.4197 20.3939 14.5192 18.1352 14.5463 17.9934V17.9904ZM15.246 11.8838C15.2007 11.9954 14.2538 12.3542 14.0126 12.3542C13.7998 12.3311 13.6026 12.2314 13.4577 12.0738C13.4577 12.0738 10.4994 9.46228 10.3275 9.28436C10.2868 9.24684 10.2597 9.19689 10.2505 9.14233C10.2412 9.08776 10.2502 9.03166 10.2762 8.9828C10.2762 8.93154 10.6894 7.7253 10.9879 7.3393C11.106 7.17063 11.2652 7.03497 11.4505 6.94523C11.6357 6.8555 11.8409 6.81467 12.0464 6.82665C12.0464 6.95029 12.0464 8.01178 12.0645 8.28921C11.9338 8.12739 11.814 7.95714 11.7056 7.77958C11.6604 7.68911 11.5307 7.76148 11.5699 7.84894C11.7599 8.25604 13.9131 10.8404 14.0126 10.952C14.0728 11.0269 14.1569 11.0791 14.2508 11.0998C14.4287 11.1209 14.5313 10.9641 14.6248 10.7982C15.2822 9.69147 15.3636 10.1317 14.7454 8.78679C14.931 8.83201 15.1246 8.83348 15.3109 8.79109C15.4972 8.7487 15.6711 8.66361 15.8189 8.54253C15.9488 8.65064 16.0472 8.79162 16.1039 8.95075C16.1607 9.10989 16.1737 9.28133 16.1416 9.44721C16.027 10.3609 15.2641 10.9671 15.246 11.8868V11.8838ZM15.4269 1.72123C16.1985 1.50575 16.9934 1.38425 17.7942 1.35935C18.3098 1.35935 18.9341 1.35935 18.7953 1.86598C18.6394 2.33572 18.3565 2.75319 17.9781 3.07222C17.6923 2.65858 17.3108 2.32004 16.8661 2.08536C16.4214 1.85069 15.9267 1.72681 15.4239 1.72424L15.4269 1.72123ZM10.2461 9.50149C10.2461 9.50149 11.003 10.2463 11.2895 10.5147C9.99881 11.4194 9.92342 11.4194 9.84502 11.6124C9.82617 11.9268 9.85669 12.2423 9.93548 12.5472C10.6803 16.0815 10.8583 18.2075 9.89327 21.1538C8.20151 21.4252 6.75101 21.6634 5.78601 21.8323C5.64913 20.4447 5.64509 19.0471 5.77395 17.6587C6.00314 15.406 6.15995 16.368 8.29198 14.0852C8.30182 14.0711 8.30633 14.054 8.30469 14.0369C8.30306 14.0198 8.29539 14.0038 8.28306 13.9918C8.27072 13.9799 8.25453 13.9727 8.23738 13.9715C8.22023 13.9704 8.20324 13.9754 8.18945 13.9857C6.94702 15.2462 6.00314 15.587 5.68348 16.5188C5.11956 18.1502 4.64611 20.62 4.57072 20.813C4.54961 20.8673 4.33551 20.997 3.14736 21.2563C1.51893 17.0405 3.02975 12.7101 6.99829 10.2222C7.90297 9.6583 8.94637 9.04613 10.1164 8.83504C9.9958 9.19993 10.029 9.28436 10.2461 9.50149ZM15.0168 8.63902C14.8389 8.63902 14.5102 8.38571 14.4438 8.86218C14.4431 8.91893 14.4264 8.97433 14.3956 9.02201C14.2991 9.13358 14.5373 9.27833 14.6097 8.96471C14.7393 9.24215 15.0047 9.81511 14.9323 9.95081C14.8328 10.1317 14.3684 10.8284 14.3292 10.8706C14.29 10.9128 14.2599 10.8917 14.2116 10.8525C14.0789 10.7409 12.9752 9.44721 12.2726 8.56363C12.2997 8.15351 12.2726 6.89299 12.2515 6.4708C12.6013 6.02148 12.6284 6.01545 12.5772 5.97624C12.5012 5.92199 12.4413 5.84825 12.4038 5.7628C12.3663 5.67734 12.3525 5.58335 12.3639 5.49072C12.3753 5.39809 12.4115 5.31026 12.4687 5.23649C12.5259 5.16272 12.6019 5.10574 12.6887 5.07156C12.7658 5.04601 12.8484 5.04211 12.9275 5.06029C13.0066 5.07847 13.0793 5.11803 13.1374 5.17465C13.1956 5.23128 13.2371 5.30279 13.2575 5.3814C13.2778 5.46 13.2761 5.54268 13.2527 5.6204C13.251 5.62886 13.2518 5.63762 13.2549 5.64564C13.2581 5.65366 13.2635 5.66062 13.2704 5.66569C13.2774 5.67076 13.2857 5.67373 13.2943 5.67425C13.3029 5.67478 13.3115 5.67284 13.319 5.66865C13.4742 5.60054 13.6115 5.49731 13.7201 5.36709C13.8226 5.26155 13.2677 5.06553 12.5681 4.35083C12.36 4.13673 12.5199 4.00705 12.7279 4.21815C13.1116 4.54346 13.5144 4.84555 13.9342 5.12283C13.9945 5.16203 14.0307 5.05347 14.1905 4.80317C14.1976 4.79414 14.2015 4.78299 14.2015 4.77151C14.2015 4.76003 14.1976 4.74888 14.1905 4.73985C13.9553 4.58303 13.7382 4.36893 13.521 4.19402C13.3612 4.06435 13.4306 3.89246 13.6145 4.02213C13.7985 4.1518 14.1905 4.4413 14.2719 4.48955C14.2802 4.49697 14.291 4.50107 14.3021 4.50107C14.3132 4.50107 14.3239 4.49697 14.3322 4.48955C14.4089 4.24326 14.4703 3.99249 14.5162 3.73867C15.2007 5.3882 16.3979 4.98713 17.0614 5.39423C16.986 5.69579 16.9015 5.99735 16.799 6.34113C16.4613 7.34835 16.1657 8.62696 15.0168 8.63299V8.63902ZM16.4884 1.13318C14.7854 1.38325 13.1666 2.03555 11.766 3.03603C11.6664 0.454672 14.7665 -0.658087 16.4884 1.13318ZM11.5699 3.75073C11.513 4.41997 11.5868 5.0939 11.7871 5.735C11.4272 5.80181 11.0599 5.81906 10.6954 5.78626C10.1647 5.76515 10.1496 5.18314 10.4421 4.84238C10.7852 4.446 11.1626 4.08069 11.5699 3.75073ZM24.2355 21.0784C24.1842 21.0784 24.0998 21.0573 24.0877 21.0151C24.2067 20.7409 24.2544 20.4411 24.2264 20.1436C24.6094 19.8993 24.7572 20.032 24.6818 20.4451C24.6245 20.5748 24.5642 21.0211 24.2295 21.0784H24.2355ZM23.2222 21.0482C23.2254 21.0343 23.2254 21.0199 23.2222 21.006C23.2222 20.4662 23.4906 20.0109 24.0274 20.1526C24.0518 20.4768 23.9926 20.8017 23.8555 21.0965C23.6655 21.4312 23.2645 21.4614 23.2162 21.0482H23.2222ZM7.50189 28.4606L5.24019 27.372C5.20098 27.3358 4.67325 27.0342 4.70039 26.9166C4.72754 26.799 5.17384 25.8008 5.42112 25.1495L8.88605 24.4257C8.27992 25.8069 7.58331 27.1126 7.50189 28.4606ZM11.5036 27.8967C11.489 27.8615 11.4882 27.8222 11.5014 27.7864C11.5146 27.7507 11.5408 27.7213 11.5748 27.7042C11.6087 27.687 11.6479 27.6833 11.6845 27.6938C11.7211 27.7044 11.7524 27.7284 11.772 27.761C12.1851 27.4594 12.6133 27.1398 13.0657 26.8563C12.9782 26.609 12.8847 26.3617 12.7913 26.1145C12.6405 26.1808 12.4897 26.2502 12.3811 26.3165C12.3466 26.3336 12.3068 26.3367 12.2699 26.3253C12.2331 26.3139 12.202 26.2889 12.1831 26.2553C12.1642 26.2217 12.1588 26.1821 12.1682 26.1447C12.1775 26.1073 12.2009 26.0749 12.2334 26.0541C12.3661 25.9818 12.5168 25.9064 12.6797 25.834C12.6797 25.7978 12.6525 25.7616 12.6375 25.7254C12.6227 25.6883 12.6233 25.6467 12.6391 25.6099C12.6549 25.5732 12.6847 25.5442 12.7219 25.5294C12.7591 25.5146 12.8006 25.5152 12.8374 25.5311C12.8742 25.5469 12.9031 25.5767 12.9179 25.6139C12.9963 25.8069 12.7551 25.7134 14.5373 25.1555C14.4703 24.9421 14.4228 24.7231 14.3956 24.5011C14.3956 24.4559 14.3745 24.4438 14.3383 24.4559C12.4987 25.0861 11.0452 25.0258 9.66107 24.2508L10.3969 24.097C11.6859 24.4879 13.0648 24.4668 14.3413 24.0367C14.4197 24.0126 14.3413 23.8739 14.4287 23.2346L16.2894 22.8305C16.4711 23.8611 16.7056 24.8817 16.992 25.8883C16.7069 25.9542 16.426 26.0367 16.1506 26.1356C16.1205 26.1145 16.1838 26.0994 15.1766 26.5095C15.1434 26.4582 15.0771 26.3527 14.9957 26.2079C14.4571 26.4236 13.9385 26.686 13.4456 26.992C13.5964 27.4202 13.7472 27.8424 13.8528 28.2374C14.2086 28.0806 14.5644 27.9359 14.8811 27.7942C14.8177 27.5891 14.7484 27.387 14.673 27.191C14.6621 27.1552 14.6649 27.1165 14.6809 27.0826C14.697 27.0488 14.725 27.022 14.7597 27.0077C14.7943 26.9934 14.8331 26.9925 14.8683 27.0052C14.9036 27.0179 14.9329 27.0433 14.9504 27.0764C15.0313 27.2675 15.1017 27.4628 15.1615 27.6615L15.9788 27.3237C16.0159 27.3085 16.0577 27.3087 16.0947 27.3243C16.1317 27.3398 16.1611 27.3695 16.1763 27.4066C16.1915 27.4438 16.1913 27.4855 16.1757 27.5226C16.1602 27.5596 16.1305 27.589 16.0934 27.6042L15.243 27.9721C15.3304 28.2917 15.4028 28.6114 15.4571 28.8768L15.1555 28.9702C15.1012 28.7079 15.0349 28.3973 14.9504 28.0836L13.9251 28.5269C14.0066 28.8044 14.0759 29.0637 14.1332 29.2989L13.8316 29.3924C13.7804 29.1693 13.714 28.919 13.6356 28.6476C13.1411 28.8677 12.6676 29.0878 12.3118 29.2718C12.3721 29.4527 12.4294 29.6427 12.4837 29.8267L12.1821 29.9202C12.0374 29.2839 11.7388 28.4576 11.5036 27.8967Z" fill="white"/>
<path d="M15.2366 32.1787L16.4609 32.1033C16.5133 32.1077 16.5659 32.0983 16.6135 32.0761C16.6611 32.0539 16.702 32.0196 16.7323 31.9767C16.7323 31.9767 16.9555 30.8971 16.8318 30.8036C16.4295 30.7852 16.0263 30.7963 15.6256 30.8368C15.4808 30.8941 15.1733 31.8892 15.1371 32.043C15.1324 32.0586 15.1314 32.0751 15.1342 32.0912C15.137 32.1073 15.1435 32.1225 15.1531 32.1356C15.1627 32.1488 15.1753 32.1595 15.1898 32.167C15.2043 32.1745 15.2203 32.1785 15.2366 32.1787ZM15.3874 31.9616C15.4477 31.7837 15.6588 31.1202 15.713 31.0207C15.8246 31.0207 16.4971 30.9785 16.672 30.9755C16.672 31.1414 16.5755 31.7837 16.5634 31.85C16.5514 31.9164 16.6298 31.9073 15.3874 31.9616ZM11.9918 32.3566C12.4415 32.3739 12.8918 32.3608 13.3398 32.3174C13.4755 32.2933 13.5117 32.1908 13.5448 32.0883C13.7295 31.582 13.9471 31.0884 14.1962 30.6106C14.2064 30.5943 14.2115 30.5753 14.2109 30.556C14.2102 30.5367 14.2037 30.5181 14.1924 30.5025C14.181 30.487 14.1653 30.4751 14.1471 30.4686C14.129 30.4621 14.1093 30.4611 14.0907 30.4659C14.0907 30.4659 12.6733 30.7674 12.5828 30.8338C12.3244 31.2801 12.1035 31.7471 11.9224 32.23C11.9149 32.256 11.918 32.2839 11.931 32.3076C11.944 32.3313 11.9659 32.349 11.9918 32.3566ZM13.2945 32.1124C13.0714 32.1124 12.4079 32.1757 12.1637 32.1697C12.3205 31.7567 12.5028 31.3538 12.7095 30.9634C12.7789 30.9182 13.6534 30.7493 13.9157 30.692C13.8042 30.9725 13.376 31.9948 13.2945 32.1184V32.1124ZM9.52201 36.5152C10.6468 36.4187 10.6197 36.4398 10.677 36.3584C10.7343 36.2769 10.9966 34.4163 10.9966 34.172C10.9959 34.1502 10.9866 34.1295 10.9709 34.1143C10.9551 34.0991 10.9341 34.0906 10.9122 34.0906C9.7331 34.1419 9.70596 34.1781 9.68787 34.1962C9.66977 34.2143 9.38631 36.1804 9.38631 36.4157C9.38313 36.4329 9.38488 36.4507 9.39137 36.4671C9.39785 36.4834 9.4088 36.4976 9.42297 36.5079C9.43713 36.5183 9.45393 36.5245 9.47145 36.5258C9.48897 36.5271 9.50649 36.5234 9.52201 36.5152ZM10.5533 36.1292C10.5322 36.3041 10.6679 36.2498 9.57931 36.3553C9.57931 36.3192 9.80548 34.546 9.83865 34.3349C9.98943 34.3108 10.5895 34.2504 10.8097 34.2504C10.7675 34.4646 10.683 35.0948 10.5533 36.1292ZM12.5949 35.4024C12.6673 35.4416 12.7276 35.4024 12.7939 35.3692C13.2639 35.0383 13.7066 34.6702 14.1178 34.2685C14.16 34.2082 14.0635 34.1298 13.2644 33.6202C13.1769 33.5629 13.1166 33.5146 13.0322 33.6202C13.0322 33.6202 12.04 34.8566 12.1064 34.9832C12.2487 35.1452 12.4132 35.2864 12.5949 35.4024ZM12.6552 35.2456C12.5284 35.1356 12.4076 35.0188 12.2934 34.8958C12.4019 34.739 13.0684 33.8584 13.1468 33.768C13.2222 33.8132 13.7167 34.1328 13.8735 34.2354C13.8253 34.2806 12.7608 35.2999 12.6552 35.2456ZM13.9942 37.8089C13.4725 37.6309 12.8995 37.444 12.2421 37.2329C12.23 37.2293 12.2172 37.2284 12.2047 37.2302C12.1922 37.232 12.1802 37.2365 12.1696 37.2434C12.159 37.2502 12.15 37.2593 12.1433 37.27C12.1365 37.2807 12.1322 37.2927 12.1305 37.3053C11.8802 37.7757 11.8621 37.7787 11.8862 37.833C11.8914 37.8446 11.8993 37.8548 11.9093 37.8627C11.9193 37.8706 11.931 37.8759 11.9435 37.8782C12.0943 37.9204 13.6323 38.409 13.7951 38.421C13.9097 38.421 13.8494 38.2944 14.0334 37.8993C14.0372 37.8909 14.0393 37.8817 14.0394 37.8724C14.0394 37.8631 14.0376 37.8539 14.0339 37.8454C14.0302 37.8368 14.0247 37.8292 14.0179 37.8229C14.0111 37.8166 14.003 37.8118 13.9942 37.8089ZM12.0883 37.7425L12.2541 37.4229L13.8856 37.9114C13.8343 38.026 13.7891 38.1345 13.7529 38.2371C13.4905 38.1496 12.3657 37.8209 12.0883 37.7425ZM21.6508 43.9034C21.6508 43.9034 22.1876 43.433 22.3594 43.2762C22.3701 43.2658 22.3786 43.2533 22.3844 43.2396C22.3902 43.2259 22.3932 43.2111 22.3932 43.1962C22.3932 43.1813 22.3902 43.1666 22.3844 43.1529C22.3786 43.1391 22.3701 43.1267 22.3594 43.1163C21.2949 42.0458 21.2708 41.8709 21.0838 41.9553C21.0115 41.9885 20.5501 42.2569 20.4807 42.3202C20.4578 42.3338 20.439 42.3532 20.4263 42.3766C20.4135 42.4 20.4073 42.4263 20.4083 42.4529C20.7413 42.9391 21.1039 43.4044 21.494 43.8461C21.4993 43.8611 21.5079 43.8747 21.5192 43.8861C21.5304 43.8974 21.544 43.9061 21.5589 43.9115C21.5739 43.917 21.5899 43.9191 21.6058 43.9177C21.6216 43.9163 21.637 43.9114 21.6508 43.9034ZM20.5983 42.4589C20.9783 42.2569 21.114 42.1815 21.1351 42.1785C21.1562 42.1755 22.088 43.1616 22.1152 43.1917L21.5784 43.6802C21.4819 43.5566 20.6617 42.5373 20.5983 42.4589ZM21.9403 44.4251C21.9267 44.4327 21.915 44.4434 21.9062 44.4562C21.8973 44.469 21.8915 44.4837 21.8892 44.4991C21.8869 44.5145 21.8881 44.5303 21.8928 44.5451C21.8974 44.56 21.9054 44.5736 21.9161 44.5849C22.3474 45.0885 24.401 47.4105 24.404 47.4166C24.4381 47.4564 24.4801 47.4888 24.5273 47.5117C24.5746 47.5345 24.626 47.5473 24.6784 47.5493C25.117 47.44 25.545 47.2916 25.9571 47.106C25.9738 47.0971 25.9882 47.0846 25.9993 47.0692C26.0104 47.0539 26.0179 47.0363 26.0211 47.0176C26.0243 46.999 26.0232 46.9799 26.0178 46.9617C26.0125 46.9436 26.003 46.9269 25.9902 46.913C25.5258 46.343 23.5506 44.0542 23.4059 43.9456C23.1013 43.7134 22.5524 44.1296 21.9403 44.4251ZM23.3365 44.1748C23.436 44.2803 25.3449 46.5089 25.7007 46.9461C25.4414 47.0487 24.7689 47.2899 24.7267 47.299C24.6992 47.3075 24.6697 47.3075 24.6423 47.2988C24.6148 47.2902 24.5906 47.2734 24.5729 47.2507C24.5729 47.2507 22.6339 45.0976 22.1604 44.5367C22.4801 44.3738 23.0651 44.0874 23.1405 44.0723C23.1803 44.0686 23.2203 44.077 23.2552 44.0963C23.2902 44.1157 23.3185 44.1452 23.3365 44.1808V44.1748ZM26.2556 41.8618C25.7829 41.9869 25.3169 42.1358 24.8594 42.3081C24.7237 42.3353 24.8111 42.3081 24.0904 41.3341C23.9396 41.126 23.7527 40.8667 23.4481 40.9933C23.2159 41.126 22.4831 41.2617 22.6761 41.4849C22.8691 41.708 23.9698 42.9776 24.012 43.0168C24.0419 43.0503 24.0787 43.077 24.1197 43.0952C24.1608 43.1134 24.2053 43.1227 24.2502 43.1224C24.3377 43.1224 24.2291 43.1465 26.7049 42.5464C26.7216 42.5423 26.7371 42.5343 26.75 42.5231C26.763 42.5119 26.7732 42.4978 26.7797 42.4819C26.7861 42.466 26.7887 42.4488 26.7873 42.4317C26.7858 42.4146 26.7803 42.3981 26.7713 42.3835C26.627 42.1844 26.4531 42.0084 26.2556 41.8618ZM23.5204 41.1652C23.5466 41.1539 23.5748 41.148 23.6034 41.148C23.6319 41.148 23.6601 41.1539 23.6863 41.1652C23.7768 41.2436 24.6091 42.5011 24.7749 42.5223C24.8624 42.5223 26.135 42.0609 26.2586 42.094C26.3466 42.1735 26.4255 42.2625 26.4938 42.3594C26.0867 42.4559 24.3618 42.8721 24.2291 42.8871C24.1748 42.8389 23.8974 42.5403 22.9234 41.4246C23.1525 41.313 23.4571 41.2014 23.5204 41.1652Z" fill="white"/>
<path d="M24.6568 41.4072C24.6724 41.4216 24.6929 41.4296 24.7141 41.4296C24.7354 41.4296 24.7558 41.4216 24.7714 41.4072C25.0489 41.1991 25.6429 40.804 25.6429 40.7226C25.6429 40.6412 25.2238 40.2763 25.1816 40.2582C25.0338 40.1949 24.3824 40.6804 24.31 40.7166C24.2797 40.7293 24.2549 40.7523 24.24 40.7816C24.2251 40.8108 24.2211 40.8444 24.2286 40.8764C24.3452 41.0729 24.4894 41.2516 24.6568 41.4072ZM25.3957 40.7287L24.7111 41.2292C24.6448 41.1539 24.4759 40.9277 24.4277 40.8764C24.5332 40.798 24.9584 40.5236 25.067 40.4633C25.1872 40.5376 25.2977 40.6267 25.3957 40.7287ZM27.9619 39.8933C27.1538 40.0049 26.5325 39.5435 26.1888 39.4832C26.145 39.474 26.0995 39.4777 26.0578 39.4938C26.0161 39.5098 25.9799 39.5376 25.9535 39.5737C25.4831 40.0682 25.4168 40.21 25.4439 40.2401C25.5816 40.3864 25.7298 40.5224 25.8872 40.6472C26.0169 40.7558 26.1043 40.6804 26.234 40.5869C26.304 40.5309 26.3775 40.4796 26.4541 40.4331C26.5264 40.4498 26.5971 40.4731 26.6652 40.5025C26.9816 40.6459 27.3224 40.7277 27.6694 40.7437C27.7613 40.7633 27.8568 40.7549 27.9438 40.7196C27.9981 40.6895 28.0524 40.5779 28.0765 39.9898C28.0774 39.9753 28.0748 39.9608 28.0691 39.9474C28.0633 39.9341 28.0546 39.9222 28.0434 39.9129C28.0323 39.9035 28.0191 39.8968 28.005 39.8935C27.9908 39.8901 27.9761 39.89 27.9619 39.8933ZM26.1707 39.6732C26.2219 39.6732 26.5145 39.8089 26.6471 39.8692C27.0338 40.0362 27.4539 40.1116 27.8745 40.0893C27.8323 40.5688 27.8745 40.5417 27.7478 40.5537C27.2352 40.599 26.6109 40.2522 26.4933 40.2371C26.3757 40.222 26.0742 40.5176 26.0018 40.5176C25.8686 40.4181 25.7435 40.3082 25.6279 40.1889C25.7969 40.0049 25.9783 39.8326 26.1707 39.6732ZM23.0375 36.1721C22.7841 35.9761 21.3005 34.6884 21.1527 34.6884C20.7632 34.9135 20.3885 35.1633 20.0309 35.4363C20.0178 35.4451 20.0071 35.457 19.9998 35.4709C19.9924 35.4849 19.9885 35.5004 19.9885 35.5162C19.9885 35.532 19.9924 35.5475 19.9998 35.5614C20.0071 35.5753 20.0178 35.5873 20.0309 35.5961C20.3325 35.8343 22.0152 36.9622 22.0302 36.9742C22.2263 37.1039 22.3861 36.8928 22.5067 36.7903C22.6786 36.6485 22.8595 36.4887 23.0405 36.3319C23.0518 36.3218 23.0608 36.3093 23.0668 36.2954C23.0729 36.2815 23.0759 36.2665 23.0756 36.2513C23.0753 36.2361 23.0717 36.2212 23.0652 36.2075C23.0586 36.1939 23.0491 36.1818 23.0375 36.1721ZM22.8053 36.2505C22.2202 36.739 22.178 36.8084 22.1418 36.7873C22.1056 36.7661 20.634 35.7861 20.245 35.5056C20.5106 35.2665 20.8067 35.0637 21.1256 34.9025C21.219 34.9447 22.4675 35.967 22.8053 36.2505ZM23.6647 29.2633C23.1717 29.5454 22.7045 29.8703 22.2685 30.2343C22.1026 30.3912 22.3861 30.5359 22.4585 30.6053L22.8837 30.9611C22.7329 31.0924 22.5726 31.2123 22.4042 31.32C22.3873 31.3298 22.3732 31.3439 22.3635 31.3608C22.3537 31.3777 22.3486 31.3969 22.3486 31.4165C22.3486 31.436 22.3537 31.4552 22.3635 31.4721C22.3732 31.4891 22.3873 31.5032 22.4042 31.513C22.4808 31.5639 22.5603 31.6102 22.6424 31.6517C22.8414 31.7633 22.9229 31.8447 23.0616 31.7602C23.2938 31.6155 25.5404 30.3037 25.5645 30.2042C25.5887 30.1047 25.4831 30.0504 25.4318 30.0263C23.7672 29.2663 23.7914 29.2452 23.6647 29.2633ZM23.7552 29.4774C23.8336 29.4955 24.6991 29.8966 25.3082 30.1831C25.1303 30.2796 22.9862 31.5461 22.959 31.5672C22.8532 31.5198 22.7522 31.4623 22.6575 31.3954C22.7992 31.2627 22.959 31.1451 23.0978 31.0305C23.1069 31.022 23.1142 31.0117 23.1192 31.0003C23.1242 30.9889 23.1267 30.9766 23.1267 30.9641C23.1267 30.9517 23.1242 30.9393 23.1192 30.9279C23.1142 30.9165 23.1069 30.9062 23.0978 30.8978C23.0133 30.8284 22.5218 30.4515 22.4162 30.3339C22.6304 30.1861 23.6315 29.4774 23.7552 29.4774ZM37.1565 49.0487C37.1037 48.9975 37.0376 48.9619 36.9658 48.9459C36.8939 48.9299 36.819 48.9342 36.7494 48.9582C36.7313 48.9582 34.2826 50.2489 34.2344 50.2881C34.224 50.2981 34.2164 50.3105 34.2122 50.3242C34.208 50.3379 34.2073 50.3525 34.2103 50.3665C34.2103 50.463 34.3972 50.6379 35.5281 51.2712C35.5671 51.2907 35.6109 51.2985 35.6542 51.2937C35.6976 51.2889 35.7386 51.2717 35.7724 51.2441C35.9442 51.1446 37.9315 49.9926 38.028 49.9172C38.1245 49.8418 38.1125 49.7513 38.0944 49.7182C38.0763 49.685 37.3103 49.1573 37.1565 49.0487ZM36.7977 49.1573C36.8911 49.1151 36.9575 49.1573 37.06 49.2266L37.8953 49.7725C37.6843 49.9202 35.7844 51.0481 35.6246 51.1234C35.2046 50.9099 34.8014 50.665 34.4184 50.3907C34.7591 50.2127 35.7663 49.6337 36.7977 49.1573ZM31.8822 48.8286C32.0651 48.9525 32.289 49.0001 32.5065 48.9613C32.6302 48.9593 32.7511 48.9239 32.8563 48.8587C32.9769 48.7713 34.0052 47.8907 34.3641 47.4896C34.3742 47.4789 34.3817 47.466 34.386 47.4519C34.3903 47.4378 34.3913 47.4229 34.389 47.4083C34.3867 47.3938 34.3811 47.3799 34.3725 47.3679C34.364 47.3559 34.3529 47.3459 34.3399 47.3389C34.0532 47.204 33.7593 47.0852 33.4594 46.983C33.4292 46.9752 33.3975 46.9758 33.3677 46.9848C33.3379 46.9939 33.3112 47.011 33.2905 47.0343C33.2905 47.0343 31.9697 48.5421 31.8491 48.7049C31.8422 48.715 31.8376 48.7264 31.8356 48.7384C31.8335 48.7503 31.8341 48.7626 31.8373 48.7744C31.8404 48.7861 31.8461 48.797 31.8538 48.8064C31.8616 48.8157 31.8713 48.8233 31.8822 48.8286ZM32.0903 48.723C32.2984 48.4878 33.3267 47.3268 33.4443 47.2152C33.6823 47.2747 33.9144 47.3555 34.1379 47.4565C33.7248 47.8364 33.0131 48.4335 32.9317 48.53C32.8576 48.6225 32.7625 48.6959 32.6542 48.7441C32.4688 48.7974 32.2712 48.79 32.0903 48.723ZM34.0474 46.3708C34.1017 46.4191 35.2145 46.5578 35.2989 46.4824C35.3833 46.407 35.7362 45.9064 35.7935 45.822C35.8051 45.8139 35.8145 45.8031 35.8208 45.7904C35.8271 45.7778 35.8302 45.7638 35.8297 45.7496C35.8297 45.7014 35.7724 45.6682 35.7211 45.6441C35.6698 45.62 34.9973 45.5868 34.7501 45.5355C34.6891 45.5182 34.6243 45.5206 34.5647 45.5422C34.5052 45.5639 34.454 45.6037 34.4184 45.6562L34.0384 46.1869C33.969 46.2924 34.0203 46.3497 34.0474 46.3708ZM34.6204 45.7677C34.9236 45.7721 35.226 45.7994 35.5251 45.8492C35.1511 46.3648 35.1964 46.3377 35.0788 46.3377C34.8003 46.3281 34.5231 46.2968 34.2495 46.2442C34.4968 45.9004 34.5902 45.7888 34.6204 45.7587V45.7677ZM35.1692 45.1073C36.0046 45.1676 37.9557 45.3848 38.0672 45.3275C38.1788 45.2702 38.3688 44.6731 38.402 44.5977C38.4094 44.582 38.4129 44.5646 38.4121 44.5472C38.4112 44.5299 38.4061 44.513 38.3972 44.498C38.3882 44.4831 38.3757 44.4706 38.3608 44.4617C38.3458 44.4528 38.3289 44.4477 38.3115 44.4469C38.0672 44.4469 35.697 44.3986 35.6487 44.4017C35.6005 44.4047 35.4014 44.5947 35.1662 44.9203C35.118 44.9867 35.0818 45.0168 35.1059 45.0621C35.1111 45.0749 35.1198 45.0859 35.131 45.0939C35.1422 45.1019 35.1555 45.1066 35.1692 45.1073ZM35.6638 44.5675C35.893 44.5856 37.7958 44.6399 38.1698 44.652C37.9828 45.1676 37.9918 45.1586 37.9436 45.1556C37.8953 45.1525 36.2157 45.0591 35.308 44.9746C35.4979 44.7093 35.6276 44.5736 35.6638 44.5675ZM33.2543 43.2105C33.2996 43.2557 35.7181 43.4367 35.7844 43.4367C36.1915 43.4367 35.9774 43.2376 36.5232 42.5139C36.5325 42.4991 36.5376 42.4821 36.538 42.4646C36.5383 42.4471 36.534 42.4299 36.5253 42.4147C36.5166 42.3995 36.504 42.387 36.4888 42.3785C36.4735 42.3699 36.4563 42.3656 36.4388 42.3661C36.1372 42.3872 35.127 42.4687 34.931 42.4837C35.124 42.2726 35.314 42.0706 35.4949 41.8806C35.5082 41.8663 35.5162 41.8479 35.5178 41.8284C35.5194 41.8089 35.5144 41.7895 35.5037 41.7732C35.4929 41.7569 35.477 41.7446 35.4585 41.7384C35.4399 41.7322 35.4199 41.7324 35.4014 41.7389C35.2899 41.7389 34.5782 41.5127 34.4968 41.5399C34.4968 41.5399 33.2091 43.114 33.2272 43.1894C33.2331 43.1997 33.2429 43.2073 33.2543 43.2105ZM34.6264 41.7208C34.844 41.7575 35.0587 41.8099 35.2687 41.8776C35.0788 42.0766 34.8828 42.2907 34.6656 42.526C34.6569 42.5405 34.6522 42.5572 34.6522 42.5742C34.6522 42.5912 34.6569 42.6079 34.6656 42.6225C34.7109 42.7129 34.735 42.6496 36.2549 42.5682C36.1261 42.8058 35.9799 43.0336 35.8176 43.2497C35.7422 43.2497 34.1861 43.1653 33.5529 43.0688C33.6343 42.9512 34.5028 41.7992 34.6264 41.7208ZM37.3284 36.1057C36.9551 36.0629 36.5791 36.0478 36.2036 36.0605C36.1433 36.0907 35.0938 37.71 35.0908 37.7764C35.0908 37.9362 36.1523 37.9362 36.2971 37.9362C36.3428 37.9431 36.3895 37.9355 36.4307 37.9144C36.4718 37.8933 36.5052 37.8598 36.5263 37.8186C36.5263 37.8186 37.1535 36.7812 37.3917 36.2354C37.3988 36.223 37.4026 36.2092 37.4031 36.1949C37.4035 36.1807 37.4005 36.1666 37.3943 36.1539C37.388 36.1411 37.3788 36.13 37.3673 36.1217C37.3558 36.1133 37.3425 36.1078 37.3284 36.1057ZM36.3936 37.7161C36.0341 37.7605 35.67 37.7493 35.314 37.6829C35.5884 37.2607 36.2006 36.359 36.2669 36.2746C36.3333 36.1902 36.288 36.2746 37.1716 36.2746C36.9484 36.7752 36.6559 37.2456 36.3936 37.7161ZM37.1535 31.8175C36.9424 31.8175 36.086 31.6457 35.9985 31.6668C35.9111 31.6879 34.0233 34.0069 34.0143 34.028C34.0114 34.0349 34.0102 34.0424 34.0107 34.0498C34.0113 34.0573 34.0135 34.0645 34.0173 34.0709C34.0211 34.0774 34.0264 34.0828 34.0326 34.0869C34.0389 34.0909 34.046 34.0935 34.0535 34.0943C34.1077 34.0943 35.1753 34.1456 35.5854 34.1456C35.6753 34.1623 35.7683 34.147 35.8481 34.1024C35.928 34.0578 35.9897 33.9867 36.0227 33.9013C36.0227 33.9013 37.0329 32.3392 37.247 31.9864C37.2561 31.9695 37.2609 31.9506 37.2608 31.9313C37.2607 31.9121 37.2558 31.8932 37.2464 31.8764C37.2371 31.8596 37.2237 31.8454 37.2075 31.8351C37.1913 31.8248 37.1727 31.8188 37.1535 31.8175ZM36.0498 31.8959C36.1614 31.8959 36.8067 31.9985 36.9545 32.0196C35.6668 34.0129 35.8719 33.9345 35.5914 33.9556C35.4497 33.9556 34.6536 33.9737 34.2887 33.9556C34.5933 33.6058 35.9081 32.0467 36.0498 31.902V31.8959ZM34.8616 30.5902C35.2512 30.6158 35.6421 30.6158 36.0317 30.5902C36.1011 30.5902 36.2096 30.5902 36.2669 30.5269C36.2906 30.4959 36.3014 30.457 36.2971 30.4183C36.3245 30.1176 36.3355 29.8156 36.3302 29.5136C36.3292 29.5012 36.3256 29.4892 36.3195 29.4783C36.3135 29.4674 36.3052 29.4579 36.2952 29.4505C36.2852 29.4431 36.2738 29.4379 36.2616 29.4352C36.2495 29.4326 36.2369 29.4326 36.2247 29.4352C36.0407 29.4804 35.0456 29.782 35.0185 29.7971C34.8918 29.8453 34.8948 29.9448 34.8797 30.0745C34.8674 30.2143 34.8473 30.3532 34.8194 30.4907C34.8123 30.5095 34.8128 30.5303 34.8206 30.5489C34.8285 30.5674 34.8432 30.5822 34.8616 30.5902ZM35.0486 29.9448C35.1421 29.9026 35.8297 29.6976 36.1614 29.6192C36.1614 29.8604 36.1161 30.2555 36.1041 30.355C35.9503 30.3791 35.1994 30.4454 34.9853 30.4454C35.0034 30.3369 35.0245 30.0082 35.0486 29.9448ZM34.4214 30.1378C34.4326 30.1235 34.4391 30.1059 34.4399 30.0877C34.4407 30.0694 34.4358 30.0514 34.4258 30.0361C34.4158 30.0208 34.4013 30.009 34.3843 30.0024C34.3673 29.9957 34.3486 29.9946 34.3309 29.9991C33.9404 30.1181 33.5593 30.2663 33.191 30.4424C33.1518 30.4967 32.9829 30.9159 32.9105 31.0636C32.9025 31.0787 32.8986 31.0957 32.8993 31.1128C32.9 31.1299 32.9052 31.1465 32.9144 31.1609C32.9236 31.1754 32.9365 31.1871 32.9517 31.1949C32.9669 31.2027 32.9839 31.2063 33.001 31.2054C33.3953 31.1897 33.7882 31.1484 34.1771 31.0817C34.2073 31.0606 34.3822 30.3097 34.4214 30.1378ZM33.1639 31.0033C33.2121 30.9008 33.3357 30.6053 33.3418 30.5902C33.6274 30.4433 33.9238 30.3183 34.2284 30.2163C34.1892 30.3972 34.0927 30.8465 34.0655 30.9279C33.9449 30.946 33.4172 30.9852 33.1608 31.0033H33.1639ZM40.3832 33.0238C40.3648 33.056 40.3533 33.0917 40.3497 33.1286C40.3461 33.1655 40.3503 33.2027 40.3621 33.2379C40.3621 33.2379 40.7632 34.8211 40.8205 34.9598C40.8324 34.9962 40.8554 35.0279 40.8862 35.0506C40.917 35.0733 40.9541 35.0858 40.9924 35.0865C41.1522 35.0865 41.9574 34.9658 42.1323 34.9387C42.1433 34.9359 42.1536 34.9309 42.1626 34.9241C42.1717 34.9172 42.1792 34.9086 42.1848 34.8987C42.1905 34.8889 42.1941 34.878 42.1954 34.8667C42.1967 34.8555 42.1958 34.844 42.1926 34.8331C42.1383 34.6341 41.7764 33.0419 41.7252 32.9755C41.7017 32.9515 41.6725 32.9339 41.6403 32.9244C41.6081 32.9149 41.574 32.9138 41.5412 32.9213C40.4285 32.9846 40.4526 32.9605 40.3832 33.0238ZM40.9863 34.8754C40.914 34.613 40.5853 33.458 40.5461 33.1957C40.6968 33.1625 41.4025 33.1112 41.5442 33.1112C41.6106 33.2861 41.9332 34.4803 42.0086 34.7879C41.6729 34.8457 41.333 34.877 40.9924 34.8814L40.9863 34.8754ZM48.5947 33.7596C48.5012 33.7083 47.0869 33.8742 46.9934 33.9858C46.8999 34.0973 46.9542 35.008 46.9603 35.0865C46.961 35.1153 46.9726 35.1428 46.9927 35.1635C47.0128 35.1842 47.04 35.1965 47.0688 35.198C47.0688 35.198 48.3535 35.0774 48.9204 35.0623C49.1074 35.0623 49.1707 34.9146 49.0802 34.7608C48.9487 34.4132 48.7862 34.0781 48.5947 33.7596ZM47.1623 34.2059C47.1623 34.1456 47.1774 34.1486 47.289 34.1305C48.1936 33.9918 48.4349 33.9737 48.4952 33.9737C48.5555 34.0883 48.8299 34.7216 48.8963 34.8784C48.8239 34.8784 47.7353 34.9146 47.1864 34.9628C47.1683 34.4502 47.1653 34.2662 47.1653 34.2059H47.1623ZM49.3004 38.0086C49.0531 37.8186 48.3957 37.1702 48.2841 37.0677C48.2352 37.0263 48.1786 36.9951 48.1175 36.9759C48.0564 36.9567 47.992 36.95 47.9283 36.9561C47.312 36.932 46.695 36.9411 46.0797 36.9833C46.0551 36.9875 46.0329 37.0002 46.0168 37.0193C46.0007 37.0383 45.9919 37.0624 45.9919 37.0873C45.9919 37.1122 46.0007 37.1363 46.0168 37.1554C46.0329 37.1744 46.0551 37.1872 46.0797 37.1914C47.6478 38.4338 47.5634 38.4247 47.9735 38.3735C47.9735 38.3735 48.8963 38.2619 49.231 38.2167C49.2556 38.2173 49.2797 38.2101 49.2999 38.196C49.32 38.1819 49.3351 38.1617 49.3429 38.1383C49.3506 38.115 49.3507 38.0898 49.343 38.0664C49.3354 38.0431 49.3204 38.0228 49.3004 38.0086ZM48.9686 38.0267C48.7395 38.0598 47.8107 38.2016 47.7232 38.1805C47.6357 38.1594 46.6738 37.4085 46.3601 37.1642C46.7884 37.1431 47.9856 37.1642 48.0549 37.1914C48.1243 37.2185 48.7515 37.8488 48.9686 38.0267ZM48.257 43.4246C47.5062 43.4752 46.7597 43.576 46.0224 43.7262C46.008 43.7338 45.9956 43.7446 45.9861 43.7579C45.9766 43.7711 45.9703 43.7863 45.9677 43.8024C45.9651 43.8184 45.9662 43.8349 45.971 43.8504C45.9757 43.866 45.9841 43.8802 45.9953 43.892C46.2335 44.1695 46.8095 44.8299 46.9814 44.9686C47.0809 45.0832 47.2136 45.056 47.3493 45.0199C47.485 44.9837 47.304 45.0199 49.1858 44.67C49.2033 44.6668 49.2196 44.6588 49.233 44.6471C49.2465 44.6353 49.2565 44.6201 49.262 44.6032C49.2676 44.5862 49.2685 44.5681 49.2646 44.5507C49.2607 44.5333 49.2522 44.5172 49.2401 44.5042C48.3806 43.4548 48.3927 43.4487 48.257 43.4246ZM47.1201 44.845C47.0025 44.661 46.4506 44.082 46.2516 43.8619C46.6074 43.7804 47.9916 43.6116 48.1665 43.6146C48.2932 43.6146 48.851 44.3444 48.9777 44.5012C47.0869 44.8932 47.1502 44.8751 47.1201 44.845ZM51.8093 44.6942C51.4143 44.9203 50.7961 44.9203 50.6514 44.9626C50.632 44.9688 50.6146 44.9802 50.6011 44.9954C50.5876 45.0106 50.5783 45.0291 50.5743 45.0491C50.5704 45.069 50.5718 45.0897 50.5784 45.109C50.585 45.1282 50.5967 45.1453 50.6122 45.1586L51.2153 46.205C51.241 46.2489 51.2789 46.2845 51.3244 46.3075C51.3698 46.3305 51.4209 46.3399 51.4716 46.3347C51.6495 46.3347 52.313 46.3105 52.5331 46.2955C52.6959 46.2743 52.6296 46.0331 52.5723 45.8763C52.515 45.7195 52.2044 45.0138 52.0807 44.7756C52.0711 44.7499 52.0557 44.7268 52.0357 44.708C52.0156 44.6893 51.9915 44.6754 51.9652 44.6676C51.939 44.6597 51.9112 44.658 51.8842 44.6626C51.8571 44.6672 51.8315 44.678 51.8093 44.6942ZM52.4125 46.0844C52.081 46.1028 51.7488 46.1028 51.4173 46.0844L50.8805 45.1586C51.2352 45.1175 51.5847 45.0407 51.9239 44.9294C52.0144 45.1375 52.3371 45.8853 52.4125 46.0844ZM14.5938 7.90982C14.4823 7.85844 14.3877 7.77647 14.3209 7.67344C14.2542 7.57041 14.2181 7.45055 14.2168 7.32781C14.2168 7.18306 13.9665 7.20115 13.9695 7.35193C13.9838 7.51325 14.0472 7.66631 14.1513 7.79037C14.2554 7.91442 14.3951 8.0035 14.5515 8.04552C14.5683 8.04738 14.5851 8.04336 14.5992 8.03416C14.6132 8.02495 14.6236 8.01114 14.6286 7.99509C14.6336 7.97904 14.6329 7.96175 14.6265 7.94619C14.6202 7.93063 14.6086 7.91777 14.5938 7.90982ZM14.7777 5.82C14.7566 5.89841 14.648 6.20902 14.6239 6.28441C14.6207 6.30233 14.621 6.32074 14.625 6.33851C14.629 6.35629 14.6366 6.37308 14.6472 6.38788C14.6578 6.40268 14.6713 6.41519 14.6869 6.42466C14.7025 6.43413 14.7198 6.44037 14.7378 6.443C14.7558 6.44564 14.7742 6.44461 14.7918 6.43999C14.8095 6.43537 14.826 6.42724 14.8404 6.4161C14.8548 6.40496 14.8668 6.39103 14.8758 6.37514C14.8847 6.35925 14.8903 6.34172 14.8923 6.32361C14.8923 6.19092 14.9225 5.92555 14.9315 5.85619C14.9339 5.84609 14.9342 5.83563 14.9326 5.82539C14.9309 5.81515 14.9272 5.80534 14.9218 5.79652C14.9163 5.7877 14.9092 5.78004 14.9008 5.77398C14.8923 5.76792 14.8828 5.76358 14.8727 5.7612C14.8626 5.75882 14.8521 5.75846 14.8419 5.76013C14.8317 5.7618 14.8219 5.76547 14.813 5.77093C14.8042 5.77639 14.7966 5.78353 14.7905 5.79195C14.7844 5.80037 14.7801 5.80991 14.7777 5.82ZM16.3277 6.18489C16.3127 6.24219 16.1589 6.67945 16.1709 6.6493C16.1677 6.66722 16.168 6.68562 16.172 6.7034C16.176 6.72118 16.1836 6.73797 16.1942 6.75277C16.2048 6.76757 16.2183 6.78008 16.2339 6.78955C16.2495 6.79902 16.2668 6.80526 16.2848 6.80789C16.3028 6.81053 16.3212 6.8095 16.3388 6.80488C16.3565 6.80026 16.373 6.79213 16.3874 6.78099C16.4018 6.76985 16.4139 6.75592 16.4228 6.74003C16.4317 6.72413 16.4373 6.70661 16.4393 6.6885C16.4393 6.54978 16.4695 6.28742 16.4785 6.21806C16.4793 6.19967 16.4735 6.18159 16.4623 6.16701C16.451 6.15243 16.435 6.14228 16.417 6.13832C16.399 6.13436 16.3802 6.13686 16.3639 6.14538C16.3476 6.15389 16.3348 6.16788 16.3277 6.18489ZM15.5376 6.67945C15.534 6.66016 15.5236 6.64277 15.5085 6.63026C15.4934 6.61775 15.4744 6.6109 15.4547 6.6109C15.4351 6.6109 15.4161 6.61775 15.4009 6.63026C15.3858 6.64277 15.3755 6.66016 15.3718 6.67945C15.3857 6.87079 15.4211 7.05996 15.4773 7.24337C15.417 7.26146 15.3115 7.29463 15.2693 7.30368C15.2507 7.3073 15.234 7.31725 15.222 7.33183C15.21 7.34641 15.2034 7.36471 15.2034 7.3836C15.2034 7.40248 15.21 7.42078 15.222 7.43536C15.234 7.44994 15.2507 7.45989 15.2693 7.46351C15.4055 7.46929 15.5421 7.46019 15.6764 7.43637C15.6949 7.43086 15.712 7.42118 15.7262 7.40805C15.7404 7.39493 15.7515 7.37872 15.7585 7.36066C15.7655 7.34261 15.7682 7.32319 15.7665 7.3039C15.7648 7.28461 15.7588 7.26597 15.7487 7.2494C15.6509 7.07077 15.5797 6.87874 15.5376 6.67945ZM14.9828 5.20784C14.8665 5.18519 14.7461 5.19913 14.6381 5.24773C14.5301 5.29633 14.4398 5.37721 14.3797 5.47924C14.3744 5.4966 14.3753 5.51525 14.3823 5.532C14.3893 5.54875 14.4018 5.56257 14.4178 5.57111C14.4338 5.57964 14.4523 5.58237 14.4701 5.57881C14.4879 5.57526 14.5039 5.56565 14.5154 5.55162C14.5608 5.50088 14.6206 5.46509 14.6868 5.44894C14.753 5.4328 14.8225 5.43705 14.8863 5.46115C15.0793 5.50638 15.1215 5.22593 14.9828 5.20784ZM16.8012 5.80794C16.7869 5.70714 16.7383 5.61435 16.6636 5.54515C16.5889 5.47596 16.4927 5.43458 16.3911 5.42798C16.2493 5.40687 16.2252 5.63605 16.3307 5.65113C16.572 5.69033 16.6564 5.78382 16.6685 5.83207C16.6717 5.84966 16.6818 5.86527 16.6965 5.87545C16.7112 5.88563 16.7293 5.88955 16.7469 5.88635C16.7645 5.88315 16.7801 5.87309 16.7903 5.85839C16.8005 5.84368 16.8044 5.82554 16.8012 5.80794ZM4.1266 20.1803C4.06919 20.1868 4.01619 20.2143 3.97771 20.2574C3.93924 20.3005 3.91797 20.3562 3.91797 20.414C3.91797 20.4718 3.93924 20.5276 3.97771 20.5707C4.01619 20.6138 4.06919 20.6412 4.1266 20.6477C4.15952 20.6515 4.19286 20.6482 4.22443 20.6382C4.25601 20.6282 4.28511 20.6116 4.30983 20.5895C4.33454 20.5674 4.35432 20.5404 4.36786 20.5102C4.3814 20.4799 4.3884 20.4472 4.3884 20.414C4.3884 20.3809 4.3814 20.3481 4.36786 20.3179C4.35432 20.2877 4.33454 20.2606 4.30983 20.2386C4.28511 20.2165 4.25601 20.1999 4.22443 20.1899C4.19286 20.1798 4.15952 20.1766 4.1266 20.1803ZM4.10549 19.3088C4.10549 19.3736 4.13122 19.4357 4.17703 19.4815C4.22284 19.5273 4.28497 19.5531 4.34975 19.5531C4.41453 19.5531 4.47666 19.5273 4.52247 19.4815C4.56828 19.4357 4.59401 19.3736 4.59401 19.3088C4.59401 19.244 4.56828 19.1819 4.52247 19.1361C4.47666 19.0903 4.41453 19.0645 4.34975 19.0645C4.28497 19.0645 4.22284 19.0903 4.17703 19.1361C4.13122 19.1819 4.10549 19.244 4.10549 19.3088ZM40.3139 23.6241C40.2264 23.5487 40.1028 23.6724 40.1872 23.7538C40.6927 24.2637 41.1661 24.8046 41.6045 25.3732C41.7071 25.5029 41.9212 25.337 41.8217 25.2043C41.3717 24.6298 40.8667 24.1006 40.3139 23.6241ZM44.1286 21.3323C44.1286 22.0771 44.0592 22.8401 44.0743 23.5759C44.0743 23.6159 44.0902 23.6542 44.1185 23.6825C44.1468 23.7108 44.1851 23.7267 44.2251 23.7267C44.2651 23.7267 44.3034 23.7108 44.3317 23.6825C44.36 23.6542 44.3759 23.6159 44.3759 23.5759C44.391 22.831 44.3337 22.0681 44.3216 21.3323C44.3216 21.3067 44.3114 21.2821 44.2933 21.264C44.2752 21.2459 44.2507 21.2358 44.2251 21.2358C44.1995 21.2358 44.175 21.2459 44.1569 21.264C44.1388 21.2821 44.1286 21.3067 44.1286 21.3323ZM47.7081 24.6253C48.1213 23.986 48.5012 23.3165 48.9415 22.6983C49.0109 22.5988 48.8571 22.5023 48.7847 22.5958C48.3384 23.1989 47.8529 23.8021 47.4548 24.4715C47.4344 24.5051 47.4282 24.5454 47.4375 24.5836C47.4469 24.6218 47.471 24.6547 47.5046 24.6751C47.5382 24.6955 47.5785 24.7017 47.6166 24.6924C47.6548 24.683 47.6877 24.6589 47.7081 24.6253ZM25.1966 18.2051C25.4915 18.2043 25.7797 18.2929 26.0232 18.4591C26.2668 18.6253 26.4543 18.8614 26.5611 19.1363C26.6678 19.4111 26.6888 19.7119 26.6213 19.9989C26.5537 20.286 26.4008 20.5458 26.1827 20.7442C26.1771 20.7484 26.1726 20.7539 26.1694 20.7602C26.1663 20.7665 26.1646 20.7734 26.1646 20.7804C26.1646 20.7874 26.1663 20.7944 26.1694 20.8007C26.1726 20.8069 26.1771 20.8124 26.1827 20.8166C28.351 22.1013 31.1313 22.5566 33.1186 22.5566C35.1059 22.5566 36.6982 22.1917 38.791 21.7092C39.9117 21.4121 41.0068 21.0259 42.0659 20.5543C43.3777 19.9934 43.9748 19.5109 44.3518 18.0996C44.5028 17.466 44.5517 16.8125 44.4965 16.1635C44.4332 14.3753 44.5448 13.2444 39.9731 12.1558C37.2138 11.5014 29.138 11.7849 26.1586 14.713C25.6904 15.1422 25.3469 15.6899 25.1643 16.2982C24.9817 16.9065 24.9668 17.5528 25.1212 18.1689C25.1423 18.1991 25.1665 18.2051 25.1966 18.2051ZM43.7878 16.3022C40.7119 21.1272 31.9576 21.0639 26.9276 18.757C26.9014 18.7431 26.8813 18.7201 26.871 18.6923C26.8607 18.6645 26.861 18.6339 26.8718 18.6064C26.8826 18.5788 26.9032 18.5562 26.9296 18.5428C26.956 18.5294 26.9864 18.5262 27.015 18.5338C32.5487 20.4035 40.1963 20.898 43.5255 16.1213C43.5374 16.1041 43.5525 16.0894 43.5701 16.078C43.5877 16.0666 43.6073 16.0588 43.6279 16.0551C43.6485 16.0513 43.6696 16.0516 43.69 16.056C43.7105 16.0603 43.7299 16.0687 43.7471 16.0806C43.7644 16.0925 43.7791 16.1076 43.7904 16.1252C43.8018 16.1428 43.8096 16.1624 43.8134 16.183C43.8172 16.2036 43.8169 16.2247 43.8125 16.2452C43.8081 16.2656 43.7997 16.285 43.7878 16.3022ZM42.8832 14.5924C42.9742 14.9451 42.9312 15.319 42.7625 15.6418C41.0225 19.8516 27.2141 19.2726 26.5808 16.7395C26.8401 11.9537 42.2077 11.6733 42.8892 14.5924H42.8832Z" fill="white"/>
</svg>
