<svg width="106" height="18" viewBox="0 0 106 18" fill="none" xmlns="http://www.w3.org/2000/svg">
<path fill-rule="evenodd" clip-rule="evenodd" d="M9.56353 2.22495L11.3928 5.91045C11.4835 6.09645 11.6598 6.22545 11.8645 6.2562L15.958 6.84945C16.1238 6.8712 16.2738 6.95895 16.375 7.09245C16.5655 7.3407 16.537 7.6947 16.3083 7.9092L13.3428 10.7892C13.1928 10.9294 13.1253 11.1379 13.1643 11.3389L13.879 15.3987C13.9285 15.7362 13.6998 16.0497 13.3645 16.1052C13.225 16.1269 13.0825 16.1044 12.9573 16.0414L9.30628 14.1282C9.12328 14.0284 8.90278 14.0284 8.72053 14.1282L5.04553 16.0549C4.73878 16.2094 4.36678 16.0932 4.20028 15.7947C4.13653 15.6739 4.11328 15.5344 4.13578 15.3987L4.85053 11.3389C4.88503 11.1379 4.81828 10.9317 4.67203 10.7892L1.68328 7.90845C1.43953 7.66545 1.43878 7.27095 1.68178 7.02645L1.68328 7.02495C1.78303 6.9342 1.90678 6.8727 2.04028 6.84945L6.13378 6.2562C6.33703 6.2232 6.51328 6.0942 6.60553 5.91045L8.43478 2.22495C8.50753 2.07495 8.63803 1.9602 8.79628 1.9077C8.95453 1.85445 9.12778 1.86645 9.27778 1.9422C9.40078 2.0037 9.50053 2.1027 9.56353 2.22495Z" fill="#FFD64C"/>
<path fill-rule="evenodd" clip-rule="evenodd" d="M31.5635 2.22495L33.3928 5.91045C33.4835 6.09645 33.6598 6.22545 33.8645 6.2562L37.958 6.84945C38.1238 6.8712 38.2738 6.95895 38.375 7.09245C38.5655 7.3407 38.537 7.6947 38.3083 7.9092L35.3428 10.7892C35.1928 10.9294 35.1253 11.1379 35.1643 11.3389L35.879 15.3987C35.9285 15.7362 35.6998 16.0497 35.3645 16.1052C35.225 16.1269 35.0825 16.1044 34.9573 16.0414L31.3063 14.1282C31.1233 14.0284 30.9028 14.0284 30.7205 14.1282L27.0455 16.0549C26.7388 16.2094 26.3668 16.0932 26.2003 15.7947C26.1365 15.6739 26.1133 15.5344 26.1358 15.3987L26.8505 11.3389C26.885 11.1379 26.8183 10.9317 26.672 10.7892L23.6833 7.90845C23.4395 7.66545 23.4388 7.27095 23.6818 7.02645L23.6833 7.02495C23.783 6.9342 23.9068 6.8727 24.0403 6.84945L28.1338 6.2562C28.337 6.2232 28.5133 6.0942 28.6055 5.91045L30.4348 2.22495C30.5075 2.07495 30.638 1.9602 30.7963 1.9077C30.9545 1.85445 31.1278 1.86645 31.2778 1.9422C31.4008 2.0037 31.5005 2.1027 31.5635 2.22495Z" fill="#FFD64C"/>
<path fill-rule="evenodd" clip-rule="evenodd" d="M53.5635 2.22495L55.3928 5.91045C55.4835 6.09645 55.6598 6.22545 55.8645 6.2562L59.958 6.84945C60.1238 6.8712 60.2738 6.95895 60.375 7.09245C60.5655 7.3407 60.537 7.6947 60.3083 7.9092L57.3428 10.7892C57.1928 10.9294 57.1253 11.1379 57.1643 11.3389L57.879 15.3987C57.9285 15.7362 57.6998 16.0497 57.3645 16.1052C57.225 16.1269 57.0825 16.1044 56.9573 16.0414L53.3063 14.1282C53.1233 14.0284 52.9028 14.0284 52.7205 14.1282L49.0455 16.0549C48.7388 16.2094 48.3668 16.0932 48.2003 15.7947C48.1365 15.6739 48.1133 15.5344 48.1358 15.3987L48.8505 11.3389C48.885 11.1379 48.8183 10.9317 48.672 10.7892L45.6833 7.90845C45.4395 7.66545 45.4388 7.27095 45.6818 7.02645L45.6833 7.02495C45.783 6.9342 45.9068 6.8727 46.0403 6.84945L50.1338 6.2562C50.337 6.2232 50.5133 6.0942 50.6055 5.91045L52.4348 2.22495C52.5075 2.07495 52.638 1.9602 52.7963 1.9077C52.9545 1.85445 53.1278 1.86645 53.2778 1.9422C53.4008 2.0037 53.5005 2.1027 53.5635 2.22495Z" fill="#FFD64C"/>
<path fill-rule="evenodd" clip-rule="evenodd" d="M75.5635 2.22495L77.3928 5.91045C77.4835 6.09645 77.6598 6.22545 77.8645 6.2562L81.958 6.84945C82.1238 6.8712 82.2738 6.95895 82.375 7.09245C82.5655 7.3407 82.537 7.6947 82.3083 7.9092L79.3428 10.7892C79.1928 10.9294 79.1253 11.1379 79.1643 11.3389L79.879 15.3987C79.9285 15.7362 79.6998 16.0497 79.3645 16.1052C79.225 16.1269 79.0825 16.1044 78.9573 16.0414L75.3063 14.1282C75.1233 14.0284 74.9028 14.0284 74.7205 14.1282L71.0455 16.0549C70.7388 16.2094 70.3668 16.0932 70.2003 15.7947C70.1365 15.6739 70.1133 15.5344 70.1358 15.3987L70.8505 11.3389C70.885 11.1379 70.8183 10.9317 70.672 10.7892L67.6833 7.90845C67.4395 7.66545 67.4388 7.27095 67.6818 7.02645L67.6833 7.02495C67.783 6.9342 67.9068 6.8727 68.0403 6.84945L72.1338 6.2562C72.337 6.2232 72.5133 6.0942 72.6055 5.91045L74.4348 2.22495C74.5075 2.07495 74.638 1.9602 74.7963 1.9077C74.9545 1.85445 75.1278 1.86645 75.2778 1.9422C75.4008 2.0037 75.5005 2.1027 75.5635 2.22495Z" fill="#FFD64C"/>
<path fill-rule="evenodd" clip-rule="evenodd" d="M97.5635 2.22495L99.3928 5.91045C99.4835 6.09645 99.6598 6.22545 99.8645 6.2562L103.958 6.84945C104.124 6.8712 104.274 6.95895 104.375 7.09245C104.566 7.3407 104.537 7.6947 104.308 7.9092L101.343 10.7892C101.193 10.9294 101.125 11.1379 101.164 11.3389L101.879 15.3987C101.929 15.7362 101.7 16.0497 101.365 16.1052C101.225 16.1269 101.083 16.1044 100.957 16.0414L97.3063 14.1282C97.1233 14.0284 96.9028 14.0284 96.7205 14.1282L93.0455 16.0549C92.7388 16.2094 92.3668 16.0932 92.2003 15.7947C92.1365 15.6739 92.1133 15.5344 92.1358 15.3987L92.8505 11.3389C92.885 11.1379 92.8183 10.9317 92.672 10.7892L89.6833 7.90845C89.4395 7.66545 89.4388 7.27095 89.6818 7.02645L89.6833 7.02495C89.783 6.9342 89.9068 6.8727 90.0403 6.84945L94.1338 6.2562C94.337 6.2232 94.5133 6.0942 94.6055 5.91045L96.4348 2.22495C96.5075 2.07495 96.638 1.9602 96.7963 1.9077C96.9545 1.85445 97.1278 1.86645 97.2778 1.9422C97.4008 2.0037 97.5005 2.1027 97.5635 2.22495Z" fill="#FFD64C"/>
</svg>
