<svg width="16" height="16" viewBox="0 0 16 16" fill="none" xmlns="http://www.w3.org/2000/svg">
<path fill-rule="evenodd" clip-rule="evenodd" d="M0.583008 4.66634C0.583008 2.41118 2.41118 0.583008 4.66634 0.583008H11.333C13.5882 0.583008 15.4163 2.41118 15.4163 4.66634V11.333C15.4163 13.5882 13.5882 15.4163 11.333 15.4163H4.66634C2.41118 15.4163 0.583008 13.5882 0.583008 11.333V4.66634ZM4.66634 2.08301C3.23961 2.08301 2.08301 3.23961 2.08301 4.66634V11.333C2.08301 12.7597 3.23961 13.9163 4.66634 13.9163H11.333C12.7597 13.9163 13.9163 12.7597 13.9163 11.333V4.66634C13.9163 3.23961 12.7597 2.08301 11.333 2.08301H4.66634ZM8.67187 4.44412C8.67187 4.02991 9.00765 3.69412 9.42187 3.69412H11.093C11.7625 3.69412 12.3052 4.23683 12.3052 4.90633V6.57742C12.3052 6.99163 11.9694 7.32742 11.5552 7.32742C11.141 7.32742 10.8052 6.99163 10.8052 6.57742V6.25475L9.60647 7.45348C9.60324 7.45682 9.59998 7.46014 9.59669 7.46344L6.25484 10.8052H6.57748C6.9917 10.8052 7.32748 11.141 7.32748 11.5552C7.32748 11.9694 6.9917 12.3052 6.57748 12.3052H4.90635C4.23687 12.3052 3.69412 11.7625 3.69412 11.093V9.42193C3.69412 9.00772 4.02991 8.67193 4.44412 8.67193C4.85833 8.67193 5.19412 9.00772 5.19412 9.42193V9.74463L8.1705 6.7683C8.17377 6.76491 8.17707 6.76154 8.18042 6.7582L9.74454 5.19412H9.42187C9.00765 5.19412 8.67187 4.85833 8.67187 4.44412Z" fill="#7786A5"/>
</svg>
