<svg width="16" height="16" viewBox="0 0 16 16" fill="none" xmlns="http://www.w3.org/2000/svg">
<path fill-rule="evenodd" clip-rule="evenodd" d="M4.98011 0.745914C4.6693 0.599183 4.29797 0.719796 4.1327 1.02117L1.614 5.61408C1.22018 6.33223 1.68232 7.1998 2.46123 7.30618V9.77815V14.667C2.46123 15.026 2.75224 15.317 3.11123 15.317C3.47021 15.317 3.76123 15.026 3.76123 14.667V13.5393H6.46123V14.667C6.46123 15.026 6.75224 15.317 7.11123 15.317C7.47021 15.317 7.76123 15.026 7.76123 14.667V12.8893V9.77815V7.31704H8.00012H11.7946V8.66704V10.667C11.7946 11.026 12.0856 11.317 12.4446 11.317C12.8035 11.317 13.0946 11.026 13.0946 10.667V8.66704V7.31704H13.7697C14.9974 7.31704 15.3708 5.65118 14.2607 5.1271L4.98011 0.745914ZM12.4446 6.01704H13.1006L6.40942 2.85824L8.36244 6.01704H12.4446ZM6.46123 7.31704H3.76123V9.12815H6.46123V7.31704ZM3.11123 6.01704H6.83403L4.73628 2.62416L2.87567 6.01704H3.11123ZM6.46123 12.2393H3.76123V10.4282H6.46123V12.2393Z" fill="#7786A5"/>
</svg>
