<svg width="16" height="16" viewBox="0 0 16 16" fill="none" xmlns="http://www.w3.org/2000/svg">
<path fill-rule="evenodd" clip-rule="evenodd" d="M5 0.583008C5.41421 0.583008 5.75 0.918794 5.75 1.33301V1.58302H10.25V1.33301C10.25 0.918794 10.5858 0.583008 11 0.583008C11.4142 0.583008 11.75 0.918794 11.75 1.33301V1.72829C13.4794 2.20295 14.75 3.78627 14.75 5.66636V10.9997C14.75 13.2549 12.9218 15.083 10.6667 15.083H5.33333C3.07817 15.083 1.25 13.2549 1.25 10.9997V5.66636C1.25 3.78627 2.52063 2.20295 4.25 1.72829V1.33301C4.25 0.918794 4.58579 0.583008 5 0.583008ZM4.25 3.32047C3.58654 3.62736 3.07529 4.20743 2.86055 4.91636H13.1394C12.9247 4.20743 12.4135 3.62736 11.75 3.32046V3.33301C11.75 3.74722 11.4142 4.08301 11 4.08301C10.5858 4.08301 10.25 3.74722 10.25 3.33301V3.08302H5.75V3.33301C5.75 3.74722 5.41421 4.08301 5 4.08301C4.58579 4.08301 4.25 3.74722 4.25 3.33301V3.32047ZM13.25 6.41636H2.75V10.9997C2.75 12.4264 3.9066 13.583 5.33333 13.583H10.6667C12.0934 13.583 13.25 12.4264 13.25 10.9997V6.41636ZM3.58333 8.33302C3.58333 7.91881 3.91912 7.58302 4.33333 7.58302H5C5.41421 7.58302 5.75 7.91881 5.75 8.33302C5.75 8.74724 5.41421 9.08302 5 9.08302H4.33333C3.91912 9.08302 3.58333 8.74724 3.58333 8.33302ZM6.91667 8.33302C6.91667 7.91881 7.25245 7.58302 7.66667 7.58302H8.33333C8.74755 7.58302 9.08333 7.91881 9.08333 8.33302C9.08333 8.74724 8.74755 9.08302 8.33333 9.08302H7.66667C7.25245 9.08302 6.91667 8.74724 6.91667 8.33302ZM10.25 8.33302C10.25 7.91881 10.5858 7.58302 11 7.58302H11.6667C12.0809 7.58302 12.4167 7.91881 12.4167 8.33302C12.4167 8.74724 12.0809 9.08302 11.6667 9.08302H11C10.5858 9.08302 10.25 8.74724 10.25 8.33302ZM3.58333 10.9997C3.58333 10.5855 3.91912 10.2497 4.33333 10.2497H5C5.41421 10.2497 5.75 10.5855 5.75 10.9997C5.75 11.4139 5.41421 11.7497 5 11.7497H4.33333C3.91912 11.7497 3.58333 11.4139 3.58333 10.9997ZM6.91667 10.9997C6.91667 10.5855 7.25245 10.2497 7.66667 10.2497H8.33333C8.74755 10.2497 9.08333 10.5855 9.08333 10.9997C9.08333 11.4139 8.74755 11.7497 8.33333 11.7497H7.66667C7.25245 11.7497 6.91667 11.4139 6.91667 10.9997ZM10.25 10.9997C10.25 10.5855 10.5858 10.2497 11 10.2497H11.6667C12.0809 10.2497 12.4167 10.5855 12.4167 10.9997C12.4167 11.4139 12.0809 11.7497 11.6667 11.7497H11C10.5858 11.7497 10.25 11.4139 10.25 10.9997Z" fill="#7786A5"/>
</svg>
