<svg width="16" height="16" viewBox="0 0 16 16" fill="none" xmlns="http://www.w3.org/2000/svg">
<path fill-rule="evenodd" clip-rule="evenodd" d="M0.583008 4.66623C0.583008 2.55937 2.51553 1.02734 4.66634 1.02734H11.333C13.4838 1.02734 15.4163 2.55937 15.4163 4.66623V6.66623V10.444C15.4163 12.5509 13.4838 14.0829 11.333 14.0829C10.9188 14.0829 10.583 13.7471 10.583 13.3329C10.583 12.9187 10.9188 12.5829 11.333 12.5829C12.8641 12.5829 13.9163 11.5281 13.9163 10.444V7.41623H12.2219C11.8077 7.41623 11.4719 7.08045 11.4719 6.66623C11.4719 6.25202 11.8077 5.91623 12.2219 5.91623H13.9163V4.66623C13.9163 3.58212 12.8641 2.52734 11.333 2.52734H4.66634C3.13525 2.52734 2.08301 3.58212 2.08301 4.66623V5.91623H4.66634H5.33301H8.88856C9.30278 5.91623 9.63856 6.25202 9.63856 6.66623C9.63856 7.08045 9.30278 7.41623 8.88856 7.41623H6.08301V8.66623C6.08301 9.08045 5.74722 9.41623 5.33301 9.41623C4.91879 9.41623 4.58301 9.08045 4.58301 8.66623V7.41623H2.08301V10.444C2.08301 11.5083 3.0972 12.5444 4.58301 12.5819V11.1107C4.58301 10.6965 4.91879 10.3607 5.33301 10.3607C5.74722 10.3607 6.08301 10.6965 6.08301 11.1107V12.5829H7.11079C7.25885 12.5829 7.40361 12.6267 7.52681 12.7089L10.1935 14.4866C10.5381 14.7164 10.6313 15.1821 10.4015 15.5267C10.1717 15.8713 9.70607 15.9645 9.36143 15.7347L6.8837 14.0829H5.33301H4.66634C2.51553 14.0829 0.583008 12.5509 0.583008 10.444V6.66623V4.66623Z" fill="#7786A5"/>
</svg>
