<svg width="16" height="16" viewBox="0 0 16 16" fill="none" xmlns="http://www.w3.org/2000/svg">
<path fill-rule="evenodd" clip-rule="evenodd" d="M12.2229 1.28891C12.4915 1.37894 12.6864 1.61261 12.7269 1.89297L12.8985 3.08321L14.1051 3.25396C14.3872 3.29388 14.6223 3.49017 14.7119 3.7606C14.8015 4.03102 14.7302 4.32888 14.5278 4.52938L12.2605 6.77548C12.0601 6.97398 11.7653 7.04327 11.4975 6.95484L10.4214 6.59951L8.22836 8.77197C7.93409 9.06348 7.45922 9.06124 7.16771 8.76697C6.8762 8.4727 6.87844 7.99783 7.17271 7.70632L9.36082 5.53874L9.00635 4.48531C8.9151 4.21413 8.98609 3.91466 9.18936 3.7133L11.4567 1.4672C11.658 1.26784 11.9544 1.19888 12.2229 1.28891ZM10.8123 5.14893L11.5313 5.38636L12.3985 4.52738L12.1314 4.48959C11.8014 4.44288 11.5417 4.18396 11.4942 3.85404L11.4547 3.58057L10.5771 4.44997L10.8123 5.14893ZM7.70054 3.4559C4.95975 3.4559 2.75 5.65504 2.75 8.35296C2.75 11.0509 4.95975 13.25 7.70054 13.25C10.4413 13.25 12.6511 11.0509 12.6511 8.35296C12.6511 7.93875 12.9869 7.60296 13.4011 7.60296C13.8153 7.60296 14.1511 7.93875 14.1511 8.35296C14.1511 11.8926 11.2564 14.75 7.70054 14.75C4.14468 14.75 1.25 11.8926 1.25 8.35296C1.25 4.81331 4.14468 1.9559 7.70054 1.9559C8.11475 1.9559 8.45054 2.29169 8.45054 2.7059C8.45054 3.12012 8.11475 3.4559 7.70054 3.4559ZM7.70054 6.27943C6.53391 6.27943 5.60027 7.21443 5.60027 8.35296C5.60027 9.49149 6.53391 10.4265 7.70054 10.4265C8.86716 10.4265 9.8008 9.49149 9.8008 8.35296C9.8008 7.93875 10.1366 7.60296 10.5508 7.60296C10.965 7.60296 11.3008 7.93875 11.3008 8.35296C11.3008 10.3332 9.68223 11.9265 7.70054 11.9265C5.71884 11.9265 4.10027 10.3332 4.10027 8.35296C4.10027 6.37271 5.71884 4.77943 7.70054 4.77943C8.11475 4.77943 8.45054 5.11522 8.45054 5.52943C8.45054 5.94365 8.11475 6.27943 7.70054 6.27943Z" fill="#7786A5"/>
</svg>
