<svg width="16" height="16" viewBox="0 0 16 16" fill="none" xmlns="http://www.w3.org/2000/svg">
<path fill-rule="evenodd" clip-rule="evenodd" d="M9.187 2.89278C8.49066 2.34303 7.50804 2.34303 6.8117 2.89278L3.14503 5.78751C2.68463 6.15099 2.41602 6.70528 2.41602 7.29187V11.6663C2.41602 12.7248 3.27414 13.5829 4.33268 13.5829H5.24935V11.6663C5.24935 10.5157 6.18209 9.58293 7.33268 9.58293H8.66602C9.81661 9.58293 10.7493 10.5157 10.7493 11.6663V13.5829H11.666C12.7246 13.5829 13.5827 12.7248 13.5827 11.6663V7.29187C13.5827 6.70528 13.3141 6.15099 12.8537 5.78752L9.187 2.89278ZM5.88223 1.71545C7.12354 0.735473 8.87516 0.735475 10.1165 1.71545L13.7831 4.61019C14.6039 5.25813 15.0827 6.24621 15.0827 7.29187V11.6663C15.0827 13.5532 13.553 15.0829 11.666 15.0829H10.666C9.88361 15.0829 9.24935 14.4487 9.24935 13.6663V11.6663C9.24935 11.3441 8.98818 11.0829 8.66602 11.0829H7.33268C7.01052 11.0829 6.74935 11.3441 6.74935 11.6663V13.6663C6.74935 14.4487 6.11509 15.0829 5.33268 15.0829H4.33268C2.44571 15.0829 0.916016 13.5532 0.916016 11.6663V7.29187C0.916016 6.24621 1.39484 5.25813 2.21556 4.61019L5.88223 1.71545L6.34697 2.30411L5.88223 1.71545Z" fill="#7786A5"/>
</svg>
