<svg width="50" height="58" viewBox="0 0 50 58" fill="none" xmlns="http://www.w3.org/2000/svg">
<path fill-rule="evenodd" clip-rule="evenodd" d="M2.58506 44.2226C1.885 44.6514 1.1642 45.1515 0.404552 45.7489C0.0013168 46.0661 -0.000268688 46.5422 0.0105653 46.5933C0.0673776 46.9611 0.407459 47.1951 0.63418 47.3284C2.02653 48.0981 2.64439 48.2518 5.32318 48.9183L5.32326 48.9186C5.80455 49.0383 6.35236 49.1745 6.98316 49.334C9.109 49.9021 21.8632 53.1108 26.1146 54.1136C26.8815 54.2943 27.6496 54.4785 28.4191 54.6629C31.9153 55.5009 35.4374 56.345 38.9825 56.9212C39.0821 56.9374 39.1825 56.958 39.2806 56.9779C39.6304 57.0496 39.9452 57.1138 40.0498 56.9452C43.1605 55.4077 46.0449 53.1058 48.5909 50.5375C48.6932 50.4318 48.8018 50.3299 48.9112 50.2274C49.2872 49.875 49.6722 49.5141 49.8379 48.9663C49.9084 48.7338 50.1098 47.851 49.9174 47.7909H49.9172C48.931 47.4793 47.8577 47.1692 46.7182 46.8626L46.6982 47.1745C47.7284 47.4531 48.7072 47.7354 49.6204 48.0199C45.3975 52.7079 41.5264 54.7683 40.2091 55.4694C39.9354 55.6152 39.7718 55.7025 39.7385 55.7421C28.6046 53.5592 17.4056 50.6733 6.5712 47.8809L6.49431 47.8613C6.15481 47.7737 5.83409 47.6927 5.52741 47.6151H5.52644C3.70342 47.1543 2.37679 46.8193 0.557549 46.0028C1.35173 45.379 2.10282 44.8623 2.83247 44.4226C2.73708 44.3631 2.6521 44.2964 2.58506 44.2226ZM13.3501 40.8244C13.7174 40.8774 14.1915 40.9466 14.7586 41.031C14.748 40.9238 14.7375 40.8169 14.727 40.7097C14.1615 40.6265 13.6889 40.5589 13.3231 40.5078C13.3319 40.6135 13.3409 40.7188 13.3501 40.8244ZM27.3304 42.7589C27.3273 42.8636 27.3238 42.9674 27.3201 43.0696C28.277 43.2382 29.2541 43.4139 30.2432 43.5959C30.2398 43.4915 30.2366 43.3875 30.2331 43.2831C29.2515 43.102 28.2812 42.9272 27.3304 42.7589Z" fill="#2A344A"/>
<path fill-rule="evenodd" clip-rule="evenodd" d="M12.8842 15.9079C13.4025 26.0785 14.2084 36.2295 15.3129 46.3355C14.9416 46.5851 14.586 46.8254 14.2744 47.0641C14.2586 47.1423 14.1965 47.2093 14.1283 47.2093C10.3483 46.955 6.63961 45.8397 4.22427 45.113C3.99416 45.0439 3.77579 44.9781 3.57021 44.917C2.38228 44.5643 2.32763 44.2252 2.24315 43.7005C2.23829 43.6706 2.23337 43.64 2.22812 43.6086C2.05115 42.5556 1.91058 41.3475 1.75964 40.0502C1.69643 39.5071 1.63143 38.9484 1.56117 38.3787C0.47169 29.9854 -0.0219167 20.002 0.0552424 18.6801C-0.041735 18.6312 0.00767847 18.5109 0.0615841 18.505C0.985255 18.0935 1.94133 17.7638 2.86563 17.4451L2.86917 17.4439C3.86067 17.1019 4.63561 16.8216 5.26364 16.5944C7.24095 15.879 7.76185 15.6906 8.99962 15.7637C8.99962 15.7637 10.8714 15.8329 12.8842 15.9079ZM3.90656 44.6465C3.94647 44.6593 3.98573 44.6721 4.02465 44.6846C4.42068 44.8126 4.78478 44.9304 5.47778 45.1349C5.47514 45.1037 3.90316 22.1764 3.8873 20.4314C3.17411 20.3385 2.52513 20.2372 1.90178 20.1216C2.08693 21.8199 3.89993 44.563 3.90656 44.6465ZM4.06804 20.4544C4.13199 21.0244 5.67782 43.6114 5.74176 45.2103V45.2106C6.45205 45.4162 7.16366 45.6082 7.87659 45.7815C7.87394 45.7494 6.24911 22.6155 6.2388 20.6875C5.49549 20.6196 4.80925 20.5482 4.06804 20.4544ZM6.55709 22.3533C6.56861 22.6694 6.58005 22.9837 6.5995 23.2945H6.59976L8.16355 45.8475C8.81835 46.0027 9.47367 46.146 10.1287 46.2738C10.096 45.8915 8.44259 22.2528 8.43044 20.8601C7.759 20.8153 7.09997 20.7639 6.45496 20.7062C6.51708 21.2542 6.53719 21.8064 6.55709 22.3533ZM8.631 20.8729C8.6857 21.3288 10.3113 44.3636 10.388 46.3234C11.1241 46.4623 11.8601 46.5845 12.5947 46.6886C12.2477 45.1196 12.0218 43.4266 11.906 41.517C11.7774 39.781 11.4275 35.438 11.0797 31.1203C10.7381 26.8802 10.3984 22.6644 10.2722 20.9661C9.71889 20.9399 9.17243 20.9078 8.631 20.8729ZM12.2398 42.0106C12.3531 43.6796 12.5777 45.2635 12.902 46.7303C13.2463 46.7768 13.5903 46.8216 13.9338 46.8603C12.9646 41.1091 12.7887 35.1345 12.6161 29.2693C12.5171 25.9094 12.4193 22.5855 12.174 19.36C10.6085 19.2812 9.25578 19.2184 8.02382 19.1613C5.19055 19.0298 2.9964 18.928 0.324506 18.7284C0.36705 19.1067 0.392681 19.5059 0.392681 19.9219C0.406686 20.1534 0.590864 24.0966 0.590864 24.0966C0.945489 30.9296 1.51471 35.5926 2.28482 41.9006C2.34848 42.4222 2.41354 42.9551 2.47994 43.501C2.56809 44.2252 2.86079 44.3165 3.61872 44.5531L3.62147 44.5537C1.82456 21.7171 1.63692 19.943 1.76891 19.9093C1.78728 19.9046 1.81185 19.9337 1.83915 19.9443C2.3507 19.9915 2.94329 20.0597 3.60567 20.136C5.42663 20.3456 7.77482 20.616 10.4154 20.6772C10.4667 20.6772 10.5394 20.7333 10.5394 20.8243C10.6955 22.6024 12.2398 42.0106 12.2398 42.0106Z" fill="#2A344A"/>
<path d="M6.81554 14.1592C6.64616 14.1592 6.66254 14.1991 6.66254 16.5792C6.66254 16.7746 6.96853 16.8862 6.96853 16.5792C6.96853 14.2141 6.98492 14.1592 6.81554 14.1592Z" fill="#2A344A"/>
<path d="M8.10351 16.7797C8.10351 16.5276 8.04696 16.7778 8.04696 12.5349C8.04696 12.3735 7.82817 12.3722 7.82605 12.5327C7.65113 15.1182 7.79778 16.7043 7.79778 16.8801C7.79778 17.7597 8.24224 17.7395 8.10351 16.7797Z" fill="#2A344A"/>
<path d="M28.8793 5.51339C28.6848 0.274196 28.7052 0.414734 28.6478 0.196292C28.5519 -0.172349 28.392 0.0398613 28.3611 0.328729C28.3167 0.748798 28.4372 1.17135 28.5167 5.48192C28.5218 5.7496 28.5167 6.02631 28.6058 6.27155C28.6679 6.41801 28.8428 6.38249 28.8507 6.25815C28.9017 6.04439 28.9118 5.77858 28.8793 5.51339Z" fill="#2A344A"/>
<path d="M30.0687 2.77514C30.0687 2.54891 29.791 2.54891 29.791 2.77514C29.791 3.87577 29.8769 4.99976 29.9329 6.08418C29.9329 6.35436 30.3039 6.33753 30.2672 6.08138C30.2122 5.01441 30.1824 3.8767 30.0687 2.77514Z" fill="#2A344A"/>
<path fill-rule="evenodd" clip-rule="evenodd" d="M36.2477 5.46601C36.2556 5.38935 36.2184 5.29462 36.128 5.26845C30.9745 4.677 26.0828 4.43269 24.0814 4.43269C22.4958 4.29477 21.5896 4.66665 20.6664 5.04555C20.6071 5.06988 20.5476 5.09428 20.488 5.11856C18.9836 5.72989 17.1716 6.30712 15.3671 6.88193C14.4067 7.18784 13.4484 7.49313 12.5398 7.8025C12.4782 7.82338 12.4365 7.89038 12.4375 7.96579C12.5038 12.4571 13.2144 26.2701 14.589 40.4114C15.1245 45.9213 15.3523 47.2653 15.4068 47.5872C15.4197 47.6629 15.4229 47.682 15.4182 47.6854C15.4167 47.6863 15.4142 47.6857 15.411 47.6848C15.4094 47.6845 15.4075 47.6838 15.4055 47.6835C15.3231 47.6835 15.2485 47.8294 15.3952 47.8758C16.4714 48.2176 17.5886 48.4548 18.6691 48.6841C18.8307 48.7187 20.1358 49.0188 21.663 49.37H21.6634L21.6638 49.3703C23.8937 49.8829 26.5967 50.5046 26.9059 50.5669C26.9212 50.57 26.9339 50.5728 26.945 50.5753C26.973 50.5815 26.9894 50.5853 27.0055 50.5837C27.028 50.5815 27.0499 50.5691 27.1022 50.5392C27.1176 50.5304 27.1353 50.5205 27.1567 50.5083C27.4069 50.369 27.6659 50.2279 27.9335 50.0817C28.7028 49.6623 29.5444 49.2036 30.4536 48.6371C30.3627 46.7241 30.2769 44.6933 30.2193 42.6556C28.9895 45.9559 27.9079 48.8586 27.6466 49.5573C27.5747 49.814 27.2698 49.6137 27.3467 49.3874C27.5116 48.934 28.7731 45.5496 30.1952 41.7373C30.1141 38.3422 30.1207 34.9765 30.3213 32.1573C30.3213 32.1573 33.0406 31.3293 34.2225 30.9464C34.2508 30.8703 34.2775 30.799 34.3023 30.7323C34.4376 30.4761 34.4725 30.1517 34.3861 29.8635C34.2831 29.5204 33.4586 27.8941 33.3479 27.6804L33.3046 27.5965C32.0219 25.1173 30.6122 22.3926 28.4684 19.081C28.4324 19.0402 28.4264 18.9458 28.4678 18.891C28.9493 17.9225 33.8233 8.68275 34.05 8.26488C34.4995 7.43629 34.9434 6.71365 35.4719 5.88289C35.492 5.85173 35.5654 5.83241 35.5971 5.87105L35.5974 5.87136C35.6561 5.94291 35.5673 6.10398 35.0113 7.11321C34.2133 8.56166 32.4529 11.7572 28.7841 18.9424C31.1766 22.6546 33.3696 26.7951 34.0899 28.3884C34.2117 28.6578 34.3211 28.8782 34.4146 29.067C34.7693 29.7815 34.9006 30.0461 34.6379 30.8077C34.8224 30.7422 35.0261 30.6597 35.2383 30.5705C35.3096 29.4855 35.3839 28.397 35.4584 27.3055C35.7525 22.994 36.0498 18.6341 36.1922 14.2408C36.3368 9.35185 36.2778 7.04877 36.2525 6.06335C36.244 5.72876 36.2392 5.54641 36.2477 5.46601ZM25.8931 49.9321C25.5543 49.8524 16.8834 47.9668 16.3356 47.8562C16.268 47.0407 16.1885 46.1703 16.1068 45.309C16.3196 45.3436 16.7084 45.3766 17.197 45.4181C17.9477 45.4816 18.9339 45.5655 19.8791 45.7048C21.9944 45.9643 24.5803 46.4676 25.0895 46.6063C25.3934 46.6888 25.7382 46.7758 26.0751 46.821C26.0616 47.1946 26.0228 47.7948 25.9834 48.4021C25.9472 48.9639 25.9105 49.532 25.8931 49.9321ZM23.8287 46.0338H23.8283C22.9666 45.868 21.3198 45.5518 18.1872 45.2439C17.5541 45.161 16.8628 45.1192 16.088 45.1127C16.0383 44.5914 15.9038 43.2146 15.816 42.3153C15.783 41.9775 15.7566 41.7067 15.7437 41.5746C16.1521 41.6482 16.5255 41.6749 17.0435 41.7117C18.3206 41.8027 20.4768 41.9563 26.2038 43.0305C26.1692 44.1944 26.1277 45.3582 26.0865 46.4969C25.5501 46.3429 24.9489 46.2329 24.2548 46.1136V46.1133C24.14 46.0937 23.9999 46.0669 23.8287 46.0338ZM15.4684 13.4963C19.2147 13.613 22.5033 13.9614 24.4526 14.1679C25.3049 14.2582 25.901 14.3213 26.1676 14.3262C26.1721 14.4838 26.2678 18.2927 26.2762 18.7657C24.3752 18.4557 16.0981 17.8705 13.9326 17.9322C13.8953 17.2726 13.8716 16.8839 13.8519 16.5607C13.81 15.8743 13.7861 15.4826 13.6882 13.4178C13.688 13.4133 13.6873 13.4095 13.6867 13.4063C13.6859 13.4022 13.6853 13.3992 13.6863 13.3971C13.689 13.3909 13.7045 13.3927 13.7651 13.3994C13.9122 13.4158 14.3257 13.4617 15.4684 13.4963ZM13.6771 13.1881C13.5912 11.3291 13.4815 9.61392 13.439 9.05644C13.7644 9.08751 13.8292 9.08928 14.3271 9.1029C14.8622 9.11755 15.8978 9.14591 18.295 9.23905C20.4036 9.32082 23.1052 9.55057 24.7875 9.69366C25.3556 9.74199 25.8077 9.78045 26.0812 9.79995C26.0849 11.2044 26.1195 12.6194 26.1586 14.0074C24.3914 13.7291 15.8872 13.1152 13.6771 13.1881ZM23.5656 18.7982C24.3257 18.8542 24.8022 18.919 25.1828 18.9707C25.5823 19.025 25.8764 19.0649 26.282 19.0655C26.3069 20.5133 26.3259 21.9679 26.3423 23.4085C25.3429 23.2471 16.7272 22.5416 14.2177 22.612C14.1226 21.1303 14.0301 19.6348 13.945 18.1456C14.3999 18.1942 15.0152 18.2195 15.842 18.2534C17.4681 18.3201 19.9125 18.4203 23.5656 18.7982ZM15.8854 22.9221C19.485 23.0324 24.9467 23.5715 26.1206 23.6874C26.2532 23.7005 26.3312 23.7082 26.3454 23.7092C26.3513 24.2215 26.379 27.3489 26.3814 28.3788C24.3893 28.065 16.7843 27.4567 14.5634 27.5262C14.4981 26.6624 14.2764 23.5303 14.2307 22.823C14.784 22.8853 15.3431 22.9049 15.8854 22.9221ZM25.3627 28.5921C25.9184 28.6519 26.2807 28.6912 26.3824 28.694C26.3848 30.1636 26.3793 31.6385 26.365 33.1087C25.9237 33.0295 25.4642 32.9846 25.0189 32.9413L25.0118 32.9404C24.4762 32.8886 24.2322 32.8584 24.0283 32.8332C23.7278 32.7961 23.5148 32.7696 22.5839 32.7004L22.5535 32.6979C22.1089 32.6602 16.9368 32.223 14.9217 32.2685L14.5821 27.768C15.1154 27.8309 15.6497 27.8506 16.1676 27.868L16.1673 27.8683C19.76 27.9885 23.5694 28.399 25.3627 28.5921ZM16.3647 32.6144C19.1133 32.7064 22.3615 33.0388 24.432 33.2507C25.367 33.3467 26.0619 33.4178 26.3621 33.4309C26.3478 34.8048 26.332 36.2787 26.3111 37.7754C24.5134 37.4604 17.2256 36.8913 15.3096 36.9506C15.1849 35.5717 14.9484 32.6278 14.9412 32.5315C15.4203 32.5805 15.8991 32.5988 16.3647 32.6144ZM16.7751 37.2936C19.0872 37.3744 23.0409 37.7642 25.0574 37.963C25.7559 38.0319 26.222 38.0777 26.3069 38.0798C26.2913 39.1574 26.2271 42.2496 26.2136 42.7201C25.2827 42.4724 18.8238 41.4088 15.7271 41.4014C15.6993 41.1137 15.4343 38.3179 15.3328 37.203C15.8053 37.2581 16.2968 37.2771 16.7751 37.2936ZM26.1975 50.0044C26.4448 50.0646 26.6879 50.1253 26.9294 50.1898C26.9294 49.7296 26.9667 48.6579 27.0182 47.1709C27.1353 43.8027 27.3261 38.3042 27.3261 32.9566C27.3261 29.1823 27.0584 16.415 26.9485 11.1726V11.1718C26.9202 9.82404 26.9025 8.97377 26.9022 8.90188C25.758 8.82818 25.15 8.76218 24.5262 8.6945C23.4273 8.57521 22.2798 8.45069 18.0675 8.26961C14.8429 8.13094 13.8217 8.12147 13.3103 8.11673C13.0172 8.11402 12.8917 8.11284 12.6148 8.08981C12.7191 9.62966 12.803 11.2544 12.901 13.1497C13.1218 17.4217 13.4136 23.0684 14.1691 32.2168C14.5692 36.8212 14.949 40.5503 15.2316 43.3246C15.43 45.2722 15.5804 46.749 15.6563 47.7275C15.8048 47.753 15.9533 47.7817 16.1018 47.8103C16.0888 47.6966 16.0688 47.5355 16.0422 47.3217C15.8515 45.7867 15.323 41.5332 14.6188 32.4898C14.5517 32.4552 14.5634 32.3181 14.603 32.2872C14.1231 26.0756 13.3774 15.4022 13.2976 9.04335C13.2939 8.92369 13.3449 8.87134 13.3938 8.86822C15.0684 8.75745 16.1131 8.81276 20.4306 9.04142L21.1322 9.07857C22.7774 9.16551 24.4775 9.27582 26.1795 9.47993C26.2778 9.50828 26.333 9.64197 26.2781 9.74199C26.2841 9.94679 26.2987 10.1322 26.3129 10.3164C26.3182 10.3856 26.3235 10.4546 26.3285 10.5245C26.7933 17.1391 26.8013 36.5171 26.5545 42.3359C26.4836 44.0083 26.4472 45.2024 26.4181 46.1479C26.3682 47.7842 26.341 48.6738 26.1975 50.0044ZM27.0111 8.56876C21.3193 7.9795 14.3879 7.79596 13.1988 7.85174C18.0648 6.42217 19.793 5.71829 20.7697 5.32052C21.3881 5.06867 21.7052 4.9395 22.3266 4.82658C22.7686 4.7521 23.1756 4.72966 23.5397 4.7602C25.4063 4.7602 30.5382 4.99485 35.5054 5.52927C32.6926 6.17836 29.579 7.26247 27.0111 8.56876Z" fill="#2A344A"/>
<path fill-rule="evenodd" clip-rule="evenodd" d="M38.1139 29.6541C37.1187 29.6391 36.6222 29.8439 35.7822 30.1904C35.2651 30.4035 34.6177 30.6706 33.6437 30.9732C33.275 31.0925 32.8903 31.2087 32.4976 31.3272C31.7551 31.5512 30.9856 31.7834 30.2492 32.0619C30.2135 32.0753 30.1887 32.1137 30.1866 32.1579C30.0209 36.0927 29.9033 39.6227 30.1564 46.0946C30.1942 47.1183 30.3266 49.8717 30.4598 50.9318C30.4212 50.9458 30.367 50.9947 30.3623 51.0549C30.3565 51.1266 30.4122 51.1764 30.5282 51.2029C30.7602 51.2556 32.0926 51.5638 33.7113 51.938C36.4557 52.5725 40.0236 53.3973 40.4485 53.4917C40.5214 53.5079 40.5851 53.4712 40.6165 53.3957C41.6037 52.9025 42.7114 52.2964 43.649 51.6822C44.8029 50.9661 45.592 50.4581 46.6347 49.5345C46.738 49.4127 46.789 48.3737 46.8387 47.3576C46.8587 46.9534 46.8783 46.553 46.901 46.2152C47.1925 41.875 47.2593 39.8131 47.294 38.2569C47.3164 38.2195 47.3127 38.1951 47.2958 38.1609C47.3518 35.5523 47.3206 34.161 47.2807 32.3826C47.2683 31.8229 47.2548 31.2249 47.243 30.5385L47.2435 30.5388C47.3024 30.4453 47.2593 30.3016 47.1494 30.2698C44.7802 29.9975 42.6538 29.8557 41.085 29.7769C41.0956 29.8785 41.1062 29.98 41.1173 30.0816C42.8053 30.1729 44.2435 30.2998 46.1027 30.4905C44.4319 30.9105 41.8825 31.8086 40.5 32.5985C37.6657 32.2614 31.8598 32.0336 30.8784 32.1024C33.7013 31.3013 34.6695 30.9298 35.9915 30.4225C36.0462 30.4017 36.1011 30.3805 36.1572 30.359H36.1569L36.1648 30.3558C36.7591 30.1281 37.2585 29.9367 38.1324 29.9623C38.1379 29.9623 38.1435 29.9626 38.149 29.9626C38.1366 29.8598 38.125 29.7569 38.1139 29.6541ZM46.7161 35.548C46.933 35.3644 46.9499 35.3504 47.0102 35.3242C47.0065 34.6895 47.0004 34.056 46.9906 33.4221C46.8722 33.5007 46.7665 33.5627 46.5792 33.6518C46.5113 33.6836 46.4973 33.6917 46.483 33.7001C46.4685 33.7085 46.4537 33.7172 46.3847 33.75C46.381 35.5065 46.2954 35.8484 46.3237 35.8621C46.3311 35.8655 46.3456 35.8478 46.371 35.8266L46.3813 35.8181C46.4486 35.7627 46.5176 35.706 46.5863 35.6574C46.6363 35.6153 46.6791 35.5791 46.7161 35.548ZM46.7845 33.2679C46.8484 33.2258 46.9134 33.1834 46.9864 33.1489C46.9787 32.6736 46.9705 32.2015 46.9613 31.7294C46.8593 31.7802 46.6783 31.8622 46.3445 32.0037C46.3696 32.4929 46.3823 32.9977 46.3847 33.5116C46.4486 33.4627 46.5163 33.4172 46.5921 33.3813C46.66 33.3492 46.7219 33.3087 46.7845 33.2679ZM46.9563 31.4861L46.9401 30.6687C46.7174 30.7167 46.4907 30.7694 46.2589 30.827C46.288 31.1349 46.3112 31.4524 46.3303 31.7759C46.39 31.7457 46.4452 31.7176 46.4967 31.6911C46.6999 31.587 46.8432 31.5138 46.9563 31.4861ZM43.1319 47.5486C43.4394 47.3442 43.4402 47.3435 43.6226 47.2417C45.4086 42.6628 46.2581 37.7333 46.1419 32.4998C45.779 32.6553 41.9705 34.0373 41.9705 34.0373C41.9319 34.055 41.1006 34.433 40.7368 34.5521C40.7539 34.9696 40.779 35.8297 40.779 35.8297C40.9415 38.1257 41.0953 43.4219 40.8641 48.2008C40.8419 48.5043 40.8245 48.8013 40.8092 49.1026C40.9843 48.9686 41.1646 48.8427 41.344 48.7256C42.3748 48.0522 42.8668 47.725 43.1319 47.5486ZM40.6279 32.8858C40.6744 33.3579 40.7048 33.8357 40.7272 34.3127C41.0589 34.1616 45.8599 32.2991 46.1363 32.2202C46.1247 31.7731 46.1107 31.3228 46.094 30.8685C43.4944 31.5313 41.9655 32.2595 41.1429 32.6515C40.923 32.7562 40.7537 32.8369 40.6279 32.8858ZM32.5095 51.3587C32.6665 51.3914 32.8192 51.4235 32.8768 51.4357V49.4195L32.1103 49.2996V51.2749C32.1808 51.2898 32.3473 51.3247 32.5095 51.3587ZM33.1411 51.4924L33.9076 51.6563V49.5813L33.1411 49.4613V51.4924ZM35.2368 50.0334C35.2719 50.5127 35.3216 51.3634 35.2865 51.9533C38.1498 52.5718 38.5692 52.66 38.9872 52.7557C39.0942 52.7803 39.201 52.8052 39.3489 52.8398C39.2491 52.1203 39.271 51.039 39.3122 50.7962C39.3135 50.7878 39.3162 50.7819 39.3191 50.7751C39.3275 50.7554 39.3394 50.7277 39.3397 50.6133C39.3201 50.5563 39.271 50.5516 39.2092 50.5516C37.7846 50.3207 37.3304 50.2702 36.4769 50.1752C36.1484 50.1387 35.761 50.0957 35.2368 50.0334ZM39.6528 52.9124C39.8877 52.9691 40.1234 53.0274 40.3578 53.091L40.3586 53.0919C40.3333 51.9377 40.3763 51.201 40.4236 50.3927C40.4397 50.1197 40.4561 49.8383 40.4707 49.5298C40.4442 49.5261 33.047 48.3588 31.9055 48.0618C31.8344 48.1575 31.6875 48.1123 31.6875 47.9652C31.6822 47.7705 31.669 47.4074 31.6513 46.9235C31.586 45.1479 31.4608 41.7444 31.4608 39.0409C31.4608 36.4037 31.4719 35.9877 31.48 35.6779C31.4851 35.4938 31.489 35.3473 31.489 34.7957C31.4631 34.4034 31.4827 33.9385 31.5456 33.4545C31.5474 33.4168 31.5696 33.3972 31.5916 33.3972C31.5945 33.3972 31.5974 33.3991 31.6 33.4013C31.6016 33.4025 31.6032 33.4034 31.6048 33.4044C31.664 33.3212 32.9487 33.4658 33.1548 33.4891C33.1646 33.4904 33.172 33.491 33.1767 33.4916C34.5321 33.6421 35.9246 33.7895 37.1259 33.917C38.9452 34.1096 40.3256 34.2557 40.473 34.2959C40.4413 33.744 40.4059 33.2068 40.3872 32.9301C34.4586 32.4153 33.0309 32.406 32.0725 32.3994C31.5717 32.3963 31.1994 32.3938 30.3805 32.3206C30.4138 33.2719 30.4025 34.2476 30.3903 35.1924C30.2962 42.7151 30.478 45.9245 30.5988 48.0525C30.6619 49.1665 30.7082 49.9842 30.6894 50.9695C30.9656 51.0256 31.7327 51.1936 31.846 51.2185C31.846 49.1889 31.8312 49.0715 31.8735 49.0222C31.8785 49.0166 31.8843 49.0116 31.8909 49.0048C31.897 48.9982 31.9018 48.9926 31.9071 48.9879C31.9578 48.9421 32.063 48.9798 34.0572 49.2905C34.1227 49.3008 34.1719 49.3669 34.1719 49.4451V51.7133L35.0576 51.904C35.0671 51.5993 35.0492 51.1587 35.0309 50.7087C35.0198 50.4348 35.0085 50.1574 35.0032 49.9056C35.0013 49.8125 35.0759 49.7548 35.1279 49.7564C36.5229 49.7957 39.1722 50.212 39.4457 50.2927C39.6671 50.4039 39.623 50.7093 39.5936 50.9115C39.5432 51.2587 39.5421 52.1356 39.6528 52.9124ZM36.349 34.1485C36.3704 34.4523 36.7261 47.4289 36.7261 47.4289V47.4292C36.7768 47.815 36.78 48.2248 36.7406 48.6206L38.571 48.8948C38.5182 48.3438 38.5174 47.8181 38.5174 47.2628C38.5174 45.6449 38.4968 43.9376 38.4769 42.2817C38.4394 39.1503 38.404 36.2027 38.5137 34.3934L36.349 34.1485ZM34.1249 40.5304C34.133 41.4634 34.1399 42.2583 34.1468 42.7164C34.1468 44.5128 34.1764 45.6761 34.1978 46.5181C34.2171 47.2734 34.2295 47.7698 34.2084 48.2326C35.2754 48.3781 35.6567 48.4439 35.9801 48.4996C36.1424 48.5274 36.2901 48.5529 36.5023 48.5847C36.4806 48.4192 36.0966 34.725 36.1175 34.1223L34.0123 33.883C34.0717 34.5087 34.1027 38.0191 34.1249 40.5304ZM31.6357 33.5773C32.0159 33.6646 32.3124 33.6967 33.0385 33.7752C33.2663 33.7998 33.5364 33.8288 33.8648 33.8659C33.845 34.1949 33.8455 34.2554 33.8564 35.3526C33.8701 36.7187 33.8997 39.6925 33.9259 46.7945C33.9259 46.8135 33.9259 46.8325 33.9261 46.8515C33.9269 47.1049 33.928 47.3844 33.9542 47.6302C33.9542 47.8284 33.9581 48.0101 33.9695 48.1974C33.9203 48.1896 33.8075 48.1731 33.6741 48.1534C33.4333 48.1182 33.126 48.0734 33.0079 48.0519C32.6562 47.988 32.2934 47.9235 31.9343 47.9191C31.716 43.0922 31.6999 39.1499 31.6896 36.5853C31.6832 35.0622 31.679 34.0248 31.6357 33.5773ZM40.2104 49.155C40.2997 49.155 40.394 49.1646 40.487 49.1821C40.742 44.1199 40.7101 42.8161 40.611 38.7925C40.603 38.4806 40.5951 38.1525 40.5867 37.805C40.5867 36.8748 40.5293 35.3411 40.4889 34.5891C40.3428 34.6029 40.342 34.6028 40.1496 34.577C39.9593 34.5511 39.5815 34.5003 38.6907 34.4128C38.7171 34.7418 38.7166 36.1684 38.7158 37.9128C38.7153 39.608 38.7145 41.6036 38.7383 43.1841C38.7383 46.4894 38.7935 47.4975 38.8226 48.0241C38.8413 48.3647 38.849 48.5037 38.8234 48.9325C39.3672 49.0138 39.5128 49.0347 39.6581 49.0584C39.7744 49.0777 39.8904 49.0989 40.2104 49.155ZM40.5727 53.1069C40.6392 53.0595 40.6902 53.0259 40.7415 52.9947H40.7418C40.8591 52.7909 40.9822 52.5849 41.112 52.368C41.7179 51.3544 42.4681 50.0992 43.4371 47.7184C43.3274 47.7904 41.4951 48.9415 41.4951 48.9415C41.4185 48.9917 41.3363 49.0515 41.2518 49.1129C41.1001 49.2232 40.94 49.3398 40.7875 49.4189C40.7917 49.4279 40.7835 49.6177 40.7737 49.8455C40.7645 50.0605 40.7539 50.3095 40.7508 50.4734C40.7365 51.2391 40.695 52.0602 40.5727 53.1069ZM46.0335 49.6087C46.1833 49.4872 46.311 49.3837 46.4262 49.2974L46.4259 49.2971C46.4293 48.1578 46.4719 47.6511 46.5221 47.0522C46.5287 46.9715 46.5358 46.8889 46.5427 46.8032C46.3289 46.9793 46.1033 47.1398 45.8575 47.2716C45.2839 47.6521 44.9237 47.9023 44.6423 48.0977C44.1489 48.4398 43.8974 48.6146 43.1622 49.03C42.4607 50.6108 41.7049 52.0184 41.2782 52.703C44.1003 51.1755 45.3206 50.1864 46.0335 49.6087ZM45.7656 46.9877C45.9957 46.7758 46.2571 46.6147 46.5707 46.4445V46.4442C46.6159 45.8749 46.641 45.4418 46.6632 45.0579C46.6748 44.8572 46.6859 44.6699 46.6983 44.4839C46.195 44.8886 45.723 45.214 44.8936 45.634C44.8846 45.6387 44.8611 45.6509 44.8283 45.6683C44.7202 45.7256 44.5091 45.8372 44.3646 45.9061C44.0403 46.8724 43.6817 47.8213 43.2846 48.7446C43.7618 48.3398 44.285 47.9612 44.8875 47.5888L44.8978 47.5816C45.1718 47.3878 45.4569 47.1862 45.7656 46.9877ZM46.6407 44.1495C46.6664 44.1292 46.6949 44.1239 46.7216 44.1314C46.7766 43.2919 46.8239 42.4898 46.8638 41.7211L46.8318 41.742C46.3118 42.0822 46.1929 42.1601 45.7711 42.3593C45.6345 42.4238 45.5111 42.4537 45.4094 42.4783C45.3843 42.4842 45.3608 42.4898 45.3386 42.4958C45.0878 43.5568 44.7945 44.6038 44.4586 45.6306C44.4861 45.6122 44.554 45.5708 44.6476 45.5134C44.8653 45.3804 45.2231 45.1616 45.5383 44.9494C45.9463 44.7088 46.2925 44.4337 46.6407 44.1495ZM46.8812 41.3805C46.9306 40.383 46.9676 39.4394 46.9922 38.5376H46.9925C46.993 38.5127 46.9943 38.5033 46.9919 38.5018C46.989 38.4999 46.9803 38.5108 46.9568 38.5177C46.8569 38.5769 46.7705 38.6292 46.6933 38.676C46.4061 38.8502 46.2462 38.9474 45.9955 39.0315C45.839 40.1206 45.6379 41.2029 45.3919 42.2714C45.4884 42.2088 45.5809 42.1545 45.685 42.1056C45.8327 42.0358 45.9146 41.9975 45.9944 41.9539C46.1434 41.8722 46.2853 41.7716 46.8381 41.4092C46.8513 41.3945 46.8661 41.3864 46.8812 41.3805ZM46.8387 38.2665C46.8828 38.2163 46.9383 38.183 46.9967 38.1574C47.0107 37.3379 47.0144 36.5127 47.0115 35.6848C46.9888 35.701 46.7129 35.9048 46.7129 35.9048C46.557 35.997 46.4264 36.088 46.3004 36.1771C46.2404 37.0456 46.1508 37.9138 46.0325 38.7776C46.2523 38.6102 46.4473 38.4959 46.7052 38.345C46.7478 38.3198 46.7922 38.2939 46.8387 38.2665Z" fill="#2A344A"/>
<path d="M42.9917 27.8758C42.9917 27.7679 42.9285 27.6978 42.7853 27.7439C42.2172 27.8109 40.8902 27.6651 40.172 27.6629C39.9836 27.6321 38.5527 28.0085 38.0464 28.1696C38.0281 28.1674 38.0102 28.1659 37.9919 28.1634C37.914 28.1634 37.8656 28.2182 37.8672 28.3123C37.8791 28.9639 38.0152 29.9078 38.183 30.7183C38.187 30.7379 38.2015 30.7526 38.2189 30.7538C38.4203 30.7694 40.6608 31.0094 40.6983 31.0168C40.8947 31.0561 41.1708 31.1147 41.3359 30.9838C41.3648 30.9495 41.3027 30.9735 41.4448 30.9277C42.7087 30.5214 42.8408 30.4793 43.0366 30.2481C43.1014 30.1717 42.9914 30.2481 42.9914 27.8754L42.9917 27.8758ZM40.8299 28.7436C40.8426 28.8879 40.8574 29.0322 40.8722 29.1767C41.0062 30.4715 40.9713 30.4544 41.0511 30.7386C40.8849 30.7333 40.8767 30.7492 40.6119 30.6859C40.5165 30.6632 40.571 30.6737 39.7796 30.57C39.6667 30.5631 39.5579 30.5575 39.4471 30.551C39.4519 30.4759 39.4506 30.4622 39.4506 29.8713C39.4506 29.7582 39.389 29.6688 39.2817 29.6264C39.1327 29.5678 39.0878 29.6102 38.9369 29.5747C38.6687 29.5114 38.5934 29.6529 38.6626 29.871C38.6626 30.5154 38.6578 30.4575 38.6594 30.5158C38.541 30.512 38.424 30.5061 38.3032 30.5049C38.266 29.8495 38.1656 29.1914 38.1497 28.5379C39.0479 28.6464 39.9521 28.6352 40.8294 28.7433L40.8299 28.7436ZM38.8798 30.5226C38.8861 30.4217 38.884 30.3612 38.8838 29.8146C38.9205 29.8187 39.1414 29.8449 39.1731 29.8483V30.5354C39.0761 30.5301 38.9768 30.5267 38.8798 30.5226Z" fill="#2A344A"/>
</svg>
