<svg width="66" height="57" viewBox="0 0 66 57" fill="none" xmlns="http://www.w3.org/2000/svg">
<path d="M8.23787 45.4829C8.54183 45.4454 8.85888 45.413 9.18694 45.3862C8.72256 45.3683 7.89879 45.1807 7.64061 44.1022C7.53941 43.6805 7.54801 43.2357 7.57383 42.7978C8.70053 43.2626 9.99418 43.2612 11.1202 42.7923C11.1601 43.2392 11.1057 43.8801 11.0269 44.3483C10.9501 44.8034 10.3457 45.2285 9.6558 45.3521C9.99797 45.3301 10.3508 45.3139 10.7116 45.3043C11.0593 45.0709 11.3071 44.7579 11.3667 44.4054C11.4421 43.9576 11.5395 43.0536 11.4276 42.5077C11.4049 42.3971 11.2844 42.3393 11.1846 42.3868C10.0455 42.9317 8.63099 42.9307 7.49225 42.3848C7.38312 42.3314 7.25403 42.4075 7.24611 42.5286C7.21066 43.0701 7.17382 43.6302 7.30601 44.1824C7.46092 44.8295 7.80826 45.2464 8.23787 45.4833V45.4829Z" fill="#2A344A"/>
<path d="M7.34388 42.6952C7.28501 42.667 7.24715 42.6078 7.24611 42.5424C7.24302 42.2801 7.60619 42.0766 7.91153 41.9523C8.66473 41.6453 10.3594 41.3496 11.3835 42.424C11.4641 42.5086 11.439 42.6474 11.3333 42.698C10.104 43.2856 8.61309 43.3045 7.34353 42.6956L7.34388 42.6952ZM7.67504 42.4666C8.70018 42.8963 9.91639 42.9045 10.9491 42.4904C10.1897 41.8807 9.13737 41.9961 8.69537 42.0811C8.17005 42.182 7.8265 42.3537 7.67504 42.4666Z" fill="#2A344A"/>
<path d="M9.33833 38.8225C9.39754 38.2342 9.59892 37.4304 10.2199 36.9433C10.6079 36.6386 11.3053 36.47 11.833 36.7574C12.1807 36.9467 12.5745 37.398 12.4757 38.4741C12.42 39.0786 12.3053 39.765 11.8743 40.2735C10.9366 41.3802 9.14762 40.721 9.33833 38.8229V38.8225ZM11.2155 36.9529C10.2492 36.9529 9.77827 37.8893 9.68085 38.8569C9.5256 40.3984 10.8805 40.9127 11.6117 40.0504C11.9804 39.6153 12.0819 38.9932 12.1325 38.4421C12.2048 37.6569 11.9997 36.9529 11.2155 36.9529Z" fill="#2A344A"/>
<path d="M9.77572 36.101C9.74543 35.5237 9.51341 34.9368 9.06693 34.3061C8.86933 34.0269 8.59188 33.6837 8.19669 33.5057C6.52196 32.7526 6.02488 35.5313 7.26965 37.1633C7.41113 37.1426 7.58876 37.1499 7.75193 37.2008C7.05966 36.4814 6.75432 35.3567 7.01663 34.3553C7.10992 33.9997 7.31371 33.7319 7.67964 33.7319C8.15091 33.7319 8.51614 34.1237 8.78603 34.5051C9.19395 35.081 9.40497 35.6091 9.43182 36.1192C9.47313 36.9068 8.95574 37.89 8.20116 37.5399C8.29996 37.67 8.38637 37.8218 8.44385 37.9544C9.29688 38.027 9.82116 36.9667 9.77572 36.101Z" fill="#2A344A"/>
<path d="M7.79214 40.5448C7.22552 40.5448 6.6441 40.194 6.32017 39.3069C5.66715 37.5203 7.07303 36.6012 7.9116 37.0625C8.14843 37.1926 8.3085 37.4057 8.43381 37.5967C9.45448 39.1558 8.82004 40.5444 7.79249 40.5444L7.79214 40.5448ZM7.44618 37.2893C7.12535 37.2893 6.79454 37.5055 6.64376 37.7888C6.24754 38.5337 6.72328 39.8553 7.42174 40.1262C8.46926 40.5331 9.06652 39.193 8.14533 37.7854C7.96702 37.5131 7.77183 37.2893 7.44618 37.2893Z" fill="#2A344A"/>
<path d="M8.06292 35.7057C8.14313 36.5236 9.21544 38.5253 9.1793 42.4325C9.17689 42.6899 9.57689 42.6903 9.5793 42.4325C9.58997 41.2658 9.49496 40.1047 9.27224 38.9591C9.12628 38.209 8.6323 36.2341 8.21026 35.6657C8.16929 35.6106 8.05466 35.6186 8.06292 35.7057Z" fill="#2A344A"/>
<path d="M11.231 38.0896C10.2179 39.0487 9.97801 40.9034 10.1474 42.2673C10.1756 42.4942 10.525 42.5086 10.5136 42.2673C10.4321 40.5165 10.3804 39.7712 11.3522 38.1832C11.399 38.1068 11.294 38.03 11.231 38.0896Z" fill="#2A344A"/>
<path d="M7.3621 38.8981C8.55868 41.0699 8.20343 42.1006 8.53183 42.4882C8.57486 42.5388 8.6685 42.524 8.6981 42.4669C8.80172 42.2658 8.74767 42.0658 8.71428 41.8493C8.52082 40.5863 8.19758 39.7632 7.5387 38.7945C7.46503 38.6864 7.29773 38.7811 7.3621 38.8981Z" fill="#2A344A"/>
<path d="M58.2503 44.413C58.1749 43.9651 58.0775 43.0612 58.1894 42.5152C58.2121 42.4047 58.3326 42.3469 58.4324 42.3944C59.5715 42.9393 60.986 42.9383 62.1247 42.3923C62.2332 42.3393 62.3629 42.414 62.3709 42.5362C62.4063 43.0777 62.4432 43.6378 62.311 44.1899C61.7306 46.6144 58.4847 45.8027 58.2507 44.413H58.2503ZM58.4964 42.7999C58.4565 43.2467 58.5109 43.8877 58.5897 44.3558C58.7639 45.3903 61.4872 46.1521 61.9757 44.1097C62.0769 43.688 62.0683 43.2433 62.0425 42.8054C60.9158 43.2701 59.6224 43.2687 58.4964 42.7999Z" fill="#2A344A"/>
<path d="M58.2834 42.7047C58.1777 42.6541 58.1525 42.5153 58.2331 42.4307C59.2575 41.3563 60.9522 41.6523 61.7051 41.959C62.0104 42.0833 62.3736 42.2868 62.3705 42.5491C62.3698 42.6145 62.332 42.6737 62.2727 42.7019C61.0445 43.2913 59.5536 43.3119 58.283 42.7043L58.2834 42.7047ZM60.9216 42.0881C60.4796 42.0031 59.4269 41.8878 58.6679 42.4974C59.7006 42.9116 60.9168 42.9033 61.9419 42.4737C61.7905 42.3608 61.4469 42.189 60.9216 42.0881Z" fill="#2A344A"/>
<path d="M57.7419 40.2803C57.3112 39.7719 57.1962 39.0855 57.1405 38.481C57.0417 37.4052 57.4351 36.9536 57.7832 36.7642C58.3109 36.4768 59.0083 36.6455 59.3963 36.9501C60.0173 37.4376 60.2183 38.241 60.2779 38.8293C60.4693 40.733 58.6768 41.3836 57.7419 40.2803ZM57.4837 38.4496C57.5343 39.0008 57.6358 39.6228 58.0045 40.0579C58.736 40.9203 60.0903 40.4056 59.9353 38.8645C59.8379 37.8971 59.367 36.9605 58.4007 36.9605C57.6162 36.9605 57.4114 37.6651 57.4837 38.4496Z" fill="#2A344A"/>
<path d="M61.1705 37.9601C61.261 37.7914 61.3622 37.6368 61.4414 37.5346C60.6706 37.9198 60.1422 36.9204 60.1842 36.1263C60.2111 35.6161 60.4221 35.0881 60.83 34.5121C61.0021 34.2684 61.2414 33.9707 61.5608 33.8268C62.0283 33.6161 62.4449 33.7713 62.5998 34.3627C62.8535 35.3307 62.5788 36.4323 61.9016 37.169C62.0521 37.116 62.2128 37.1125 62.3695 37.1466C63.5578 35.5163 63.1079 32.7538 61.4197 33.5132C61.0245 33.6911 60.7471 34.0343 60.5495 34.3135C60.103 34.9442 59.8713 35.5314 59.8407 36.1084C59.7942 36.9941 60.3319 38.0292 61.1708 37.9604L61.1705 37.9601Z" fill="#2A344A"/>
<path d="M61.1833 37.6036C61.3086 37.4122 61.4686 37.1995 61.7055 37.0694C62.2549 36.7671 62.9836 37.0828 63.2769 37.6339C63.7637 38.5489 63.227 40.1018 62.3193 40.4539C60.9974 40.9655 60.0266 39.3706 61.1833 37.6036ZM61.4714 37.7923C60.8721 38.708 60.9389 39.5448 61.2545 39.9345C61.6611 40.4371 62.5743 40.2901 62.9733 39.1954C63.2559 38.4226 63.1472 37.5537 62.3984 37.3307C61.9705 37.2033 61.7158 37.4188 61.4714 37.7923Z" fill="#2A344A"/>
<path d="M61.5523 35.7135C61.4721 36.5314 60.3998 38.5331 60.436 42.4403C60.4384 42.6978 60.0384 42.6981 60.036 42.4403C60.0253 41.2736 60.1203 40.1125 60.343 38.9669C60.489 38.2168 60.983 36.2419 61.405 35.6735C61.446 35.6185 61.5606 35.6264 61.5523 35.7135Z" fill="#2A344A"/>
<path d="M58.3868 38.0974C59.3999 39.0565 59.6398 40.9112 59.4704 42.2751C59.4422 42.502 59.0928 42.5164 59.1041 42.2751C59.1857 40.5243 59.2374 39.779 58.2656 38.191C58.2188 38.1146 58.3238 38.0379 58.3868 38.0974Z" fill="#2A344A"/>
<path d="M62.2538 38.905C61.0572 41.0768 61.4125 42.1074 61.0841 42.495C61.0411 42.5457 60.9474 42.5309 60.9178 42.4737C60.8142 42.2727 60.8682 42.0727 60.9016 41.8561C61.0951 40.5931 61.4183 39.77 62.0772 38.8014C62.1509 38.6933 62.3185 38.7879 62.2542 38.905H62.2538Z" fill="#2A344A"/>
<path d="M42.0032 43.2987C38.7432 43.2832 35.5132 43.1651 32.3317 42.9444C32.0009 38.1127 32.0013 33.137 32.3324 28.1494C39.0141 27.3583 46.0893 27.359 53.3679 28.1511C53.8092 32.9029 53.8092 37.8779 53.3679 42.9438C50.0336 43.1668 46.7075 43.2852 43.409 43.299C43.4579 43.4109 43.4999 43.5259 43.5361 43.6426C46.7995 43.626 50.1389 43.5076 53.5383 43.2773C53.623 43.2715 53.6905 43.2054 53.698 43.1207C54.159 37.934 54.1586 32.8396 53.698 27.979C53.6905 27.8977 53.6268 27.833 53.5455 27.8241C46.1402 27.0079 38.9418 27.0079 32.1503 27.8241C32.068 27.834 32.0047 27.9008 31.9992 27.9834C31.6539 33.0857 31.6539 38.1774 31.9992 43.1172C32.005 43.203 32.0732 43.2711 32.1586 43.277C35.3053 43.4983 38.5528 43.6236 41.8841 43.6419C41.9205 43.5217 41.9605 43.4064 42.0035 43.298L42.0032 43.2987Z" fill="#2A344A"/>
<path d="M26.9795 37.652C26.8852 37.652 26.8074 37.5756 26.8067 37.4809L26.7871 34.7876C26.7854 34.5649 27.13 34.549 27.1314 34.7852L27.151 37.4785C27.1517 37.5735 27.0746 37.6517 26.9795 37.652Z" fill="#2A344A"/>
<path d="M20.5175 29.9968C18.7374 34.3191 18.7433 34.15 18.7691 34.3494C18.7763 34.4055 18.8373 34.4633 18.8955 34.422C19.048 34.3139 19.1037 34.1304 19.177 33.9635C19.6063 32.981 20.2304 31.4126 20.6831 30.0426C20.7185 29.9355 20.5585 29.898 20.5179 29.9971L20.5175 29.9968Z" fill="#2A344A"/>
<path d="M24.0649 31.7477C23.6945 32.4094 21.4384 37.4518 21.4232 37.4866C21.311 37.7444 21.1805 38.0005 21.1509 38.2828C21.1403 38.3854 21.289 38.4408 21.3547 38.3671C21.5279 38.1726 21.4976 38.2938 23.5451 33.4614C23.7761 32.9164 24.0257 32.3722 24.2126 31.8097C24.2415 31.7226 24.1093 31.6682 24.0653 31.7474L24.0649 31.7477Z" fill="#2A344A"/>
<path d="M34.9162 36.0616C35.8897 35.0003 39.6757 30.6939 39.9101 30.4254C40.1352 30.1676 40.4141 29.9059 40.5721 29.5999C40.6165 29.5138 40.5198 29.3889 40.4272 29.455C40.1459 29.656 39.9294 29.9603 39.7056 30.2209C39.4819 30.4815 35.7462 34.8606 34.8329 35.9783C34.7857 36.0358 34.8639 36.1184 34.9162 36.0616Z" fill="#2A344A"/>
<path d="M40.553 41.8677C42.7631 39.4119 44.4622 37.4019 48.5315 32.6951C48.6864 32.5161 48.8699 32.3381 48.9677 32.1202C49.0141 32.0162 48.9126 31.8768 48.7976 31.9502C48.4651 32.1622 48.2145 32.5505 47.9594 32.8476C47.6895 33.1615 41.0012 40.9679 40.3916 41.7063C40.2993 41.8178 40.4536 41.9789 40.5534 41.8681L40.553 41.8677Z" fill="#2A344A"/>
<path d="M48.8452 38.4201C49.69 37.5867 51.2281 35.8115 51.8425 35.1116C51.9647 34.9725 52.1444 34.8297 52.1785 34.6417C52.1912 34.5712 52.1334 34.4916 52.0546 34.5178C51.8797 34.5753 51.7768 34.7419 51.6604 34.8772C50.9671 35.6844 49.4721 37.4022 48.7633 38.3571C48.7271 38.4056 48.8043 38.4607 48.8452 38.4201Z" fill="#2A344A"/>
<path d="M16.4877 12.5702C16.4057 12.5678 16.3369 12.508 16.3228 12.4274C15.7207 8.94095 15.7204 5.34674 16.3228 1.74529C16.3362 1.66543 16.4033 1.60588 16.4842 1.60175C28.2628 1.02858 40.7449 1.02858 53.5847 1.60175C53.6618 1.60519 53.7269 1.65923 53.7445 1.73462C54.5489 5.1698 54.5493 8.77021 53.7448 12.435C53.7279 12.5124 53.6605 12.5682 53.5813 12.5702C41.2582 12.9083 28.7609 12.9196 16.4877 12.5702ZM16.6384 12.2301C28.619 12.5689 40.9986 12.5685 53.437 12.2301C54.192 8.70649 54.1923 5.24553 53.4384 1.94013C40.7057 1.37558 28.3264 1.37524 16.6398 1.93945C16.0746 5.40904 16.0742 8.87 16.6384 12.2308V12.2301Z" fill="#2A344A"/>
<path d="M38.8301 6.97756C38.4773 6.7989 38.0312 6.87394 37.7365 7.1211C37.7182 6.93453 37.6952 6.75965 37.6711 6.60543C37.6136 5.5104 30.9219 5.49457 30.8734 6.61404C30.8238 7.75795 30.9023 8.66502 31.167 9.31392C31.7261 10.6857 33.2572 11.5928 34.7289 11.4234C35.6025 11.3229 36.4105 10.8485 36.9719 10.1731C36.9964 10.1855 37.0232 10.1921 37.0504 10.1921C37.195 10.1921 37.0397 10.1459 37.9368 9.7005C38.5214 9.40996 39.1427 9.0757 39.3654 8.42784C39.5558 7.87499 39.3159 7.22403 38.8301 6.97756ZM34.2727 7.12076C32.3698 7.12076 31.2878 6.79649 31.2166 6.62987C31.2882 6.44811 32.3705 6.12384 34.2727 6.12384C36.175 6.12384 37.2573 6.44811 37.3286 6.61473C37.2573 6.79614 36.1754 7.12076 34.2727 7.12076ZM39.0405 8.31631C38.8054 8.99859 37.9448 9.28293 37.353 9.6165C37.6935 8.99894 37.7854 8.41063 37.7719 7.70528C37.7943 7.65605 37.8057 7.43815 38.0945 7.29736C38.7482 6.97893 39.2474 7.71561 39.0405 8.31631Z" fill="#2A344A"/>
<path d="M32.7018 4.8557C32.6942 4.22781 33.1486 3.74105 33.6305 3.39784C34.8763 2.51074 35.2619 3.62229 36.1214 3.15343C36.5779 2.90455 36.655 2.48216 37.4757 2.3603C37.7679 2.31693 38.0733 2.36512 38.3607 2.30522C38.4712 2.28216 38.4681 2.1097 38.3607 2.08491C37.9807 1.99644 37.1056 2.08491 36.6392 2.41882C36.4154 2.5789 36.2433 2.81401 36.0003 2.9462C35.6515 3.13622 35.2787 2.93691 34.9286 2.85739C34.3238 2.72003 33.7534 2.98131 33.3073 3.38373C32.8911 3.7593 32.5527 4.27462 32.5978 4.8557C32.603 4.9218 32.7024 4.92352 32.7018 4.8557Z" fill="#2A344A"/>
<path d="M35.5555 5.38257C35.7472 4.84143 36.1569 4.41904 36.6722 4.1736C37.2381 3.90372 37.8037 4.03556 38.4027 4.00768C39.5896 3.95226 39.486 3.06239 40.5979 2.69268C40.8823 2.59801 41.1618 2.61695 41.4554 2.63726C41.5484 2.6438 41.5697 2.51574 41.5005 2.47133C40.9838 2.13914 40.2736 2.45412 39.8358 2.78597C39.1927 3.27341 39.2093 3.76292 38.1184 3.7316C37.5053 3.71404 36.9276 3.71094 36.391 4.05312C35.9266 4.34916 35.5844 4.82146 35.4419 5.35159C35.4219 5.4256 35.5304 5.45314 35.5555 5.38257Z" fill="#2A344A"/>
<path d="M19.5471 46.4808C17.5027 46.3458 18.2603 46.2257 18.5433 46.7104C18.8765 46.73 19.2101 46.7489 19.5437 46.7672C19.544 46.6715 19.545 46.5761 19.5471 46.4804V46.4808Z" fill="#2A344A"/>
<path d="M65.2505 20.5642C63.3875 18.2237 62.0432 16.6764 59.0955 14.9304C58.9061 14.8185 58.7433 14.728 58.5953 14.6547C58.4937 12.888 58.3712 11.1248 58.2269 9.36299C59.2266 8.15505 59.2101 6.96777 58.1767 5.83281C58.1058 5.75467 58.2655 5.77876 55.6314 5.75019C55.5247 4.11608 55.357 2.49884 55.1288 0.902254C55.1171 0.822046 55.0517 0.760771 54.9711 0.754919C41.1953 -0.25164 27.8047 -0.25164 15.1708 0.754919C15.0878 0.76146 15.0217 0.826521 15.0131 0.909139C14.8482 2.525 14.7256 4.13983 14.6454 5.75088L12.4846 5.77635C12.4272 5.77704 12.3738 5.8063 12.3425 5.85484C11.5765 7.03352 11.5666 8.21048 12.3118 9.3537C12.2099 11.0966 12.1222 12.8291 12.0488 14.5531C11.6994 14.6681 11.369 14.8543 10.9363 15.1724C8.31452 17.1029 6.22291 19.2406 5.2284 20.567C4.93511 20.9057 4.84079 21.9643 4.94096 22.261C5.64012 24.3295 9.01092 24.9788 11.002 24.2397C11.2757 24.1378 11.5235 24.0128 11.7872 23.9233C11.6946 31.0969 11.8543 38.1769 12.2664 45.301C13.9525 45.3409 15.463 45.5182 16.5866 45.7843C16.4193 39.6702 16.4231 33.3782 16.5973 27.0704C20.0903 26.0803 23.7885 26.0814 27.5927 27.0735C27.8295 33.1975 27.8298 40.1456 27.594 46.6766C25.5572 46.5943 23.5805 46.6218 21.6225 46.5719C21.6163 46.6804 21.607 46.7805 21.5939 46.8731C28.1724 47.1861 34.8341 47.2676 41.5427 47.1182C41.4945 46.6146 41.5124 45.4587 41.7007 44.4156C38.175 44.3943 34.6809 44.26 31.2389 44.0128C30.8733 38.5047 30.8736 32.8302 31.2395 27.1427C38.5939 26.2404 46.3827 26.2411 54.3935 27.1444C54.8813 32.5624 54.8813 38.2355 54.3935 44.0122C50.812 44.26 47.2388 44.3946 43.6935 44.4156C43.7406 44.8039 43.7492 45.2015 43.7485 45.5912C43.7479 46.3368 43.6484 46.7616 43.3733 47.0714C44.4267 47.0415 45.4815 47.0057 46.5365 46.9644C47.5548 46.2466 50.4654 45.7285 53.8971 45.7285C55.5016 45.7285 56.9918 45.8418 58.2283 46.0356C58.8084 38.4637 59.0428 31.1527 58.933 23.9602C59.3943 23.8135 60.0067 24.376 60.4425 24.5309C61.195 24.7984 62.1472 24.6886 62.8918 24.5633C64.1785 24.3464 64.9111 23.9281 65.2667 23.2063C65.5369 22.6582 65.6784 21.1033 65.2498 20.5646L65.2505 20.5642ZM57.9719 6.1199C58.8318 7.1003 58.8307 8.08793 57.9691 9.13476L55.766 9.14199C55.7515 8.12028 55.7137 7.10443 55.6531 6.09477L57.9719 6.1199ZM57.019 14.6505C57.8145 14.6877 58.0913 14.7355 58.9199 15.2264C61.7558 16.9063 63.0859 18.4041 64.8653 20.6338C62.9947 20.799 61.1251 20.9312 59.2586 21.0358C58.9781 20.6899 55.7849 17.4499 52.4971 14.4161C53.9907 14.4839 57.019 14.6505 57.019 14.6505ZM15.3415 1.08677C27.8736 0.0963869 41.1506 0.0970753 54.8076 1.08814C55.4062 5.3402 55.5718 9.73684 55.3054 14.2161C42.5234 13.5634 28.6894 13.4612 14.9611 14.2557C14.7704 9.91378 14.8971 5.50406 15.3412 1.08711L15.3415 1.08677ZM23.0122 14.223C24.7465 14.1617 26.4832 14.1132 28.2195 14.0777C27.8309 15.7738 26.9978 19.6017 26.8408 21.3309C24.3978 21.3012 21.9103 21.2582 19.4011 21.1911C20.049 19.6069 22.9922 14.2639 23.0122 14.2226V14.223ZM19.0297 21.1811C16.7432 21.1181 14.4399 21.0345 12.1366 20.9233C12.4282 20.1446 12.6 19.9842 16.5973 14.5084C18.5963 14.4009 20.6025 14.3108 22.6118 14.2374C21.8442 15.6302 19.4476 20.1081 19.0293 21.1815L19.0297 21.1811ZM28.5748 14.0705C30.4457 14.034 32.316 14.0126 34.1828 14.0064L34.4086 21.3911C32.0633 21.3787 29.6481 21.3636 27.1865 21.335C27.3479 19.6282 28.1772 15.7958 28.5748 14.0705ZM12.5824 6.11956L14.6293 6.09546C14.5824 7.11476 14.5522 8.13233 14.5391 9.1475L12.5807 9.1351C11.9432 8.13784 11.9435 7.14953 12.5824 6.11956ZM11.1404 15.4498C12.1876 14.6791 12.2809 14.7452 16.1536 14.5324C12.4805 19.5639 12.0833 20.0055 11.7772 20.9057C9.74621 20.8049 7.71623 20.682 5.69864 20.5319C7.16923 18.7353 8.99852 17.0268 11.1404 15.4498ZM10.8822 23.9168C9.06668 24.5915 5.89898 24.0194 5.2673 22.1515C5.23219 22.0348 5.23494 21.2565 5.45009 20.8589C7.5176 21.0152 9.59853 21.1422 11.6805 21.2462C11.5029 22.0059 11.5903 22.7804 11.939 23.5219C11.5442 23.6145 11.2289 23.7884 10.8822 23.9168ZM17.6882 24.5116C16.7746 24.817 15.5191 24.7633 14.7036 24.3832C13.9649 24.0386 13.3242 23.3867 12.2957 23.4669C11.9339 22.7498 11.8447 21.9973 12.0309 21.2627C14.3294 21.3746 16.6279 21.4586 18.9095 21.5222C18.6682 22.2882 18.6132 23.135 19.188 23.9044C18.6138 24.0424 18.1419 24.3598 17.6882 24.5116ZM26.4057 24.3457C24.6336 25.2676 22.4707 25.1147 21.0772 24.3774C20.6001 24.1244 20.1939 23.8242 19.5856 23.8476C18.9619 23.145 18.9922 22.3588 19.2734 21.5326C21.818 21.6011 24.3406 21.6455 26.8174 21.6754C26.7751 22.5388 26.8794 23.3161 27.1331 24.0366C26.9279 24.0951 26.6939 24.1956 26.4057 24.3457ZM33.3074 24.7213C32.3876 25.2263 30.3483 25.1788 28.9042 24.4614C28.3679 24.1949 27.9307 23.9512 27.4767 23.976C27.2229 23.2799 27.119 22.5243 27.1613 21.6792C29.6354 21.7078 32.0623 21.7233 34.4189 21.7357L34.4916 24.1123C33.9122 24.2514 33.5993 24.5602 33.3074 24.7213ZM34.5274 14.0058C36.368 14.0016 37.8906 14.0106 39.4965 14.0319C41.6029 18.3842 42.3854 19.8517 42.7995 21.4214C40.5234 21.4224 35.177 21.3956 34.7532 21.3935L34.5274 14.0058ZM43.0277 24.0204C42.269 24.1237 41.8497 24.6163 41.1365 24.9147C40.0476 25.3705 38.2758 25.3622 36.7033 24.6221C36.1154 24.3464 35.5704 24.0121 34.8348 24.0603L34.7639 21.7377C35.1835 21.7398 42.7626 21.766 42.8831 21.7656C43.2143 23.2596 42.9585 23.8648 43.0277 24.0204ZM39.8817 14.0374C41.6511 14.0629 43.5024 14.1028 45.3685 14.1555C47.3717 16.4361 49.2705 18.7821 51.0137 21.1302C51.0654 21.1997 51.118 21.271 51.1594 21.3405C48.4767 21.398 45.8071 21.4183 43.1558 21.421C42.7602 19.8616 42.1089 18.6389 39.8817 14.0374ZM51.0217 23.9237C50.2994 24.101 49.866 24.7733 49.3603 25.0122C48.7903 25.2814 47.9121 25.3774 47.0691 25.2624C45.1338 25.0001 44.5689 24.0194 43.3496 24.0015C43.3523 23.9922 43.3547 23.9822 43.3558 23.9722C43.448 23.2283 43.3909 22.493 43.2363 21.7656C45.8852 21.7625 48.5534 21.7419 51.2344 21.6837C51.1917 21.9849 50.8089 22.7405 51.0217 23.9237ZM45.8381 14.1689C47.9028 14.2295 49.9786 14.3049 51.9752 14.393C52.0623 14.5414 54.6558 16.7631 58.8132 21.0572C56.3798 21.1883 53.9549 21.2775 51.537 21.3322C51.4805 21.1818 51.3804 21.0465 51.2902 20.925C49.603 18.652 47.77 16.3807 45.8381 14.1689ZM59.1082 21.8173C59.0194 22.4335 59.0008 22.998 58.9051 23.6114C58.4035 23.7216 58.1485 24.2414 57.8638 24.3898C57.4407 24.6104 56.8541 24.7881 56.2121 24.8906C54.999 25.0841 53.6158 24.9912 52.5105 24.302C52.1614 24.0834 51.81 23.8858 51.3642 23.883C51.1511 22.7347 51.5487 22.0551 51.5817 21.6758C54.0737 21.619 56.5767 21.5291 59.0855 21.3907C59.1526 21.5219 59.1309 21.6613 59.1082 21.8173ZM64.9593 23.0538C64.6574 23.6662 64.0023 24.0269 62.8356 24.2235C62.1867 24.333 61.2446 24.4504 60.5588 24.2063C60.2469 24.0954 59.7502 23.6796 59.2545 23.6028C59.3457 22.9928 59.3636 22.4576 59.449 21.8661C59.471 21.715 59.4951 21.5457 59.4459 21.3701C61.3217 21.263 63.2009 21.1288 65.0815 20.9601C65.297 21.5191 65.1537 22.6589 64.9596 23.0534L64.9593 23.0538Z" fill="#2A344A"/>
<path d="M26.0102 27.6485C22.9837 26.7053 20.0404 26.7056 17.2621 27.6499C17.1939 27.6733 17.1474 27.7366 17.1454 27.8089C17.0008 33.8669 17.0118 39.6959 17.1454 45.1056C17.1474 45.1862 17.2049 45.2547 17.2837 45.2702C18.0517 45.423 18.8263 45.5191 19.6001 45.5807C19.6125 45.4667 19.6273 45.3531 19.6452 45.2406C18.9247 45.1834 18.206 45.096 17.4862 44.959C17.4593 43.8523 17.4376 42.739 17.4214 41.6202C20.2291 41.7486 23.0794 41.7603 25.8822 41.6557C25.8601 42.9194 25.8302 44.1769 25.792 45.4179C24.3696 45.3521 22.9775 45.3676 21.5995 45.3346C21.6095 45.4488 21.6164 45.5638 21.6208 45.6788C22.1413 45.6912 22.6591 45.697 23.172 45.7025C25.6254 45.7291 25.6374 45.7673 25.9586 45.7704C26.0515 45.7714 26.128 45.6964 26.1307 45.6038C26.3173 39.6794 26.3173 33.3591 26.1307 27.8079C26.1283 27.7346 26.0801 27.6712 26.0099 27.6492L26.0102 27.6485ZM25.8884 41.3107C23.0759 41.4161 20.2273 41.4044 17.417 41.2749C17.3578 36.8859 17.3812 32.4156 17.4868 27.9377C20.1254 27.0674 22.9179 27.0685 25.7913 27.9411C25.9297 32.1319 25.962 36.755 25.8884 41.3107Z" fill="#2A344A"/>
<path d="M18.7785 46.9325C18.7785 45.7552 15.0504 45.1201 11.5426 45.1201C8.03476 45.1201 4.30664 45.7552 4.30664 46.9325C4.30664 48.0341 7.57107 48.661 10.8648 48.7371C10.9044 49.3791 11.0235 51.3006 11.1154 52.5602C9.88815 52.608 8.77522 52.8635 8.77522 53.3268C8.77522 54.3602 14.3092 54.3602 14.3092 53.3268C14.3092 52.8635 13.1966 52.608 11.9691 52.5602C12.061 51.3006 12.1804 49.3791 12.22 48.7371C15.5137 48.661 18.7785 48.0341 18.7785 46.9325ZM4.65088 46.9325C4.65088 46.2379 7.48122 45.4644 11.5426 45.4644C15.6039 45.4644 18.4343 46.2382 18.4343 46.9325C18.4343 47.6269 15.6039 48.4007 11.5426 48.4007C7.48122 48.4007 4.65088 47.6269 4.65088 46.9325ZM11.5708 53.0328L11.515 53.0335C11.4662 52.9839 11.2359 49.1656 11.21 48.7432C11.3212 48.7443 11.7639 48.7443 11.8751 48.7432C11.873 48.778 11.6193 52.9826 11.5708 53.0328ZM13.966 53.3192C13.9061 53.4721 13.0211 53.7571 11.5422 53.7571C10.0634 53.7571 9.17833 53.4721 9.11843 53.334C9.17248 53.1953 9.90433 52.9485 11.1408 52.9034C11.1501 53.0222 11.178 53.3805 11.5422 53.3805C11.9064 53.3805 11.9343 53.0222 11.9436 52.9034C13.1801 52.9485 13.912 53.1943 13.966 53.3192Z" fill="#2A344A"/>
<path d="M4.54669 51.9404C4.10572 50.9139 3.86923 49.782 3.86165 48.6636C4.18076 48.2563 4.15632 47.7685 3.67817 47.5713C3.24064 47.3902 2.76663 47.3159 2.29846 47.3427L2.27195 46.3362C2.44407 45.9809 2.46128 45.5664 2.46197 45.1675C2.46266 44.3699 2.42686 43.4556 1.98107 42.7041C1.80654 42.4097 1.59827 42.2545 1.36178 42.2418C0.0729453 42.1863 -0.0189668 46.3575 0.152121 46.8236C0.205134 46.9678 0.307717 47.1135 0.447479 47.2078L0.442315 48.1462C0.30875 48.3565 0.330437 48.5651 0.453331 48.7152C0.639565 49.4326 0.423726 51.6412 0.286719 52.5246C0.256425 52.7194 0.212707 52.9352 0.0746666 53.0303C-0.0644065 53.126 0.00375305 53.3442 0.172431 53.3442C0.206166 53.3442 0.239902 53.3346 0.269851 53.3139C0.541801 53.127 0.597568 52.7693 0.627172 52.5772C0.797227 51.4808 0.927694 49.686 0.843699 48.9462C1.38381 49.1297 1.86506 49.2264 2.29226 49.236C2.10809 51.6609 1.98589 51.906 2.86542 54.2375C2.94563 54.4506 3.26784 54.3291 3.18763 54.116C2.33185 51.8457 2.45578 51.634 2.63891 49.224C2.97007 49.1916 3.26474 49.0987 3.52499 48.9452C3.56698 50.0178 3.80933 51.0936 4.23171 52.0764C4.25994 52.1414 4.32328 52.1807 4.38972 52.1807C4.51296 52.1807 4.59661 52.0543 4.54772 51.9407L4.54669 51.9404ZM0.931481 42.9722C1.15352 42.513 1.42409 42.4407 1.68468 42.8796C2.08572 43.5564 2.11842 44.4153 2.11773 45.1671C2.11636 46.269 1.8957 46.5134 1.02167 46.8938C0.937677 46.9303 0.855059 46.9744 0.775195 46.9675C0.640598 46.9661 0.522179 46.8343 0.474674 46.7052C0.389991 46.4745 0.376909 44.121 0.931481 42.9722ZM1.95491 47.3813C1.54251 47.4501 1.14353 47.5988 0.787932 47.825L0.790686 47.311C0.932513 47.3079 1.05782 47.2536 1.15902 47.2091C1.40653 47.1014 1.70051 46.973 1.93873 46.7668L1.95491 47.3809V47.3813ZM0.917711 48.6075C0.728723 48.5424 0.627517 48.4691 0.745935 48.3093C0.804456 48.2305 0.887418 48.171 0.925973 48.1455C1.6802 47.6439 2.70914 47.5434 3.54633 47.889C3.69539 47.9506 3.7212 48.0305 3.72774 48.0852C3.74805 48.2546 3.59831 48.4763 3.48196 48.5606C2.7594 49.087 1.76282 48.8994 0.917711 48.6075Z" fill="#2A344A"/>
<path d="M21.8889 53.0674C21.4321 52.005 21.1859 50.8346 21.1749 49.6776C21.4937 49.3843 21.461 49.0611 20.988 48.8656C19.9962 48.4566 18.8248 48.5709 17.9311 49.1647C17.6093 49.3785 17.4733 49.6628 17.5621 49.9141C17.6754 50.235 17.7105 50.6962 17.7029 51.0081C17.6823 51.8973 17.6024 52.794 17.4661 53.6736C17.4344 53.878 17.3883 54.1046 17.242 54.2051C17.054 54.3345 17.2516 54.6168 17.4372 54.4884C17.7177 54.2953 17.7752 53.9252 17.8062 53.7262C17.9408 52.8577 18.1311 51.1369 17.9962 50.2687C18.2843 50.3675 18.5766 50.4246 18.8899 50.4391C18.9188 51.1286 18.8348 51.8126 18.6389 52.4739C18.612 52.5651 18.664 52.6608 18.7549 52.688C18.8448 52.7149 18.9415 52.6639 18.969 52.572C19.1742 51.878 19.2634 51.161 19.2344 50.4377C19.3374 50.4319 19.4403 50.4212 19.5425 50.4057C19.3604 52.8047 19.252 53.0708 20.1508 55.4543C20.1766 55.5232 20.2424 55.5659 20.3119 55.5659C20.4317 55.5659 20.5157 55.4457 20.473 55.3332C19.5918 52.9954 19.7091 52.7641 19.8933 50.3341C20.2548 50.2398 20.5463 50.1038 20.8369 49.9251C20.8782 51.0477 21.1305 52.1748 21.5729 53.2044C21.6104 53.2918 21.7116 53.3321 21.799 53.2946C21.8865 53.257 21.9267 53.1558 21.8892 53.0684L21.8889 53.0674ZM20.5666 49.6845C19.8351 50.1169 18.9174 50.2229 18.1143 49.9454C17.7721 49.827 17.8196 49.6518 18.1212 49.4515C18.9084 48.9282 19.9828 48.8232 20.8562 49.184C21.0685 49.2714 21.2011 49.31 20.5666 49.6845Z" fill="#2A344A"/>
<path d="M19.3691 46.834C19.3691 47.8523 19.3963 47.9267 19.4098 47.9625C19.4851 48.168 19.6111 48.337 19.8139 48.4148V50.0596C19.8139 50.1546 19.891 50.2317 19.986 50.2317C20.081 50.2317 20.1581 50.1546 20.1581 50.0596V48.4471C20.3822 48.4144 20.7946 48.2096 20.9699 48.1063L20.9668 49.1528C20.9668 49.2482 21.0377 49.3119 21.1389 49.3253C21.2335 49.3253 21.3107 49.2485 21.311 49.1535L21.3148 47.8502C21.7564 47.4292 21.8009 46.8499 21.8015 46.2402C21.8057 42.1382 19.3716 42.0178 19.3691 46.834ZM20.3113 48.0447C20.037 48.1642 19.8418 48.1377 19.7368 47.8575C19.7227 47.7879 19.7134 47.3669 19.7134 46.834C19.7137 45.8684 19.7743 44.8512 20.2084 43.9514C20.4394 43.4729 20.7285 43.3882 21.0053 43.8546C21.4236 44.5607 21.458 45.456 21.457 46.2399C21.4556 47.3931 21.2225 47.6475 20.3113 48.0447Z" fill="#2A344A"/>
<path d="M61.8171 47.5271C61.8171 46.2466 57.7365 45.5557 53.8968 45.5557C50.0572 45.5557 45.9766 46.2466 45.9766 47.5271C45.9766 48.7268 49.5591 49.4091 53.1691 49.4903C53.2115 50.1816 53.3447 52.3245 53.4462 53.7155C52.1013 53.7655 50.8785 54.0405 50.8785 54.5407C50.8785 55.6519 56.9151 55.6519 56.9151 54.5407C56.9151 54.0405 55.6921 53.7655 54.3471 53.7155C54.449 52.3245 54.5819 50.1816 54.6246 49.4903C58.2346 49.4091 61.8171 48.7268 61.8171 47.5271ZM46.3208 47.5271C46.3208 46.7574 49.432 45.8999 53.8968 45.8999C58.3616 45.8999 61.4729 46.7574 61.4729 47.5271C61.4729 48.2969 58.3616 49.1544 53.8968 49.1544C49.432 49.1544 46.3208 48.2969 46.3208 47.5271ZM54.2789 49.4962C54.2308 50.2804 54.0793 52.7179 53.9767 54.0484C53.9622 54.2391 53.9402 54.2391 53.8965 54.2391C53.8528 54.2391 53.8311 54.2391 53.8163 54.0484C53.714 52.7179 53.5622 50.2804 53.514 49.4962C53.6418 49.4976 54.1512 49.4976 54.2789 49.4962ZM56.5709 54.5379C56.5231 54.7097 55.5623 55.0295 53.8965 55.0295C52.2307 55.0295 51.2699 54.7094 51.2221 54.5434C51.2655 54.3872 52.0679 54.1069 53.4717 54.0587C53.491 54.3582 53.5901 54.583 53.8965 54.583C54.2029 54.583 54.3017 54.3579 54.3209 54.0587C55.7248 54.1069 56.5272 54.3868 56.5709 54.5379Z" fill="#2A344A"/>
<path d="M46.2076 53.026C45.7222 51.8962 45.4623 50.6508 45.4547 49.4194C45.7955 48.9891 45.7876 48.4587 45.2637 48.2421C44.7807 48.0428 44.2571 47.9619 43.7408 47.9943L43.7108 46.8676C43.8998 46.48 43.9191 46.0273 43.9194 45.5905C43.9205 44.7178 43.8812 43.7181 43.3941 42.8971C43.2055 42.5794 42.9814 42.4117 42.7284 42.3983C41.3517 42.326 41.2202 46.8628 41.4178 47.4015C41.4757 47.5592 41.5889 47.7185 41.7428 47.8194L41.737 48.8621C41.5896 49.091 41.6158 49.3162 41.7476 49.4738C41.9549 50.2659 41.7149 52.7021 41.5662 53.6622C41.5325 53.8794 41.4832 54.1204 41.3266 54.2281C41.1875 54.3238 41.2557 54.5421 41.4244 54.5421C41.4581 54.5421 41.4919 54.5324 41.5218 54.5118C41.8141 54.3107 41.8743 53.9231 41.9067 53.7149C42.0895 52.5355 42.2406 50.5293 42.1407 49.7103C42.749 49.9193 43.2895 50.0277 43.7673 50.0363C43.5645 52.7107 43.4313 52.9806 44.3935 55.5328C44.4193 55.6017 44.485 55.6443 44.5546 55.6443C44.6744 55.6443 44.7583 55.5242 44.7157 55.4116C43.7745 52.9138 43.9126 52.6749 44.1136 50.0243C44.4905 49.9892 44.8238 49.8828 45.1167 49.7052C45.1597 50.889 45.4251 52.077 45.8916 53.162C45.9198 53.2271 45.9832 53.2663 46.0499 53.2663C46.1725 53.2663 46.2568 53.1403 46.2079 53.0264L46.2076 53.026ZM42.0867 47.9258C42.2444 47.9258 42.3876 47.8645 42.5008 47.8153C42.7803 47.6934 43.1146 47.5475 43.3783 47.3089L43.3972 48.0332C42.9322 48.1086 42.4822 48.2776 42.0833 48.5361L42.0867 47.9258ZM42.2426 43.1756C42.4915 42.6606 42.8038 42.5766 43.0981 43.073C43.5401 43.819 43.5762 44.7636 43.5752 45.5905C43.5738 46.808 43.326 47.08 42.3631 47.4996C42.2695 47.5406 42.1666 47.5809 42.0864 47.5815C41.9308 47.5798 41.7951 47.4301 41.7411 47.2827C41.6478 47.029 41.6323 44.4393 42.2426 43.1753V43.1756ZM43.9601 49.6897C43.9494 49.689 43.9384 49.6897 43.928 49.6907C43.4482 49.7079 42.8874 49.6046 42.2375 49.3798C42.1466 49.3485 42.0223 49.2976 41.9903 49.2174C41.8585 48.8883 43.517 47.8934 45.1322 48.5609C45.3236 48.6397 45.337 48.7523 45.3415 48.7895C45.3642 48.9812 45.1959 49.2315 45.0651 49.3265C44.7608 49.5482 44.3941 49.6694 43.9601 49.6897Z" fill="#2A344A"/>
<path d="M65.2287 54.283C64.7261 53.114 64.4559 51.8255 64.4446 50.5511C64.7891 50.2375 64.7626 49.8957 64.2497 49.683C63.1667 49.2358 61.8879 49.3611 60.912 50.0093C60.5657 50.2396 60.419 50.5446 60.514 50.8124C60.6393 51.1666 60.6775 51.6747 60.6693 52.0179C60.6466 52.9939 60.5591 53.9784 60.4094 54.9436C60.3739 55.1715 60.3223 55.4242 60.1567 55.5378C60.0176 55.6335 60.0858 55.8518 60.2545 55.8518C60.2882 55.8518 60.3219 55.8421 60.3519 55.8215C60.6538 55.6139 60.7161 55.2122 60.7498 54.9963C60.8985 54.0352 61.1096 52.1412 60.954 51.1811C61.2421 51.2871 61.6025 51.3618 61.9712 51.3773C62.0049 52.1405 61.9127 52.8975 61.6958 53.6297C61.6689 53.7209 61.7209 53.8166 61.8118 53.8438C61.9017 53.8706 61.9984 53.8197 62.0259 53.7278C62.2521 52.9629 62.3492 52.1725 62.3158 51.3756C62.4407 51.3691 62.565 51.356 62.6889 51.3367C62.4889 53.9694 62.3647 54.2662 63.3533 56.8879C63.3791 56.9568 63.4449 56.9995 63.5144 56.9995C63.6342 56.9995 63.7182 56.8793 63.6755 56.7667C62.7058 54.1935 62.8366 53.9388 63.0397 51.2644C63.4469 51.1594 63.7764 51.0055 64.1062 50.7993C64.1482 52.0386 64.4249 53.2834 64.9131 54.419C64.9506 54.5065 65.0518 54.5467 65.1392 54.5092C65.2267 54.4717 65.2669 54.3705 65.2294 54.283H65.2287ZM63.8022 50.5804C62.986 51.0627 61.9739 51.1704 61.0985 50.8678C60.7106 50.7339 60.7605 50.5236 61.1023 50.2964C61.9702 49.7195 63.1547 49.6038 64.1179 50.0017C64.3692 50.1053 64.5089 50.1632 63.8022 50.5804Z" fill="#2A344A"/>
<path d="M62.4981 47.4392C62.4974 48.5515 62.5294 48.6386 62.5414 48.6716C62.6437 48.9508 62.8079 49.0985 62.9858 49.1621V50.9777C62.9858 51.0727 63.063 51.1498 63.158 51.1498C63.253 51.1498 63.3301 51.0727 63.3301 50.9777V49.1945C63.5831 49.1615 64.0513 48.9284 64.254 48.8055L64.2506 49.9828C64.2506 50.0778 64.327 50.1553 64.4224 50.1553C64.5177 50.1553 64.5945 50.0785 64.5948 49.9835L64.599 48.5466C65.084 48.0881 65.1318 47.4554 65.1325 46.7879C65.1373 42.3083 62.5008 42.1858 62.4984 47.4389L62.4981 47.4392ZM63.5218 48.7824C63.2127 48.9174 62.9876 48.885 62.8685 48.5649C62.853 48.4898 62.842 48.0165 62.8426 47.4392C62.843 46.3783 62.9094 45.2598 63.3872 44.2701C63.6454 43.7366 63.9786 43.6364 64.2909 44.1627C64.7518 44.9407 64.7897 45.9256 64.7886 46.7876C64.7873 48.0571 64.5287 48.3435 63.5222 48.7821L63.5218 48.7824Z" fill="#2A344A"/>
</svg>
