<svg width="77" height="86" viewBox="0 0 77 86" fill="none" xmlns="http://www.w3.org/2000/svg">
<path d="M46.308 20.0484L40.8408 51.1018L19.1909 33.8256M40.4035 14.8L21.3778 21.3605M19.4096 18.7363L23.346 13.4878M34.9363 8.67676L40.1848 9.98887M56.3675 13.9252L62.7094 15.2373" stroke="#4E6AF3"/>
<path d="M42.3717 50.8877L39.5288 51.5438L41.2783 54.3867H41.497L41.7157 54.6054L41.9344 54.824H42.3717L42.5904 55.2614L42.8091 55.0427L43.0278 55.4801L43.4652 56.1362L43.9025 55.6988L44.1212 55.2614L45.8707 56.3548V55.9175L42.3717 50.8877Z" fill="#4E6AF3"/>
<path d="M76.1399 53.3117C75.8031 48.6209 72.7722 45.5225 70.256 43.7521C69.1963 42.9686 68.0277 42.3445 66.7872 41.8998C66.8083 41.2015 66.6079 40.5144 66.2146 39.9369C65.57 38.9747 64.4875 38.3781 63.0008 38.1808C60.4413 37.8344 60.4558 37.8007 60.4798 37.6997C60.5905 37.1079 60.8936 36.5739 61.0427 35.9485C62.1012 31.402 59.6523 29.0205 59.6523 28.9339C59.6523 28.7655 58.4784 27.2981 56.2846 27.0576L56.5059 26.6246C56.7524 26.6565 57.003 26.6272 57.2355 26.539C57.468 26.4509 57.6751 26.3068 57.8385 26.1194C58.047 25.8305 58.1895 25.4994 58.256 25.1494C58.3225 24.7995 58.3114 24.4392 58.2234 24.0939C57.9684 23.1317 56.8715 23.0788 55.943 23.1317C54.5959 23.2328 54.0185 24.9215 54.0666 26.0184C54.0426 26.2541 54.0378 26.4995 54.0041 26.6871C53.9698 26.8728 53.9521 27.0612 53.9512 27.25C52.1759 27.7744 49.5586 29.6026 49.5057 32.5422C49.5086 32.5705 49.5179 32.5978 49.533 32.622C49.548 32.6461 49.5683 32.6666 49.5923 32.6817C49.727 34.255 50.5064 38.7004 52.5608 40.9424C52.9613 41.3196 53.4834 41.5414 54.033 41.5678C53.7632 41.7607 53.5709 42.0434 53.4907 42.3652C53.4105 42.687 53.4475 43.0269 53.5951 43.3239C50.7325 44.9741 45.8974 50.0113 44.5503 53.2684C44.0137 52.3878 43.4123 51.5483 42.751 50.757C42.5104 50.5501 41.9234 50.5742 40.9516 50.8436L46.4266 20.3702C48.5891 20.8321 50.8465 20.4257 52.7122 19.2386C54.5778 18.0515 55.9023 16.1789 56.4 14.0243L62.4427 15.2223C61.7841 16.5908 61.5884 18.1363 61.8851 19.6258C62.1818 21.1152 62.9549 22.4677 64.0877 23.4793C65.2205 24.4909 66.6515 25.1067 68.1649 25.2337C69.6783 25.3607 71.1919 24.9921 72.4775 24.1835C73.763 23.3749 74.7507 22.1701 75.2916 20.751C75.8324 19.3318 75.897 17.7753 75.4757 16.3162C75.0544 14.8571 74.17 13.5745 72.9559 12.6621C71.7419 11.7497 70.264 11.2569 68.7453 11.258C67.4883 11.2611 66.2554 11.6032 65.1767 12.2485C64.0979 12.8937 63.0401 14.1163 62.4427 15.2223C62.4427 15.2223 62.4126 15.2163 56.4 14.0243C57.0236 11.9577 56.5256 9.32148 55.3558 7.47975C54.1861 5.63802 52.3457 4.32366 50.2241 3.81482C48.1024 3.30598 45.8661 3.64258 43.9882 4.75339C42.1104 5.8642 40.6222 7.58401 40.0712 10.0985L35.0195 8.89571C35.8578 3.92585 32.181 0 27.8029 0C23.7664 0 20.4756 3.40144 20.4756 7.58228C20.4714 8.6906 20.7075 9.78665 21.1677 10.7949C21.6278 11.8032 22.301 12.6998 23.1409 13.4229L19.3258 18.4746C12.417 11.5851 0.5625 16.5069 0.5625 26.2589C0.5625 36.011 12.4555 40.9135 19.345 34.0144L40.9516 50.8436C40.4416 51.0072 39.5179 51.3007 39.4072 51.3488C38.854 51.5605 40.5667 53.5426 41.1344 54.553C41.1362 54.5611 41.1397 54.5687 41.1447 54.5754C41.1496 54.582 41.156 54.5875 41.1633 54.5915C41.1633 54.6684 41.1248 54.7695 41.1104 54.8657C40.9372 54.6588 40.6293 54.3846 40.4128 54.5915C40.1963 54.7983 40.3165 55.2891 40.4416 55.4959C40.7342 55.8894 40.9736 56.3197 41.1537 56.7757C41.1603 56.7971 41.1714 56.8167 41.1864 56.8333C41.2013 56.85 41.2197 56.8631 41.2403 56.8719C41.2547 57.0073 41.2962 57.1384 41.3623 57.2574C41.4284 57.3764 41.5178 57.4809 41.6252 57.5647C41.8465 64.0404 45.7579 65.1566 47.0569 65.3442C46.927 72.0798 48.2789 83.6264 49.0487 84.9927C49.0607 85.0136 49.0767 85.0319 49.0957 85.0465C49.1148 85.0612 49.1366 85.072 49.1598 85.0782C49.183 85.0845 49.2073 85.0861 49.2311 85.083C49.255 85.0799 49.278 85.0721 49.2988 85.0601C49.3197 85.0481 49.338 85.0321 49.3526 85.013C49.3673 84.994 49.3781 84.9722 49.3843 84.9489C49.3906 84.9257 49.3922 84.9015 49.3891 84.8776C49.386 84.8538 49.3782 84.8308 49.3662 84.8099C49.1064 84.3577 48.7023 82.26 48.3318 79.4504C49.6356 80.5906 53.5855 82.3803 53.9993 82.1782C54.0429 82.1545 54.0756 82.1149 54.0907 82.0676C54.1147 81.9858 54.0907 81.139 54.0618 80.6243L59.8351 81.2305C60.1046 82.159 60.3644 82.6738 60.6049 82.7989C62.7362 83.7611 72.2477 81.0669 74.8554 79.2435C74.6485 82.1734 74.4512 84.6848 74.3406 85.8202C74.3413 85.8648 74.3583 85.9076 74.3884 85.9405C74.4185 85.9735 74.4596 85.9942 74.504 85.999C74.5483 86.0037 74.5929 85.9921 74.6292 85.9662C74.6656 85.9404 74.6913 85.9022 74.7014 85.8587C75.0622 82.2745 76.3901 62.9916 75.9715 61.6493C76.342 59.619 76.4045 56.9633 76.1399 53.3117ZM63.8909 22.8527C64.8916 21.2795 67.0133 20.0286 68.0284 19.4849C67.9947 19.7832 67.9899 20.1344 67.9899 20.1344C67.9899 20.3702 68.0621 20.5145 68.2064 20.5626C68.4374 20.6444 68.6875 20.4327 69.1013 19.966C68.9955 20.8416 68.8896 22.1406 69.1013 22.6025C69.3803 23.2664 70.0635 23.1895 70.0106 21.9963C69.9402 21.2732 69.818 20.5561 69.6449 19.8506C69.7759 20.0075 69.9174 20.1554 70.0683 20.2932C70.1549 20.3606 70.2591 20.4014 70.3684 20.4108C70.4777 20.4202 70.5874 20.3977 70.6841 20.3461C71.0354 20.1344 70.8381 19.7543 70.7178 19.3502C71.9014 19.9372 73.6045 20.7935 74.278 21.9578C73.7333 22.8045 73.0017 23.5151 72.1395 24.0349C71.2773 24.5547 70.3073 24.87 69.3042 24.9564C68.3012 25.0428 67.2916 24.8981 66.3532 24.5334C65.4147 24.1687 64.5724 23.5938 63.8909 22.8527ZM66.5418 16.8773C66.4167 16.8773 66.3109 16.7522 66.282 16.6319C66.6092 16.6319 66.792 16.3144 66.7198 16.1508C66.7817 16.1292 66.8365 16.0912 66.8784 16.0407C66.9202 15.9903 66.9476 15.9294 66.9575 15.8646C66.9674 15.7999 66.9594 15.7336 66.9345 15.673C66.9096 15.6124 66.8686 15.5597 66.816 15.5206C66.8752 15.4887 66.9247 15.4415 66.9594 15.384C66.9941 15.3264 67.0127 15.2606 67.0133 15.1934C66.9977 15.1016 66.9651 15.0135 66.9171 14.9336C66.9456 14.8964 66.9698 14.8561 66.9892 14.8133C67.0909 14.8521 67.2036 14.8503 67.3039 14.8082C67.4042 14.7661 67.4845 14.6869 67.5281 14.5872C67.5797 14.6398 67.6435 14.6787 67.7138 14.7007C67.7841 14.7226 67.8587 14.7269 67.931 14.7131C68.0034 14.6993 68.0712 14.6679 68.1285 14.6216C68.1857 14.5753 68.2307 14.5155 68.2594 14.4477C68.3219 14.4933 68.3938 14.5245 68.4698 14.539C68.5459 14.5536 68.6242 14.5511 68.6992 14.5318C68.7741 14.5125 68.8439 14.4768 68.9034 14.4273C68.963 14.3778 69.0108 14.3158 69.0436 14.2456C69.1325 14.3281 69.2494 14.374 69.3707 14.374C69.4921 14.374 69.6089 14.3281 69.6979 14.2456C69.7573 14.295 69.8291 14.3269 69.9056 14.338C69.982 14.349 70.06 14.3387 70.1309 14.3082C70.1603 14.4217 70.2336 14.5189 70.3346 14.5784C70.4356 14.638 70.5562 14.655 70.6697 14.6257C70.6845 14.7135 70.7262 14.7945 70.7892 14.8574C70.8521 14.9204 70.9331 14.9622 71.0209 14.9769C71.0053 15.0253 70.9956 15.0754 70.9921 15.1261C70.994 15.1966 71.0158 15.2652 71.0549 15.3239C71.0941 15.3826 71.149 15.4291 71.2134 15.458C71.173 15.5304 71.155 15.6132 71.1617 15.6958C71.1684 15.7784 71.1995 15.8572 71.2511 15.9221C71.3026 15.9871 71.3722 16.0352 71.4512 16.0605C71.5301 16.0858 71.6148 16.0871 71.6945 16.0642C71.7618 16.223 71.757 16.5453 71.5982 16.5453C71.5625 16.5421 71.5266 16.5501 71.4955 16.5682C71.4645 16.5863 71.4399 16.6137 71.4251 16.6464C71.223 16.8484 71.733 17.4354 70.3714 18.3303C70.0491 18.5419 70.1164 18.5852 70.1309 19.0279C69.847 19.2396 68.9522 19.1963 68.4085 19.1481C68.3749 19.013 68.3619 18.8735 68.37 18.7344C68.3758 18.7029 68.3728 18.6705 68.3614 18.6406C68.3499 18.6108 68.3303 18.5847 68.3049 18.5653C68.2795 18.5458 68.2492 18.5338 68.2174 18.5306C68.1856 18.5273 68.1535 18.5329 68.1246 18.5468C67.7929 18.4576 67.4879 18.2887 67.2364 18.0548C66.9848 17.8208 66.7943 17.5289 66.6813 17.2045C66.7226 17.1846 66.7547 17.1496 66.7708 17.1067C66.787 17.0638 66.7859 17.0163 66.768 16.9742C66.75 16.932 66.7164 16.8984 66.6743 16.8804C66.6322 16.8623 66.5847 16.8612 66.5418 16.8773ZM70.4773 20.0478C70.4424 20.0626 70.404 20.0673 70.3666 20.0614C70.3292 20.0554 70.2942 20.039 70.2656 20.0141C70.095 19.8507 69.9343 19.6772 69.7845 19.4945C69.971 19.4734 70.1521 19.4179 70.3185 19.331C70.4292 19.7784 70.5542 20.0045 70.4773 20.0478ZM69.4044 20.5674C69.491 20.9812 69.7749 22.3187 69.5295 22.6602C69.2264 22.3716 69.3611 21.0052 69.4044 20.5674ZM69.0147 19.5186C68.8231 19.7776 68.6019 20.0133 68.3556 20.221C68.3518 19.9749 68.3663 19.7289 68.3989 19.4849C68.5721 19.4994 68.7982 19.5138 69.0147 19.5186ZM68.7453 11.6044C69.9121 11.6168 71.0554 11.9344 72.0615 12.5256C73.0676 13.1167 73.9015 13.9609 74.4803 14.9741C75.0592 15.9873 75.3628 17.1344 75.3611 18.3013C75.3594 19.4682 75.0523 20.6143 74.4705 21.6259C73.6766 20.4375 71.9591 19.586 70.7948 19.0086C70.7049 18.9544 70.6098 18.9092 70.5109 18.8739V18.6718L70.612 18.6045C70.9388 18.4361 71.2171 18.1866 71.42 17.88C71.623 17.5735 71.744 17.2199 71.7715 16.8533C72.1708 16.7378 72.2237 16.1797 72.0264 15.8333C72.0514 15.7901 72.0645 15.7412 72.0645 15.6914C72.0645 15.6415 72.0514 15.5926 72.0264 15.5494C72.098 15.5253 72.1607 15.4803 72.2065 15.4204C72.2524 15.3604 72.2794 15.2881 72.284 15.2128C72.2887 15.1374 72.2708 15.0624 72.2326 14.9973C72.1945 14.9321 72.1378 14.8798 72.0697 14.847C72.1092 14.8048 72.1379 14.7537 72.1535 14.698C72.169 14.6424 72.171 14.5838 72.1592 14.5272C72.1475 14.4706 72.1222 14.4177 72.0857 14.3729C72.0492 14.3281 72.0025 14.2927 71.9495 14.2697C71.9636 14.2255 71.9688 14.1789 71.9649 14.1326C71.9609 14.0864 71.9478 14.0414 71.9263 14.0002C71.9049 13.959 71.8754 13.9226 71.8398 13.8928C71.8041 13.8631 71.7629 13.8408 71.7185 13.8271C71.765 13.7508 71.7829 13.6605 71.7687 13.5723C71.7546 13.4841 71.7095 13.4039 71.6416 13.346C71.6216 13.2376 71.5601 13.1413 71.4703 13.0776C71.3805 13.0138 71.2693 12.9875 71.1604 13.0044C71.1264 12.9435 71.0769 12.8928 71.0169 12.8573C70.9569 12.8218 70.8886 12.8028 70.8189 12.8023C70.7597 12.8105 70.7017 12.825 70.6457 12.8456C70.6185 12.7577 70.5634 12.681 70.4887 12.6272C70.4141 12.5733 70.3239 12.5453 70.2319 12.5473C70.1477 12.5666 70.0688 12.6044 70.001 12.658C69.9657 12.5929 69.9136 12.5385 69.8501 12.5004C69.7867 12.4624 69.7141 12.442 69.6401 12.4415C69.5254 12.4675 69.4213 12.5279 69.3419 12.6147C69.3045 12.5565 69.2533 12.5085 69.1929 12.4749C69.1324 12.4413 69.0646 12.4232 68.9955 12.4222C68.9137 12.4222 68.803 12.4896 68.6298 12.6484C68.5871 12.5983 68.5328 12.5594 68.4716 12.5351C68.4104 12.5108 68.3442 12.5019 68.2788 12.509C68.2133 12.5161 68.1506 12.5391 68.0961 12.576C68.0416 12.6128 67.9969 12.6624 67.9659 12.7205C67.8408 12.6291 67.759 12.5714 67.6868 12.5714C67.5923 12.5695 67.4998 12.5985 67.4233 12.6541C67.3469 12.7097 67.2907 12.7888 67.2635 12.8793C67.2099 12.8578 67.1525 12.8474 67.0948 12.8487C67.0371 12.85 66.9802 12.863 66.9276 12.8868C66.8751 12.9106 66.8278 12.9448 66.7888 12.9873C66.7498 13.0299 66.7198 13.0798 66.7006 13.1343C66.6257 13.117 66.5474 13.1206 66.4745 13.1448C66.4015 13.169 66.3366 13.2128 66.2869 13.2715C66.2372 13.3301 66.2047 13.4013 66.1928 13.4773C66.1808 13.5532 66.1901 13.6309 66.2195 13.702C66.1144 13.7164 66.0188 13.7701 65.9518 13.8522C65.8849 13.9344 65.8515 14.0389 65.8586 14.1446C65.81 14.1701 65.768 14.2067 65.736 14.2513C65.7041 14.296 65.683 14.3475 65.6746 14.4018C65.6662 14.4561 65.6706 14.5116 65.6875 14.5638C65.7045 14.6161 65.7334 14.6637 65.772 14.7027C65.7056 14.7337 65.6495 14.7829 65.6101 14.8447C65.5707 14.9065 65.5498 14.9782 65.5498 15.0515C65.5498 15.1248 65.5707 15.1965 65.6101 15.2583C65.6495 15.3201 65.7056 15.3693 65.772 15.4003C65.7162 15.4408 65.6729 15.4962 65.6468 15.56C65.6207 15.6239 65.613 15.6938 65.6245 15.7618C65.636 15.8298 65.6663 15.8932 65.7119 15.9449C65.7575 15.9967 65.8167 16.0347 65.8827 16.0546C65.8507 16.1155 65.8373 16.1844 65.8442 16.2528C65.851 16.3212 65.8778 16.3862 65.9212 16.4395C65.8953 16.593 65.9215 16.7507 65.9956 16.8876C66.0697 17.0244 66.1874 17.1326 66.3301 17.1948C66.3638 17.7385 67.249 18.7344 68.0332 18.8547V19.0664C67.2153 19.4801 64.7857 20.8176 63.6263 22.5592C60.0853 18.2196 63.1355 11.6044 68.7453 11.6044ZM40.6341 54.9042C40.7399 54.8128 40.8458 55.0004 41.1152 55.2602C41.1152 55.4238 41.1152 55.7702 41.1537 56.0396C40.764 55.4286 40.4128 55.0389 40.6245 54.8801L40.6341 54.9042ZM56.5251 31.9023C57.4536 31.9023 58.9595 30.0308 59.4599 29.2707C59.8165 29.7103 60.1127 30.1957 60.3403 30.714C60.2765 30.714 60.2153 30.7394 60.1702 30.7845C60.1251 30.8296 60.0997 30.8908 60.0997 30.9546C60.0986 31.0013 60.1117 31.0473 60.1373 31.0865C60.1629 31.1257 60.1998 31.1561 60.2431 31.1739C60.2864 31.1916 60.334 31.1958 60.3797 31.1858C60.4254 31.1759 60.4671 31.1523 60.4991 31.1181C60.6273 31.4721 60.727 31.8357 60.7974 32.2054C60.7574 32.1746 60.7083 32.1577 60.6578 32.1573C60.594 32.1573 60.5328 32.1827 60.4877 32.2278C60.4426 32.2729 60.4173 32.3341 60.4173 32.3979C60.4173 32.4617 60.4426 32.5229 60.4877 32.568C60.5328 32.6131 60.594 32.6384 60.6578 32.6384C60.6957 32.6387 60.7331 32.6296 60.7667 32.612C60.8002 32.5944 60.829 32.5688 60.8503 32.5374C60.884 32.7876 60.908 33.0426 60.9224 33.3072C60.8901 33.3045 60.8576 33.3086 60.827 33.3193C60.7964 33.33 60.7683 33.347 60.7447 33.3692C60.7211 33.3915 60.7025 33.4184 60.69 33.4484C60.6775 33.4783 60.6715 33.5105 60.6723 33.5429C60.6721 33.576 60.6789 33.6088 60.6922 33.6391C60.7055 33.6694 60.7251 33.6965 60.7496 33.7187C60.7741 33.741 60.803 33.7578 60.8344 33.7681C60.8659 33.7785 60.8991 33.782 60.9321 33.7787C60.927 34.2704 60.8836 34.7611 60.8022 35.2461C60.7384 35.2346 60.6726 35.2489 60.6194 35.2859C60.5662 35.3229 60.5298 35.3795 60.5183 35.4433C60.5068 35.5071 60.5212 35.5729 60.5581 35.6261C60.5951 35.6793 60.6518 35.7157 60.7156 35.7272C60.5664 36.42 60.3547 36.7231 60.1863 37.3677C59.9025 36.954 59.9458 36.7856 60.1863 36.2852C60.3226 36.077 60.3987 35.8352 60.4064 35.5865C60.414 35.3378 60.3529 35.0918 60.2296 34.8756C59.8063 34.1828 59.2434 34.0385 58.5554 34.5966C58.4903 34.6648 58.4337 34.7407 58.387 34.8227C58.2826 34.9931 58.1635 35.1541 58.031 35.3038C57.7856 34.8804 57.4055 33.2928 56.5251 31.9023ZM54.4371 26.1723C54.466 26.0136 54.2928 26.2734 56.0296 26.5524C56.1065 26.5524 56.1065 26.4899 55.8804 27.0335C55.3513 27.0169 54.8223 27.0702 54.3072 27.1923C54.3312 26.8501 54.3745 26.5096 54.4371 26.1723ZM53.956 41.1926C53.5239 41.1716 53.1125 41.0016 52.7917 40.7115C51.4831 39.2681 50.6844 36.8626 50.2659 34.8852C50.4872 34.9911 50.5257 34.7216 50.6796 34.4763C50.6923 34.4557 50.7007 34.4329 50.7046 34.4091C50.7084 34.3853 50.7075 34.361 50.7019 34.3375C50.6963 34.3141 50.6861 34.292 50.672 34.2724C50.6579 34.2529 50.64 34.2363 50.6195 34.2237C50.599 34.2111 50.5761 34.2026 50.5523 34.1988C50.5285 34.195 50.5042 34.1959 50.4807 34.2015C50.4573 34.207 50.4352 34.2172 50.4156 34.2313C50.3961 34.2455 50.3795 34.2633 50.3669 34.2838C50.2947 34.4041 50.2563 34.5003 50.2081 34.5917C50.0734 33.923 49.982 33.3216 49.9339 32.8453C52.2336 33.3745 53.0804 31.5271 54.49 31.2913C54.983 31.2573 55.4742 31.3785 55.8948 31.6377C57.8193 34.2117 57.3382 36.9732 58.666 35.0055L58.7575 34.866C59.2386 34.4763 59.5561 34.5003 59.8929 35.0488C60.3211 35.756 59.5513 36.1986 59.609 36.9444C59.7372 37.405 59.9903 37.8213 60.3403 38.1471C60.824 38.783 61.2752 39.443 61.6922 40.1245C61.6441 40.7836 60.73 41.5678 60.2489 42.0249C59.3538 42.7929 58.4069 43.4986 57.4152 44.1369C57.242 44.0359 56.5588 43.7424 56.2942 43.627C55.4715 43.271 55.3801 43.3335 55.255 42.4867C55.1058 41.486 54.8508 41.3225 53.9752 41.1878L53.956 41.1926ZM53.956 42.1548C54.0896 41.9403 54.2862 41.7722 54.5189 41.6737C55.077 41.972 54.6584 43.194 55.4474 43.6318C55.5966 43.7184 57.1265 44.3583 57.2275 44.4304C57.2443 44.4501 57.2649 44.4663 57.288 44.4778C57.3112 44.4894 57.3364 44.4962 57.3622 44.4978C57.7616 44.4978 60.1431 42.5733 60.4798 42.2799C61.0716 41.7555 62.053 40.875 62.053 40.0475C62.053 39.9513 61.0042 38.3925 60.8695 38.2145C62.8276 38.5609 64.7954 38.4551 65.9019 40.1389C66.2319 40.6265 66.4109 41.2005 66.4167 41.7891C65.9428 41.6874 65.4573 41.6502 64.9734 41.6785C64.1026 41.7988 61.4613 43.0881 60.8407 43.6029C59.9362 43.7954 57.5643 45.5274 57.2275 45.7727C54.8845 44.5363 55.7505 45.0511 55.0529 44.4497C54.3553 43.8483 53.4653 43.0593 53.9656 42.1548H53.956ZM59.6042 44.9356C59.6014 44.8881 59.6167 44.8413 59.6471 44.8047C59.6774 44.7681 59.7206 44.7444 59.7678 44.7383C59.8156 44.7365 59.8624 44.752 59.8996 44.7821C59.9367 44.8122 59.9617 44.8548 59.9698 44.9019C60.0614 45.7032 60.0355 46.5136 59.8929 47.3075C60.2345 47.7164 60.0853 48.7508 59.6571 48.7508C59.176 48.7508 59.0702 47.4422 59.5417 47.216C59.6719 46.4628 59.693 45.6948 59.6042 44.9356ZM55.4907 49.0443C55.4907 49.8477 54.7065 49.8477 54.7065 49.0443C54.7065 48.7315 54.8508 48.4862 55.0385 48.4429C55.3941 47.5437 55.558 46.5801 55.5196 45.614C55.5196 45.5655 55.5388 45.519 55.5731 45.4847C55.6074 45.4504 55.6539 45.4311 55.7024 45.4311C55.7509 45.4311 55.7974 45.4504 55.8317 45.4847C55.866 45.519 55.8852 45.5655 55.8852 45.614C55.9046 46.4719 55.7811 47.3272 55.5196 48.1446C55.2261 48.8711 55.4907 48.4717 55.4907 49.0298V49.0443ZM53.778 43.651C54.0303 43.9942 54.3244 44.3045 54.6536 44.5748L53.7491 55.52C49.1641 55.9049 49.3518 56.2561 48.7937 56.3283C48.7263 56.3283 48.6975 56.3283 48.5146 56.232C48.76 55.0437 50.1504 50.0738 51.3339 48.5006C51.3577 48.4621 51.3663 48.4161 51.3581 48.3716C51.3499 48.3271 51.3254 48.2872 51.2895 48.2597C51.2536 48.2321 51.2087 48.2189 51.1636 48.2225C51.1185 48.2261 51.0763 48.2464 51.0453 48.2793C49.8714 49.8429 48.481 54.6732 48.1586 56.0877C47.608 55.8953 47.0765 55.6521 46.571 55.3612C46.3451 55.1703 46.0526 55.0769 45.7579 55.1014C45.5895 54.8512 44.7957 53.6148 44.7957 53.6148C45.9792 50.4828 50.9009 45.2916 53.778 43.6366V43.651ZM45.118 58.4692C45.2575 58.1902 44.762 58.2238 44.2231 57.5503C44.0404 57.3536 43.9147 57.1108 43.8596 56.848C43.8045 56.5852 43.8221 56.3124 43.9104 56.0588C43.9585 56.0925 44.4348 57.4541 45.3538 57.5358C45.3983 57.5351 45.4411 57.5181 45.474 57.488C45.507 57.4579 45.5277 57.4168 45.5325 57.3724C45.5372 57.3281 45.5256 57.2835 45.4997 57.2472C45.4739 57.2108 45.4357 57.1851 45.3922 57.175C44.6706 57.098 43.9922 55.5777 44.1943 55.366C44.4156 55.366 45.4404 56.3619 45.6376 56.4918C45.7298 56.5707 45.837 56.6301 45.9528 56.6665C46.0685 56.7029 46.1904 56.7155 46.3112 56.7035C46.3677 56.6815 46.4185 56.6472 46.4601 56.6031C46.5018 56.559 46.533 56.5062 46.5517 56.4485C46.5998 56.3042 46.5902 56.3812 45.9984 55.4863C46.585 55.8281 47.198 56.1225 47.8315 56.3667C48.0287 56.4437 48.2837 56.5399 48.5339 56.6506C48.7648 57.3338 48.6397 59.2726 47.9999 59.5373C47.966 59.5477 47.937 59.5699 47.9181 59.5998C47.5318 59.5917 47.1477 59.54 46.773 59.4458C45.9936 59.3111 44.6417 58.8348 44.1269 58.0554C44.0406 57.9399 43.9695 57.8138 43.9152 57.6802C44.1784 58.0297 44.5048 58.3267 44.8775 58.5558C44.8999 58.5675 44.9246 58.5742 44.9498 58.5753C44.9751 58.5765 45.0003 58.5721 45.0237 58.5625C45.0471 58.5528 45.0681 58.5382 45.0852 58.5196C45.1023 58.501 45.1152 58.4789 45.1228 58.4548L45.118 58.4692ZM48.3847 59.7201C49.0198 59.1716 49.1256 57.5022 48.9332 56.6939C49.184 56.6062 49.4393 56.5324 49.6982 56.4726C49.7655 58.4788 49.0198 59.4025 48.6975 59.7971L48.5772 59.9606C48.2933 59.7249 48.3896 59.8163 48.3896 59.7056L48.3847 59.7201ZM50.059 56.386L50.2611 56.3427C50.4391 57.8245 49.8762 59.2823 49.3758 60.562L48.8658 60.1819C48.8995 60.028 50.1745 59.0177 50.0638 56.3716L50.059 56.386ZM43.6602 18.7584C43.9249 17.623 43.6939 17.5749 45.5847 15.9488C45.9938 15.6035 46.4298 15.2914 46.8885 15.0154C47.6342 15.7034 49.1834 15.8285 50.415 14.924C50.415 15.1934 50.0446 16.3673 51.026 17.1467C51.2858 17.3553 51.5953 17.4929 51.9242 17.5461C52.2531 17.5992 52.5901 17.566 52.9024 17.4498C53.8646 17.0553 53.8646 17.2381 54.0763 17.2141C54.2781 17.1749 54.4696 17.0946 54.6392 16.9783C53.4034 18.6491 51.5634 19.7705 49.512 20.1031C47.4607 20.4357 45.3606 19.9531 43.6602 18.7584ZM44.2328 14.823C44.1317 14.2168 43.3475 14.1446 43.3042 13.779C43.2609 13.4133 44.0066 12.1865 44.0403 11.9171C44.1029 11.436 43.6795 11.1954 43.5255 10.926C43.4238 10.7099 43.3805 10.4709 43.3999 10.2329C43.4193 9.99481 43.5008 9.766 43.6362 9.56926C43.7468 9.4586 43.4197 9.56926 44.8438 9.48747C44.9443 10.5625 45.2723 11.6039 45.806 12.5425C46.4507 13.5047 47.6631 13.0236 47.5669 13.5769C47.4129 14.5391 46.2679 14.8855 45.5462 15.5013C44.0259 16.8292 44.3049 16.6945 44.2568 16.6704C43.5785 16.3337 44.3386 15.4484 44.2328 14.823ZM48.9091 11.282C49.1497 11.9989 50.3525 11.6621 49.8714 12.9322C49.5202 13.9666 50.0157 14.2264 50.2466 14.5487C50.2317 14.5619 50.2202 14.5784 50.213 14.5969C49.1593 15.3859 47.8074 15.3281 47.1579 14.7845C47.5386 14.5179 47.8049 14.1177 47.9036 13.6635C48.0816 12.6002 46.6479 13.1824 46.085 12.3645C45.587 11.4773 45.2882 10.4922 45.2094 9.47785C46.0152 9.4304 46.8181 9.34208 47.615 9.21324C48.8418 9.00636 48.5387 8.98712 48.6638 9.06891C49.7655 9.81463 48.5387 10.2091 48.9091 11.282ZM54.6343 16.5502C54.4996 16.6608 54.1532 16.9014 54.0041 16.8677C53.8549 16.834 53.6048 16.7811 52.7532 17.1323C52.4874 17.2329 52.1988 17.2575 51.9198 17.2033C51.6408 17.1491 51.3824 17.0183 51.1736 16.8255C50.9648 16.6326 50.8138 16.3855 50.7376 16.1116C50.6614 15.8378 50.663 15.5482 50.7422 15.2752C50.9779 13.9618 49.78 14.3755 50.2611 13.0669C50.6267 12.0085 50.0446 11.7006 49.6597 11.4937C49.2748 11.2868 49.0631 11.1906 49.371 10.3342C49.5072 10.1046 49.5512 9.83187 49.494 9.5711C49.4369 9.31033 49.2829 9.08097 49.0631 8.92939C49.5735 8.80846 50.0764 8.65745 50.569 8.47714C50.5614 8.82784 50.6463 9.17436 50.8152 9.48179C50.9842 9.78923 51.2311 10.0467 51.5312 10.2284C52.3298 10.8442 52.4549 11.104 52.2529 12.1528C52.0508 13.2016 52.1711 13.346 52.6377 13.8367C52.8055 13.9577 52.9316 14.1276 52.9988 14.3232C53.066 14.5187 53.071 14.7303 53.013 14.9288C52.8687 16.3048 53.5855 15.9536 53.4364 15.6649C53.3472 15.4435 53.3271 15.2003 53.3787 14.9673C53.4393 14.7152 53.4262 14.4511 53.3409 14.2063C53.2556 13.9614 53.1017 13.7463 52.8975 13.5865C52.5078 13.1776 52.4164 13.1343 52.6041 12.2202C52.8398 11.003 52.6329 10.6229 51.7477 9.9349C51.4699 9.77427 51.2436 9.53782 51.0954 9.25323C50.9471 8.96864 50.883 8.6477 50.9106 8.328C51.2225 8.19753 51.5206 8.03637 51.8006 7.84689C51.9548 8.15827 52.1728 8.43367 52.4405 8.65515C52.9216 9.13626 53.0948 9.27097 53.0948 10.2621C53.0948 11.2531 53.2199 11.4504 53.956 12.302C54.3312 12.735 54.4371 12.7831 54.3024 13.5817C54.2252 13.8675 54.215 14.1673 54.2726 14.4577C54.3302 14.748 54.454 15.0212 54.6343 15.256C55.0289 15.9343 55.0914 16.146 54.6343 16.5502ZM42.5393 6.34583C47.6005 1.23645 56.2653 4.9025 56.2653 12.0855C56.2606 13.4182 55.9303 14.7295 55.3031 15.9055C55.2308 15.5975 55.1054 15.3045 54.9326 15.0395C54.7712 14.8403 54.6606 14.6048 54.6103 14.3534C54.56 14.102 54.5716 13.8421 54.644 13.5961C54.8124 12.6339 54.644 12.4944 54.211 12.0037C53.5374 11.2291 53.4412 11.1425 53.446 10.2139C53.446 9.11702 53.2247 8.87165 52.6714 8.33762C52.0027 7.68331 52.147 7.66407 52.0845 7.55822C52.2312 7.42463 52.362 7.27449 52.4742 7.11079C53.0467 6.27366 49.9676 6.25442 49.8088 6.12452C49.7975 6.11665 49.7841 6.11244 49.7703 6.11244C49.7566 6.11244 49.7431 6.11665 49.7318 6.12452C48.4088 6.74515 46.2342 7.25994 44.7957 6.98089C44.78 6.97575 44.7632 6.97575 44.7476 6.98089C43.9056 7.39946 41.3413 8.33762 41.2451 8.90533C41.1633 9.38644 42.7413 9.46823 43.2369 9.48747C43.1085 9.73483 43.0387 10.0084 43.0329 10.287C43.027 10.5656 43.0853 10.8419 43.2032 11.0944C43.2717 11.2027 43.3524 11.3028 43.4438 11.3927C43.7901 11.7727 43.7132 11.8112 43.4774 12.2779C43.2417 12.7446 42.8905 13.4278 42.9386 13.8078C42.9707 13.951 43.0363 14.0844 43.13 14.1973C43.2236 14.3102 43.3427 14.3993 43.4774 14.4573C43.9585 14.7604 43.9585 14.8663 43.7517 15.4773C43.6025 15.9584 43.4053 16.5935 43.9826 16.9447C43.5015 17.5172 43.5015 17.7385 43.3379 18.5035C42.4273 17.7983 41.6768 16.9077 41.136 15.8908C40.5953 14.8739 40.2766 13.7537 40.2011 12.6045C40.1256 11.4552 40.295 10.303 40.6981 9.22406C41.1012 8.14514 41.7287 7.1641 42.5393 6.34583ZM27.8029 0.365643C32.7968 0.365643 36.1742 5.6819 34.1968 10.4353C33.0954 9.56003 31.8631 8.86353 30.5452 8.3713C30.4678 8.15521 30.4288 7.92727 30.4297 7.69775C30.4835 7.69007 30.5337 7.66663 30.5741 7.63039C32.4985 6.0283 31.4641 3.62275 30.959 2.90109C29.9968 1.52993 28.0435 1.52512 26.528 2.26121C26.3806 2.56715 26.2723 2.89043 26.2056 3.22343C26.1634 3.53935 26.2351 3.85997 26.4077 4.12792C26.8888 4.41177 27.1678 4.44545 28.3321 4.09905C29.4964 3.75265 28.9143 5.48464 29.4627 5.70114C30.0112 5.91764 30.1748 5.13825 30.4923 5.8984C30.728 6.44686 30.0978 6.37951 30.0785 6.68742C30.0589 6.85845 30.0589 7.03117 30.0785 7.2022C30.0283 7.66218 30.0893 8.12749 30.2566 8.55893C29.482 9.25173 28.5438 9.29984 27.5383 9.10258V9.04004C27.5065 8.85023 27.4233 8.67276 27.2978 8.52688C27.1723 8.381 27.0092 8.27228 26.8262 8.21253C26.095 7.84689 25.8977 7.56304 25.7149 5.08532C25.7294 5.12093 25.7548 5.15104 25.7875 5.17137C25.8202 5.19169 25.8584 5.2012 25.8968 5.19853C25.9352 5.19587 25.9717 5.18117 26.0012 5.15652C26.0308 5.13188 26.0518 5.09855 26.0613 5.06127C26.1156 5.02464 26.1718 4.99091 26.2297 4.96023C26.2724 4.93918 26.305 4.90201 26.3204 4.8569C26.3357 4.81178 26.3325 4.76243 26.3115 4.71968C26.2904 4.67693 26.2532 4.6443 26.2081 4.62897C26.163 4.61363 26.1136 4.61684 26.0709 4.63789C25.9121 4.71487 25.7437 4.8159 25.7101 4.95061C25.7101 4.79185 25.686 4.67157 25.6764 4.58497C25.8205 4.4795 25.9186 4.32281 25.9506 4.14716C26.0084 3.96915 26.0324 3.96915 26.0132 3.92585C25.8063 3.51691 26.0132 2.92033 26.1719 2.48252C26.1778 2.46873 26.1791 2.45347 26.1759 2.43886C26.1727 2.42425 26.165 2.411 26.1539 2.40096C26.1428 2.39092 26.1288 2.38458 26.114 2.38281C26.0991 2.38105 26.084 2.38395 26.0709 2.39111C25.8712 2.49458 25.684 2.62049 25.5128 2.76638C24.82 3.38701 24.8585 4.26263 25.2338 4.48875C25.3252 4.54648 25.3059 4.4262 25.3492 5.02278C25.5321 7.53898 25.7197 8.04414 26.6627 8.51563C26.9465 8.65996 27.1438 8.75137 27.1775 9.0641C27.1319 9.08139 27.0853 9.09585 27.0379 9.1074C25.3444 9.51634 23.3671 11.3542 22.7079 12.4367C18.5993 7.89019 21.7217 0.365643 27.8029 0.365643ZM22.9533 12.7638C23.2324 12.0903 25.3589 9.91566 27.0812 9.51153C27.1576 9.49625 27.2319 9.47203 27.3025 9.43936C28.5053 9.66548 29.6263 9.66067 30.5645 8.75618C31.8172 9.25469 32.9893 9.9356 34.0429 10.7768C33.5868 11.7868 32.8917 12.6706 32.0176 13.3519C31.1435 14.0331 30.1168 14.4914 29.026 14.687C27.9351 14.8826 26.8131 14.8097 25.7568 14.4746C24.7005 14.1396 23.7416 13.5524 22.9629 12.7638H22.9533ZM23.1409 13.4229C27.7197 17.2062 34.0717 14.5151 35.0195 8.89571L40.0712 10.0985C39.6876 11.6434 39.8585 13.5976 40.3647 15.1068C40.3165 15.1068 41.1873 14.8326 21.5004 21.5344C21.0333 20.6308 20.0237 19.2146 19.3258 18.4746L23.1409 13.4229ZM3.06908 32.6288C-2.1702 25.6912 2.79966 15.612 11.5655 15.612C13.4696 15.6186 15.3372 16.1358 16.9735 17.1097C18.6098 18.0836 19.955 19.4785 20.8689 21.149C21.7828 22.8196 22.232 24.7047 22.1696 26.6078C22.1072 28.511 21.5355 30.3626 20.5141 31.9697C19.4628 30.241 18.021 28.7827 16.3044 27.7119C16.7566 22.5111 16.2274 17.0649 11.0459 17.3777C10.2125 17.4164 9.40493 17.6791 8.70816 18.1379C8.01139 18.5968 7.45114 19.235 7.08634 19.9853C5.36397 23.1413 5.86432 28.015 6.05195 28.6452C5.80178 28.8906 5.52755 29.1263 5.29661 29.3717C4.47343 30.4 3.72882 31.4888 3.06908 32.6288ZM14.1827 23.9448C14.2404 24.628 13.7016 25.7105 12.9847 25.8692C12.8596 25.8981 12.7682 26.0617 12.826 26.2686C12.5614 26.4466 12.393 26.6101 12.1765 26.7497C11.7787 26.9381 11.3396 27.0224 10.9003 26.9946C10.461 26.9669 10.036 26.8279 9.66508 26.5909C9.74206 26.3215 9.66508 26.1098 9.40047 26.0376C8.69805 25.8885 7.56745 24.5654 7.73102 23.6321C7.86573 22.8527 6.67258 23.4829 7.24992 21.9578C7.34133 21.7221 8.10148 21.9338 8.85201 21.5777C9.60411 21.1468 10.306 20.6337 10.9448 20.0478C11.4008 20.3509 11.8291 20.6939 12.2246 21.0726C11.8589 20.8609 11.7435 21.3516 12.0321 21.3853L12.0899 21.4478L12.1284 21.4911C12.1429 21.5098 12.161 21.5254 12.1815 21.537C12.2021 21.5487 12.2247 21.5562 12.2482 21.5591C12.2716 21.562 12.2954 21.5603 12.3182 21.554C12.341 21.5477 12.3623 21.5369 12.3809 21.5224C12.3996 21.5079 12.4152 21.4898 12.4268 21.4693C12.4385 21.4487 12.446 21.4261 12.4489 21.4026C12.4518 21.3791 12.4501 21.3554 12.4438 21.3326C12.4375 21.3098 12.4267 21.2885 12.4122 21.2698C12.3844 21.2293 12.3539 21.1907 12.3208 21.1544C12.6047 21.3805 13.3359 22.0011 13.87 21.8664C13.9541 21.8311 14.045 21.8147 14.1361 21.8183C14.2273 21.8218 14.3166 21.8453 14.3977 21.887C14.4789 21.9287 14.5499 21.9877 14.6058 22.0598C14.6618 22.1318 14.7013 22.2153 14.7215 22.3042C14.7215 22.3427 15.1016 23.3338 14.4088 23.6321C14.1923 23.7283 14.1683 23.7668 14.1827 23.9448ZM3.31444 32.9656C3.94091 31.766 4.69413 30.6369 5.56122 29.5978C5.84508 29.2707 6.22996 29.0013 6.52344 28.6356C7.53858 28.1545 9.36198 26.8315 9.41009 26.8651C9.8376 27.148 10.3318 27.3137 10.8434 27.3458C11.3551 27.3779 11.8661 27.2752 12.3256 27.048C12.6239 26.8796 12.8548 26.639 13.1387 26.4802C13.7689 26.8218 15.193 27.5868 15.8425 27.8322C15.8602 27.8619 15.885 27.8867 15.9147 27.9043C17.892 29.0397 19.0996 30.5697 20.2447 32.3161C19.3051 33.6622 18.0663 34.7722 16.6256 35.5591C15.1849 36.3459 13.5814 36.7882 11.9411 36.8511C10.3007 36.914 8.66806 36.5959 7.1713 35.9218C5.67454 35.2476 4.35438 34.2358 3.31444 32.9656ZM19.345 34.0144C20.8575 32.4083 22.0812 30.1186 22.4245 27.9393C22.7679 25.76 22.4458 23.5278 21.5004 21.5344C41.2258 14.7989 40.3165 15.1405 40.3647 15.1068C40.8368 16.3595 41.6006 17.4816 42.5929 18.3802C43.5852 19.2788 45.1334 20.0242 46.4266 20.3702L40.9516 50.8436L19.345 34.0144ZM41.3557 54.2499C41.0045 53.6773 40.1433 52.5131 39.7681 51.8443C40.5667 51.5749 42.0582 51.1804 42.3035 51.3007C42.5489 51.4209 44.175 53.7784 45.6713 56.0588C45.1902 55.6499 44.5311 54.9908 44.151 54.9908C43.9441 54.9908 43.7132 55.1976 43.7901 55.6884C43.6509 55.7513 43.5408 55.8648 43.4822 56.0059C43.4517 55.8424 43.4082 55.6815 43.3523 55.5248C43.2802 55.3372 43.1936 54.9427 42.9242 54.8801C42.8669 54.87 42.808 54.8749 42.7532 54.8943C42.6984 54.9137 42.6496 54.9469 42.6114 54.9908C42.4671 54.5097 42.1832 54.4183 41.885 54.5866C41.8032 54.1921 41.5578 54.1344 41.375 54.2499H41.3557ZM41.6877 57.1365C41.454 56.3574 41.3836 55.5385 41.4808 54.731C41.4808 54.6348 41.5241 54.6011 41.5241 54.5915C41.6396 54.6829 41.6925 55.164 41.8513 56.2368C41.8441 56.2719 41.8471 56.3084 41.8599 56.3418C41.8728 56.3752 41.895 56.4043 41.9238 56.4256C41.9526 56.4468 41.987 56.4594 42.0227 56.4617C42.0584 56.4641 42.0941 56.4562 42.1255 56.4389C42.3324 56.3186 42.0245 55.6258 42.0245 55.1207C42.0245 54.7598 42.2891 54.9042 42.3468 55.0726C42.5001 55.5872 42.6206 56.1111 42.7077 56.641C42.7018 56.6662 42.7013 56.6924 42.7063 56.7178C42.7113 56.7432 42.7216 56.7673 42.7366 56.7884C42.7516 56.8095 42.771 56.8272 42.7933 56.8403C42.8157 56.8534 42.8405 56.8616 42.8663 56.8643C42.8921 56.8671 42.9181 56.8643 42.9427 56.8562C42.9673 56.8482 42.9899 56.8349 43.0091 56.8175C43.0282 56.8 43.0434 56.7786 43.0536 56.7549C43.0638 56.7311 43.0689 56.7054 43.0685 56.6795C43.1118 56.2946 42.6788 55.5248 42.876 55.2794C42.9384 55.4047 42.9899 55.5351 43.03 55.6691C43.2802 56.3523 43.1262 56.8334 43.5111 57.4877C43.6506 57.7235 43.564 57.7187 43.7228 58.0458C42.9563 58.0076 42.2342 57.675 41.7069 57.1173L41.6877 57.1365ZM41.986 57.8678C42.4794 58.1835 43.0427 58.3735 43.6266 58.4211C44.0211 58.4211 43.8527 58.3008 44.0018 58.474C43.693 58.607 43.3565 58.663 43.0212 58.637C42.6859 58.611 42.362 58.5039 42.0774 58.3249C42.0245 58.2527 42.0293 58.3152 42.0052 57.8486L41.986 57.8678ZM42.1063 59.085C42.087 58.9792 42.0726 58.8733 42.063 58.7675C42.4076 58.9363 42.7874 59.0213 43.1711 59.0155C43.5549 59.0096 43.9319 58.9131 44.2713 58.7338C44.3475 58.8013 44.4278 58.864 44.5118 58.9214C44.1491 59.1195 43.7473 59.2351 43.3348 59.2601C42.9223 59.285 42.5094 59.2187 42.1255 59.0658L42.1063 59.085ZM42.1736 59.5276C42.9867 59.8404 44.5792 59.441 44.8486 59.1379C45.523 59.4933 46.2511 59.7354 47.004 59.8548C47.2351 59.9087 47.4699 59.9457 47.7064 59.9654C47.3311 61.0143 47.1098 62.7078 47.0473 64.9978C46.0321 64.815 43.0252 63.9635 42.1929 59.5084L42.1736 59.5276ZM48.0624 60.0376C49.7375 61.3311 51.4852 62.5278 53.2969 63.6219C53.2833 63.6345 53.2748 63.6516 53.2728 63.67C52.7917 68 53.4797 79.306 53.5518 80.4414C51.5189 79.8001 49.647 78.7305 48.0624 77.3046C47.8844 77.0977 46.7393 63.6604 48.0816 60.0184L48.0624 60.0376ZM48.1105 77.8386C49.7358 79.2314 51.6355 80.2673 53.6866 80.8793V81.1679C52.6137 80.8167 49.6308 79.638 48.1346 78.1754C48.1586 78.0263 48.1442 77.9156 48.1298 77.805L48.1105 77.8386ZM48.2404 78.8826V78.7239C50.0013 80.2249 53.0515 81.3459 53.7395 81.5576V81.8415C52.8975 81.5624 49.1112 79.9748 48.2597 78.849L48.2404 78.8826ZM74.8457 78.7961C72.4402 80.8071 61.3747 83.6552 60.5953 82.3563C65.1321 82.8374 70.9728 80.6291 74.8746 78.339L74.8457 78.7961ZM74.9035 77.906C74.6292 78.0744 66.8978 82.746 60.4221 81.9762C60.3884 81.8992 60.3547 81.8078 60.3211 81.7068C60.6966 81.7462 61.074 81.7654 61.4517 81.7645C66.4119 81.7645 73.1859 78.7431 74.9227 77.6606C74.9371 77.7039 74.9323 77.7857 74.9227 77.8723L74.9035 77.906ZM74.9516 77.1988C73.4265 78.2909 65.0407 81.9521 60.2393 81.3219C60.0805 81.3219 60.196 82.1301 58.9307 66.5759C62.0915 67.9422 64.9156 68.635 67.326 68.6302C71.1749 68.6302 74.4945 66.7635 75.654 62.8088C75.6973 65.2721 75.3365 71.6949 74.9708 77.1699L74.9516 77.1988ZM72.3055 66.8934C65.4785 71.4495 53.3113 63.4294 49.6645 60.8026C50.1071 59.6046 50.824 58.0651 50.6267 56.2946C55.8227 55.3324 63.9727 56.4341 64.2517 56.5159C64.2839 56.5344 64.3209 56.5427 64.3579 56.5397C64.3949 56.5367 64.43 56.5225 64.4587 56.499C64.4875 56.4755 64.5084 56.4438 64.5186 56.4082C64.5289 56.3725 64.5281 56.3346 64.5163 56.2994C64.473 56.1695 64.4153 56.1502 63.227 56.0011C64.9108 50.1604 66.5947 50.0931 66.1617 49.7082C66.1447 49.691 66.1245 49.6774 66.1022 49.6681C66.0799 49.6588 66.056 49.654 66.0318 49.654C66.0077 49.654 65.9837 49.6588 65.9615 49.6681C65.9392 49.6774 65.9189 49.691 65.9019 49.7082C64.2517 51.5124 63.4964 53.8602 62.8613 55.9626C61.9328 55.8568 60.1142 55.6836 59.7245 55.6499C59.763 55.3564 61.3362 44.0263 61.2544 43.7761C62.0194 43.295 64.218 42.1885 65.0263 42.073C65.493 42.054 65.9602 42.0944 66.4167 42.1933C66.4265 42.215 66.4406 42.2345 66.4581 42.2507C66.4756 42.2669 66.4962 42.2794 66.5187 42.2875C66.5411 42.2956 66.5649 42.2991 66.5887 42.2978C66.6125 42.2964 66.6358 42.2904 66.6573 42.2799C67.48 42.4338 75.2451 45.97 75.7983 53.3742C76.3468 61.2404 75.4423 64.7813 72.3247 66.8597L72.3055 66.8934Z" fill="#2A344A"/>
<path d="M53.9224 35.8714C54.4035 35.8714 54.2639 34.7937 53.7876 34.7745C53.3113 34.7552 53.4461 35.8521 53.9224 35.8714ZM50.9443 35.3999C50.4632 35.3999 50.5979 36.4776 51.079 36.492C51.5601 36.5065 51.4254 35.4191 50.9443 35.3999ZM45.7868 9.76159C45.5174 9.80008 45.6184 10.4929 45.8878 10.4544C46.1573 10.4159 46.0562 9.71829 45.7868 9.76159ZM47.6102 10.1369C47.8796 10.1369 47.8411 9.41038 47.5573 9.43925C47.2734 9.46812 47.3504 10.1369 47.6102 10.1369ZM70.0539 16.016C70.0299 15.5349 69.6209 15.5686 69.645 16.016C69.6691 16.4634 70.078 16.4923 70.0539 16.016ZM67.9419 15.9679C67.8697 16.17 67.9419 16.5308 68.1439 16.5308C68.346 16.5308 68.3316 16.2133 68.3268 16.1603C68.2931 15.7995 68.0285 15.7322 67.9419 15.9679ZM27.6249 5.53265C27.6249 6.01375 28.106 6.01375 28.106 5.53265C28.106 5.05154 27.6249 5.04673 27.6249 5.53265ZM12.4074 21.9962C12.0899 21.9962 12.0899 22.7275 12.4074 22.7275C12.725 22.7275 12.7202 21.9962 12.4074 21.9962ZM10.05 22.3474C10.05 21.8663 9.5689 21.8663 9.5689 22.3474C9.5689 22.8285 10.05 22.8333 10.05 22.3474ZM26.1624 5.32096C25.8448 5.32096 25.8496 6.05224 26.1624 6.05224C26.4751 6.05224 26.4895 5.32096 26.1624 5.32096ZM67.7831 15.5878C67.7831 15.5878 67.8168 15.5301 67.99 15.4435C68.015 15.4352 68.0379 15.4217 68.0572 15.4038C68.0765 15.3858 68.0917 15.3639 68.1017 15.3396C68.1118 15.3153 68.1165 15.289 68.1154 15.2627C68.1144 15.2364 68.1077 15.2106 68.0958 15.1871C68.0839 15.1636 68.067 15.143 68.0464 15.1266C68.0257 15.1103 68.0018 15.0986 67.9762 15.0923C67.9507 15.086 67.924 15.0854 67.8982 15.0903C67.8723 15.0953 67.8478 15.1058 67.8264 15.1211C66.9989 15.5397 67.6532 15.9294 67.7831 15.5878ZM69.7316 15.328C69.9722 15.328 69.9481 15.506 70.1165 15.506C70.1528 15.5063 70.1884 15.4957 70.2187 15.4756C70.249 15.4556 70.2726 15.4269 70.2866 15.3934C70.3005 15.3598 70.3041 15.3228 70.297 15.2872C70.2898 15.2516 70.2722 15.2189 70.2464 15.1933C70.1855 15.1163 70.1069 15.0551 70.0172 15.0149C69.9276 14.9747 69.8296 14.9567 69.7316 14.9624C69.6831 14.9624 69.6366 14.9816 69.6023 15.0159C69.568 15.0502 69.5488 15.0967 69.5488 15.1452C69.5488 15.1937 69.568 15.2402 69.6023 15.2745C69.6366 15.3088 69.6831 15.328 69.7316 15.328ZM68.6587 16.2421C68.6587 16.9734 68.5577 17.5075 69.2842 17.2621C69.3173 17.2481 69.3455 17.2247 69.3653 17.1947C69.3852 17.1648 69.3958 17.1296 69.3958 17.0937C69.3958 17.0578 69.3852 17.0226 69.3653 16.9927C69.3455 16.9627 69.3173 16.9393 69.2842 16.9253C69.1879 16.8772 69.1254 16.9253 69.0051 16.9542V16.1026C69.019 16.0695 69.0235 16.0333 69.0183 15.9978C69.0131 15.9624 68.9983 15.929 68.9756 15.9013C68.9528 15.8736 68.9229 15.8526 68.8892 15.8406C68.8554 15.8286 68.8189 15.826 68.7838 15.8332C68.6683 15.8669 68.6539 15.939 68.6587 16.2421ZM69.3275 17.7432C69.3183 17.7707 69.3158 17.7999 69.3202 17.8285C69.3246 17.8571 69.3357 17.8843 69.3526 17.9078C69.3695 17.9312 69.3917 17.9504 69.4175 17.9636C69.4432 17.9768 69.4717 17.9837 69.5007 17.9837C69.5584 17.9837 69.5728 17.9837 69.6883 17.9164C69.9249 17.8303 70.1206 17.6587 70.2368 17.4353C70.2578 17.3925 70.261 17.3432 70.2457 17.2981C70.2304 17.253 70.1977 17.2158 70.155 17.1947C70.1122 17.1737 70.0629 17.1705 70.0178 17.1858C69.9726 17.2011 69.9355 17.2338 69.9144 17.2765C69.7412 17.6133 69.39 17.5508 69.3275 17.7432ZM47.1243 11.4599C47.1721 11.4599 47.218 11.4409 47.2519 11.4071C47.2857 11.3732 47.3047 11.3273 47.3047 11.2795C47.3047 11.2316 47.2857 11.1858 47.2519 11.1519C47.218 11.1181 47.1721 11.0991 47.1243 11.0991C46.9559 11.0991 46.725 11.1809 46.6432 11.1712C46.571 10.9259 46.6432 9.89631 46.5806 9.69905C46.5746 9.67567 46.5641 9.65371 46.5496 9.63441C46.5351 9.61511 46.5169 9.59885 46.4962 9.58656C46.4754 9.57428 46.4524 9.56621 46.4285 9.56281C46.4046 9.5594 46.3803 9.56074 46.3569 9.56675C46.3335 9.57275 46.3116 9.58329 46.2923 9.59779C46.273 9.61228 46.2567 9.63043 46.2444 9.6512C46.2321 9.67198 46.2241 9.69497 46.2207 9.71886C46.2173 9.74275 46.2186 9.76708 46.2246 9.79046C46.2348 9.95067 46.2348 10.1114 46.2246 10.2716C46.2246 11.2338 46.1476 11.686 46.9366 11.508C46.9968 11.4838 47.0599 11.4676 47.1243 11.4599ZM47.87 11.4407C47.7738 11.4407 47.7112 11.4792 47.5813 11.5802C46.9799 12.0324 47.0762 11.6716 46.85 11.6716C46.8137 11.6713 46.7781 11.6819 46.7478 11.702C46.7175 11.7221 46.6939 11.7507 46.68 11.7843C46.666 11.8178 46.6624 11.8548 46.6696 11.8904C46.6767 11.9261 46.6943 11.9587 46.7201 11.9843C47.0617 12.3259 47.4226 12.1575 47.8026 11.8689C47.9277 11.7774 47.9951 11.7534 48.0143 11.6572C48.0229 11.6094 48.0127 11.5602 47.9858 11.5198C47.9589 11.4795 47.9174 11.4511 47.87 11.4407ZM27.7789 4.83023C27.9011 4.82594 28.0227 4.84895 28.1349 4.89758C28.175 4.91958 28.2219 4.92574 28.2664 4.91484C28.3108 4.90394 28.3495 4.87676 28.3749 4.83869C28.4003 4.80062 28.4105 4.75442 28.4035 4.7092C28.3964 4.66399 28.3727 4.62305 28.337 4.59448C28.1874 4.51426 28.0207 4.47135 27.851 4.46939C27.8032 4.45982 27.7535 4.46965 27.7129 4.49672C27.6928 4.51012 27.6755 4.52736 27.6621 4.54743C27.6486 4.56751 27.6393 4.59003 27.6345 4.61373C27.6298 4.63742 27.6298 4.66181 27.6345 4.68552C27.6392 4.70922 27.6485 4.73177 27.6619 4.75187C27.6889 4.79247 27.731 4.82066 27.7789 4.83023ZM26.9706 7.28388C26.9033 7.44746 27.1631 7.80348 27.4806 7.80348C28.005 7.80348 28.4428 6.91343 27.9617 6.69212C27.8077 6.61514 27.6779 6.74985 27.4806 6.95192C27.2833 7.15398 27.038 7.09144 26.9706 7.28388ZM9.69399 21.5151C9.77358 21.458 9.85907 21.4096 9.94898 21.3708C10.1462 21.2697 10.0356 20.9233 9.74691 21.0677C8.89054 21.491 9.6122 21.8711 9.69399 21.5151ZM11.2624 23.5069C11.2095 23.5069 11.1133 23.5069 11.0267 23.478C11.0267 23.199 11.2095 22.1309 11.2287 21.9914C11.2291 21.9464 11.2129 21.9028 11.1832 21.869C11.1535 21.8352 11.1124 21.8136 11.0677 21.8082C11.023 21.8028 10.9779 21.8141 10.9411 21.84C10.9042 21.8658 10.8781 21.9043 10.8679 21.9481C10.8198 22.357 10.5696 23.5165 10.7139 23.6993C10.8583 23.8821 11.07 23.8437 11.195 23.8677C11.2429 23.8766 11.2923 23.8662 11.3325 23.8387C11.3726 23.8112 11.4002 23.7688 11.4091 23.721C11.4181 23.6731 11.4076 23.6237 11.3801 23.5835C11.3526 23.5434 11.3103 23.5158 11.2624 23.5069ZM10.7669 24.5413C10.1174 24.3921 10.2858 24.2141 10.1366 24.1323C10.104 24.117 10.0676 24.1117 10.032 24.117C9.99632 24.1223 9.96305 24.138 9.93632 24.1622C9.90959 24.1863 9.89059 24.2179 9.88172 24.2528C9.87284 24.2877 9.87448 24.3245 9.88643 24.3584C9.96416 24.5077 10.0779 24.6351 10.2174 24.7292C10.3569 24.8233 10.5176 24.8811 10.6851 24.8973C10.7314 24.9058 10.7792 24.8961 10.8186 24.8703C10.858 24.8444 10.8858 24.8043 10.8964 24.7584C10.9069 24.7125 10.8993 24.6643 10.8752 24.6238C10.8511 24.5834 10.8123 24.5538 10.7669 24.5413ZM53.6433 33.6102C53.8406 33.7112 54.0811 33.7304 54.2351 33.8122C54.2771 33.8289 54.3238 33.8294 54.3662 33.8137C54.4086 33.7979 54.4436 33.767 54.4645 33.7269C54.4855 33.6869 54.4908 33.6405 54.4795 33.5967C54.4682 33.5529 54.4411 33.5149 54.4035 33.4899C54.2014 33.384 53.9608 33.3648 53.8117 33.2878C53.7697 33.2712 53.723 33.2707 53.6806 33.2864C53.6382 33.3022 53.6032 33.3331 53.5822 33.3731C53.5613 33.4132 53.556 33.4596 53.5672 33.5034C53.5785 33.5472 53.6056 33.5852 53.6433 33.6102ZM53.3498 38.2C53.3926 38.1929 53.4315 38.1709 53.4596 38.1379C53.4877 38.1049 53.5031 38.0629 53.5031 38.0195C53.5031 37.9762 53.4877 37.9342 53.4596 37.9012C53.4315 37.8681 53.3926 37.8461 53.3498 37.8391C53.0957 37.8584 52.8403 37.8256 52.5993 37.7429C52.4838 37.5024 52.3732 35.3374 52.2818 34.7889C52.2789 34.7643 52.2713 34.7404 52.2592 34.7187C52.2471 34.6971 52.2309 34.678 52.2115 34.6626C52.1921 34.6471 52.1698 34.6357 52.1459 34.6289C52.1221 34.6221 52.0971 34.6201 52.0725 34.6229C52.0478 34.6258 52.024 34.6334 52.0023 34.6455C51.9807 34.6575 51.9616 34.6737 51.9462 34.6932C51.9307 34.7126 51.9193 34.7349 51.9125 34.7587C51.9057 34.7826 51.9037 34.8075 51.9065 34.8322C52.046 35.6741 52.0557 37.8006 52.3443 38.0075C52.6565 38.1597 53.0035 38.2261 53.3498 38.2ZM54.1052 39.1622C54.4708 39.1622 55.4379 38.2 55.5485 37.4927C55.5562 37.4455 55.5447 37.3972 55.5168 37.3584C55.4888 37.3196 55.4466 37.2935 55.3994 37.2858C55.3521 37.2782 55.3038 37.2896 55.265 37.3176C55.2262 37.3455 55.2001 37.3878 55.1925 37.435C55.009 38.0223 54.6009 38.5134 54.0571 38.8013C54.0127 38.8116 53.9738 38.838 53.9479 38.8754C53.9219 38.9128 53.9109 38.9585 53.9169 39.0036C53.9229 39.0488 53.9456 39.09 53.9804 39.1193C54.0152 39.1486 54.0597 39.1639 54.1052 39.1622ZM57.7183 45.2145C57.8338 45.2145 57.9829 45.0798 58.5795 44.5458C58.9937 44.119 59.4727 43.7601 59.9988 43.4825C61.5191 42.5877 64.0545 41.077 63.6456 39.5952C63.6296 39.5524 63.5982 39.5172 63.5576 39.4964C63.517 39.4756 63.47 39.4708 63.426 39.4829C63.382 39.4949 63.3441 39.523 63.3197 39.5616C63.2954 39.6002 63.2863 39.6465 63.2944 39.6914C63.6792 41.0962 60.4077 42.7753 59.2627 43.497C58.9981 43.6605 57.7616 44.8056 57.6558 44.8585C57.6143 44.8725 57.5793 44.9008 57.557 44.9384C57.5346 44.976 57.5265 45.0203 57.5341 45.0634C57.5416 45.1064 57.5644 45.1454 57.5982 45.1731C57.632 45.2008 57.6746 45.2155 57.7183 45.2145ZM56.7176 44.998C56.7285 45.0325 56.7494 45.0631 56.7777 45.0857C56.8059 45.1083 56.8403 45.1221 56.8763 45.1251C56.9124 45.1282 56.9486 45.1206 56.9803 45.1031C57.012 45.0856 57.0378 45.0591 57.0544 45.0269C57.3527 44.4448 54.0956 43.877 54.6055 42.6598C54.6198 42.6161 54.617 42.5685 54.5977 42.5267C54.5785 42.4849 54.5442 42.4519 54.5017 42.4343C54.4591 42.4167 54.4115 42.4158 54.3684 42.4317C54.3252 42.4477 54.2896 42.4793 54.2688 42.5203C53.6385 43.9733 56.5011 44.7142 56.7176 44.998ZM49.626 5.78282C48.813 5.11889 47.8748 4.53194 46.8019 4.75325C46.3379 4.85454 45.909 5.07713 45.5591 5.39832C45.2092 5.7195 44.9507 6.12777 44.8101 6.58146C44.8084 6.59849 44.8128 6.61557 44.8225 6.62967C44.8322 6.64377 44.8466 6.65397 44.8631 6.65844C46.2631 7.07701 49.6309 5.99451 49.6742 5.84537C49.6725 5.83157 49.6672 5.81847 49.6587 5.80746C49.6503 5.79645 49.639 5.78794 49.626 5.78282ZM41.3702 51.8538C41.317 51.8478 41.2632 51.8531 41.2122 51.8693C41.1612 51.8856 41.1142 51.9124 41.0743 51.9481C41.0344 51.9837 41.0025 52.0274 40.9806 52.0762C40.9587 52.1251 40.9474 52.178 40.9474 52.2315C40.9474 52.285 40.9587 52.3379 40.9806 52.3868C41.0025 52.4356 41.0344 52.4793 41.0743 52.515C41.1142 52.5506 41.1612 52.5774 41.2122 52.5937C41.2632 52.6099 41.317 52.6152 41.3702 52.6092C41.4234 52.6152 41.4772 52.6099 41.5282 52.5937C41.5792 52.5774 41.6262 52.5506 41.6661 52.515C41.706 52.4793 41.738 52.4356 41.7598 52.3868C41.7817 52.3379 41.793 52.285 41.793 52.2315C41.793 52.178 41.7817 52.1251 41.7598 52.0762C41.738 52.0274 41.706 51.9837 41.6661 51.9481C41.6262 51.9124 41.5792 51.8856 41.5282 51.8693C41.4772 51.8531 41.4234 51.8478 41.3702 51.8538ZM57.521 31.6184C57.4572 31.6184 57.3961 31.6437 57.351 31.6888C57.3058 31.734 57.2805 31.7951 57.2805 31.8589C57.2805 31.9227 57.3058 31.9839 57.351 32.029C57.3961 32.0741 57.4572 32.0995 57.521 32.0995C57.5848 32.0995 57.646 32.0741 57.6911 32.029C57.7363 31.9839 57.7616 31.9227 57.7616 31.8589C57.7616 31.7951 57.7363 31.734 57.6911 31.6888C57.646 31.6437 57.5848 31.6184 57.521 31.6184ZM59.5128 32.6816C59.449 32.6816 59.3879 32.707 59.3427 32.7521C59.2976 32.7972 59.2723 32.8584 59.2723 32.9222C59.2723 32.986 59.2976 33.0472 59.3427 33.0923C59.3879 33.1374 59.449 33.1627 59.5128 33.1627C59.5766 33.1627 59.6378 33.1374 59.6829 33.0923C59.7281 33.0472 59.7534 32.986 59.7534 32.9222C59.7534 32.8584 59.7281 32.7972 59.6829 32.7521C59.6378 32.707 59.5766 32.6816 59.5128 32.6816ZM59.6524 30.3194C59.7162 30.3194 59.7773 30.294 59.8225 30.2489C59.8676 30.2038 59.8929 30.1426 59.8929 30.0788C59.8929 30.015 59.8676 29.9538 59.8225 29.9087C59.7773 29.8636 59.7162 29.8383 59.6524 29.8383C59.5886 29.8383 59.5274 29.8636 59.4823 29.9087C59.4372 29.9538 59.4118 30.015 59.4118 30.0788C59.4118 30.1426 59.4372 30.2038 59.4823 30.2489C59.5274 30.294 59.5886 30.3194 59.6524 30.3194ZM60.3355 34.6061C60.3993 34.6061 60.4605 34.5807 60.5056 34.5356C60.5507 34.4905 60.5761 34.4293 60.5761 34.3655C60.5761 34.3017 60.5507 34.2405 60.5056 34.1954C60.4605 34.1503 60.3993 34.125 60.3355 34.125C60.2717 34.125 60.2106 34.1503 60.1654 34.1954C60.1203 34.2405 60.095 34.3017 60.095 34.3655C60.095 34.4293 60.1203 34.4905 60.1654 34.5356C60.2106 34.5807 60.2717 34.6061 60.3355 34.6061ZM58.9836 30.9256C58.9198 30.9256 58.8586 30.9509 58.8135 30.996C58.7684 31.0412 58.7431 31.1023 58.7431 31.1661C58.7431 31.2299 58.7684 31.2911 58.8135 31.3362C58.8586 31.3813 58.9198 31.4067 58.9836 31.4067C59.0474 31.4067 59.1086 31.3813 59.1537 31.3362C59.1988 31.2911 59.2242 31.2299 59.2242 31.1661C59.2242 31.1023 59.1988 31.0412 59.1537 30.996C59.1086 30.9509 59.0474 30.9256 58.9836 30.9256ZM58.0214 32.8356C57.9576 32.8356 57.8964 32.8609 57.8513 32.906C57.8062 32.9512 57.7809 33.0123 57.7809 33.0761C57.7809 33.1399 57.8062 33.2011 57.8513 33.2462C57.8964 33.2914 57.9576 33.3167 58.0214 33.3167C58.0852 33.3167 58.1464 33.2914 58.1915 33.2462C58.2366 33.2011 58.262 33.1399 58.262 33.0761C58.262 33.0123 58.2366 32.9512 58.1915 32.906C58.1464 32.8609 58.0852 32.8356 58.0214 32.8356ZM58.5073 33.6294C58.4435 33.6294 58.3823 33.6548 58.3372 33.6999C58.2921 33.745 58.2668 33.8062 58.2668 33.87C58.2668 33.9338 58.2921 33.995 58.3372 34.0401C58.3823 34.0852 58.4435 34.1105 58.5073 34.1105C58.5711 34.1105 58.6323 34.0852 58.6774 34.0401C58.7225 33.995 58.7479 33.9338 58.7479 33.87C58.7479 33.8062 58.7225 33.745 58.6774 33.6999C58.6323 33.6548 58.5711 33.6294 58.5073 33.6294ZM26.7253 6.48524C26.7849 6.5178 26.8533 6.53067 26.9207 6.52203C26.9881 6.51339 27.051 6.48368 27.1005 6.43713C27.1413 6.41097 27.1701 6.36967 27.1805 6.3223C27.1909 6.27493 27.182 6.22538 27.1558 6.18455C27.1297 6.14372 27.0884 6.11495 27.041 6.10457C26.9936 6.0942 26.9441 6.10306 26.9033 6.12922C26.8566 5.73805 26.8712 5.34199 26.9466 4.95531C26.9483 4.90983 26.933 4.86534 26.9037 4.83052C26.8744 4.79571 26.8332 4.77309 26.788 4.76707C26.7429 4.76105 26.6972 4.77208 26.6598 4.798C26.6224 4.82391 26.596 4.86285 26.5857 4.9072C26.4077 6.2928 26.6194 6.44675 26.7253 6.48524Z" fill="#2A344A"/>
</svg>
