<svg width="83" height="74" viewBox="0 0 83 74" fill="none" xmlns="http://www.w3.org/2000/svg">
<path d="M60.1462 13.4441C60.2107 13.4441 60.2752 13.4226 60.2967 13.3581C60.4257 13.1646 60.4257 12.6916 60.1677 12.6916C59.9312 12.6916 59.9097 13.4011 60.1462 13.4441ZM61.5652 14.7341C61.6082 14.6481 61.5652 14.5621 61.4792 14.5406L61.1137 14.5191C61.1782 14.0461 61.3287 12.9066 61.3287 12.5626C61.3287 12.5196 61.3072 12.4551 61.2427 12.4551C61.1782 12.4336 61.1137 12.4551 61.0922 12.5196C61.0492 12.6486 60.6622 14.5406 60.8127 14.7341C60.9202 14.8846 61.3502 14.8631 61.5007 14.8201C61.5222 14.7986 61.5437 14.7771 61.5652 14.7341ZM60.6837 11.8316C60.7482 11.4876 60.0817 11.5521 59.8022 11.7456C59.4152 12.0036 59.6732 12.2401 59.8237 12.1111C59.9957 11.9606 60.2322 11.9176 60.4687 11.9606C60.5762 12.0036 60.6622 11.9391 60.6837 11.8316Z" fill="#2A344A"/>
<path d="M67.4347 18.7107C67.6927 18.653 66.5533 16.1952 67.0908 15.6577C68.9183 14.1312 69.6708 11.3147 69.6708 10.0892C70.9393 10.0892 70.9608 8.26171 70.1438 7.81021C71.4338 7.16521 70.5523 5.18721 68.8968 5.96121C69.0473 4.56371 67.3273 4.15521 66.2738 5.10121C65.9298 3.55321 63.4143 3.12321 62.2533 4.37021C62.4468 3.08021 59.8668 2.22021 59.3078 3.85421C58.3188 2.37071 55.0723 2.73621 55.3733 5.27321C53.2233 5.87521 54.3198 9.22921 56.0183 8.71321C55.7603 10.2182 57.8458 10.9707 59.0928 10.1967C58.8348 12.1962 58.418 17.3826 60.9589 18.9462M68.3593 9.53021C68.6173 9.80971 68.9613 10.0032 69.3483 10.0677C69.0258 12.1317 68.5958 13.5937 67.1768 15.1202C67.3058 14.5397 67.5423 13.9807 67.8863 13.4862C68.3593 12.6692 68.3378 12.0457 67.8433 11.7232C67.0908 11.2287 66.2953 12.0672 66.1663 12.1962C66.0158 12.1962 65.8223 12.0027 65.6933 11.8307C65.3708 11.3362 65.2633 10.5622 65.3708 9.48721C66.1233 10.3042 67.7143 10.4977 68.3593 9.53021ZM67.4347 18.7107L60.9589 18.9462C61.1544 18.5553 58.2225 17.7735 59.4583 10.0247C60.0388 10.9062 62.2963 10.6697 62.3608 9.59471C63.1133 10.3042 64.2743 10.3042 65.0268 9.59471C64.9623 10.1752 64.9193 11.3362 65.4138 12.0242C65.6073 12.3037 66.0157 12.6047 66.2522 12.3897C66.6822 12.0242 67.1338 11.6587 67.6283 11.9597C67.9938 12.1962 67.8003 12.8842 67.5638 13.2497C67.0693 14.1527 66.8758 14.0882 66.7038 15.3137C66.5103 16.7327 67.4347 18.7107 67.4347 18.7107Z" fill="#2A344A"/>
<path d="M63.887 11.2078C63.6505 10.8208 63.242 10.5843 62.812 10.5198C62.554 10.4768 62.5325 10.8853 62.812 10.8853C63.156 10.9068 63.4785 11.0788 63.672 11.3583C63.7795 11.5303 63.9945 11.3798 63.887 11.2078ZM62.511 12.9493C62.5325 13.0568 62.6185 13.1428 62.726 13.1428C62.9625 13.1428 62.9625 12.5193 62.812 12.4118C62.64 12.3043 62.425 12.6268 62.511 12.9493ZM62.1885 16.2173C62.124 16.2173 62.0595 16.2388 62.038 16.3033C62.0165 16.3678 62.038 16.4538 62.124 16.4753C62.597 16.6473 63.1345 16.4108 63.3495 15.9593C63.5 15.6368 63.4355 15.4863 63.3925 15.4218C63.371 15.3788 63.328 15.3573 63.3065 15.3358C63.2205 15.3143 63.156 15.3573 63.1345 15.4433C63.027 16.0023 62.726 16.3248 62.1885 16.2173Z" fill="#2A344A"/>
<path d="M25.2299 14.007C24.5849 14.394 23.7034 14.007 23.1444 13.534C23.0799 13.4695 22.9724 13.4695 22.8864 13.534C22.8649 13.577 22.8434 13.62 22.8434 13.663C22.9079 14.2005 23.2304 14.6735 23.7034 14.91C23.7464 14.9315 23.8109 14.91 23.8324 14.8455C23.8539 14.8025 23.8324 14.7595 23.8109 14.738C23.5744 14.566 23.4024 14.3295 23.3164 14.0715C23.7679 14.3725 24.6494 14.8025 25.3374 14.136C25.3804 14.1145 25.3804 14.05 25.3589 14.007C25.3374 13.964 25.2729 13.964 25.2299 14.007ZM25.5954 12.3515C25.5524 12.373 25.5309 12.4375 25.5524 12.4805C25.5739 12.5235 25.5954 12.545 25.6384 12.545C25.9824 12.545 26.2619 12.2655 26.2619 11.9215C26.2619 11.857 26.2404 11.7925 26.2189 11.728C26.0899 11.427 25.7889 11.47 25.7244 10.8035C25.7244 10.7605 25.6814 10.7175 25.6384 10.7175C25.5954 10.7175 25.5524 10.7605 25.5524 10.8035C25.5524 10.954 25.5524 11.126 25.5524 11.2765C25.6169 11.6635 25.9394 11.728 25.8749 12.0075C25.8534 12.158 25.7459 12.287 25.5954 12.3515ZM23.5099 10.137C23.5744 10.6745 23.3809 11.04 23.5314 11.212C23.6389 11.341 23.8324 11.341 23.9399 11.2335C24.0044 11.169 24.0474 11.1045 24.0474 11.0185C24.0474 10.696 24.0044 10.3735 23.9184 10.0725C23.8754 9.96496 23.7464 9.90046 23.6174 9.94346C23.5744 9.98646 23.5099 10.051 23.5099 10.137ZM27.0789 9.87896C27.0359 9.77146 26.9069 9.70696 26.7779 9.74996C26.6919 9.77146 26.6489 9.85746 26.6489 9.94346C26.6704 10.223 26.6489 10.524 26.6059 10.8035C26.6059 10.954 26.7134 11.1045 26.8854 11.1045H26.9069C27.3369 11.126 27.1864 10.5025 27.0789 9.87896ZM23.6174 8.84696C23.7034 8.82546 23.7679 8.73946 23.7464 8.63196C23.7249 8.54596 23.6604 8.50296 23.5959 8.50296C23.0799 8.45996 22.7359 9.04046 22.6714 9.25546C22.6284 9.36296 22.8004 9.42746 22.8649 9.31996C23.0154 9.06196 23.3164 8.86846 23.6174 8.84696ZM26.3909 8.76096C27.0359 8.76096 27.0574 9.01896 27.1649 9.01896C27.2079 9.01896 27.2509 8.97596 27.2724 8.93296C27.2724 8.91146 27.2724 8.88996 27.2509 8.86846V8.84696C27.1864 8.71796 27.0144 8.35246 26.3479 8.45996C26.1759 8.48146 26.1974 8.76096 26.3909 8.76096ZM25.7674 22.306C25.9394 22.306 26.0684 22.177 26.0684 22.005C26.0684 21.833 25.9394 21.704 25.7674 21.704C25.5954 21.704 25.4664 21.833 25.4664 22.005C25.4664 22.177 25.5954 22.306 25.7674 22.306ZM25.8534 23.6605C25.8749 23.8325 26.0469 23.9615 26.2189 23.94C26.3694 23.9185 26.4984 23.811 26.4984 23.6605C26.4769 23.4885 26.3049 23.3595 26.1329 23.381C25.9824 23.381 25.8534 23.51 25.8534 23.6605Z" fill="#2A344A"/>
<path fill-rule="evenodd" clip-rule="evenodd" d="M39.3768 9.42865C38.8608 9.47165 38.3448 9.36415 37.8933 9.08465C37.4203 8.71915 37.1193 8.18165 37.0333 7.62265C36.9043 6.99915 36.8613 2.84965 36.9043 2.46265C36.9903 1.30165 37.5278 0.699646 38.6243 0.613646C38.8178 0.592146 46.9018 0.420146 47.0308 0.420146C48.3423 0.377146 48.9228 1.49515 48.9228 2.80665C48.9251 3.28595 48.9277 3.72508 48.9301 4.12766C48.9496 7.42706 48.9546 8.27141 48.6863 8.65465C48.3489 9.13416 47.0432 9.08555 46.1992 9.05412C46.0215 9.0475 45.8642 9.04165 45.7408 9.04165C45.7408 9.64663 45.972 9.8817 46.1253 10.0375C46.228 10.142 46.2957 10.2109 46.2353 10.3316C46.1923 10.4176 46.1063 10.4606 45.9988 10.4391C45.881 10.4055 45.3776 10.2367 44.8022 10.0438C43.9077 9.7439 42.8392 9.38565 42.7738 9.38565C42.7279 9.38565 42.137 9.39349 41.4598 9.40247C40.5513 9.41453 39.4877 9.42865 39.3768 9.42865ZM42.2364 7.34348C42.3009 7.42948 42.4298 7.42948 42.5159 7.36498C42.5241 7.35677 42.5291 7.34856 42.5335 7.34154C42.5405 7.33019 42.5456 7.32198 42.5589 7.32198C43.4834 5.70948 44.5369 4.13998 45.6979 2.67798C45.7409 2.63498 45.7194 2.57048 45.6764 2.52748C45.6334 2.50598 45.5904 2.50598 45.5474 2.52748C44.2574 3.79598 43.1609 5.25798 42.3439 6.87048C41.7419 6.16098 41.0754 5.51598 40.3658 4.91398C40.1508 4.76348 40.0219 4.89248 40.0864 5.10748C40.1294 5.15048 41.9139 6.93498 42.2364 7.34348Z" fill="#4E6AF3"/>
<path d="M26.943 68.7023C26.341 68.2723 23.8255 66.1223 23.4815 65.8428L23.481 65.8428L23.3955 66.1438C23.675 66.4018 26.771 68.8958 26.9 68.8958C26.9645 68.8958 26.986 68.8313 26.986 68.7883C26.9645 68.7453 26.9645 68.7238 26.943 68.7023Z" fill="#2A344A"/>
<path d="M29.401 67.3079C28.7345 66.8134 24.757 63.5239 24.3485 63.2659C24.284 63.2229 24.198 63.2229 24.155 63.2874C24.112 63.3519 24.112 63.4379 24.1765 63.4809C24.413 63.7604 29.2505 67.4799 29.3365 67.4799C29.401 67.4799 29.4225 67.4369 29.4225 67.3724C29.444 67.3509 29.4225 67.3079 29.401 67.3079ZM30.691 65.0934C30.0675 64.6419 26.95 61.8684 26.649 61.6534C26.4985 61.5459 26.348 61.7609 26.4555 61.8684C26.7565 62.2554 30.5405 65.2439 30.6265 65.2439C30.6695 65.2439 30.7125 65.1794 30.7125 65.1364C30.7125 65.1364 30.691 65.1149 30.691 65.0934ZM27.939 60.1914C27.7885 60.0624 27.595 60.3204 27.724 60.4494C28.154 60.8364 31.035 63.2444 31.293 63.2444C31.336 63.2444 31.4005 63.2014 31.4005 63.1584C31.4005 63.1154 31.379 63.0724 31.336 63.0724C31.035 62.8789 28.498 60.6214 27.939 60.1914Z" fill="#2A344A"/>
<path d="M56.3618 58.084C56.1253 57.912 55.9103 58.041 55.7168 58.1485C54.7708 58.686 53.8678 59.331 53.0723 60.062C52.4703 57.052 52.0403 54.988 52.0188 54.902C51.8898 54.5795 51.5243 54.687 51.2663 54.7085L50.4278 54.816V54.214C50.4493 54.128 50.4063 54.042 50.3203 53.999C50.2988 53.999 50.2773 53.999 50.2558 53.999C49.0303 54.0205 38.9038 54.0635 38.9038 54.0635C38.7748 54.0635 36.7538 60.406 35.7003 63.674C35.2488 62.9 34.6683 62.1905 34.0233 61.5885L35.2058 58.1915C35.2703 58.342 35.2703 58.514 35.2273 58.6645C35.1843 58.944 34.7113 60.922 34.6468 61.18C34.6468 61.223 34.6683 61.266 34.7113 61.266C34.7543 61.266 34.7758 61.266 34.7973 61.223C35.0983 60.2985 35.3348 59.374 35.5498 58.428C35.5498 58.213 35.4423 58.0195 35.2703 57.912C35.3133 57.74 35.3348 57.5465 35.3348 57.3745C35.3348 57.138 35.3778 56.8585 35.1413 56.6865C34.4748 56.2565 33.9588 57.3315 34.0233 57.353C33.9158 57.5895 33.3568 58.9655 32.7333 60.535C31.8733 59.9115 28.8203 57.9335 28.6053 57.869C28.4978 57.8475 16.8233 64.6845 16.7373 64.749C16.5438 64.9425 16.7373 65.2005 16.8448 65.3725C17.2748 65.9745 24.1763 71.199 25.0148 71.7365C25.1653 71.8655 25.3588 71.9515 25.5523 71.973C25.8963 71.973 32.0883 68.834 34.5823 67.114C33.9158 69.178 33.6793 69.9305 33.6148 70.21C33.5503 70.4895 33.7653 70.4895 33.8513 70.425C33.9373 70.3605 34.6683 70.425 35.6573 70.425C35.8723 71.5645 35.6788 71.9515 35.8078 72.0805C35.9368 72.2095 51.4383 71.7365 54.5343 71.242C57.4583 73.65 57.2218 73.6715 57.8023 73.263C58.1248 73.0265 64.2093 67.974 64.8973 67.3505C64.9403 67.329 64.9403 67.286 64.9403 67.2215C64.9833 67.028 56.5123 58.213 56.3618 58.084ZM34.2383 57.568C34.4533 57.6325 34.6683 57.74 34.8618 57.869C34.9263 57.9335 34.9048 57.9765 34.8618 58.1055C34.8618 58.1055 32.2173 65.738 32.0453 66.2755C31.6583 66.1895 31.2928 66.0605 30.9488 65.8885C33.2278 60.2125 33.9158 58.3205 34.2383 57.568ZM32.0453 66.555C32.1313 67.5655 31.8948 67.3075 31.1208 68.275C31.1853 68.0385 31.2928 67.7375 31.3358 67.587C31.5938 67.587 31.8088 67.3935 31.8088 67.1355C31.8088 66.8775 31.6153 66.6625 31.3573 66.6625C31.0993 66.6625 30.8843 66.856 30.8843 67.114C30.8843 67.2645 30.9488 67.415 31.0778 67.501C31.0348 67.673 30.9058 68.0815 30.8198 68.3825C30.5833 67.4795 30.0458 67.415 30.9058 66.1895C31.2498 66.3615 31.6368 66.4905 32.0453 66.555ZM30.6693 66.039C29.6158 67.5225 30.5188 67.673 30.6048 68.9845C30.6048 69.0275 30.6263 69.0705 30.6478 69.092C28.9278 70.0165 27.5303 70.7045 25.7673 71.586C25.6598 71.6505 25.5738 71.672 25.5093 71.629C22.5638 69.608 19.7473 67.3935 17.0598 65.007C17.0598 64.964 17.0598 64.964 17.0813 64.9425L28.6053 58.1485C28.7343 58.2345 32.1313 60.406 32.6473 60.7715C30.4328 66.383 30.5833 65.9315 30.6693 66.039ZM31.9378 67.7805C32.2818 67.4365 32.4108 66.9635 32.3033 66.4905C32.4538 66.082 33.2063 63.975 33.9158 61.954C34.5823 62.556 35.1413 63.2655 35.6143 64.0395C35.3133 64.964 35.0338 65.8455 34.7758 66.641C33.5503 67.4795 32.2603 68.2535 30.9488 68.9415C31.2283 68.533 31.5723 68.146 31.9378 67.7805ZM35.0338 57.6325C34.7973 57.5035 34.5608 57.3745 34.3243 57.2885C34.4533 56.9875 34.7543 56.6865 35.0338 56.88C35.1628 57.0305 35.0768 57.396 35.0338 57.6325ZM50.8578 69.995C50.9438 70.0165 51.0298 69.9735 51.0513 69.909C51.0513 69.8875 51.0513 69.866 51.0513 69.8445C50.9223 68.0815 50.5353 58.3635 50.4278 55.1815C51.6963 55.031 51.6533 55.0095 51.6748 55.074C51.6963 55.1385 54.6848 70.1885 54.8568 70.898C53.6098 71.07 37.6998 71.8655 36.0873 71.8225C36.1088 71.3495 36.0658 70.855 35.9583 70.382C40.3658 70.296 49.9978 70.038 50.8578 69.995ZM50.1053 54.3645C50.0408 56.493 50.5568 68.146 50.7073 69.7155C41.6773 69.8875 34.8618 70.1025 34.0018 70.1455C34.5393 68.49 37.1623 60.4705 38.9898 54.4505C41.3763 54.386 48.0198 54.3645 50.1053 54.3645ZM55.2008 71.07C55.2223 71.0485 55.2438 71.027 55.2438 71.0055C55.2438 70.855 55.3513 71.586 54.0828 65.179C54.1258 65.2435 54.2118 65.265 54.2763 65.222C54.4483 65.136 57.2003 62.513 57.7808 61.997C57.8668 61.911 57.7378 61.782 57.6518 61.868C57.0283 62.4055 54.1688 64.835 54.0613 65.007C54.0398 65.05 54.1043 65.3295 53.6313 62.9215C54.1688 62.4915 55.7813 61.0295 56.2113 60.664C56.3188 60.578 56.1898 60.4275 56.0823 60.5135C55.5018 60.9435 54.1258 62.04 53.5453 62.556C53.3948 61.825 53.2658 61.1155 53.1153 60.449C54.0613 59.675 55.0718 58.987 56.1253 58.3635C56.5553 58.772 63.9298 66.4905 64.5748 67.2C64.4243 67.329 57.7593 72.8545 57.4153 73.091C57.1573 72.9835 55.3083 71.5 54.8998 71.1775C55.0073 71.1345 55.1148 71.113 55.2008 71.07Z" fill="#2A344A"/>
<path d="M59.2642 63.9098C59.3717 63.8238 59.2427 63.6948 59.1352 63.7593C58.3612 64.3828 55.1147 67.2208 54.7922 67.5863C54.7277 67.6508 54.7492 67.7583 54.8137 67.8013C54.8352 67.8228 54.8782 67.8443 54.9212 67.8443C55.0502 67.8443 58.2537 64.7483 59.2642 63.9098ZM55.3727 69.6718C55.3082 69.7363 55.3297 69.8438 55.3942 69.8868C55.4157 69.9083 55.4587 69.9298 55.4802 69.9298C55.5662 69.9298 55.5232 69.9513 58.1462 67.8228C60.6832 65.7373 60.5757 65.8878 60.5542 65.8233C60.5542 65.7803 60.5112 65.7373 60.4467 65.7373C60.4252 65.7373 60.4252 65.7373 60.4037 65.7588C59.1137 66.6618 55.5447 69.4568 55.3727 69.6718ZM56.9207 70.8973C56.8562 70.9618 56.8562 71.0478 56.9207 71.1123C56.9852 71.1768 57.0712 71.1768 57.1357 71.1123C57.4582 70.8543 61.2637 67.5648 61.7152 67.1993C61.7582 67.1778 61.7582 67.1133 61.7367 67.0703C61.7152 67.0273 61.6507 67.0273 61.6077 67.0488C60.9197 67.6078 57.6517 70.1448 56.9207 70.8973ZM47.3102 63.9528C46.6867 63.9958 40.6667 63.8883 40.1077 63.8453C39.7852 63.8023 39.4627 63.8238 39.1617 63.8883C38.8392 63.9528 38.5167 64.1678 38.2157 64.0388C38.1082 63.9958 38.0222 64.1463 38.1297 64.1893C38.5597 64.3828 38.8822 64.0388 39.7207 64.0603C40.3872 64.0603 46.6007 64.3398 47.3102 64.2753C47.5252 64.2753 47.5252 63.9528 47.3102 63.9528ZM38.1297 62.1683C39.8497 62.4263 43.3112 62.5338 45.8482 62.6198C47.1812 62.6628 48.2347 62.7058 48.5142 62.7273C48.6217 62.7488 48.7077 62.6843 48.7292 62.5768C48.7722 62.3188 48.8367 62.3403 42.7092 62.1468C40.5592 62.0823 38.5382 62.0178 38.1942 61.9748C38.1512 61.9748 38.1082 61.9963 38.0867 62.0393C38.0437 62.1038 38.0867 62.1683 38.1297 62.1683ZM38.8177 60.4053C38.7747 60.4053 38.7317 60.4483 38.7317 60.4913C38.7317 60.5343 38.7747 60.5773 38.8177 60.5773C48.0842 60.7923 47.8477 60.8998 47.8692 60.6418C47.8907 60.3838 47.9767 60.4913 38.8177 60.4053ZM38.7102 58.9003C40.0002 58.7713 47.8907 58.8143 48.6002 58.9003C48.7937 58.9003 48.8152 58.6208 48.6002 58.5993C47.3102 58.4488 39.4197 58.6638 38.6672 58.7498C38.6242 58.7713 38.6242 58.8358 38.6457 58.8788C38.6457 58.9003 38.6887 58.9003 38.7102 58.9003ZM39.5702 57.1588C40.3872 56.8148 41.3117 56.7288 42.1717 56.9223C42.4512 56.9653 42.7522 56.9653 43.0317 56.9223C43.3112 56.9008 43.6122 56.9223 43.8917 56.9653C44.5152 57.0298 46.5147 56.8578 48.7077 56.8363C48.8582 56.8363 48.9012 56.5783 48.7292 56.5568C47.5037 56.4923 46.2782 56.5138 45.0527 56.6213C43.7412 56.7718 43.8057 56.5568 43.2252 56.5998C42.9457 56.6428 42.6447 56.6643 42.3652 56.6428C41.3117 56.5353 41.3332 56.3848 39.5272 56.9653C39.4627 56.9868 39.4412 57.0298 39.4412 57.0943C39.4412 57.1373 39.5057 57.1803 39.5702 57.1588ZM39.5917 55.5033C40.4517 55.6968 41.2257 55.0088 41.9997 55.4173C42.4297 55.5463 42.8597 55.2883 43.2252 55.2883C43.2252 55.2883 47.0952 55.5463 47.7832 55.5463C47.9337 55.5463 48.0842 55.5463 48.0842 55.4173C48.0842 55.3528 48.0412 55.3098 47.9767 55.3098C47.3747 55.2668 43.7627 54.9873 43.4617 54.9658C43.0532 54.9873 42.6662 55.0303 42.2792 55.1378C42.1502 55.1163 42.0212 55.0948 41.8922 55.0303C41.0752 54.7723 40.3872 55.4603 39.6132 55.3098C39.5487 55.2883 39.5057 55.3313 39.4842 55.3958C39.4842 55.4173 39.5272 55.4818 39.5917 55.5033Z" fill="#2A344A"/>
<path fill-rule="evenodd" clip-rule="evenodd" d="M60.5917 18.4881C60.5931 18.6383 60.5976 18.9185 60.6126 19.1143C60.4651 19.2618 60.3226 19.4018 60.1843 19.5376C59.9196 19.7976 59.6702 20.0426 59.4301 20.2968C57.3876 21.0923 55.7751 22.6618 54.9151 24.6828C54.5406 25.541 53.5093 28.3812 52.7909 30.3593C52.5195 31.1066 52.2928 31.7309 52.1631 32.0788C52.0986 32.3368 51.9481 32.5518 51.7331 32.6808C51.5934 32.7453 49.7712 33.2936 47.949 33.8418C46.1269 34.3901 44.3049 34.9383 44.1651 35.0028C43.9716 35.0888 43.8211 35.2178 43.7351 35.4113C43.4275 35.3689 43.1304 35.2584 42.8308 35.1471C42.5232 35.0327 42.2129 34.9174 41.8861 34.8738C41.3271 34.7448 40.7251 34.9168 40.3166 35.3253C39.8436 35.2608 38.5966 35.2178 38.1451 35.2178C38.1021 34.9598 37.8871 34.7663 37.6291 34.7233C37.3926 34.6803 31.5231 33.8633 31.3726 33.8633C31.0716 30.6168 30.4696 26.9833 30.0826 25.0483C30.3458 23.2496 29.9725 22.3461 29.3821 20.9171C29.1044 20.2451 28.7787 19.4569 28.4486 18.4048C28.7066 18.6843 29.0076 18.9208 29.3516 19.0928C29.3731 19.1143 29.4161 19.0928 29.4376 19.0713C29.452 19.057 29.4472 19.0426 29.4424 19.0283C29.44 19.0211 29.4376 19.014 29.4376 19.0068C28.7066 17.6308 28.1476 16.1688 27.7176 14.6638C27.9326 12.6643 27.9111 10.6433 27.6316 8.64379H28.0616C28.1046 8.64379 28.1261 8.62229 28.1261 8.57929C28.2551 6.60129 27.2446 4.70929 25.5031 3.74179C25.7611 3.72029 26.0406 3.72029 26.2986 3.76329C26.3416 3.78479 26.3631 3.76329 26.3846 3.72029C26.4061 3.67729 26.3846 3.65579 26.3416 3.63429C25.0086 2.88179 23.4391 2.64529 21.9556 2.96779C22.0416 2.73129 22.1706 2.49479 22.3426 2.32279C22.3641 2.30129 22.3641 2.27979 22.3426 2.25829C22.2996 2.10779 21.5686 2.25829 21.2031 2.81729C21.0741 2.62379 21.0741 2.38729 21.1816 2.19379C21.3321 1.95729 20.5151 2.15079 20.5581 2.79579C19.9991 2.51629 19.3541 2.55929 18.8166 2.86029C18.7951 2.88179 18.7736 2.92479 18.7951 2.94629C18.8166 2.98929 18.8381 2.98929 18.8811 2.98929C19.1606 2.98929 19.4186 3.07529 19.6551 3.20429C15.6131 4.79529 14.8391 8.90179 14.6456 10.6003C14.5522 11.4933 14.5741 12.0001 14.5999 12.598C14.6275 13.238 14.6597 13.9823 14.5596 15.4163C14.2801 19.5873 11.5926 27.5208 10.7326 29.8428C9.65763 32.3368 11.2916 33.9708 13.8716 34.7878C13.9146 36.1423 13.9791 37.9913 14.0866 38.5718C14.2156 39.3458 14.5811 40.0768 15.1616 40.6143C15.0326 41.1088 14.9681 41.6248 15.0111 42.1193C14.6886 42.3773 14.4521 42.7213 14.3231 43.1083C13.9791 43.8178 12.9041 50.9558 11.7431 58.9108C8.73313 60.2438 5.44363 61.9208 1.14363 64.2428C0.713634 64.4793 1.03613 64.6728 1.31563 64.5223C14.5166 57.7068 20.1066 55.3203 37.0701 53.8798C39.7121 53.6565 42.4186 53.6426 45.064 53.6289C45.4755 53.6268 45.8855 53.6247 46.2936 53.6218C58.3336 53.5573 71.0401 56.7608 82.5211 60.6953C82.8221 60.8028 82.7791 60.5233 82.6286 60.4588C78.8876 58.8463 75.0391 57.5348 71.1046 56.5028C71.1046 55.8793 71.0186 54.6538 70.9541 54.2238C71.1906 54.0088 71.4056 53.7723 71.5561 53.4928C71.8571 52.9768 74.7381 46.7418 74.8456 46.0753C74.9746 45.5378 74.8671 44.9788 74.5661 44.5058C74.3689 44.2264 73.732 43.9093 73.2316 43.6602C73.0774 43.5834 72.9361 43.5131 72.8246 43.4523C73.3836 42.9793 74.9316 41.6678 74.9316 41.6678C76.6301 40.2703 76.8881 38.8513 76.7591 37.0023C76.3506 31.6918 75.5551 25.6933 71.7066 21.3933C70.8466 20.4473 69.9006 19.5658 68.6966 19.5228C68.5704 19.018 67.8888 18.575 67.3963 18.3949C67.4173 18.4143 67.4281 18.434 67.428 18.454C67.4268 18.6915 65.8857 18.8761 63.9858 18.8664C62.2737 18.8577 60.8546 18.6941 60.5917 18.4881ZM66.8476 40.0983C65.6221 39.4748 62.3756 37.5398 61.6231 37.0453C61.5483 36.9949 61.4765 36.946 61.4074 36.899C60.5039 36.2838 60.0632 35.9838 59.3441 36.7228C58.3547 37.7122 57.6222 40.1641 57.2792 41.312C57.2645 41.3614 57.2504 41.4084 57.2371 41.4528C58.8711 42.8718 60.6556 44.0758 62.5476 45.0863C62.6981 45.0003 62.8486 44.8928 62.9776 44.7638C62.7411 44.6348 62.5906 44.3983 62.5476 44.1403C62.5476 43.9898 62.6551 43.8608 62.8056 43.8178C62.8916 43.7963 62.9991 43.7963 63.0851 43.8178C63.5366 43.8823 64.0096 43.7748 64.3751 43.5168C64.3321 43.2373 64.4396 42.9578 64.6331 42.7643L66.8476 40.0983ZM24.8796 48.0533C24.7076 48.0963 24.6001 48.2683 24.6431 48.4403V48.4188C24.8474 49.3325 25.1054 50.4558 25.3633 51.5791C25.6214 52.7026 25.8794 53.826 26.0836 54.7398L26.7286 54.6323C26.2986 52.8048 25.6751 50.1173 25.2666 48.2898C25.2236 48.1178 25.0516 48.0103 24.8796 48.0533ZM61.7306 46.5053C61.4081 46.5053 61.3006 46.3763 61.2576 46.2903C61.1756 46.0277 61.5946 45.7025 61.9219 45.4485C62.0234 45.3697 62.116 45.2978 62.1821 45.2368C58.7636 43.2588 57.4306 42.0118 57.1081 41.6678C56.8716 42.4418 56.6136 43.2158 56.3126 44.0543C55.6676 45.7743 55.7321 46.9783 56.5276 47.7953C56.5787 47.8463 56.6141 47.8837 56.6526 47.9176C56.873 48.1122 57.1923 48.1949 61.1286 50.1173C64.6546 51.8588 69.4706 54.2238 69.9436 54.2238C70.8036 54.1808 71.2551 53.2133 71.5561 52.5683L72.9536 49.5583C71.6058 49.8318 69.9385 49.0404 66.1296 47.2325C65.7463 47.0505 65.3412 46.8583 64.9126 46.6558C64.7143 46.8134 64.5377 46.9638 64.3758 47.1016C63.8534 47.5464 63.4853 47.8598 63.0421 47.8598H62.9561C62.5906 47.8383 62.3111 47.5158 62.3326 47.1503C61.6876 47.2578 61.5371 46.8278 61.7306 46.5053ZM73.3663 44.2053C73.0188 44.0205 72.6587 43.829 72.4806 43.7103C70.8681 45.1078 69.0191 46.2473 66.9981 47.0643C66.8261 47.1073 66.6326 47.1073 66.4606 47.0643C68.3311 47.8813 71.2121 49.1283 71.5991 49.2143C72.0936 49.3003 72.6096 49.3003 73.1256 49.2358C73.3621 48.7198 74.5661 45.9678 74.5016 45.4303C74.4801 45.1508 74.3726 44.9143 74.2221 44.6993C74.1641 44.6296 73.7739 44.4221 73.3663 44.2053ZM65.7787 46.2798C65.7432 46.2224 65.7055 46.1614 65.6651 46.0968C65.5576 46.2043 65.3641 46.3548 65.1706 46.5053L66.3746 47.0213C66.1678 46.9084 66.0267 46.6805 65.7787 46.2798ZM63.37 46.7105C63.1235 46.8896 62.5524 47.3046 62.7626 47.4728H62.7841C63.1891 47.7843 63.6393 47.3849 64.4207 46.6915C64.7178 46.4278 65.0629 46.1216 65.4716 45.7958C65.1862 45.3201 64.7156 44.373 64.5068 43.9527C64.4797 43.8981 64.4569 43.8524 64.4396 43.8178C63.9881 44.0973 63.4506 44.2263 62.9346 44.1403C62.9205 44.1403 62.9074 44.1393 62.8955 44.1383C62.8533 44.135 62.8271 44.1329 62.8271 44.1833C62.8545 44.2929 63.1004 44.4638 63.3141 44.6122C63.4355 44.6966 63.5466 44.7737 63.6011 44.8283C63.6226 44.8713 63.6226 44.8928 63.6226 44.9358C63.6226 45.0218 63.5581 45.0648 63.4936 45.0433C63.3861 45.0218 63.2786 44.9788 63.1926 44.9358C63.1276 44.989 62.9846 45.0942 62.8091 45.2232C62.3464 45.5636 61.6581 46.0699 61.5801 46.2258C62.1282 46.2632 62.6402 46.0263 62.9948 45.8622C63.2523 45.7431 63.4269 45.6623 63.4721 45.7528C63.5115 45.8513 63.4607 45.8776 63.0051 46.113C62.9635 46.1344 62.9186 46.1576 62.8701 46.1828C62.8383 46.201 62.7739 46.2268 62.6928 46.2593C62.3903 46.3807 61.8563 46.5949 61.9241 46.8493C61.9596 46.9558 62.1563 46.945 62.2843 46.9381C62.3114 46.9366 62.3354 46.9353 62.3541 46.9353C62.7626 46.8493 63.1281 46.6773 63.4506 46.4408C63.4936 46.4193 63.5366 46.4193 63.5581 46.4623C63.6107 46.5323 63.5348 46.5881 63.4468 46.6529C63.4268 46.6676 63.4061 46.6828 63.3861 46.6988L63.37 46.7105ZM65.3117 52.6025C61.7067 50.8796 56.5416 48.4112 56.3126 48.0963L56.3341 48.1178C55.3236 47.0858 55.5171 45.7313 55.9256 44.4843C55.4741 44.3553 55.0441 44.1618 54.6356 43.9253C54.5711 44.8713 54.1411 53.2348 54.1196 53.6648C55.9901 53.8153 57.8391 54.0303 59.6666 54.2883C59.607 54.0123 59.5266 53.5941 59.4408 53.1475C59.2792 52.3067 59.0984 51.3656 59.0001 51.0848C58.9786 50.9558 59.0431 50.8268 59.1506 50.7838C59.2796 50.7193 59.4086 50.7838 59.4731 50.9128C59.8171 52.0523 60.1181 53.1918 60.3331 54.3528C63.7731 54.8688 67.1701 55.5568 70.5456 56.4168C70.5398 56.277 70.534 56.1073 70.5277 55.9251C70.5109 55.4347 70.491 54.854 70.4596 54.5248C69.8791 54.7183 69.2341 54.6108 68.7396 54.2668C68.5384 54.1446 67.1217 53.4675 65.3117 52.6025ZM29.8257 51.888C30.0258 52.7156 30.2125 53.4877 30.3621 54.1163L30.9856 54.0303C30.6631 52.6973 30.1686 50.6333 29.7386 48.7843C29.6956 48.6123 29.5451 48.5048 29.3731 48.5478C29.2011 48.5908 29.0721 48.7628 29.1151 48.9348C29.3456 49.9027 29.5946 50.9323 29.8257 51.888ZM40.9831 38.3138C40.8111 38.6148 40.5746 38.8728 40.2951 39.0878L40.3381 39.0663C40.3381 39.077 40.3328 39.0824 40.3274 39.0878C40.322 39.0932 40.3166 39.0985 40.3166 39.1093C40.2951 39.2813 40.7251 39.5178 41.4131 38.5073C41.6262 38.178 41.368 38.2326 41.0789 38.2939C41.0472 38.3006 41.015 38.3074 40.9831 38.3138ZM39.4096 38.5303C39.672 38.3588 39.951 38.1765 40.0371 37.8838H40.0586C40.0586 37.8193 39.9941 37.7548 39.8651 37.7548C39.4351 37.7548 38.6181 38.5073 38.8546 38.7438C38.9264 38.8156 39.0432 38.7525 39.1548 38.6922C39.1769 38.6803 39.1988 38.6684 39.2201 38.6578C39.2801 38.6149 39.3444 38.573 39.4096 38.5303ZM39.4136 38.8513C39.4566 39.5393 40.1661 38.9158 40.5961 38.3783H40.6391C41.0046 37.9483 40.4241 37.9913 40.3166 38.0558C40.1833 38.3559 39.8948 38.5396 39.6316 38.7072C39.5554 38.7558 39.4812 38.803 39.4136 38.8513ZM17.2471 21.4363C15.6346 21.9308 14.1081 23.9088 14.2371 26.5103C14.3432 28.4465 14.3112 30.5537 14.2815 32.5043C14.239 35.297 14.2014 37.7689 14.5811 38.9588C15.0507 40.5121 15.9603 40.7757 17.1697 41.1261C17.4 41.1929 17.6411 41.2628 17.8921 41.3453C23.4176 43.0438 27.8251 42.8073 30.9641 40.6143C31.0286 40.0338 31.0716 39.4748 31.0931 38.8943C30.7963 38.9156 30.5113 38.9371 30.2372 38.9579C26.0838 39.272 24.402 39.3992 21.0741 35.6478C18.6016 32.8743 16.0861 29.7783 16.4731 26.1018C16.4731 26.0588 16.5161 26.0158 16.5591 26.0158C16.6236 25.9943 16.6666 26.0373 16.6881 26.1018C16.4516 29.0043 18.2146 31.6918 20.1496 33.9923C23.9121 38.5073 25.3311 38.9588 28.9216 38.7223C28.9803 38.7181 29.3151 38.6935 29.8216 38.6562C31.9133 38.5025 36.9331 38.1334 37.5216 38.0988C37.6291 37.4323 37.6936 36.7228 37.7366 35.9058C37.7366 35.8571 37.7397 35.8015 37.7429 35.7428C37.7568 35.4904 37.7739 35.1801 37.5646 35.1103C37.5431 35.1103 30.9211 34.2073 30.4481 34.0783C29.8891 33.9493 29.3731 33.6053 29.0076 33.1323C28.6206 32.6163 25.3526 27.4993 24.5571 26.2523C24.5356 26.2308 24.5571 26.1878 24.5786 26.1663C24.6001 26.1448 24.6431 26.1663 24.6646 26.1878C25.0381 26.6614 25.9055 27.9532 26.8173 29.311C28.0576 31.1582 29.38 33.1275 29.6526 33.3258C30.0611 33.6053 30.5126 33.7773 31.0071 33.8418C30.9211 32.8958 30.1471 27.2843 29.7171 24.8118L27.7606 21.1138C27.4844 21.4245 27.4161 21.6383 27.3137 21.6561C27.1609 21.6828 26.9323 21.2743 25.8256 20.1033C26.4491 21.6728 26.9436 23.2853 27.3091 24.9408C27.2446 25.3923 26.7931 25.5858 26.5566 25.3923C26.5136 25.3493 26.4706 25.2848 26.4921 25.2203C26.5136 25.1343 26.5996 25.0913 26.6856 25.1128C26.8576 25.1558 26.9436 24.9408 26.9436 24.8118C26.9436 24.6828 25.5891 19.8668 25.4386 19.7163C25.3956 19.6733 25.3956 19.5873 25.4171 19.5228C25.5676 19.1788 25.7396 18.8563 25.9331 18.5338C25.3311 18.1468 24.9656 17.4803 24.9441 16.7493C24.9441 16.7063 24.9871 16.6848 25.0086 16.6848C26.0836 16.5128 26.9651 15.7603 27.3306 14.7498C27.5671 12.7288 27.5456 10.6648 27.2876 8.64379C26.1696 8.55779 25.0731 7.67629 24.2346 6.92379C23.8046 6.55829 23.7186 6.90229 23.8476 7.07429C24.0626 7.31079 25.0301 8.60079 24.7076 8.60079C23.5466 8.49329 22.4286 8.06329 21.5041 7.35379C21.3543 7.87275 21.2471 8.32115 21.1537 8.71191C20.8717 9.89146 20.7153 10.5458 19.8916 11.0303H19.8701C19.8271 11.0303 19.8056 11.0303 19.7841 10.9873C19.6336 10.5143 19.2681 10.1488 18.7951 9.99829C18.5156 9.97679 18.2146 10.0628 18.0211 10.2778C17.6556 10.6648 17.6556 11.2883 18.0426 11.6538C18.3436 11.8903 18.7306 11.9978 19.1176 11.9333C19.1491 11.9584 19.1787 12.0865 19.2349 12.3298C19.371 12.9187 19.6631 14.183 20.5151 16.2978C21.9126 17.3728 24.6216 19.2433 24.8151 19.3723C24.9656 19.4368 25.0516 19.5873 25.0516 19.7378C25.0516 19.8906 24.7583 21.2603 24.55 22.2327C24.4653 22.6282 24.3947 22.9579 24.3636 23.1133V23.1348C24.3206 23.2208 24.2131 23.2638 24.1271 23.2208C23.2671 22.9198 22.1491 22.0383 21.2891 21.1783C21.4181 21.5223 21.6116 21.8663 21.8266 22.1888C22.2136 22.6618 22.3856 23.2638 22.3211 23.8658C22.3129 23.874 22.3078 23.8822 22.3035 23.8892C22.2965 23.9006 22.2914 23.9088 22.2781 23.9088C22.2566 23.9303 22.2136 23.9088 22.1921 23.8873C21.2246 22.2748 19.1176 20.8773 17.2471 21.4363ZM21.0741 17.5878C21.0526 17.6308 21.0311 17.6523 20.9881 17.6308C20.5796 17.4373 20.1926 17.1793 19.8486 16.8568C20.1281 18.0608 20.4936 19.2433 20.9451 20.4043C21.8696 21.3073 22.9231 22.1028 24.0626 22.7478C24.2991 21.7158 24.6861 19.7163 24.6861 19.6733C24.6861 19.6605 24.5031 19.5409 24.1984 19.3419C23.4798 18.8724 22.0844 17.9608 20.8161 16.9643C20.9021 17.1578 20.9881 17.3513 21.0741 17.5233V17.5878ZM27.2661 21.1998C27.3951 21.0278 27.5456 20.8558 27.6961 20.7053C27.7386 19.9625 27.4668 19.5549 27.0875 18.9861L27.0726 18.9638C26.6856 18.3833 26.5566 18.3833 26.5136 18.3833C26.3631 18.4048 26.2556 18.4693 26.1696 18.5983C25.9976 18.8993 25.8471 19.2003 25.7181 19.5228C26.2771 20.0603 26.7931 20.6193 27.2661 21.1998ZM32.2756 38.8513L31.4156 38.9158C31.4371 39.9693 31.3081 41.0443 31.0716 42.0978C31.8651 42.7723 31.9448 43.1356 32.1044 43.8632C32.1177 43.9242 32.1317 43.9878 32.1466 44.0543L33.5656 43.1513C33.6135 43.1034 33.5015 42.7559 33.2297 41.9123C33.0132 41.24 32.6951 40.2528 32.2756 38.8513ZM34.2098 44.9455C34.0045 44.6849 33.7076 44.3083 33.5656 43.5598L32.1681 44.4628C32.3831 45.4303 33.0281 48.7843 33.0281 48.9133C34.2757 47.962 34.1207 47.35 33.9414 46.6426C33.8735 46.3747 33.8021 46.0931 33.8021 45.7743V45.7313C33.8236 45.6453 33.9096 45.6023 33.9956 45.6238C34.0171 45.6453 34.0386 45.6453 34.0601 45.6453C34.2321 45.6668 34.4041 45.5593 34.4256 45.3873C34.4428 45.2412 34.3466 45.1191 34.2098 44.9455ZM42.1011 37.0238C42.1226 36.9808 42.1871 36.9808 42.2301 37.0023C42.4451 37.1098 42.6386 37.2603 42.7891 37.4323C42.7461 37.2388 42.6601 37.0668 42.5526 36.9163C42.2946 36.6368 41.9936 36.3788 41.6926 36.1423C41.5627 36.068 41.2083 36.4426 41.0448 36.6155C41.0189 36.6428 40.9978 36.6651 40.9831 36.6798C40.1876 37.4538 39.6071 36.5078 40.0371 35.6263C39.8759 35.6263 39.2999 35.5905 38.8123 35.5603C38.4545 35.538 38.1443 35.5188 38.0806 35.5188C38.0806 35.9273 37.9516 37.3678 37.8871 37.9698L37.9171 37.9721C38.188 37.9929 38.4776 38.0151 38.7471 38.0773C39.1771 37.5613 40.1016 37.1098 40.3166 37.7548C40.5961 37.6903 40.9401 37.7548 41.0261 38.0128C41.1121 37.9913 41.2196 37.9698 41.3056 37.9698C41.6926 37.9053 41.9076 38.1633 41.6926 38.5933C41.7786 38.7008 42.3591 39.2168 42.4666 39.1738C42.7031 39.1093 42.4881 38.3353 41.8431 37.8838C41.8216 37.8623 41.8001 37.7978 41.8216 37.7763C41.8431 37.7548 41.8861 37.7333 41.9291 37.7548C42.2731 37.9268 42.5526 38.1848 42.7031 38.5288C42.7676 38.4643 42.8106 38.3783 42.8106 38.2923C42.8714 37.8469 42.4937 37.4969 42.1802 37.2063C42.1607 37.1882 42.1415 37.1704 42.1226 37.1528C42.0796 37.1313 42.0796 37.0668 42.1011 37.0238ZM15.4626 40.8723C15.3766 41.3023 15.3336 41.7323 15.3551 42.1623L15.3766 42.1838C17.5266 43.4308 20.2356 43.7748 22.1276 43.8393C25.5461 44.2048 28.0401 44.0543 30.6416 42.1193C30.6555 42.0604 30.6693 42.0021 30.6831 41.9442C30.7548 41.6424 30.824 41.3509 30.8781 41.0443C26.8361 43.9898 21.6331 42.8503 16.9461 41.4743C16.4301 41.3453 15.9141 41.1303 15.4626 40.8723ZM21.2461 55.7503C21.2891 53.6433 21.3966 50.3968 21.7191 46.9138L21.7406 46.9353C21.7621 46.7418 21.6331 46.5913 21.4396 46.5698C21.2461 46.5483 21.0956 46.6773 21.0741 46.8708C20.7516 50.4398 20.6441 53.7938 20.6011 55.9008L21.2461 55.7503ZM76.2431 35.6693C75.8561 31.4338 75.0821 26.5748 72.3731 22.7693C71.5776 21.6943 70.2446 19.9313 68.8041 19.7808C69.1051 20.5763 70.3091 23.8443 70.3091 24.0163C70.3091 24.4248 69.9006 24.4248 69.6856 24.4248C69.4706 24.4248 67.2131 24.5968 67.2991 24.8548C67.5356 25.2203 67.7936 25.5643 68.0516 25.8868C68.0731 25.9083 68.0731 25.9298 68.0516 25.9513C67.6646 26.7253 62.9776 35.5188 62.6551 36.1208C62.6408 36.3358 62.6265 36.5699 62.6121 36.8041C62.605 36.9211 62.5978 37.0381 62.5906 37.1528C63.8806 37.9698 66.0091 39.2598 67.1486 39.7973C67.464 39.4155 67.7522 39.0696 68.0135 38.756C69.4444 37.0388 70.0676 36.2909 69.9221 35.9273C68.8471 34.1428 68.2236 32.1218 68.0946 30.0363C68.0731 29.9073 68.3096 29.8858 68.3096 30.0363C68.5246 31.8423 69.0621 33.5838 69.9006 35.1748C69.9394 35.2524 69.9892 35.3343 70.0409 35.4197C70.2188 35.7128 70.4208 36.0458 70.2876 36.3788C70.0495 37.0566 66.4083 41.3247 65.3098 42.6125C65.1191 42.836 65.005 42.9697 64.9986 42.9793C64.8266 43.1298 64.7621 43.3448 64.7836 43.5598C64.8266 43.7533 66.3316 46.4193 66.4606 46.5913C66.5896 46.7418 66.8046 46.7848 66.9766 46.7203C69.8051 45.6144 72.2128 43.5409 74.512 41.5609L74.5876 41.4958C76.6731 39.9048 76.5011 38.0343 76.2431 35.6693ZM68.3956 19.8023C68.2451 19.3508 67.9441 18.8348 67.4281 18.7488C67.4711 19.3723 67.2776 20.0173 66.8476 20.5333C66.4623 21.0287 66.1915 21.577 65.9224 22.1218C65.7711 22.4281 65.6204 22.7333 65.4501 23.0273C64.6976 24.3603 64.0956 25.7578 63.6871 27.2413C63.1778 29.109 62.8569 33.2813 62.704 35.2702L62.6981 35.3468C62.7423 35.2622 62.8113 35.1294 62.901 34.9568C63.8597 33.1124 67.1805 26.7236 67.7506 26.0158C67.6104 25.8347 67.4765 25.6789 67.3589 25.5421C67.0438 25.1756 66.8455 24.945 66.9551 24.7258C67.0565 24.523 67.4067 24.4541 67.6265 24.4108C67.6397 24.4082 67.6525 24.4057 67.6646 24.4033C67.8222 24.3718 68.2108 24.3287 68.6272 24.2826C68.7789 24.2657 68.9343 24.2485 69.0836 24.2313C69.2048 24.217 69.3331 24.2051 69.4528 24.194C69.6941 24.1717 69.9005 24.1525 69.9436 24.1238C70.0028 24.0843 69.9353 23.9183 69.8906 23.8081C69.8865 23.7982 69.8827 23.7887 69.8791 23.7798C69.8791 23.7583 68.6106 20.3398 68.3956 19.8023ZM60.5655 19.8931C60.5728 19.8173 60.5834 19.7075 60.5911 19.5443C59.5591 20.6193 56.7856 23.7153 56.7641 23.8658C56.7426 24.0163 57.4951 24.8333 57.8391 25.1558C58.0541 25.3278 58.0756 25.6288 57.9251 25.8438C57.4521 26.4673 57.0221 27.1338 56.6351 27.8433C56.6781 27.9508 57.7101 31.5843 57.9251 32.3583C58.3551 27.9938 59.2581 23.6293 60.3976 20.6193C60.4191 20.6193 60.4191 20.5978 60.4191 20.5978C60.4406 20.5763 60.4836 20.5763 60.5051 20.5978C63.2786 22.9628 66.3316 21.6298 65.9446 20.9633C65.8906 20.8688 65.8197 20.9014 65.6574 20.976C65.5612 21.0202 65.4327 21.0793 65.2566 21.1353C65.3211 20.4903 65.3856 19.4798 65.3856 19.4798C65.3856 19.2863 64.9556 19.2648 64.9556 19.4798C64.9556 19.4798 64.8696 20.7483 64.8051 21.2643C64.3321 21.3718 63.8376 21.3933 63.3431 21.3288C63.3431 21.0101 63.361 20.5128 63.3737 20.1592C63.3807 19.9641 63.3861 19.8128 63.3861 19.7593V19.7163C63.3861 19.5658 63.2786 19.4368 63.1281 19.4368C62.9776 19.4368 62.8486 19.5443 62.8486 19.6948C62.8271 19.8453 62.7626 20.6838 62.7411 21.1998C62.4616 21.1353 62.2036 21.0278 61.9456 20.8988C61.9456 20.7509 61.9435 20.5484 61.9413 20.3334C61.9364 19.8604 61.9309 19.3266 61.9456 19.1788C61.9671 18.9638 61.5156 18.9208 61.4941 19.1358C61.4726 19.2648 61.4511 20.1463 61.4511 20.7053C61.1501 20.5333 60.8491 20.3183 60.5911 20.0818C60.5499 20.0543 60.5526 20.0269 60.5655 19.8931ZM50.815 33.3484C49.1115 33.8603 44.2789 35.3123 44.0791 35.4758C43.9071 35.6908 43.8856 39.2598 43.9071 39.5823C44.1006 39.7113 51.7116 39.3458 53.6251 39.1523C53.7111 38.3138 54.4636 32.7238 54.6141 31.8423C54.6141 31.7778 54.6571 31.7563 54.7216 31.7563C54.7861 31.7563 54.8076 31.8208 54.8076 31.8638C54.6356 32.9173 53.8186 42.3128 53.8186 42.5493C53.8186 42.7428 53.9261 42.9148 54.0551 43.0438C54.6141 43.5598 55.2806 43.9253 56.0116 44.0973C56.5598 42.5575 56.7997 42.0001 56.9387 41.4186C57.1703 40.4494 57.1215 39.4132 57.7531 33.6483C57.7138 33.3436 57.3869 32.1581 57.0477 30.9279C56.6449 29.4674 56.2248 27.944 56.2481 27.7573C56.2911 27.4133 57.5811 25.7363 57.5811 25.7363C57.7442 25.5324 57.6947 25.4832 57.5425 25.332C57.5342 25.3238 57.5255 25.3152 57.5166 25.3063C57.1081 24.9408 56.7211 24.5323 56.3986 24.1023C56.3771 23.8658 56.4631 23.6078 56.6566 23.4573C56.6996 23.3928 57.5596 22.3178 58.8496 20.8773C56.0762 22.264 55.1984 24.6759 54.3814 26.9204C54.3371 27.0423 54.2929 27.1636 54.2486 27.2843C53.1521 30.2298 52.2276 32.6808 52.0986 32.8098C51.9051 33.0033 51.6471 33.1108 51.3891 33.1753C51.3357 33.192 51.1283 33.2543 50.815 33.3484ZM53.6466 39.4748C51.0236 39.7973 44.5521 39.9048 44.0791 39.9048C44.0576 39.9048 44.0361 39.9048 43.9716 39.8403C43.6706 39.8188 43.4771 39.5608 43.4986 39.2813C43.3266 39.2598 42.9181 39.2168 42.7461 39.2168C42.6816 39.3243 42.5741 39.4103 42.4451 39.4103C42.2086 39.4103 41.6711 38.9373 41.5206 38.7868C41.3056 39.0663 40.8326 39.5393 40.4671 39.5393C40.2736 39.5393 40.1016 39.4318 40.0156 39.2598C39.6501 39.5178 39.2201 39.4318 39.1126 39.0018C38.7041 39.1738 38.3601 38.8298 38.5106 38.3998C38.5176 38.3859 38.5268 38.3787 38.5259 38.3732C38.524 38.3617 38.4778 38.3574 38.2741 38.3138L37.8441 38.2278C37.8226 38.3353 37.7796 38.4428 37.6506 38.4428L32.5766 38.8083C32.6411 39.0233 33.7376 42.4848 33.8021 42.6568C33.9526 43.0868 33.8881 43.2803 33.8021 43.3663C33.9311 43.9468 34.1891 44.5058 34.5761 44.9573C34.6621 45.0648 34.7266 45.1938 34.7266 45.3228C34.7266 45.6668 34.4901 45.9463 34.1461 45.9678C34.1993 46.2337 34.2671 46.4851 34.3375 46.7459C34.3525 46.8014 34.3676 46.8573 34.3826 46.9138C34.6406 47.9458 33.9526 48.7843 33.1356 49.3218C33.2474 49.898 33.3592 50.4948 33.471 51.0916C33.6387 51.9869 33.8064 52.8822 33.9741 53.7078C40.5101 53.0843 47.0891 53.0413 53.6466 53.5788C53.6466 52.4178 53.9691 46.2043 54.2271 43.6243C53.5176 43.1298 53.4316 42.8718 53.4961 42.0118C53.4961 41.9832 53.5215 41.569 53.5517 41.0777C53.5895 40.4623 53.6347 39.7259 53.6466 39.4748ZM42.5976 35.4516C42.2068 35.3433 41.8301 35.2389 41.6926 35.2178C41.1336 35.0888 40.5746 35.3898 40.3381 35.9273C40.2306 36.1423 40.2521 36.4218 40.3596 36.6368C40.5531 36.8518 40.9186 36.4433 41.1121 36.2068C41.117 36.2011 41.122 36.1953 41.127 36.1894C41.2543 36.0403 41.4229 35.8429 41.6711 35.8843C42.7246 36.4003 43.2621 37.4538 43.0686 38.1203C43.1116 38.3783 43.0041 38.6363 42.7891 38.7653C42.8306 38.898 42.8177 38.9507 42.838 38.9728C42.8704 39.008 42.987 38.9656 43.5416 39.0448C43.5416 38.5933 43.5631 36.1853 43.6061 35.7123C43.4204 35.6795 43.0015 35.5634 42.5976 35.4516ZM16.9891 46.3118C16.8171 46.2688 16.6451 46.3763 16.6021 46.5483C15.8711 50.1818 15.3981 53.8583 15.1831 57.5778L15.8496 57.3413C16.0646 53.7723 16.5376 50.2033 17.2471 46.6988C17.2686 46.5268 17.1611 46.3548 16.9891 46.3118Z" fill="#2A344A"/>
</svg>
