<svg width="86" height="65" viewBox="0 0 86 65" fill="none" xmlns="http://www.w3.org/2000/svg">
<path d="M66.703 25.2163C66.5153 25.2163 66.5153 25.5649 66.703 25.5649C67.1499 25.5649 73.3749 25.4621 73.8978 25.3593C73.9454 25.3522 73.9889 25.3282 74.0203 25.2917C74.0517 25.2552 74.069 25.2086 74.069 25.1605C74.069 25.1123 74.0517 25.0658 74.0203 25.0293C73.9889 24.9928 73.9454 24.9688 73.8978 24.9616C72.2577 24.7471 68.5084 25.1806 66.703 25.2163ZM69.1966 34.3416C68.991 34.3416 69.0268 34.6857 69.2234 34.6947C70.6802 34.7438 72.9504 34.6678 74.4385 34.6008C74.7111 34.6008 74.7424 34.1539 74.4385 34.1539C72.7716 34.1629 70.8679 34.1852 69.1966 34.3416ZM69.3888 18.9287C69.3455 18.9306 69.3043 18.9481 69.273 18.9781C69.2416 19.008 69.2222 19.0483 69.2184 19.0915C69.2146 19.1347 69.2266 19.1778 69.2522 19.2128C69.2777 19.2478 69.3152 19.2723 69.3575 19.2818C70.1574 19.3801 72.7538 19.4829 73.5358 19.1522C73.5758 19.1323 73.6083 19.1 73.6283 19.06C73.6483 19.0201 73.6548 18.9747 73.6467 18.9308C73.6386 18.8869 73.6164 18.8468 73.5835 18.8166C73.5506 18.7863 73.5088 18.7677 73.4643 18.7634C72.4275 18.7008 70.7652 19.0315 69.3888 18.9287ZM64.2854 27.5624C68.0571 27.5088 72.3292 27.2452 76.1367 26.8966C76.3735 26.8966 76.3512 26.4497 76.1054 26.4497C72.3605 26.5436 67.9856 26.7893 64.263 27.1737C64.2115 27.1766 64.1632 27.1999 64.1289 27.2385C64.0945 27.277 64.0769 27.3277 64.0798 27.3792C64.0828 27.4308 64.1061 27.479 64.1447 27.5134C64.1832 27.5478 64.2338 27.5654 64.2854 27.5624ZM69.6926 7.6584C70.7428 7.57796 71.793 7.51539 72.8208 7.39027C73.1157 7.35899 73.0398 6.94339 72.7493 6.94339C71.7036 7.02382 70.6579 7.15789 69.6211 7.27855C69.3798 7.30536 69.4469 7.67627 69.6926 7.6584ZM63.5614 16.9803C63.338 16.9803 63.3291 17.3602 63.5614 17.378C66.0878 17.4957 68.6193 17.3188 71.1048 16.8507C71.3863 16.8016 71.3416 16.3547 71.0556 16.4038C68.5806 16.8259 66.0719 17.0189 63.5614 16.9803ZM71.8779 9.79895C72.2667 9.8928 72.3248 9.25823 71.9673 9.32079C70.2231 9.60356 68.4553 9.71284 66.6896 9.64701C66.4528 9.64701 66.3991 9.99111 66.6404 10.0179C68.3878 10.1933 70.1512 10.1196 71.8779 9.79895ZM62.1985 27.3524C61.8499 27.2183 60.2411 27.4418 59.7898 27.4909C59.5708 27.4909 59.5619 27.844 59.7898 27.8395L61.6175 27.7814C62.4621 27.7501 62.4576 27.4552 62.1985 27.3524ZM64.0441 46.6889C63.6687 46.5996 61.0008 46.8006 60.5629 46.8275C60.3305 46.8275 60.3752 47.185 60.6076 47.1805C61.0812 47.1805 63.6776 47.1805 64.0888 47.0509C64.272 46.9883 64.2094 46.7247 64.0441 46.6889ZM60.5584 44.7986C61.8141 44.8567 64.9244 44.9103 66.1802 44.6109C66.2095 44.6107 66.2385 44.6043 66.2652 44.5922C66.2919 44.5801 66.3158 44.5626 66.3353 44.5407C66.3549 44.5187 66.3696 44.493 66.3785 44.4651C66.3875 44.4371 66.3905 44.4076 66.3874 44.3784C66.3842 44.3493 66.375 44.3211 66.3603 44.2957C66.3456 44.2703 66.3258 44.2483 66.302 44.231C66.2783 44.2138 66.2512 44.2017 66.2225 44.1955C66.1938 44.1894 66.1642 44.1893 66.1355 44.1953C64.2988 44.1953 62.5962 44.5037 60.612 44.4232C60.3752 44.4143 60.3126 44.7852 60.5584 44.7986ZM64.8931 36.8531C65.1613 36.8039 65.1389 36.4062 64.8574 36.4062C62.8732 36.6073 62.4576 36.6565 60.4243 36.7369C60.2277 36.7369 60.2054 37.0765 60.4243 37.0899C61.9181 37.1891 63.4183 37.1096 64.8931 36.8531ZM67.6459 34.0422C65.2149 34.1316 62.69 34.5427 60.1517 34.6321C60.1064 34.6391 60.065 34.6621 60.0351 34.6969C60.0052 34.7317 59.9888 34.7761 59.9888 34.822C59.9888 34.8679 60.0052 34.9123 60.0351 34.9471C60.065 34.982 60.1064 35.005 60.1517 35.0119C62.2565 35.0119 65.6439 34.9136 67.6951 34.4578C67.7379 34.4389 67.7735 34.4067 67.7967 34.366C67.8198 34.3254 67.8294 34.2784 67.8239 34.2319C67.8184 34.1854 67.7981 34.1419 67.7661 34.1078C67.7341 34.0736 67.692 34.0507 67.6459 34.0422ZM75.9266 45.5941C75.8909 45.5941 73.4375 45.7952 73.0174 45.7818C72.9776 45.7889 72.9412 45.8087 72.9136 45.8382C72.8859 45.8677 72.8686 45.9053 72.864 45.9455C72.8595 45.9857 72.8681 46.0263 72.8885 46.0612C72.9089 46.0961 72.94 46.1235 72.9772 46.1393C73.4777 46.2331 75.587 46.2689 76.0205 45.9024C76.0423 45.8784 76.0575 45.8491 76.0646 45.8174C76.0717 45.7857 76.0705 45.7527 76.0611 45.7216C76.0516 45.6905 76.0342 45.6624 76.0107 45.6401C75.9871 45.6177 75.9582 45.6019 75.9266 45.5941ZM76.7176 35.8476C73.6207 36.0487 70.1619 36.1649 67.0784 36.4286C66.8371 36.4286 66.8818 36.7905 67.1141 36.8039C68.781 36.8531 74.7111 36.5492 76.7578 36.29C76.787 36.2878 76.8155 36.2797 76.8415 36.2663C76.8675 36.2529 76.8906 36.2344 76.9094 36.2119C76.9281 36.1894 76.9422 36.1633 76.9507 36.1353C76.9592 36.1073 76.962 36.0778 76.9589 36.0487C76.9532 35.9902 76.9247 35.9362 76.8796 35.8986C76.8344 35.861 76.7762 35.8426 76.7176 35.8476ZM65.0853 25.6855C65.1446 25.6855 65.2014 25.662 65.2433 25.6201C65.2852 25.5782 65.3087 25.5214 65.3087 25.4621C65.3087 25.4028 65.2852 25.346 65.2433 25.3041C65.2014 25.2622 65.1446 25.2387 65.0853 25.2387C63.1592 25.2878 61.2153 25.3012 59.2759 25.4487C59.2342 25.458 59.1969 25.4812 59.1702 25.5145C59.1434 25.5478 59.1289 25.5892 59.1289 25.6319C59.1289 25.6746 59.1434 25.7161 59.1702 25.7494C59.1969 25.7827 59.2342 25.8059 59.2759 25.8151C61.2243 25.8509 63.1592 25.7481 65.0853 25.6855ZM72.7046 43.7261C72.0254 43.7261 69.5764 43.9004 68.9955 44.0032C68.8078 44.0345 68.781 44.3428 68.9955 44.3517C69.6256 44.383 72.0611 44.2266 72.7672 44.1641C73.0398 44.173 72.9817 43.7261 72.7046 43.7261ZM71.3997 46.2331L65.7824 46.5906C65.5277 46.5906 65.5903 46.9794 65.8405 46.966C66.9309 46.9168 70.4389 46.7783 71.4221 46.6442C71.641 46.6174 71.6455 46.2331 71.3997 46.2331ZM67.3778 7.39027C65.7288 7.20258 60.5539 7.51539 58.7977 7.69415C58.5564 7.71649 58.5385 8.09187 58.7977 8.06953C61.6845 7.88184 64.4954 7.81927 67.3823 7.82821C67.4327 7.81745 67.4778 7.78959 67.51 7.74935C67.5423 7.7091 67.5596 7.65896 67.5591 7.60741C67.5585 7.55586 67.5402 7.50608 67.5072 7.46651C67.4741 7.42693 67.4284 7.4 67.3778 7.39027ZM67.856 19.4516C68.1375 19.4113 68.0347 19.0047 67.7532 19.0047C64.8768 19.3324 61.983 19.4816 59.0882 19.4516C59.0462 19.4583 59.0079 19.4797 58.9803 19.5121C58.9527 19.5444 58.9376 19.5856 58.9376 19.6281C58.9376 19.6706 58.9527 19.7117 58.9803 19.7441C59.0079 19.7764 59.0462 19.7979 59.0882 19.8046C62.0155 19.9456 64.9495 19.8274 67.856 19.4516ZM64.8216 10.0939C64.851 10.0911 64.8796 10.0825 64.9056 10.0686C64.9317 10.0547 64.9547 10.0358 64.9734 10.0129C64.9921 9.99009 65.0061 9.96375 65.0146 9.93546C65.0231 9.90717 65.0258 9.87748 65.0227 9.84811C65.0199 9.81871 65.0114 9.79016 64.9975 9.7641C64.9836 9.73804 64.9646 9.715 64.9418 9.6963C64.9189 9.6776 64.8926 9.66361 64.8643 9.65515C64.836 9.64669 64.8063 9.64393 64.777 9.64701C62.8062 9.8928 60.9382 9.90173 58.9943 10.0715C58.7888 10.0939 58.7664 10.4291 58.9943 10.438C60.9426 10.4695 62.8906 10.3545 64.8216 10.0939ZM59.2848 17.168C59.0614 17.168 59.0569 17.521 59.3116 17.53C60.1136 17.6055 60.9199 17.6264 61.7248 17.5925C61.761 17.5764 61.7918 17.55 61.8134 17.5167C61.835 17.4834 61.8465 17.4446 61.8465 17.4049C61.8465 17.3652 61.835 17.3263 61.8134 17.293C61.7918 17.2597 61.761 17.2334 61.7248 17.2172C61.6443 17.1725 59.6959 17.168 59.2848 17.168ZM53.7077 19.742C53.9669 19.742 54.9277 18.1511 55.4684 17.606C55.6651 17.4093 55.3433 17.0786 55.1422 17.2663C54.5721 17.7803 54.0785 18.3732 53.6764 19.027L52.5458 17.9858C52.3135 17.7713 52.014 18.1377 52.2286 18.3567C52.4431 18.5757 53.377 19.742 53.7077 19.742ZM50.6511 12.4445C52.4833 12.5517 54.387 12.516 56.3979 12.5294C56.5409 12.5294 56.6259 12.1317 56.3979 7.3858C56.3979 7.0417 56.3667 6.78698 56.3622 6.69313C56.3633 6.6793 56.3615 6.66537 56.3569 6.65228C56.3523 6.63918 56.345 6.62722 56.3354 6.61716C56.2058 6.47863 55.3612 6.48757 53.4619 6.53673C50.2667 6.6127 49.9137 6.59035 49.9137 6.77357C49.9003 6.80932 50.1014 12.3909 50.6511 12.4445ZM50.7762 12.1138C50.5527 10.9206 50.3919 8.40022 50.2533 6.98808C51.5538 7.06405 54.5166 6.91657 56.0092 6.88082C56.0092 6.88082 56.0896 10.8536 56.1253 12.1361C54.3736 12.0959 52.5458 12.0289 50.7583 12.0914L50.7762 12.1138Z" fill="#2A344A"/>
<path d="M57.0151 20.9096C57.3905 20.7622 56.9526 16.5972 56.89 15.5024C56.8869 15.4799 56.8758 15.4592 56.8587 15.4443C56.5906 15.2119 50.9197 15.5203 50.6337 15.5426C50.3477 15.5649 50.6337 17.1201 50.6828 18.1792C50.7856 20.8158 50.9063 21.0437 51.0403 21.0616C52.0145 21.2001 56.1214 21.2582 57.0151 20.9096ZM50.9063 15.909C52.8413 15.7839 54.8031 15.775 56.5459 15.766C56.5906 16.8117 56.6621 19.7567 56.7515 20.5521C54.9301 20.7405 53.0973 20.7928 51.2682 20.7085C51.3442 20.0427 50.9733 16.6643 50.9063 15.909ZM54.5439 27.1928L55.5806 26.2543C55.6109 26.2032 55.6242 26.1439 55.6186 26.0848C55.6131 26.0257 55.5891 25.9699 55.5499 25.9253C55.5107 25.8806 55.4585 25.8496 55.4006 25.8364C55.3427 25.8233 55.2822 25.8288 55.2276 25.8521C54.8031 26.1136 54.4179 26.4341 54.0836 26.804L53.1541 25.946C53.1037 25.8992 53.0368 25.8743 52.9681 25.8768C52.8994 25.8793 52.8344 25.909 52.7876 25.9594C52.7408 26.0098 52.7159 26.0767 52.7184 26.1454C52.721 26.2141 52.7507 26.279 52.801 26.3258L53.6948 27.2196C52.8904 28.0687 52.5374 28.6004 52.6178 28.8418C52.6983 29.0831 52.9887 28.9758 53.0647 28.8686C53.3775 28.4843 53.7305 28.0463 54.1104 27.6397C54.487 28.0508 54.9047 28.4222 55.3572 28.7479C55.4039 28.76 55.453 28.7593 55.4993 28.7459C55.5456 28.7324 55.5874 28.7067 55.6203 28.6715C55.6533 28.6363 55.6761 28.5928 55.6864 28.5457C55.6967 28.4986 55.6941 28.4496 55.6789 28.4038C55.3425 27.9628 54.9622 27.557 54.5439 27.1928ZM54.7807 8.03501C54.0669 8.65929 53.4837 9.41868 53.0647 10.2694C52.7281 9.86643 52.3405 9.50891 51.9117 9.20584C51.6481 9.02262 51.3085 9.37118 51.5676 9.56781C52.0774 10.0183 52.5538 10.5052 52.9932 11.0246C53.1094 11.1453 53.2211 11.0827 53.3194 10.9531C53.8061 10.005 54.4063 9.11963 55.1069 8.31655C55.3214 8.0797 55.0131 7.81604 54.7807 8.03501ZM54.6377 37.2118C54.8701 37.051 55.7549 35.3439 56.2688 34.7629C56.4699 34.5395 56.1214 34.2311 55.8934 34.468C55.2817 35.0982 54.7571 35.8077 54.3338 36.5773L53.2926 35.6835C53.0647 35.4913 52.7608 35.8354 52.9977 36.0633C53.2345 36.2913 54.2534 37.5425 54.6377 37.2118ZM58.0474 42.9408C57.8776 42.6057 51.7643 42.9408 51.7062 42.9408C51.6928 42.9425 51.6801 42.9474 51.6692 42.9552C51.6583 42.963 51.6495 42.9734 51.6436 42.9855C51.4381 43.3162 51.6436 48.6922 51.7911 49.1927C51.9654 49.8004 57.891 49.2955 58.1859 49.3223C58.1948 49.3242 58.2041 49.3242 58.2129 49.3223C58.2218 49.3203 58.2302 49.3164 58.2374 49.3109C58.2447 49.3054 58.2506 49.2983 58.2548 49.2902C58.2591 49.2822 58.2615 49.2733 58.2619 49.2642C58.3558 48.5805 58.0698 42.9855 58.0474 42.9408ZM51.9922 43.2671C53.7797 43.343 55.8934 43.2313 57.7078 43.2268C57.7346 43.9731 57.8955 48.3526 57.9178 48.9424C55.9337 49.0318 54.2668 49.0005 52.1531 48.9424C52.1754 48.1961 52.019 43.9463 51.9922 43.2805V43.2671Z" fill="#2A344A"/>
<path d="M54.1504 46.1638C54.4677 46.1638 56.0899 46.2755 56.2195 46.204C56.2536 46.1846 56.2828 46.1575 56.3048 46.125C56.3268 46.0924 56.3409 46.0552 56.3461 46.0162C56.3513 45.9773 56.3474 45.9377 56.3347 45.9005C56.3221 45.8633 56.301 45.8295 56.2731 45.8018C56.0363 45.5516 54.5392 45.6052 54.289 45.6543C53.9493 45.7169 53.8868 45.8465 53.8957 45.9448C53.9076 46.0045 53.9392 46.0585 53.9853 46.0982C54.0315 46.1379 54.0896 46.161 54.1504 46.1638ZM54.7537 33.0479C53.2879 33.0747 51.7462 33.1283 51.4915 33.1462C51.3932 33.1462 51.2904 33.2311 51.277 34.1606C51.277 35.2733 51.4691 38.7992 51.916 38.8305C52.8098 38.8975 57.4305 38.9154 58.0249 38.8707C58.1187 38.8707 58.1947 38.8707 58.0249 36.5469C57.931 35.3493 57.721 33.173 57.721 33.173C57.7031 33.0836 57.6942 33.0032 54.7537 33.0479ZM57.3858 33.4411C57.4931 35.108 57.5512 36.8151 57.7299 38.4909H52.0456C51.8713 36.8776 51.7551 35.2152 51.63 33.5081L57.3858 33.4411ZM52.5461 30.5319C54.3605 30.5319 57.3948 30.2861 57.4216 30.2727C57.7076 30.1253 57.4216 26.0899 57.3277 24.365C57.3277 24.0566 55.7503 24.0522 54.4409 24.1013C53.8689 24.1013 51.0267 24.2533 51.0357 24.6599C51.1876 30.6436 51.1519 30.3532 51.2636 30.4157C51.6818 30.5248 52.1151 30.5641 52.5461 30.5319ZM51.6032 30.085C51.5004 28.3243 51.4647 26.4564 51.3932 24.7225C53.2488 24.5577 55.1122 24.495 56.9747 24.5348C56.9747 25.147 57.0954 29.2181 57.1713 29.8974C56.51 29.942 52.2959 29.9733 51.6166 30.0895L51.6032 30.085Z" fill="#2A344A"/>
<path d="M85.1686 37.145C83.9978 5.2958 84.4893 5.56393 84.2748 5.37624C83.9709 5.09023 81.6248 5.27792 81.0483 5.3092L80.807 0.424802C80.8185 0.395343 80.8228 0.363543 80.8194 0.3321C80.816 0.300656 80.805 0.270498 80.7875 0.244182C80.7699 0.217867 80.7463 0.196173 80.7186 0.180938C80.6909 0.165704 80.6599 0.15738 80.6283 0.156674C71.2438 0.0404847 61.5867 0.661649 51.9028 1.31856C49.293 1.50178 46.5805 1.66266 43.926 1.9442C43.9012 1.94021 43.8758 1.94178 43.8516 1.9488C43.8275 1.95581 43.8052 1.9681 43.7864 1.98478C43.7676 2.00145 43.7527 2.0221 43.7429 2.04522C43.733 2.06834 43.7284 2.09336 43.7294 2.11848C44.2209 14.0502 45.651 33.3375 48.1222 54.6939C48.149 54.9397 50.1868 54.7252 52.019 54.6046C52.043 55.1303 52.1377 55.6504 52.3005 56.1508C52.5687 56.4904 85.7182 54.4348 85.678 53.0226C85.535 47.7182 85.3429 42.3466 85.1686 37.145ZM82.6571 51.0787C70.9042 52.8662 60.3354 53.3667 48.5333 54.3856C46.1961 34.1375 45.2354 20.2484 44.0645 2.25701C47.6932 2.04251 61.113 0.809119 80.4987 0.554397C80.9813 13.5452 82.7778 49.6487 82.6437 51.0787H82.6571ZM26.5602 20.3557C26.2563 20.3557 26.2608 20.9455 26.4038 21.169C26.4203 21.2017 26.4461 21.2289 26.4778 21.2471C26.5096 21.2654 26.546 21.274 26.5826 21.2718C26.8552 21.2405 26.8418 20.3869 26.5602 20.3557ZM24.9649 22.9386C25.157 22.9878 25.6754 23.0191 25.7961 22.8403C25.9659 22.5901 25.5056 20.3199 25.4475 20.159C25.4355 20.1262 25.4123 20.0987 25.382 20.0814C25.3516 20.0641 25.3161 20.0581 25.2818 20.0646C25.2474 20.071 25.2165 20.0894 25.1944 20.1165C25.1724 20.1437 25.1607 20.1777 25.1615 20.2127C25.1615 20.6193 25.3447 22.0002 25.4162 22.5767L24.9693 22.6035C24.9367 22.6174 24.9087 22.6405 24.889 22.67C24.8692 22.6995 24.8584 22.7341 24.8579 22.7696C24.8575 22.8051 24.8673 22.84 24.8863 22.87C24.9053 22.9 24.9326 22.9239 24.9649 22.9386ZM26.1804 19.52C26.3127 19.4838 26.4518 19.4803 26.5857 19.5099C26.7196 19.5395 26.8443 19.6012 26.949 19.6898C27.1233 19.8462 27.4585 19.5468 26.9803 19.2429C26.6362 19.0106 25.8318 18.9301 25.9167 19.3412C25.9306 19.3985 25.9653 19.4485 26.014 19.4816C26.0628 19.5146 26.1221 19.5283 26.1804 19.52Z" fill="#2A344A"/>
<path d="M39.2826 35.7659C36.4091 32.9327 31.2387 29.6034 26.5911 28.942C26.6681 28.6764 26.6681 28.3943 26.5911 28.1287C26.9449 27.833 27.2738 27.5087 27.5743 27.159C28.2133 26.4082 28.1999 25.6753 27.2883 26.0462C28.182 24.071 28.182 19.7899 27.8603 17.3857C29.3573 18.3197 31.8822 17.4214 31.5739 15.5982C33.6072 16.2104 34.9299 12.1706 32.347 11.4422C32.7089 8.38553 28.7943 7.94311 27.5966 9.72617C26.9218 7.75542 23.8205 8.79219 24.0439 10.3384C22.6452 8.83687 19.6243 9.35972 19.2042 11.2322C17.9395 10.0837 15.8526 10.5708 16.0358 12.2644C14.0338 11.3349 12.9747 13.7302 14.5298 14.4988C13.5333 15.0351 13.5646 17.2427 15.0929 17.2427C15.0929 18.7174 15.9867 22.0958 18.1987 23.9459C18.4356 26.015 18.011 27.0741 17.2737 28.9912C9.98061 30.0994 4.44376 35.7882 1.9591 42.8445C-0.874117 50.8883 0.470992 58.4853 8.86787 60.0851C8.8504 61.1586 8.72464 62.2276 8.49249 63.2758C8.48831 63.3154 8.49852 63.3551 8.52126 63.3878C8.544 63.4204 8.57773 63.4437 8.61629 63.4535C8.65484 63.4633 8.69563 63.4588 8.73117 63.441C8.76671 63.4231 8.79462 63.393 8.80978 63.3563C9.10891 62.3152 9.27116 61.2396 9.29241 60.1566C11.3153 60.4573 13.3819 60.1419 15.2231 59.2516C17.0643 58.3613 18.5948 56.9373 19.6153 55.165C20.909 55.6564 22.2294 56.0741 23.5702 56.4162C27.7888 57.6094 33.2899 58.7936 38.5005 57.3815C38.3977 59.8795 38.2547 61.8816 38.0313 63.8702C38.0313 64.0668 38.3039 64.1249 38.3352 63.9283C38.5094 62.8826 38.9429 58.2931 38.9161 57.2608C42.232 56.2419 44.4485 53.9405 44.9937 50.9509C45.9455 45.8833 43.8005 40.1945 39.2826 35.7659ZM20.3035 16.5187C20.4197 17.8236 20.3035 18.7531 19.9058 19.3564C19.7583 19.5754 19.5349 19.8033 19.3427 19.8033C19.1953 19.6424 18.23 18.6414 17.3184 19.2268C16.724 19.6156 16.6972 20.3709 17.2603 21.354C17.6627 21.9511 17.9506 22.6179 18.1094 23.3203C16.3978 21.4612 15.875 19.7184 15.4817 17.2204C15.936 17.1384 16.3506 16.9091 16.6615 16.5679C17.4435 17.7298 19.3562 17.4974 20.3035 16.5187ZM17.5329 19.5218C18.1362 19.1509 18.6948 19.5978 19.2042 20.0446C19.5036 20.3083 19.9952 19.9374 20.2276 19.5978C20.8353 18.7576 20.7817 17.3634 20.7013 16.6662C21.135 17.0793 21.711 17.3097 22.31 17.3097C22.909 17.3097 23.4851 17.0793 23.9188 16.6662C24.0082 17.9532 26.7073 18.2482 27.4179 17.1801C27.7441 19.4145 27.9005 24.2453 26.8191 26.2697C25.9253 26.6629 23.892 27.5612 22.882 27.1634C22.0151 26.8193 21.5772 25.4966 20.5672 24.929C19.8879 24.5537 19.307 24.9782 19.7807 25.7379C20.9783 27.6416 20.8711 28.3655 19.9237 30.3229C19.0934 30.0966 18.3169 29.7061 17.6401 29.1744C18.6233 27.7667 18.8914 25.2553 18.6456 23.5839C18.4266 22.0958 18.1987 22.1852 17.6089 21.0859C17.3363 20.6345 17.0949 19.7989 17.5329 19.5218ZM25.0718 28.5354C25.0361 28.5519 25.0077 28.5809 24.992 28.6169C24.9763 28.6529 24.9743 28.6934 24.9864 28.7308C24.9985 28.7682 25.0238 28.7999 25.0577 28.8198C25.0915 28.8398 25.1315 28.8467 25.1701 28.8392C25.5533 28.7708 25.9165 28.6181 26.2336 28.3924C26.2594 28.8091 26.1496 29.2229 25.9208 29.5721C25.8404 29.6838 25.9834 30.019 26.2739 29.6034C26.2515 30.8368 25.6214 32.3607 24.4104 32.9595C23.5896 32.8111 22.8085 32.4942 22.1162 32.0289C21.424 31.5636 20.8357 30.9599 20.3884 30.2558C21.7291 27.9589 20.5493 26.2339 20.1561 25.5189C19.9371 25.1078 20.0488 25.0452 20.4063 25.2776C21.2509 25.8139 21.9927 27.3109 22.8105 27.512C24.3523 27.8829 26.2515 26.9534 27.181 26.5378C27.6637 26.3188 27.9452 26.1714 27.3643 26.8998C26.5867 27.8606 26.1443 28.0617 25.0718 28.5354ZM6.15978 47.6082C6.14361 47.6445 6.14108 47.6855 6.15266 47.7235C6.16424 47.7616 6.18914 47.7942 6.22281 47.8154C6.25647 47.8366 6.29665 47.8449 6.33596 47.8389C6.37527 47.8328 6.41109 47.8128 6.43684 47.7825C10.356 41.6066 16.8402 37.321 20.1784 30.7117C20.6968 31.8646 22.9133 33.3483 24.2808 33.3483C24.2808 34.461 24.1691 35.7838 24.0529 37.0529C22.7122 36.7445 19.088 35.6095 18.4356 34.1258C18.3596 33.9426 18.0647 34.0677 18.1362 34.251C18.7484 35.9089 22.529 37.2406 24.0126 37.5221C23.6993 40.8612 23.0785 44.1642 22.1581 47.3892C21.4833 49.8024 20.6164 52.7205 19.3651 54.879C18.3675 56.6535 16.8412 58.0727 14.9988 58.9386C13.1564 59.8046 11.0897 60.0741 9.08684 59.7097C0.837434 58.2618 -0.404893 50.8213 2.39705 42.9607C5.01577 35.5961 10.7492 30.4123 17.3631 29.4291C18.082 29.9592 18.8679 30.392 19.7003 30.7161C16.3487 37.1825 9.95826 41.4279 6.15978 47.6082ZM22.5424 47.5769C26.8848 45.7469 31.4986 44.6433 36.1991 44.3102C37.5397 44.2209 38.8804 44.2253 40.221 44.2253C40.4176 44.2253 40.4221 43.9036 40.221 43.9036C39.3093 43.8403 38.395 43.8239 37.4816 43.8544C37.2627 42.0669 34.0406 36.8518 32.9458 35.4084C32.9178 35.3819 32.8811 35.3663 32.8426 35.3646C32.8041 35.3628 32.7662 35.375 32.7359 35.3988C32.7055 35.4226 32.6848 35.4565 32.6774 35.4944C32.67 35.5323 32.6764 35.5715 32.6955 35.605C34.8897 38.6795 36.6638 42.5942 37.0169 43.8723C33.0888 44.0198 27.0291 44.9493 22.6675 47.0854C23.0787 45.5794 24.6696 39.3677 24.7053 33.2321C25.9342 32.6824 26.8101 30.6938 26.7073 29.3576C31.3408 30.4128 35.5904 32.7334 38.9831 36.0608C42.9648 39.9621 45.4048 44.9984 44.654 50.4727C44.2563 53.6009 42.0353 56.023 38.7195 56.9033C33.0039 58.4674 27.1229 57.1089 21.4788 55.3571C20.9324 55.1732 20.3759 55.021 19.812 54.9013C20.9541 52.5527 21.8684 50.1 22.5424 47.5769Z" fill="#2A344A"/>
<path d="M22.3232 18.8055C22.4387 18.6349 22.5928 18.4938 22.7729 18.3936C22.953 18.2935 23.1541 18.2371 23.36 18.229C23.6862 18.229 23.6684 17.7375 23.36 17.7822C23.0946 17.8101 22.839 17.8983 22.6129 18.04C22.3867 18.1817 22.196 18.3732 22.0551 18.6C21.9389 18.7832 22.1981 18.9843 22.3232 18.8055ZM23.3779 20.0434C23.1947 20.1909 23.2081 20.9371 23.4851 20.9371C23.5485 20.9305 23.6078 20.9026 23.6532 20.858C23.6987 20.8133 23.7276 20.7546 23.7354 20.6914C23.8382 20.3026 23.5745 19.9049 23.3779 20.0434ZM22.9846 23.7346C22.9763 23.6997 22.9573 23.6682 22.9304 23.6444C22.9034 23.6206 22.8698 23.6058 22.8341 23.6019C22.7984 23.598 22.7623 23.6052 22.7309 23.6225C22.6994 23.6399 22.6741 23.6666 22.6584 23.6989C22.6137 23.7614 22.5288 23.9536 22.7165 24.3424C22.8439 24.607 23.0638 24.8159 23.3347 24.9295C23.6055 25.0431 23.9086 25.0537 24.1867 24.9591C24.2244 24.9441 24.2553 24.9158 24.2735 24.8796C24.2917 24.8434 24.2959 24.8018 24.2854 24.7627C24.275 24.7235 24.2505 24.6896 24.2166 24.6673C24.1828 24.645 24.1419 24.6359 24.1018 24.6418C23.4673 24.7669 23.1008 24.3647 22.9846 23.7346Z" fill="#2A344A"/>
<path d="M16.3407 19.059C16.3163 19.1131 16.3145 19.1746 16.3354 19.23C16.3564 19.2854 16.3986 19.3302 16.4526 19.3545C16.5066 19.3789 16.5681 19.3808 16.6235 19.3598C16.679 19.3388 16.7238 19.2966 16.7481 19.2426C16.7725 19.1886 16.7743 19.1271 16.7534 19.0717C16.7324 19.0163 16.6902 18.9715 16.6362 18.9471C16.5822 18.9228 16.5207 18.9209 16.4653 18.9419C16.4098 18.9629 16.365 19.005 16.3407 19.059ZM18.0011 17.778C17.9768 17.832 17.9749 17.8935 17.9959 17.9489C18.0169 18.0043 18.059 18.0491 18.113 18.0735C18.1671 18.0978 18.2286 18.0997 18.284 18.0787C18.3394 18.0577 18.3842 18.0156 18.4085 17.9615C18.4329 17.9075 18.4348 17.846 18.4138 17.7906C18.3928 17.7352 18.3506 17.6904 18.2966 17.666C18.2426 17.6417 18.1811 17.6398 18.1257 17.6608C18.0703 17.6818 18.0255 17.7239 18.0011 17.778ZM19.9448 17.8156C19.9691 17.7615 19.971 17.7001 19.95 17.6446C19.929 17.5892 19.8869 17.5444 19.8328 17.5201C19.7788 17.4957 19.7173 17.4938 19.6619 17.5148C19.6065 17.5358 19.5617 17.578 19.5373 17.632C19.513 17.686 19.5111 17.7475 19.5321 17.8029C19.5531 17.8583 19.5952 17.9031 19.6493 17.9275C19.7033 17.9518 19.7648 17.9537 19.8202 17.9327C19.8756 17.9117 19.9204 17.8696 19.9448 17.8156ZM16.3121 17.5561C16.2877 17.6101 16.2858 17.6716 16.3068 17.727C16.3278 17.7824 16.37 17.8273 16.424 17.8516C16.478 17.8759 16.5395 17.8778 16.5949 17.8568C16.6503 17.8358 16.6951 17.7937 16.7195 17.7397C16.7438 17.6856 16.7457 17.6242 16.7247 17.5687C16.7037 17.5133 16.6616 17.4685 16.6076 17.4442C16.5535 17.4198 16.492 17.4179 16.4366 17.4389C16.3812 17.4599 16.3364 17.5021 16.3121 17.5561ZM18.4201 18.9912C18.3957 19.0452 18.3939 19.1067 18.4148 19.1621C18.4358 19.2175 18.478 19.2623 18.532 19.2867C18.586 19.311 18.6475 19.3129 18.7029 19.2919C18.7584 19.2709 18.8032 19.2288 18.8275 19.1747C18.8519 19.1207 18.8537 19.0592 18.8328 19.0038C18.8118 18.9484 18.7696 18.9036 18.7156 18.8792C18.6616 18.8549 18.6001 18.853 18.5447 18.874C18.4892 18.895 18.4444 18.9371 18.4201 18.9912Z" fill="#2A344A"/>
<path d="M16.9548 21.1951C16.9305 21.2491 16.9286 21.3106 16.9496 21.366C16.9706 21.4214 17.0127 21.4662 17.0668 21.4906C17.1208 21.5149 17.1823 21.5168 17.2377 21.4958C17.2931 21.4748 17.3379 21.4327 17.3623 21.3786C17.3866 21.3246 17.3885 21.2631 17.3675 21.2077C17.3465 21.1523 17.3044 21.1075 17.2503 21.0831C17.1963 21.0588 17.1348 21.0569 17.0794 21.0779C17.024 21.0989 16.9792 21.141 16.9548 21.1951Z" fill="#2A344A"/>
<path d="M85.1672 37.1281C83.9963 5.27889 84.4879 5.54702 84.2734 5.35933C83.9695 5.07333 81.6179 5.26935 81.0414 5.30063L52.0182 54.5877H52.0176C52.0416 55.1134 52.1388 55.7795 52.3016 56.28C52.5698 56.6196 85.8579 54.6452 85.8177 53.233C85.6747 47.9286 85.3415 42.3297 85.1672 37.1281ZM82.7708 51.2018C71.0178 52.9893 63.8203 53.5688 52.0182 54.5877L81.0414 5.30063C81.6882 20.7001 82.8908 49.9218 82.7708 51.2018Z" fill="#4E6AF3"/>
</svg>
