<svg width="200" height="200" viewBox="0 0 200 200" fill="none" xmlns="http://www.w3.org/2000/svg">
<path d="M151.5 15.5C107.199 16.8108 81.4154 16.6382 40.5 21C43.3094 81.2442 46.839 116.546 53.5 179.5C95.2056 176.708 118.05 174.075 158 169L151.5 15.5Z" fill="white"/>
<path d="M109.383 90.7195C108.816 90.7195 108.816 91.7721 109.383 91.7721C110.732 91.7721 129.531 91.4617 131.11 91.1513C131.253 91.1297 131.385 91.0572 131.48 90.947C131.575 90.8368 131.627 90.6962 131.627 90.5508C131.627 90.4054 131.575 90.2648 131.48 90.1546C131.385 90.0444 131.253 89.9719 131.11 89.9503C126.157 89.3025 114.835 90.6115 109.383 90.7195ZM116.913 118.276C116.292 118.276 116.4 119.316 116.994 119.343C121.393 119.491 128.249 119.262 132.743 119.059C133.566 119.059 133.66 117.71 132.743 117.71C127.709 117.737 121.96 117.804 116.913 118.276ZM117.493 71.7319C117.362 71.7376 117.238 71.7905 117.143 71.881C117.049 71.9714 116.99 72.0932 116.979 72.2236C116.967 72.354 117.003 72.4841 117.081 72.5898C117.158 72.6955 117.271 72.7695 117.399 72.798C119.814 73.0949 127.655 73.4053 130.017 72.4067C130.137 72.3468 130.235 72.2491 130.296 72.1285C130.356 72.0079 130.376 71.8709 130.351 71.7382C130.327 71.6055 130.26 71.4844 130.161 71.3932C130.061 71.302 129.935 71.2456 129.801 71.2326C126.67 71.0437 121.65 72.0423 117.493 71.7319ZM102.082 97.8044C113.472 97.6425 126.373 96.8463 137.871 95.7936C138.586 95.7936 138.518 94.4441 137.776 94.4441C126.467 94.7275 113.256 95.4698 102.014 96.6303C101.859 96.6393 101.713 96.7097 101.609 96.8261C101.505 96.9426 101.452 97.0954 101.461 97.2511C101.47 97.4068 101.54 97.5526 101.657 97.6563C101.773 97.7601 101.926 97.8134 102.082 97.8044ZM118.411 37.6973C121.582 37.4544 124.753 37.2655 127.857 36.8876C128.748 36.7931 128.519 35.5381 127.641 35.5381C124.484 35.781 121.326 36.1859 118.195 36.5502C117.466 36.6312 117.669 37.7513 118.411 37.6973ZM99.8955 65.8481C99.2208 65.8481 99.1938 66.9951 99.8955 67.0491C107.525 67.4045 115.17 66.8701 122.675 65.4567C123.525 65.3083 123.39 63.9587 122.527 64.1072C115.053 65.3818 107.477 65.9646 99.8955 65.8481ZM125.01 44.1615C126.184 44.4449 126.359 42.5286 125.28 42.7175C120.013 43.5714 114.674 43.9014 109.342 43.7026C108.627 43.7026 108.465 44.7417 109.194 44.8227C114.47 45.3524 119.796 45.1298 125.01 44.1615ZM95.7796 97.1701C94.7269 96.7653 89.8687 97.44 88.5057 97.5885C87.8445 97.5885 87.8175 98.6546 88.5057 98.6411L94.0252 98.4657C96.5758 98.3712 96.5623 97.4805 95.7796 97.1701ZM101.353 155.563C100.219 155.293 92.1629 155.901 90.8404 155.982C90.1386 155.982 90.2736 157.061 90.9753 157.048C92.4058 157.048 100.246 157.048 101.488 156.656C102.041 156.468 101.852 155.671 101.353 155.563ZM90.8268 149.855C94.619 150.03 104.012 150.192 107.804 149.288C107.892 149.287 107.98 149.268 108.06 149.232C108.141 149.195 108.213 149.142 108.272 149.076C108.331 149.01 108.376 148.932 108.403 148.848C108.43 148.763 108.439 148.674 108.429 148.586C108.42 148.498 108.392 148.413 108.348 148.336C108.303 148.26 108.243 148.193 108.172 148.141C108.1 148.089 108.018 148.052 107.932 148.034C107.845 148.015 107.755 148.015 107.669 148.033C102.122 148.033 96.9806 148.964 90.9888 148.721C90.2736 148.694 90.0846 149.814 90.8268 149.855ZM103.917 125.861C104.727 125.712 104.659 124.511 103.809 124.511C97.8173 125.118 96.5623 125.267 90.422 125.51C89.8282 125.51 89.7608 126.535 90.422 126.576C94.9328 126.875 99.4632 126.635 103.917 125.861ZM112.23 117.372C104.889 117.642 97.264 118.884 89.5988 119.154C89.4618 119.175 89.3369 119.244 89.2466 119.349C89.1564 119.455 89.1067 119.589 89.1067 119.727C89.1067 119.866 89.1564 120 89.2466 120.105C89.3369 120.21 89.4618 120.28 89.5988 120.301C95.955 120.301 106.184 120.004 112.378 118.627C112.508 118.57 112.615 118.473 112.685 118.35C112.755 118.227 112.784 118.085 112.767 117.945C112.751 117.805 112.69 117.673 112.593 117.57C112.496 117.467 112.369 117.398 112.23 117.372ZM137.236 152.257C137.128 152.257 129.72 152.864 128.451 152.824C128.331 152.845 128.221 152.905 128.138 152.994C128.054 153.083 128.002 153.197 127.988 153.318C127.974 153.44 128 153.562 128.062 153.668C128.123 153.773 128.217 153.856 128.33 153.903C129.841 154.187 136.211 154.295 137.52 153.188C137.586 153.116 137.632 153.027 137.653 152.931C137.675 152.836 137.671 152.736 137.642 152.642C137.614 152.548 137.561 152.464 137.49 152.396C137.419 152.329 137.332 152.281 137.236 152.257ZM139.625 122.824C130.273 123.432 119.828 123.782 110.516 124.579C109.787 124.579 109.922 125.672 110.624 125.712C115.658 125.861 133.566 124.943 139.747 124.16C139.835 124.154 139.921 124.129 139.999 124.089C140.078 124.048 140.148 123.992 140.204 123.924C140.261 123.856 140.303 123.778 140.329 123.693C140.355 123.608 140.363 123.52 140.354 123.432C140.337 123.255 140.251 123.092 140.114 122.978C139.978 122.865 139.802 122.809 139.625 122.824ZM104.497 92.1365C104.676 92.1365 104.848 92.0654 104.975 91.9388C105.101 91.8123 105.172 91.6407 105.172 91.4617C105.172 91.2828 105.101 91.1111 104.975 90.9846C104.848 90.8581 104.676 90.787 104.497 90.787C98.681 90.9354 92.8106 90.9759 86.9538 91.4212C86.8279 91.4492 86.7153 91.5193 86.6346 91.6199C86.5539 91.7205 86.5099 91.8456 86.5099 91.9745C86.5099 92.1035 86.5539 92.2286 86.6346 92.3292C86.7153 92.4298 86.8279 92.4999 86.9538 92.5278C92.8376 92.6358 98.681 92.3254 104.497 92.1365ZM127.506 146.616C125.455 146.616 118.06 147.142 116.306 147.453C115.739 147.547 115.658 148.478 116.306 148.505C118.208 148.6 125.563 148.128 127.695 147.939C128.519 147.966 128.343 146.616 127.506 146.616ZM123.566 154.187L106.603 155.266C105.833 155.266 106.022 156.441 106.778 156.4C110.071 156.252 120.664 155.833 123.633 155.428C124.295 155.347 124.308 154.187 123.566 154.187ZM111.42 36.8876C106.441 36.3208 90.8134 37.2655 85.5098 37.8053C84.7811 37.8727 84.7271 39.0063 85.5098 38.9389C94.2276 38.3721 102.716 38.1831 111.434 38.2101C111.586 38.1776 111.722 38.0935 111.82 37.972C111.917 37.8504 111.969 37.699 111.968 37.5433C111.966 37.3877 111.911 37.2374 111.811 37.1178C111.711 36.9983 111.573 36.917 111.42 36.8876ZM112.864 73.3108C113.715 73.1894 113.404 71.9613 112.554 71.9613C103.868 72.9509 95.1288 73.4016 86.387 73.3108C86.2602 73.3311 86.1447 73.3959 86.0614 73.4936C85.978 73.5913 85.9323 73.7155 85.9323 73.8439C85.9323 73.9723 85.978 74.0965 86.0614 74.1942C86.1447 74.2919 86.2602 74.3567 86.387 74.3769C95.2269 74.8027 104.087 74.4459 112.864 73.3108ZM103.701 45.0521C103.79 45.0437 103.876 45.0178 103.955 44.9758C104.034 44.9338 104.103 44.8767 104.16 44.8077C104.216 44.7387 104.258 44.6591 104.284 44.5737C104.309 44.4882 104.318 44.3986 104.308 44.3099C104.3 44.2211 104.274 44.1349 104.232 44.0562C104.19 43.9775 104.133 43.9079 104.064 43.8515C103.995 43.795 103.915 43.7528 103.83 43.7272C103.745 43.7017 103.655 43.6933 103.566 43.7026C97.6149 44.4449 91.9739 44.4718 86.1036 44.9847C85.4828 45.0521 85.4153 46.0643 86.1036 46.0913C91.9872 46.1864 97.8696 45.839 103.701 45.0521ZM86.9808 66.4148C86.306 66.4148 86.2925 67.481 87.0617 67.5079C89.4838 67.7361 91.9185 67.7992 94.3491 67.6969C94.4585 67.648 94.5515 67.5684 94.6167 67.4679C94.6819 67.3673 94.7167 67.25 94.7167 67.1301C94.7167 67.0102 94.6819 66.8929 94.6167 66.7923C94.5515 66.6917 94.4585 66.6122 94.3491 66.5633C94.1062 66.4283 88.2223 66.4148 86.9808 66.4148ZM70.1389 74.188C70.9216 74.188 73.8231 69.3838 75.456 67.7374C76.0497 67.1436 75.0781 66.1449 74.4708 66.7117C72.7492 68.2638 71.2586 70.0543 70.0444 72.0288L66.6302 68.8845C65.9284 68.2367 65.0243 69.3433 65.672 70.0045C66.3198 70.6658 69.1403 74.188 70.1389 74.188ZM60.9083 52.1505C66.4412 52.4744 72.1901 52.3665 78.2629 52.407C78.6948 52.407 78.9512 51.2059 78.2629 36.8741C78.2629 35.835 78.1685 35.0658 78.155 34.7824C78.1584 34.7406 78.153 34.6985 78.1391 34.659C78.1251 34.6194 78.1029 34.5833 78.074 34.553C77.6826 34.1346 75.1321 34.1616 69.3967 34.31C59.7477 34.5395 58.6816 34.472 58.6816 35.0253C58.6411 35.1332 59.2484 51.9886 60.9083 52.1505ZM61.2861 51.1519C60.6114 47.5487 60.1255 39.9375 59.7072 35.6731C63.6343 35.9025 72.5815 35.4571 77.0889 35.3492C77.0889 35.3492 77.3318 47.3463 77.4397 51.2194C72.1497 51.0979 66.6302 50.8955 61.2321 51.0844L61.2861 51.1519Z" fill="#2A344A"/>
<path d="M80.1183 77.7126C81.2519 77.2672 79.9294 64.6898 79.7404 61.3835C79.7312 61.3155 79.6977 61.2532 79.646 61.2081C78.8363 60.5063 61.711 61.4375 60.8473 61.505C59.9836 61.5724 60.8473 66.2687 60.9958 69.4671C61.3062 77.4292 61.6705 78.1174 62.0754 78.1714C65.0173 78.5897 77.4193 78.7652 80.1183 77.7126ZM61.6705 62.6116C67.5139 62.2337 73.4382 62.2067 78.7013 62.1797C78.8363 65.3376 79.0522 74.2308 79.3221 76.6329C73.822 77.2018 68.2872 77.3597 62.7636 77.1053C62.993 75.0945 61.873 64.8922 61.6705 62.6116ZM72.6555 96.6866L75.7864 93.8527C75.8776 93.6984 75.9178 93.5192 75.9012 93.3408C75.8845 93.1623 75.8118 92.9936 75.6936 92.8589C75.5753 92.7242 75.4176 92.6303 75.2427 92.5907C75.0679 92.551 74.8851 92.5676 74.7203 92.6381C73.4383 93.4277 72.2751 94.3955 71.2655 95.5126L68.4586 92.9215C68.3064 92.7801 68.1044 92.705 67.8969 92.7126C67.6893 92.7202 67.4933 92.8099 67.352 92.962C67.2106 93.1141 67.1354 93.3162 67.143 93.5237C67.1506 93.7312 67.2403 93.9272 67.3924 94.0686L70.0915 96.7676C67.6623 99.3317 66.5962 100.938 66.8392 101.666C67.0821 102.395 67.9592 102.071 68.1887 101.747C69.1333 100.587 70.1994 99.2642 71.3465 98.0362C72.4837 99.2777 73.7453 100.399 75.1116 101.383C75.2526 101.419 75.4008 101.417 75.5407 101.377C75.6805 101.336 75.8068 101.259 75.9063 101.152C76.0058 101.046 76.0747 100.915 76.1059 100.772C76.137 100.63 76.1292 100.482 76.0833 100.344C75.0674 99.0119 73.9189 97.7866 72.6555 96.6866ZM73.3708 38.8332C71.2151 40.7184 69.4539 43.0117 68.1887 45.5808C67.1721 44.3638 66.0018 43.2842 64.7069 42.3689C63.9107 41.8156 62.8851 42.8683 63.6678 43.462C65.2072 44.8226 66.6459 46.2929 67.9727 47.8614C68.3236 48.2258 68.661 48.0369 68.9579 47.6455C70.4275 44.7823 72.2402 42.1086 74.3559 39.6834C75.0037 38.9682 74.0725 38.172 73.3708 38.8332ZM72.9389 126.943C73.6407 126.457 76.3127 121.302 77.8646 119.547C78.4719 118.873 77.4193 117.941 76.731 118.657C74.8836 120.56 73.2996 122.702 72.0213 125.026L68.8769 122.327C68.1887 121.747 67.271 122.786 67.9862 123.474C68.7015 124.163 71.7783 127.941 72.9389 126.943ZM83.2357 144.243C82.7228 143.231 64.2616 144.243 64.0862 144.243C64.0459 144.248 64.0075 144.263 63.9745 144.287C63.9415 144.31 63.9149 144.342 63.8972 144.378C63.2765 145.377 63.8972 161.611 64.3426 163.123C64.8689 164.958 82.7633 163.433 83.654 163.514C83.6809 163.52 83.7087 163.52 83.7355 163.514C83.7624 163.508 83.7876 163.497 83.8095 163.48C83.8313 163.463 83.8493 163.442 83.862 163.418C83.8748 163.393 83.8821 163.366 83.8834 163.339C84.1668 161.274 83.3031 144.378 83.2357 144.243ZM64.9498 145.228C70.3479 145.458 76.731 145.12 82.21 145.107C82.291 147.361 82.7768 160.586 82.8443 162.367C76.8525 162.637 71.8188 162.543 65.4357 162.367C65.5031 160.114 65.0308 147.28 64.9498 145.269V145.228Z" fill="#2A344A"/>
<path d="M71.4725 153.973C72.4307 153.973 77.3294 154.31 77.7208 154.094C77.8239 154.035 77.9121 153.954 77.9784 153.855C78.0448 153.757 78.0875 153.645 78.1032 153.527C78.1188 153.409 78.1071 153.29 78.0688 153.177C78.0306 153.065 77.9669 152.963 77.8827 152.879C77.1675 152.124 72.6466 152.286 71.8909 152.434C70.8653 152.623 70.6763 153.014 70.7033 153.311C70.7393 153.492 70.8346 153.655 70.974 153.774C71.1134 153.894 71.2889 153.964 71.4725 153.973ZM73.2944 114.365C68.868 114.445 64.2122 114.607 63.443 114.661C63.1461 114.661 62.8357 114.918 62.7952 117.725C62.7952 121.085 63.3755 131.733 64.725 131.827C67.424 132.03 81.3779 132.084 83.1728 131.949C83.4562 131.949 83.6856 131.949 83.1728 124.931C82.8894 121.314 82.2551 114.742 82.2551 114.742C82.2011 114.472 82.1741 114.23 73.2944 114.365ZM81.243 115.552C81.5669 120.586 81.7423 125.741 82.2821 130.802H65.1164C64.59 125.93 64.2392 120.91 63.8613 115.755L81.243 115.552ZM66.6278 106.767C72.1068 106.767 81.27 106.025 81.3509 105.984C82.2146 105.539 81.3509 93.3527 81.0675 88.1436C81.0675 87.2124 76.3038 87.1989 72.3497 87.3474C70.6223 87.3474 62.0395 87.8062 62.0665 89.0343C62.5253 107.104 62.4173 106.227 62.7547 106.416C64.0176 106.745 65.3263 106.864 66.6278 106.767ZM63.7803 105.417C63.47 100.1 63.362 94.4593 63.1461 89.2232C68.7499 88.7255 74.3768 88.5363 80.0014 88.6564C80.0014 90.5052 80.3658 102.799 80.5952 104.85C78.5979 104.985 65.8721 105.08 63.8208 105.431L63.7803 105.417Z" fill="#2A344A"/>
<path d="M165.14 126.741C161.605 30.5619 163.089 31.3716 162.441 30.8048C161.524 29.9411 154.439 30.5079 152.698 30.6024L151.969 15.8523C152.004 15.7633 152.017 15.6673 152.006 15.5723C151.996 15.4774 151.963 15.3863 151.91 15.3068C151.857 15.2274 151.786 15.1618 151.702 15.1158C151.618 15.0698 151.525 15.0447 151.429 15.0426C123.09 14.6917 93.9267 16.5675 64.6829 18.5513C56.8018 19.1046 48.6103 19.5904 40.5942 20.4406C40.5192 20.4286 40.4425 20.4333 40.3696 20.4545C40.2968 20.4757 40.2295 20.5128 40.1727 20.5632C40.1159 20.6135 40.0709 20.6758 40.0411 20.7457C40.0114 20.8155 39.9974 20.8911 40.0004 20.9669C41.4848 56.9988 45.8033 115.244 53.2661 179.737C53.347 180.479 59.5008 179.831 65.0338 179.467C65.1062 181.054 65.3921 182.625 65.884 184.136C66.6937 185.162 166.8 178.954 166.679 174.689C166.247 158.671 165.667 142.45 165.14 126.741ZM157.556 168.819C122.064 174.217 90.1481 175.729 54.5076 178.805C47.4497 117.659 44.5482 75.7165 41.0125 21.3853C51.9705 20.7375 92.4963 17.0128 151.038 16.2436C152.495 55.4738 157.92 164.501 157.516 168.819H157.556Z" fill="#2A344A"/>
<path d="M165.134 126.688C161.598 30.509 163.083 31.3187 162.435 30.7519C161.517 29.8882 154.416 30.4802 152.675 30.5747L65.0292 179.414H65.0273C65.0997 181.001 65.3933 183.013 65.8852 184.524C66.6949 185.55 167.22 179.587 167.098 175.323C166.666 159.304 165.66 142.397 165.134 126.688ZM157.897 169.189C122.405 174.587 100.67 176.337 65.0292 179.414L152.675 30.5747C154.628 77.0786 158.259 165.324 157.897 169.189Z" fill="#4E6AF3"/>
</svg>
