<svg width="82" height="48" viewBox="0 0 82 48" fill="none" xmlns="http://www.w3.org/2000/svg">
<path d="M82 23.9996C64.5 23.9996 66 30.5 61 37C61 32.5 61 14.5 61 11C66 17.5 64.5 23.9996 82 23.9996Z" fill="#EEF1F5"/>
<path d="M5.68231e-07 23.9996C17.5 23.9996 16 30.5 21 37C21 32.5 21 14.5 21 11C16 17.5 17.5 23.9996 5.68231e-07 23.9996Z" fill="#EEF1F5"/>
<rect x="18" y="47" width="46" height="46" rx="23" transform="rotate(-90 18 47)" fill="#4E6AF3"/>
<rect x="18" y="47" width="46" height="46" rx="23" transform="rotate(-90 18 47)" stroke="#EEF1F5" stroke-width="2"/>
<path fill-rule="evenodd" clip-rule="evenodd" d="M34.667 23.9997C34.667 23.4474 35.1147 22.9997 35.667 22.9997L40.0005 22.9997L40.0005 18.6663C40.0005 18.1141 40.4482 17.6663 41.0005 17.6663C41.5527 17.6663 42.0005 18.1141 42.0005 18.6663L42.0005 22.9997L46.3337 22.9997C46.8859 22.9997 47.3337 23.4474 47.3337 23.9997C47.3337 24.552 46.8859 24.9997 46.3337 24.9997L42.0005 24.9997L42.0005 29.333C42.0005 29.8853 41.5527 30.333 41.0005 30.333C40.4482 30.333 40.0005 29.8853 40.0005 29.333L40.0005 24.9997L35.667 24.9997C35.1147 24.9997 34.667 24.552 34.667 23.9997Z" fill="white"/>
</svg>
