<svg width="18" height="18" viewBox="0 0 18 18" fill="none" xmlns="http://www.w3.org/2000/svg">
<path fill-rule="evenodd" clip-rule="evenodd" d="M0.9375 9C0.9375 4.5472 4.5472 0.9375 9 0.9375C13.4528 0.9375 17.0625 4.5472 17.0625 9C17.0625 13.4528 13.4528 17.0625 9 17.0625C7.58477 17.0625 6.25314 16.6974 5.09588 16.0558C5.02507 16.0165 4.95617 16.0148 4.90705 16.0322L3.01511 16.7007C1.85592 17.1103 0.739296 15.9937 1.14891 14.8345L1.84512 12.8642C1.86182 12.817 1.86105 12.751 1.82553 12.6819C1.25773 11.5776 0.9375 10.3254 0.9375 9ZM5.28735 9.97461C5.80512 9.97461 6.22485 9.55488 6.22485 9.03711C6.22485 8.51934 5.80512 8.09961 5.28735 8.09961C4.76959 8.09961 4.34985 8.51934 4.34985 9.03711C4.34985 9.55488 4.76959 9.97461 5.28735 9.97461ZM9.97485 9.03711C9.97485 9.55488 9.55512 9.97461 9.03735 9.97461C8.51959 9.97461 8.09985 9.55488 8.09985 9.03711C8.09985 8.51934 8.51959 8.09961 9.03735 8.09961C9.55512 8.09961 9.97485 8.51934 9.97485 9.03711ZM12.7874 9.97461C13.3051 9.97461 13.7249 9.55488 13.7249 9.03711C13.7249 8.51934 13.3051 8.09961 12.7874 8.09961C12.2696 8.09961 11.8499 8.51934 11.8499 9.03711C11.8499 9.55488 12.2696 9.97461 12.7874 9.97461Z" fill="#4E6AF3"/>
</svg>
