<svg width="30" height="30" viewBox="0 0 30 30" fill="none" xmlns="http://www.w3.org/2000/svg">
<rect width="30" height="30" rx="10" fill="#2A344A"/>
<path fill-rule="evenodd" clip-rule="evenodd" d="M19.7735 10.227C20.0664 10.5199 20.0664 10.9948 19.7735 11.2877L16.0611 15.0001L19.7734 18.7124C20.0663 19.0053 20.0663 19.4801 19.7734 19.773C19.4805 20.0659 19.0057 20.0659 18.7128 19.773L15.0005 16.0607L11.2882 19.7729C10.9953 20.0658 10.5205 20.0658 10.2276 19.7729C9.93469 19.48 9.93469 19.0052 10.2276 18.7123L13.9398 15.0001L10.2275 11.2878C9.93459 10.9949 9.93459 10.52 10.2275 10.2271C10.5204 9.93421 10.9952 9.93421 11.2881 10.2271L15.0005 13.9394L18.7129 10.227C19.0058 9.9341 19.4806 9.9341 19.7735 10.227Z" fill="white"/>
</svg>
