<svg width="18" height="18" viewBox="0 0 18 18" fill="none" xmlns="http://www.w3.org/2000/svg">
<path fill-rule="evenodd" clip-rule="evenodd" d="M13.773 4.22748C14.0659 4.52038 14.0659 4.99525 13.773 5.28814L10.0606 9.00056L13.7729 12.7129C14.0658 13.0058 14.0658 13.4806 13.7729 13.7735C13.48 14.0664 13.0052 14.0664 12.7123 13.7735L8.99996 10.0612L5.28775 13.7734C4.99486 14.0663 4.51999 14.0663 4.22709 13.7734C3.9342 13.4805 3.9342 13.0057 4.22709 12.7128L7.9393 9.00056L4.22699 5.28825C3.9341 4.99535 3.9341 4.52048 4.22699 4.22759C4.51989 3.93469 4.99476 3.93469 5.28765 4.22759L8.99996 7.9399L12.7124 4.22748C13.0053 3.93459 13.4801 3.93459 13.773 4.22748Z" fill="#7786A5"/>
</svg>
