<svg width="50" height="50" viewBox="0 0 50 50" fill="none" xmlns="http://www.w3.org/2000/svg">
<rect x="1" y="1" width="48" height="48" rx="9" fill="white"/>
<rect x="1" y="1" width="48" height="48" rx="9" stroke="#E1EDFD" stroke-width="2" stroke-dasharray="5 5"/>
<path d="M20.7632 23.658C20.2492 21.7397 21.3876 19.7679 23.306 19.2539L28.571 17.8431C29.0865 17.705 29.6366 17.803 30.0727 18.1105L34.5903 21.2967C34.9341 21.5391 35.1819 21.8944 35.2908 22.3007L37.4491 30.3555C37.9631 32.2738 36.8247 34.2456 34.9063 34.7596L27.9595 36.621C26.0411 37.1351 24.0693 35.9966 23.5553 34.0783L20.7632 23.658Z" fill="#E1EDFD"/>
<path d="M18.3315 19.9993C18.3315 18.1584 19.8239 16.666 21.6649 16.666H26.7176C27.2122 16.666 27.6813 16.8857 27.998 17.2657L31.2786 21.2025C31.5282 21.502 31.6649 21.8795 31.6649 22.2694V29.9993C31.6649 31.8403 30.1725 33.3327 28.3315 33.3327H21.6649C19.8239 33.3327 18.3315 31.8403 18.3315 29.9993V19.9993Z" fill="white"/>
<path d="M27.4982 17.0827V19.9993C27.4982 20.9198 28.2444 21.666 29.1649 21.666H31.2482M26.7176 16.666C27.2122 16.666 27.6813 16.8857 27.998 17.2657L31.2786 21.2025C31.5282 21.502 31.6649 21.8795 31.6649 22.2694V29.9993C31.6649 31.8403 30.1725 33.3327 28.3315 33.3327H21.6649C19.8239 33.3327 18.3315 31.8403 18.3315 29.9993V19.9993C18.3315 18.1584 19.8239 16.666 21.6649 16.666H26.7176Z" stroke="#2A344A" stroke-width="1.27143" stroke-linecap="round"/>
<rect x="12.1428" y="12.143" width="10.2381" height="10.2381" rx="5.11905" fill="#E1EDFD"/>
<rect x="12.1428" y="12.143" width="10.2381" height="10.2381" rx="5.11905" stroke="white" stroke-width="1.42857"/>
<path d="M18.8718 17.3664H15.856M17.3639 18.8743V15.8584" stroke="#4E6AF3" stroke-width="0.848214" stroke-linecap="round" stroke-linejoin="round"/>
</svg>
