<svg width="39" height="36" viewBox="0 0 39 36" fill="none" xmlns="http://www.w3.org/2000/svg">
<path d="M10.5918 20.1736C9.75798 17.0617 11.8423 13.7995 15.2473 12.8871L27.5777 9.58316C30.9827 8.6708 34.4189 10.4539 35.2527 13.5658L38.2723 24.8349C39.1061 27.9468 37.0218 31.2091 33.6168 32.1214L21.2864 35.4254C17.8814 36.3377 14.4452 34.5547 13.6114 31.4428L10.5918 20.1736Z" fill="#E1EDFD"/>
<path d="M30.668 13.1663C30.668 9.94468 28.0563 7.33301 24.8346 7.33301H13.168C9.94631 7.33301 7.33463 9.94468 7.33463 13.1663V24.833C7.33463 28.0547 9.94631 30.6663 13.168 30.6663H24.8346C28.0563 30.6663 30.668 28.0547 30.668 24.833V13.1663Z" fill="white"/>
<path d="M26.0013 14.333C26.0013 15.6217 24.9566 16.6663 23.668 16.6663C22.3793 16.6663 21.3346 15.6217 21.3346 14.333C21.3346 13.0443 22.3793 11.9997 23.668 11.9997C24.9566 11.9997 26.0013 13.0443 26.0013 14.333Z" fill="white"/>
<path d="M30.0846 25.4163L27.4489 23.5337C26.6136 22.937 25.4693 23.0317 24.7434 23.7576L23.4913 25.0097C22.9445 25.5565 22.0581 25.5565 21.5114 25.0097L15.6907 19.1891C14.9227 18.4211 13.6958 18.3654 12.8614 19.0607L7.33464 23.6663M24.8346 30.6663H13.168C9.94631 30.6663 7.33463 28.0547 7.33463 24.833V13.1663C7.33463 9.94468 9.94631 7.33301 13.168 7.33301H24.8346C28.0563 7.33301 30.668 9.94468 30.668 13.1663V24.833C30.668 28.0547 28.0563 30.6663 24.8346 30.6663ZM26.0013 14.333C26.0013 15.6217 24.9566 16.6663 23.668 16.6663C22.3793 16.6663 21.3346 15.6217 21.3346 14.333C21.3346 13.0443 22.3793 11.9997 23.668 11.9997C24.9566 11.9997 26.0013 13.0443 26.0013 14.333Z" stroke="#2A344A" stroke-width="1.78125" stroke-linecap="round"/>
<rect x="1" y="1" width="14" height="14" rx="7" fill="#E1EDFD"/>
<rect x="1" y="1" width="14" height="14" rx="7" stroke="white" stroke-width="2"/>
<path d="M10.4253 8.31233H6.20312M8.31423 10.4234V6.20117" stroke="#4E6AF3" stroke-width="1.1875" stroke-linecap="round" stroke-linejoin="round"/>
</svg>
