<svg width="200" height="200" viewBox="0 0 200 200" fill="none" xmlns="http://www.w3.org/2000/svg">
<path d="M44 197.5L41.5 196.5C41.3082 196.023 41.7078 195.83 42.5 195.5L42 192.5L41.5 173.5L40.5 161C38.1944 160.835 36.8859 160.645 35 159C33.2538 123.627 35.9429 123.158 37.9983 115L41 108L40 105.5L39.4983 105C36.4983 104.5 31.5226 102.601 30.5035 96.9997C29.4201 91.0444 32.1667 85.6664 33.5 83.4997C34.3154 81.9889 35.0914 81.1721 36.5 79.9997C38.3139 78.7143 39.6122 78.4174 42 77.9997L46.5 77.4997H47.0029L47 74.9997L47.5 74.4997C47.3376 73.3277 47.2388 73.0323 46.5 73.4997L44.5 71.4997L43 66.4997C43 64.9997 43.2 61.6997 44 60.4997C45 58.9997 45.5 57.4997 46.5 56.9997C47.5 56.4997 50 55.4997 51 55.4997C52 55.4997 56.5 57.4997 56.5 57.9997C56.5 58.3997 60.5 60.1664 62.5 60.9997L58.5 68.4997L54.5 71.4997V74.4997L55 76.9997L59.5 77.9997L66 81.4997L71.5 85.4997C74.0277 79.2717 83.9021 75.0973 88.5 74.4997L89 70.9997L88.5 70.4997C86.8247 68.6542 86.4254 67.2521 86 64.4997L84 63.4997L83 61.9997C83 60.9997 83.1 58.7997 83.5 57.9997C84 56.9997 86.5 55.9997 87 55.4997C87.4 55.0997 91.5 54.6664 93.5 54.4997L100.5 57.9997L101 61.9997L99.5 63.9997V65.4997C98.7186 67.9363 98.2248 69.2192 96.5 70.4997L97 74.9997C98.6207 74.8662 99.5603 75.1256 101 75.9997C102.486 76.1058 103.612 76.5896 106 77.9997L110.5 80.9997L114.5 84.4997L119 81.9997L125 79.4997L131.5 77.4997L132 75.4997L131.5 72.9997L130.5 68.9997L128 66.9997L127 64.9997L129.5 61.9997L136 60.9997L144.998 59.9997L145 63.4997L144.5 67.4997L143.498 71.4997L141.5 73.9997L140.498 74.9997L142 77.9997L144.5 78.9997L151.5 80.9997L160 81.9997L163 81.4997L167 78.4997L175 69.4997L175 68.9997L175.998 69.2997C175.998 69.2997 176.877 67.6611 177.29 67.1148C176.997 66.9967 176.5 66.4997 176.5 66.4997L176 65.4997L176.5 64.9997L178 65.9997L178 65.4997L178.5 64.4997L179 62.9997H179.5L180 63.4997L179.5 65.4997L180 63.9997L181.5 63.4997L181.5 64.4997L181 65.4997L183 64.9997V65.9997L180.5 68.4997C180.5 68.4997 180.136 70.392 179.719 70.7617C180.044 70.8478 180.5 70.9997 180.5 70.9997L179.498 73.9997L177.5 79.4997C175.767 83.7367 174.62 85.8892 172 88.9997L168.5 92.4997C166.186 94.8483 165.39 95.4503 162 95.9997C162 95.9997 157.5 96.9997 157 96.4997C156.5 95.9997 158.5 105 158.5 105L159 117V131H154.5V143L154 159.5L153 172.5C152.171 181.624 151.51 186.436 150 194.5H143L142.5 190L141.5 183C141.5 183 140.5 173.5 140.5 173C140.5 172.5 138.5 160.5 138.5 160.5L134.5 180.5C134.5 180.5 132 194 131.5 194H124.998L125 192L123.5 181.5C121.848 173.876 121.749 170.822 121 164.5C120.136 158.172 119.859 154.636 119.5 148.5L119 134L114 133.5V130.5L114.5 122.5L117 109L119.5 99.9997L116 101L114 102.5L108 104L107 113L105.5 125.5L110.5 147.5L113 167L112.5 193C113.59 194.146 115.258 195.204 119 197.5V198.5L117.5 199.5L110 198V199L107 199.5L106.5 198.5L106 195L106.5 193L105 166.5L104.5 150C103.167 147 100.5 140.8 100.5 140C100.5 139.2 97.8334 132.333 96.5 129L91 131.5L93 139.5L85.5 191L84.5 194.5C84.1843 196.349 84.6399 197.856 83.5 199H81C80.5375 198.708 80.4926 198.466 80.5 198L77.5 198.5L73.5 199C72.6313 199.158 72.3916 198.999 72 198.5C71.4599 198.336 71.4984 198.5 71.4983 198C71.4983 197.5 71.7926 197.511 72 197L78 193.5L73 193L80 116L79 111.5L78 105H73.5L69.5 102.5L68 98.9997L65.5 96.9997L64.4983 108C66.4983 112 67.1734 115.195 68.5 120.5C70.0778 131.216 70.3626 136.44 70 143.5V157L69 161L66.1983 161.5L66 176.5V195L63.5 196L59 197L59.5 195.5L60.5 194.5L53.9983 161.5H53L50.5 178.5L48 196L44 197.5Z" fill="white"/>
<path d="M64.9942 67.7565C64.9711 68.1415 64.851 68.5144 64.6449 68.8404C64.4389 69.1664 64.1536 69.435 63.8158 69.621C64.1026 70.1071 64.2382 70.6677 64.2051 71.2313C64.1721 71.7948 63.9719 72.3357 63.6301 72.785C63.2957 73.2232 62.8493 73.5631 62.3379 73.7691C61.8266 73.975 61.2692 74.0394 60.7244 73.9553C60.5791 74.3508 60.2321 75.0369 59.8366 75.166C59.7755 75.1979 59.7077 75.2145 59.6388 75.2145C59.57 75.2145 59.5021 75.1979 59.4411 75.166C59.5369 75.7326 59.8042 76.2561 60.2069 76.666C60.6095 77.0759 61.1282 77.3524 61.693 77.4583C63.5413 77.7892 65.2686 77.1839 65.2686 75.3033C65.711 75.3925 66.1674 75.3846 66.6064 75.2801C67.0454 75.1755 67.4564 74.9769 67.8111 74.6979C68.0637 74.4909 68.2729 74.236 68.4267 73.9479C68.5804 73.6598 68.6757 73.3441 68.707 73.019C68.7877 70.9366 67.343 69.5564 66.447 69.5564C67.1008 68.4022 66.6811 67.4013 65.6399 66.6426C65.3745 66.478 65.0776 66.3707 64.7682 66.3279C64.935 66.785 65.0118 67.2702 64.9942 67.7565ZM48.8595 68.3538C48.8958 68.3538 48.9307 68.3393 48.9565 68.3136C48.9822 68.2879 48.9967 68.253 48.9967 68.2166C48.9967 68.1802 48.9822 68.1453 48.9565 68.1195C48.9307 68.0938 48.8958 68.0793 48.8595 68.0793L48.3671 68.0228C48.2137 68.0228 47.9635 68.0228 47.8182 67.9744C47.7243 66.7898 47.7243 65.5996 47.8182 64.4149C47.8166 64.3812 47.8033 64.3491 47.7806 64.3241C47.7578 64.2991 47.7271 64.2828 47.6937 64.278C47.6602 64.2732 47.6262 64.2803 47.5973 64.2979C47.5685 64.3155 47.5467 64.3426 47.5357 64.3746C47.1848 65.2732 47.028 66.236 47.0757 67.1996C47.063 67.5329 47.0929 67.8665 47.1645 68.1923C47.3582 68.7008 48.3348 68.4748 48.8595 68.3538ZM45.1143 63.6481C44.7269 63.7531 44.2023 64.1324 44.396 64.2777C44.6806 64.4083 45.0049 64.4228 45.3 64.3181C45.5825 64.2454 46.0506 63.9629 46.0425 63.8176C46.0345 63.6724 45.4937 63.5432 45.1143 63.6481ZM50.3446 64.2131C53.1857 64.8024 51.8701 63.7208 50.4737 63.5432C50.1105 63.4948 49.263 63.5432 49.2792 63.745C49.2953 63.9468 50.1267 64.1647 50.3446 64.2131ZM50.9822 65.5691C50.9596 65.5292 50.9293 65.4942 50.8931 65.466C50.8568 65.4379 50.8154 65.4172 50.7711 65.4052C50.7268 65.3932 50.6806 65.3901 50.6351 65.3961C50.5896 65.402 50.5457 65.417 50.506 65.44C50.3042 65.553 50.3123 65.6741 50.3607 66.3279C50.3672 66.4199 50.4099 66.5056 50.4795 66.5662C50.5491 66.6267 50.64 66.6571 50.732 66.6507C50.8241 66.6443 50.9098 66.6016 50.9703 66.5319C51.0309 66.4623 51.0613 66.3715 51.0549 66.2794C51.067 66.0403 51.0425 65.8008 50.9822 65.5691ZM45.2677 66.0131C45.2752 65.921 45.2458 65.8298 45.186 65.7594C45.1262 65.689 45.0409 65.6452 44.9489 65.6377C44.8568 65.6303 44.7656 65.6596 44.6952 65.7194C44.6248 65.7792 44.581 65.8645 44.5735 65.9566C44.5582 66.1527 44.5582 66.3497 44.5735 66.5458C44.58 66.6378 44.6227 66.7236 44.6923 66.7841C44.7619 66.8447 44.8528 66.8751 44.9448 66.8686C45.0369 66.8622 45.1226 66.8195 45.1831 66.7499C45.2437 66.6802 45.2741 66.5894 45.2677 66.4974C45.2838 66.3279 45.2596 66.1099 45.2677 66.0131ZM48.0685 71.2675C48.0685 71.5258 49.0935 71.5904 49.6262 71.0577C50.0217 70.6622 49.9975 70.0568 49.8361 70.0165C49.6747 69.9761 49.7796 70.0165 49.1985 70.5169C48.8352 70.8236 48.0523 71.0658 48.0685 71.2675Z" fill="#2A344A"/>
<path d="M183.236 64.5594C183.025 64.4912 182.802 64.4696 182.581 64.4961C182.361 64.5226 182.149 64.5965 181.961 64.7127C182.115 64.3432 182.168 63.9392 182.114 63.5424C181.969 62.8886 181.016 62.5899 180.233 63.5424C180.185 63.0258 179.951 62.6707 179.539 62.598C178.514 62.4043 178.07 64.3576 177.844 65.3826C177.311 64.9871 176.44 64.3172 176.004 64.8419C175.881 64.9735 175.798 65.1378 175.765 65.3151C175.732 65.4925 175.75 65.6756 175.818 65.8427C176.132 66.3912 176.579 66.852 177.118 67.1826C176.964 67.5377 176.311 68.474 175.972 69.0228C175.697 68.9421 175.116 68.7888 174.995 69.0228C172.162 72.881 164.502 81.8241 159.732 81.6384C152.363 81.3559 143.089 77.7884 142.161 77.9175L140.861 75.0683C142.29 74.0895 143.364 72.6734 143.92 71.0326C144.825 68.5283 145.236 65.8722 145.131 63.2114C145.137 62.3489 145.096 61.4867 145.01 60.6286C148.416 60.4026 150.66 56.3911 148.004 53.0738C147.748 52.676 147.415 52.3338 147.024 52.0676C146.633 51.8014 146.192 51.6165 145.728 51.524C145.181 51.4956 144.634 51.5695 144.114 51.742C140.885 52.5491 140.837 50.507 138.625 49.9582C137.614 49.7888 136.576 49.8976 135.623 50.273C132.394 51.403 133.024 53.2029 131.531 54.7042C130.723 55.5113 127.277 54.3733 125.881 56.6655C124.395 59.1757 124.533 64.4867 126.688 66.5691C127.166 66.9992 127.695 67.3704 128.262 67.6749C128.784 68.2095 129.396 68.6492 130.07 68.9744C130.699 70.2578 131.418 73.9464 131.684 75.3428L131.434 77.4413C129.712 77.7119 128.015 78.1167 126.357 78.652C123.64 79.5314 121.004 80.644 118.479 81.9774C113.878 84.3989 114.443 84.3504 114.282 84.0922C113.724 83.485 113.131 82.9109 112.506 82.3729C108.099 78.6601 103.321 75.4961 97.679 74.5679L97.0172 70.8147C98.7929 69.3618 99.7615 66.4319 99.7937 64.3576C100.456 64.632 100.98 64.1477 101.327 63.5504C101.424 63.3729 102.03 63.5504 102.498 62.5012C102.579 62.2824 102.579 62.0419 102.498 61.8232C102.66 61.7265 102.798 61.5955 102.904 61.4394C103.01 61.2834 103.08 61.1061 103.11 60.9199C103.14 60.7337 103.129 60.5433 103.078 60.3619C103.026 60.1805 102.936 60.0125 102.812 59.8699C103.061 59.7285 103.274 59.532 103.435 59.2956C103.596 59.0591 103.7 58.789 103.741 58.5058C103.918 57.4485 103.676 56.496 102.659 56.1651C102.659 55.931 102.829 55.5436 102.829 55.4629C102.837 55.087 102.771 54.7132 102.632 54.3638C102.493 54.0144 102.286 53.6964 102.021 53.4289C100.9 52.4684 100.544 52.5491 99.8422 52.6218C99.8422 52.1375 100.149 51.8146 99.6404 51.1528C99.2504 50.7028 98.7312 50.3839 98.1535 50.2395C97.5759 50.0951 96.9677 50.1321 96.4118 50.3456L96.21 50.4102C96.0839 50.093 95.8921 49.8061 95.6473 49.5682C95.4025 49.3303 95.1102 49.1469 94.7895 49.03C93.7805 48.6506 93.0864 49.143 92.2389 49.5869C90.9717 48.4569 88.5503 49.0623 87.2508 49.8452C86.6616 50.2003 86.6051 50.8299 86.371 51.1205C85.8695 51.0839 85.3699 51.2145 84.9504 51.4918C84.5791 51.7258 84.2321 52.0648 83.9334 52.2989C83.7367 52.4516 83.5744 52.6441 83.4572 52.8639C83.2074 53.2742 83.0632 53.7401 83.0375 54.2199C82.8391 54.2674 82.6506 54.3494 82.4806 54.462C81.8358 55.0393 81.3825 55.7996 81.1811 56.6413C81.093 57.107 81.1378 57.5881 81.3102 58.0296C81.3102 58.078 81.3909 58.1749 81.4151 58.2233C81.2537 58.4574 80.834 58.643 80.7533 59.2726C80.6726 59.9022 80.6968 61.1371 81.3102 61.5084C81.5685 61.6617 82.1174 61.8232 82.3111 61.9442C82.2805 62.2744 82.2805 62.6068 82.3111 62.937C82.5209 64.3011 83.8689 64.7934 85.2571 64.5916L85.6365 64.7854C85.784 66.2233 86.1657 67.6274 86.7665 68.9421C87.2146 69.8106 87.8896 70.5414 88.7198 71.0568L88.3323 74.4953C86.4059 74.7767 84.5129 75.2527 82.6824 75.9158C77.1373 77.9417 73.9007 80.573 71.0353 85.1414C67.0884 81.8725 60.4053 76.9732 55.2396 77.062C55.2728 76.713 55.2728 76.3617 55.2396 76.0127C55.2396 75.7786 55.1104 75.0603 54.8925 74.9553C54.8925 74.5598 54.8279 74.1482 54.7957 73.7688C56.6198 76.4647 60.3407 75.036 59.9291 73.1958C60.3894 73.2262 60.8503 73.1445 61.2721 72.9575C61.6939 72.7705 62.064 72.4839 62.3505 72.1223C62.6287 71.7248 62.7779 71.2514 62.7779 70.7663C62.7779 70.2811 62.6287 69.8077 62.3505 69.4103C62.2837 69.3026 62.2022 69.2048 62.1083 69.1197C63.3675 68.7968 63.8033 68.2399 63.9648 67.4409C64.0947 66.8295 64.0471 66.1938 63.8276 65.6086C63.9712 65.5377 64.1065 65.4511 64.2311 65.3504C64.6011 64.9968 64.8521 64.5371 64.9495 64.0347C65.1422 62.2857 64.7627 60.5213 63.8679 59.0062C63.578 58.501 63.1035 58.1278 62.5442 57.965C62.4392 57.4845 62.3771 56.9956 62.3586 56.5041C62.2254 55.7409 61.9111 55.0208 61.442 54.4043C60.9729 53.7877 60.3627 53.2927 59.6627 52.9608C58.9845 52.6428 58.2483 52.467 57.4996 52.4442C57.1851 52.4181 56.8686 52.4594 56.5714 52.5653C56.0568 51.9428 55.3811 51.4738 54.6181 51.2093C53.1373 50.9342 51.6069 51.1855 50.2918 51.9195C50.0255 52.0971 49.8156 52.4442 49.5815 52.6137C49.0069 52.3669 48.3839 52.2533 47.7591 52.2812C47.1343 52.3092 46.5239 52.478 45.9736 52.7751C45.3894 53.0311 44.863 53.4026 44.4261 53.8673C43.9891 54.3319 43.6507 54.8802 43.4311 55.479C43.0921 56.2862 42.7854 57.6099 43.302 58.304C43.3317 58.3425 43.3586 58.3829 43.3827 58.4251C43.076 58.9659 42.3738 59.2322 42.1397 60.7335C42.0444 61.4866 42.0744 62.2502 42.2285 62.9935C42.2714 63.1766 42.374 63.3402 42.5202 63.4585C42.6663 63.5769 42.8476 63.6433 43.0356 63.6473C42.7854 66.0687 42.8258 69.2973 44.1495 71.3878C44.479 71.8768 44.8636 72.3263 45.2956 72.7276C45.7469 73.1698 46.302 73.4917 46.9099 73.6639V75.1006C46.5063 75.3266 46.7888 76.61 46.6193 77.3848C43.3423 77.1588 38.7578 77.9175 36.2153 80.0161C32.2926 83.2769 30.6944 87.8776 30.2747 92.9626C29.7017 99.9767 33.5033 104.319 39.4035 105.07C39.7742 106.298 40.2106 107.505 40.7111 108.686C38.218 113.36 36.3948 118.363 35.2951 123.545C34.488 127.936 34.1086 134.894 34.036 141.569C34.036 144.749 34.036 156.678 35.1014 159.649C35.2709 160.117 35.9974 160.367 36.4736 160.504C37.7979 160.851 39.1472 161.094 40.5093 161.231C40.8483 168.317 41.8572 195.3 41.8572 195.34C40.4703 196.083 39.1936 197.014 38.0636 198.109C37.8841 198.269 37.7494 198.473 37.673 198.701C37.5966 198.929 37.581 199.172 37.6278 199.408C37.7109 199.618 37.8669 199.79 38.0671 199.894C38.2673 199.998 38.4982 200.026 38.7174 199.973C40.0573 199.852 43.6652 198.771 45.2956 198.472C45.336 198.819 45.3925 199.158 45.7315 199.279C46.3126 199.481 47.4588 199.586 47.8785 199.061C48.2982 198.537 48.048 197.164 48.1045 196.575C48.1529 196.139 51.8335 170.747 53.0926 162.038H54.1015C55.6512 170.424 59.8887 194.404 59.8968 194.444C59.0577 195.082 58.2623 195.775 57.5157 196.519C56.8942 197.148 55.853 198.278 56.2647 199.053C56.6763 199.828 57.6449 199.432 58.4601 199.134C60.0744 198.569 62.4958 197.479 63.7307 197.076C63.8195 197.407 63.9244 197.737 64.2715 197.81C64.7531 197.883 65.2444 197.858 65.7163 197.738C66.4023 197.536 66.5234 197.108 66.5234 196.398C66.2248 192.822 66.2167 204.098 66.4588 161.876C67.3538 161.84 68.2406 161.691 69.0982 161.432C71.3824 160.31 71.1725 127.532 68.2023 117.217C68.0005 116.507 66.7252 112.802 65.8212 110.502C65.8496 110.424 65.8496 110.338 65.8212 110.26C65.5558 109.591 65.2568 108.937 64.9253 108.298C65.1674 105.328 65.4257 99.5973 65.6678 97.862L67.6776 99.2422C67.8424 99.8917 68.075 100.522 68.3718 101.123C68.7024 101.99 69.2334 102.768 69.9215 103.391C70.7909 104.192 71.8256 104.792 72.9526 105.149C74.0795 105.506 75.2711 105.611 76.4432 105.457H77.7992C79.365 114.755 78.913 113.779 79.1471 114.013C73.1985 134.514 71.2775 173.402 72.0846 193.113C72.0846 193.206 72.1158 193.297 72.1734 193.371C72.585 193.896 75.1517 194.178 75.9992 194.323C74.4073 195.172 72.8922 196.158 71.4712 197.269C70.7528 197.972 71.6972 199.287 72.577 199.513C73.0612 199.642 79.6475 198.706 80.1479 198.633C80.2125 198.94 80.3578 199.239 80.6645 199.295C81.5279 199.444 82.4039 199.506 83.2796 199.481C83.6348 199.481 84.0868 199.4 84.1675 199.061C84.4371 197.718 84.5937 196.355 84.6356 194.985C85.2087 194.985 85.7818 194.985 85.9674 194.824C87.5817 193.209 94.7895 152.134 95.3787 148.817C95.579 147.704 95.6305 146.569 95.532 145.443C94.3617 131.6 94.7975 137.299 94.6119 131.964C94.6195 131.932 94.6376 131.904 94.6632 131.884C94.6889 131.863 94.7205 131.852 94.7532 131.852C94.7858 131.852 94.8174 131.863 94.8431 131.884C94.8687 131.904 94.8868 131.932 94.8944 131.964C95.4352 138.308 95.758 138.526 96.1939 146.888C96.1939 147.461 102.772 192.467 103.959 193.645C104.59 193.907 105.268 194.039 105.952 194.033C105.875 195.77 106.013 197.511 106.364 199.215C106.386 199.279 106.421 199.337 106.467 199.387C106.513 199.437 106.568 199.477 106.63 199.505C107.219 199.796 109.423 199.505 109.859 199.449C109.997 199.396 110.119 199.307 110.21 199.19C110.301 199.073 110.358 198.934 110.375 198.787C111.061 198.884 117.47 199.788 117.938 199.667C118.818 199.441 119.77 198.125 119.044 197.415C117.363 196.129 115.575 194.99 113.701 194.009C114.669 193.936 116.703 193.758 117.543 193.266C118.81 192.515 117.599 136.209 107.429 113.117C107.615 112.818 108.325 104.529 108.357 104.158C110.909 104.071 113.381 103.25 115.476 101.793L118.705 100.63C116.739 108.121 115.264 115.733 114.29 123.416C114.104 124.933 113.168 132.472 114.177 133.602C114.281 133.719 114.425 133.794 114.581 133.812C115.041 133.852 116.881 134.014 118.842 134.135C118.842 157.292 121.118 169.722 124.791 194.105C124.802 194.181 124.84 194.25 124.898 194.3C124.956 194.351 125.029 194.379 125.106 194.38H125.316C125.468 195.504 125.713 196.614 126.05 197.697C126.559 198.722 134.444 198.698 135.558 198.343C135.752 198.243 135.907 198.08 135.995 197.88C136.083 197.68 136.1 197.456 136.042 197.245C135.72 195.808 132.814 195.494 131.442 194.461H131.918C131.992 194.462 132.065 194.439 132.124 194.393C132.183 194.347 132.224 194.283 132.241 194.21L138.415 163.305C138.488 163.757 142.83 194.783 142.83 194.783C142.844 194.865 142.887 194.938 142.951 194.99C143.015 195.042 143.095 195.069 143.178 195.066H143.815C143.929 196.203 144.112 197.333 144.364 198.448C144.376 198.499 144.4 198.547 144.434 198.587C144.467 198.628 144.51 198.66 144.558 198.682C145.365 199.061 152.46 199.489 153.63 198.851C153.843 198.736 154.004 198.545 154.084 198.317C154.163 198.088 154.154 197.839 154.058 197.616C153.855 197.054 153.493 196.564 153.017 196.204C152.04 195.663 150.337 195.542 149.425 195.066H149.877C149.954 195.061 150.028 195.032 150.087 194.983C150.147 194.934 150.189 194.866 150.208 194.791C150.208 194.791 152.556 186.163 153.937 166.316C154.744 154.741 154.97 142.908 154.881 131.463C155.914 131.544 157.674 131.625 158.545 131.584C158.788 131.584 159.022 131.584 159.127 131.35C160.063 129.486 159.353 110.954 158.828 106.28C158.78 105.828 157.625 98.1525 157.472 97.1517C160.16 97.0468 164.042 96.4737 166.246 94.8998C177.546 86.8284 179.701 73.0424 180.621 71.1941C180.71 71.0003 180.492 70.9035 179.951 70.6371C180.261 69.7158 180.631 68.8153 181.057 67.9413C182.179 67.3198 183.478 66.6095 183.567 65.3261C183.61 65.1798 183.6 65.0231 183.54 64.883C183.479 64.743 183.372 64.6285 183.236 64.5594ZM102.74 56.3185C102.675 56.3185 102.659 56.27 102.659 56.1893C102.659 56.1086 102.812 56.3185 102.74 56.3185ZM132.451 86.9898C136.438 87.24 138.811 87.2723 142.863 87.2481C143.121 88.8139 143.412 90.5251 143.726 92.3411C141.555 92.3411 134.194 92.4218 132.281 92.3896C132.37 90.6138 132.435 88.7978 132.451 87.0059V86.9898ZM131.393 103.883C136.091 104.158 139.578 104.23 145.817 104.101C146.237 106.402 146.672 108.726 147.06 110.768C143.282 110.881 134.565 111.035 130.643 110.922C130.796 109.638 131.111 106.523 131.393 103.899V103.883ZM130.304 113.52C136.454 113.876 141.378 113.892 147.633 113.706C147.94 115.256 148.238 116.757 148.529 118.17C141.394 118.444 134.412 118.46 129.448 118.363C129.776 116.765 130.062 115.151 130.304 113.52ZM145.292 101.195C142.871 101.244 133.992 101.341 131.635 101.308C131.845 99 132.007 96.9095 132.128 95.0128C136.002 95.2549 138.633 95.3437 144.235 95.2791C144.429 96.3445 145.139 100.308 145.292 101.195ZM141.822 79.6448C141.918 80.9685 142.209 83.0187 142.411 84.3343C140.353 84.3343 134.057 84.4069 132.443 84.3827C132.426 82.7258 132.316 81.0712 132.112 79.4269C134.291 82.3568 140.175 81.9532 141.822 79.6448ZM128.907 120.938C135.65 121.345 142.41 121.396 149.158 121.091C149.465 122.512 149.748 123.803 150.014 124.933C148.739 124.861 133.661 124.126 128.173 123.86C128.399 122.94 128.641 121.963 128.883 120.938H128.907ZM130.675 68.6758C130.392 68.1108 128.601 67.8686 128.431 66.44C128.237 64.7692 130.183 64.7127 130.852 65.4634C130.909 65.5199 131.304 66.0526 131.353 66.1171C131.773 66.6821 132.16 66.6983 132.289 65.8911C132.475 64.3899 132.015 61.3873 133.766 61.7021C135.018 62.0946 136.305 62.3649 137.608 62.5092C140.086 62.7352 142.056 62.5092 143.654 60.7335C143.831 60.6932 144.421 60.6689 144.63 60.6528C144.704 61.5063 144.725 62.3634 144.695 63.2195C144.75 65.8105 144.3 68.3874 143.371 70.8066C142.088 73.8818 140.312 74.6244 140.312 74.6244C140.271 74.6401 140.233 74.6639 140.201 74.6944C140.17 74.7249 140.144 74.7615 140.127 74.802C140.054 74.9876 140.03 74.802 141.547 78.2C141.87 81.1299 133.193 82.3245 132.071 77.7238L132.346 75.375C132.378 75.2055 131.417 70.1851 130.651 68.6758H130.675ZM112.918 83.2043C115.47 85.7383 117.229 88.9609 117.979 92.4783C118.455 94.8998 118.253 96.9338 117.462 98.3301C116.944 99.2271 116.297 100.043 115.541 100.752C114.749 101.561 113.783 102.179 112.716 102.56C110.475 103.381 108.071 103.658 105.702 103.367C102.551 102.968 99.4407 102.301 96.4037 101.373C96.4037 101.131 96.3553 100.873 96.3311 100.566L99.1157 99.5489C99.649 99.4005 100.166 99.1977 100.657 98.9435C100.94 98.7983 100.964 98.3705 100.996 98.0073C101.134 96.6835 100.859 96.8611 101.263 96.5383C102.167 95.828 104.653 95.1338 105.734 94.8271C106.098 94.7303 106.622 94.6495 106.461 94.3025C106.41 93.8067 106.207 93.3388 105.88 92.9626C104.177 85.7468 104.467 85.771 104.193 85.8194C104.174 85.8212 104.156 85.8269 104.14 85.8364C104.123 85.8458 104.11 85.8586 104.099 85.874C104.088 85.8893 104.081 85.9068 104.077 85.9253C104.074 85.9438 104.075 85.9627 104.08 85.9809C104.443 88.1279 104.984 90.9044 105.371 92.777L104.37 92.6317C104.201 92.6317 104.031 92.6317 103.991 92.551C103.668 91.8811 103.805 91.0901 103.03 90.7026C102.95 90.6483 102.858 90.6115 102.763 90.5947C102.667 90.5779 102.569 90.5814 102.474 90.6049C102.38 90.6285 102.292 90.6717 102.215 90.7316C102.138 90.7916 102.075 90.8669 102.03 90.9528C101.61 91.76 102.118 93.568 102.03 93.5438C101.6 93.7199 101.15 93.8419 100.69 93.907C100.671 93.833 100.638 93.7635 100.592 93.7026C100.547 93.6416 100.489 93.5903 100.423 93.5518C98.7858 92.7515 97.0816 92.0952 95.3303 91.5905C94.9509 88.4104 94.4505 84.4069 94.2729 83.0671C94.3348 83.0383 94.392 83.0002 94.4424 82.9541C94.7272 82.3923 94.9362 81.7952 95.0639 81.1784C95.2011 81.3317 95.3141 81.477 95.5643 81.3802C97.754 79.7888 99.8233 78.0379 101.755 76.1418C105.85 77.8318 109.625 80.2095 112.918 83.172V83.2043ZM102.699 91.3483C103.281 91.6793 102.966 92.664 103.62 93.1563C104.275 93.3484 104.955 93.4409 105.637 93.4308C105.798 93.6969 105.899 93.9941 105.936 94.3025C105.307 94.4962 102.247 95.1742 100.972 96.054C100.946 95.4447 100.879 94.838 100.77 94.2379C101.432 94.1814 102.264 94.2379 102.506 93.8101C102.748 93.3823 102.336 91.1304 102.699 91.3483ZM101.142 76.0127C99.6969 77.2637 96.4603 79.9435 95.4917 80.6537C95.0074 80.113 93.7402 78.6117 93.385 78.0628C94.1922 77.3687 97.1786 75.3508 97.6145 75.1087C98.8202 75.2519 100.004 75.5391 101.142 75.9643V76.0127ZM88.4292 75.0522L92.368 78.087C91.7708 78.7247 90.3098 79.9919 89.6561 80.6537C88.7359 79.9919 86.2257 77.3364 84.8132 75.8674C85.9992 75.5161 87.2072 75.2438 88.4292 75.0522ZM86.2338 64.3656C86.1208 64.2042 86.1046 64.2526 85.2814 63.8168C84.7406 63.3729 84.0868 63.0097 83.8446 62.3478C83.8446 61.7989 84.0141 61.1209 84.5872 61.1532C85.0205 61.2531 85.4225 61.4582 85.7576 61.7505C86.1239 61.8707 86.5178 61.8788 86.8887 61.7738C87.2597 61.6689 87.5909 61.4556 87.84 61.1613C88.1197 60.6576 88.2031 60.0682 88.0741 59.5067C88.6051 59.4592 89.097 59.2074 89.4462 58.8044C89.6184 58.4561 89.7225 58.078 89.7529 57.6906C90.5078 57.9051 91.3143 57.845 92.029 57.5211C92.5176 57.3106 92.9635 57.0124 93.3447 56.6413C93.4292 56.8537 93.5404 57.0544 93.6756 57.2386C93.8011 57.4305 93.9761 57.5851 94.1821 57.6859C94.388 57.7868 94.6174 57.8302 94.846 57.8117C95.1309 57.7665 95.4047 57.6679 95.6531 57.5211V57.844C95.6488 58.0915 95.6989 58.337 95.7997 58.5632C95.9005 58.7893 96.0496 58.9906 96.2365 59.153C96.4235 59.3153 96.6438 59.4347 96.8818 59.5028C97.1199 59.5709 97.3699 59.586 97.6145 59.547C97.6095 59.6007 97.6095 59.6547 97.6145 59.7084C97.6952 60.1443 97.5257 61.4599 98.131 61.6133C98.7364 61.7667 98.4055 60.2573 99.5677 60.0717C99.7766 60.0207 99.9967 60.0445 100.19 60.1388C100.383 60.2332 100.537 60.3922 100.625 60.5882C100.851 61.3147 100.625 61.6375 100.246 62.3559L99.9955 62.6384C99.6081 63.0581 99.1884 63.502 99.1884 63.9056C99.2125 65.1402 98.9789 66.3662 98.5023 67.5054C98.0921 68.6602 97.3716 69.6795 96.4199 70.4515C96.3725 70.4879 96.3356 70.5362 96.313 70.5915C96.2903 70.6468 96.2826 70.7071 96.2907 70.7663L96.9526 74.6486L92.7716 77.4897C92.0371 76.9247 93.0138 77.7642 88.9942 74.6567L89.4301 70.9035C89.4375 70.8346 89.4247 70.7651 89.3932 70.7034C89.3616 70.6417 89.3127 70.5906 89.2525 70.5564C86.3549 68.9341 86.5808 64.9226 86.2338 64.3656ZM76.8709 79.6206C79.0792 78.0392 81.5337 76.8338 84.1352 76.053C85.6128 77.7532 87.1838 79.37 88.8408 80.8959C89.196 81.2026 89.648 81.5819 89.9628 81.2591C90.0758 81.1299 90.2453 80.9604 90.439 80.7667C90.6404 81.4671 90.8775 82.1568 91.1493 82.833C91.1814 82.8928 91.2251 82.9457 91.2777 82.9887C91.3303 83.0316 91.3909 83.0637 91.456 83.0832C91.3672 84.1244 91.1493 87.1189 90.8991 90.4363C88.3383 89.8866 85.7197 89.6535 83.1021 89.7421C83.1021 89.5323 83.3604 87.0463 83.3684 86.9656C83.3684 86.5297 83.3684 85.9566 83.4169 85.7306C83.4265 85.6953 83.4217 85.6576 83.4035 85.6258C83.3854 85.5941 83.3553 85.5708 83.32 85.5611C83.2847 85.5515 83.247 85.5563 83.2152 85.5745C83.1834 85.5926 83.1601 85.6227 83.1505 85.658C82.4322 87.1189 82.5613 88.1521 82.6581 89.7663C80.8528 89.8556 79.0831 90.3028 77.4521 91.082C77.4189 91.0991 77.3939 91.1287 77.3825 91.1643C77.3712 91.1999 77.3744 91.2385 77.3916 91.2717C77.4087 91.3048 77.4383 91.3299 77.4739 91.3412C77.5094 91.3526 77.548 91.3493 77.5812 91.3322C83.2312 88.5718 93.4819 91.1869 98.9301 93.5357C99.3102 93.6914 99.6796 93.8721 100.036 94.0765C100.284 95.3492 100.36 96.6496 100.262 97.9427C100.262 98.3059 100.262 98.3947 99.6162 98.6449C99.1561 98.8305 98.6072 98.9597 98.2682 99.0888C97.1625 99.5005 96.097 99.896 95.0397 100.3C89.0709 102.215 82.972 103.699 76.7902 104.739C74.7805 104.739 72.133 104.368 70.656 102.979C64.2634 96.9983 70.9465 83.6886 76.8709 79.6206ZM46.6193 72.7841C45.8692 72.3515 45.2285 71.7522 44.7468 71.0326C43.4876 69.0793 43.4715 65.8831 43.6813 63.5746C44.809 63.2237 45.834 62.6031 46.6678 61.7667C47.5701 60.8445 48.3587 59.8175 49.0165 58.7076L49.4685 57.8359C50.2868 59.9289 51.6872 61.7438 53.5042 63.0661C54.136 63.3554 54.8195 63.5146 55.514 63.5343C55.4982 64.1673 55.566 64.7997 55.7158 65.4149C55.7319 65.4475 55.7545 65.4765 55.7823 65.5C55.81 65.5235 55.8422 65.5411 55.877 65.5517C55.9118 65.5623 55.9484 65.5656 55.9845 65.5615C56.0206 65.5575 56.0555 65.546 56.0871 65.5279C56.4422 65.3342 56.5794 64.293 57.1283 63.5746C57.2736 63.3729 57.4431 63.2195 57.6529 63.2679C57.8743 63.3018 58.0845 63.3876 58.2664 63.5181C59.0735 64.1154 58.4278 66.5046 56.9184 67.2471C56.4664 67.4731 54.1096 70.2174 53.9562 71.0811C53.8553 71.5554 53.8803 72.048 54.0289 72.5097C54.0773 73.2119 54.158 74.124 54.2145 74.9311C52.7213 74.9311 49.0811 74.9311 47.5879 75.0038C47.6605 73.0101 47.7009 73.22 46.6193 72.7841ZM61.6967 161.4H55.6028C56.531 149.906 57.661 121.721 57.4189 111.737C58.4951 111.688 59.4636 111.624 60.3246 111.543C62.1649 121.059 63.1899 152.094 61.6967 161.4ZM41.5182 160.666C40.6465 151.036 41.5182 119.784 43.8266 111.43C44.2302 111.486 47.1198 111.745 47.1198 111.745C45.8929 121.608 44.6338 149.914 45.0696 160.98C43.762 160.883 42.5675 160.762 41.4698 160.666H41.5182ZM50.4452 111.156L47.4103 111.035C47.4033 110.165 47.4654 109.296 47.596 108.436L48.6856 108.355L51.0425 108.298C50.9264 109.266 50.7265 110.222 50.4452 111.156ZM41.0985 108.5L46.9422 108.387C46.7785 109.276 46.7028 110.179 46.7162 111.083C44.5234 111.065 42.3371 110.841 40.1864 110.413C40.7837 109.105 41.0339 108.662 41.0985 108.5ZM47.6767 161.126C47.4103 151.053 49.0488 120.236 50.0981 111.785C51.2039 111.785 52.0272 111.842 54.3194 111.785C54.3194 115.611 53.1733 156.581 52.9069 161.303C51.5267 161.303 48.0318 161.15 47.6767 161.126ZM51.0667 111.164C51.2647 110.222 51.3621 109.261 51.3572 108.298C56.6602 108.201 61.8501 108.072 64.1908 108.387C64.5097 108.949 64.7797 109.538 64.9979 110.147C60.4376 111.123 55.3203 111.164 51.0667 111.164ZM35.8682 159.552C34.4719 158.664 34.0199 133.61 35.731 123.618C36.6013 119.145 38.0474 114.804 40.0331 110.704L40.8806 110.881C38.6206 119.041 37.7166 148.696 38.8385 160.286C37.8193 160.18 36.8197 159.932 35.8682 159.552ZM47.5475 195.873C45.3037 196.18 44.093 196.357 43.2132 196.551C42.7084 196.598 42.2035 196.461 41.7926 196.164C42.4545 195.768 42.5998 195.825 42.5998 195.445C42.6724 193.879 41.0743 164.37 40.8806 161.247C44.5611 161.666 49.1618 161.892 52.8424 161.997C51.5913 169.697 48.1206 191.926 47.5233 195.897L47.5475 195.873ZM65.6113 194.21C63.5612 194.783 62.2779 195.155 61.4142 195.478C60.92 195.595 60.3999 195.526 59.9533 195.284C60.5344 194.824 60.6555 194.856 60.6232 194.477C60.4779 192.862 54.7876 163.668 54.4647 162.046C59.0331 162.143 63.3433 162.094 66.1441 161.9C65.9584 170.965 65.6356 190.514 65.5871 194.235L65.6113 194.21ZM67.6615 117.362C70.3573 126.911 70.6318 156.105 68.8157 160.795C68.1377 161.134 65.0948 161.263 64.3522 161.295C65.9665 151.246 65.1593 120.938 63.311 111.147C64.0697 111.026 64.7477 110.897 65.3773 110.76C66.2732 113.206 67.4516 116.725 67.6373 117.387L67.6615 117.362ZM61.9631 93.7698C61.616 93.455 61.277 93.1725 60.9864 92.8658C60.9639 92.8369 60.9309 92.8181 60.8946 92.8135C60.8583 92.809 60.8216 92.8191 60.7927 92.8416C60.7638 92.864 60.745 92.8971 60.7405 92.9334C60.7359 92.9697 60.746 93.0064 60.7685 93.0353C62.1487 95.2953 64.0616 96.3849 65.0867 97.3131C64.8284 98.2978 64.5621 104.198 64.2796 107.693C62.1487 107.201 51.0182 107.782 47.2812 107.782C47.196 107.783 47.1148 107.818 47.0552 107.879C44.1172 108.016 41.8007 108.153 41.155 108.193C40.7676 107.289 40.2833 105.828 39.9846 104.9C41.2935 105.135 42.6347 105.124 43.9396 104.868C43.9621 105.359 44.0685 105.842 44.2544 106.297C44.658 106.652 58.0888 105.691 58.5166 105.602C58.8071 105.538 58.8152 105.134 58.8394 104.795C58.9121 103.988 58.9605 102.212 58.9928 100.13C59.1177 100.08 59.2303 100.004 59.3228 99.9062C59.4153 99.8086 59.4854 99.692 59.5284 99.5646C59.5714 99.4371 59.5862 99.3019 59.5718 99.1682C59.5573 99.0345 59.514 98.9055 59.4448 98.7902C59.5392 98.67 59.608 98.5317 59.6471 98.3839C59.6862 98.2362 59.6946 98.082 59.672 97.9308C59.6493 97.7796 59.596 97.6347 59.5152 97.5049C59.4345 97.3751 59.3282 97.2631 59.2026 97.1759C59.307 97.0742 59.3864 96.9497 59.4346 96.8122C59.4828 96.6746 59.4985 96.5278 59.4806 96.3832C59.4626 96.2386 59.4114 96.1001 59.331 95.9786C59.2505 95.857 59.1431 95.7558 59.017 95.6827C59.017 92.7689 59.017 89.9278 58.9121 88.3377C58.8636 87.0301 58.8233 86.8849 58.6215 86.7234C58.226 86.4813 56.5229 86.5781 55.7562 86.6104C55.7668 86.2681 55.6739 85.9306 55.4898 85.6419C55.1185 85.2787 53.48 85.6419 52.5276 85.6419C52.3177 84.9719 52.2128 84.4715 51.4702 84.1244C51.1047 83.9953 50.7043 84.0064 50.3465 84.1555C49.9886 84.3046 49.6988 84.5811 49.5331 84.9316C49.5331 85.0123 49.299 85.6742 49.2506 85.8921C48.3845 85.9576 47.5224 86.0681 46.6678 86.223C46.361 86.3199 46.3368 86.9656 46.3288 87.4176C43.2535 87.7404 43.0518 87.7404 42.9953 88.0552C42.9388 88.37 43.1648 93.5034 43.1809 93.9312C42.4262 94.027 41.6792 94.1753 40.9451 94.3751C41.0979 93.3727 41.1895 92.3619 41.2196 91.3483C41.2196 90.9044 41.2599 89.0076 40.9936 88.9996C40.7272 88.9915 40.5658 90.856 40.5416 91.2273C40.4931 91.7923 40.4205 93.8989 40.4608 94.5285C40.1218 94.6334 39.799 94.7464 39.4681 94.8755C39.4338 94.8884 39.4061 94.9143 39.3909 94.9476C39.3758 94.9809 39.3745 95.0189 39.3873 95.0531C39.4002 95.0874 39.4261 95.1151 39.4594 95.1303C39.4927 95.1454 39.5307 95.1467 39.5649 95.1338C44.1253 93.5599 50.2999 94.4397 53.6818 96.1347L53.8352 99.5327C50.9133 101.575 46.2642 104.101 42.7128 104.553C41.6654 104.674 40.6064 104.652 39.5649 104.489C33.4468 103.698 30.2909 99.3148 30.7348 93.0191C31.0819 88.1198 32.6397 83.3819 36.4009 80.2421C38.8223 78.2323 43.4473 77.5462 46.5951 77.8207C47.4023 77.8852 46.9664 76.1418 47.1763 75.5123C47.483 75.4638 48.4596 75.4477 48.7905 75.4396C48.7505 75.9958 48.7505 76.5542 48.7905 77.1104C48.7905 77.3445 48.96 78.2242 49.1699 78.1597C49.3797 78.0951 49.4605 77.409 49.4685 77.2153C49.4766 77.0216 49.4685 76.9974 49.3959 75.4396H52.0837C52.0512 75.9772 52.0512 76.5163 52.0837 77.0539C52.0837 77.288 52.2532 78.1677 52.463 78.1032C52.6729 78.0386 52.7536 77.3525 52.7617 77.1588C52.7697 76.9651 52.7617 76.5615 52.689 75.4558H54.6584C54.7392 75.7174 54.7827 75.9891 54.7876 76.2629C54.7876 77.1992 54.6262 77.3364 54.7876 77.522C55.2234 78.0144 59.1784 76.0611 70.7448 85.6903C68.5897 89.3224 66.8866 94.0765 67.5162 98.2655C65.6356 96.9983 65.9988 97.3938 61.9631 93.7698ZM43.762 93.8424C43.6813 91.1385 43.6168 88.6686 43.6168 88.37C44.2544 88.2731 45.6992 88.1279 46.3368 88.0633C46.3368 89.2498 46.3853 89.3305 47.144 89.4112C48.5887 89.5807 54.9571 89.4112 55.627 88.8381C55.6878 88.7889 55.735 88.725 55.7642 88.6525C55.8154 88.2078 55.8262 87.7593 55.7965 87.3126C56.5842 87.2682 57.3738 87.2682 58.1614 87.3126C58.3148 88.7494 58.3309 94.0523 58.3309 95.497C58.0279 95.4998 57.7265 95.5432 57.435 95.6262C57.548 94.9643 57.7175 93.8908 57.0476 93.7456C56.8683 93.6943 56.6778 93.6967 56.4999 93.7527C56.322 93.8087 56.1644 93.9156 56.0467 94.0603C55.6972 94.5994 55.4915 95.2191 55.4494 95.8603C55.0799 95.8615 54.7106 95.8399 54.3437 95.7957C54.3312 95.752 54.3096 95.7115 54.2804 95.6767C54.2512 95.6419 54.215 95.6137 54.1742 95.5939C50.9234 94.0874 47.3251 93.4905 43.762 93.8666V93.8424ZM58.9363 98.3059C58.6215 98.4915 58.4197 98.3624 57.8547 98.435C57.767 98.435 57.6828 98.4699 57.6207 98.532C57.5587 98.594 57.5238 98.6782 57.5238 98.766C57.5238 98.8537 57.5587 98.9379 57.6207 99C57.6828 99.062 57.767 99.0969 57.8547 99.0969C58.1231 99.1244 58.3935 99.1244 58.6619 99.0969C58.7264 99.0969 58.9605 99.1453 58.9605 99.2099C58.9605 99.9444 57.5157 99.6619 56.8781 99.2906C56.0881 99.2422 55.2955 99.3185 54.5293 99.5166L54.3679 96.1912C54.807 96.3088 55.265 96.3389 55.7158 96.28C55.7782 96.2451 55.8246 96.1871 55.8449 96.1185C56.0306 95.4405 56.1839 94.1895 56.8942 94.3671C56.9359 94.8753 56.884 95.3869 56.7409 95.8764C56.6602 96.3768 56.8539 96.4898 57.2332 96.4575C57.5722 96.3053 57.9358 96.2151 58.3067 96.1912C58.5166 96.1912 58.7264 96.1912 58.791 96.4333C58.8556 96.6755 58.6457 96.7643 58.4439 96.8369C58.2421 96.9095 57.4511 97.0225 57.3704 97.0387C57.2906 97.0638 57.2226 97.1169 57.1789 97.1882C57.1351 97.2596 57.1186 97.3443 57.1324 97.4268C57.1461 97.5093 57.1892 97.5841 57.2537 97.6373C57.3182 97.6906 57.3998 97.7188 57.4834 97.7167C58.4601 97.6118 58.2906 97.5633 58.5811 97.6279C58.7077 97.6576 58.8202 97.73 58.8996 97.8329C58.979 97.9358 59.0204 98.063 59.017 98.1929C59.0184 98.2211 59.0114 98.2492 58.9971 98.2735C58.9828 98.2979 58.9616 98.3176 58.9363 98.3301V98.3059ZM54.4889 99.8475C55.2008 99.7533 55.9179 99.7048 56.6359 99.7022C57.1398 100.02 57.7192 100.199 58.3148 100.219C58.3148 101.664 58.3148 104.255 58.2179 105.013C56.4584 105.199 46.1996 106.2 44.44 106.038C44.3469 105.624 44.2848 105.203 44.2544 104.779C48.7098 103.859 54.2629 100.3 54.4889 99.8717V99.8475ZM83.546 198.73C82.626 198.79 81.7022 198.741 80.7937 198.585V198.181C80.7843 198.085 80.7381 197.995 80.6645 197.931C80.4466 197.762 80.6161 197.883 74.9661 198.601L73.1177 198.811C72.9402 198.811 72.7384 198.9 72.7384 198.811C72.3025 198.698 71.6649 197.931 71.9312 197.649C73.4396 196.438 75.0308 195.335 76.6934 194.348C79.2036 194.646 82.2062 194.856 84.0626 194.913C83.9804 196.203 83.8105 197.487 83.5541 198.755L83.546 198.73ZM110.819 194.081C111.57 194.081 112.321 194.041 113.039 194C114.129 194.67 117.728 196.89 118.616 197.802C118.762 197.955 118.616 198.254 118.487 198.424C117.971 199.134 117.575 198.956 117.43 198.94C116.058 198.827 111.513 198.189 110.165 197.996C110.119 197.989 110.071 197.992 110.025 198.004C109.979 198.017 109.937 198.038 109.9 198.068C109.863 198.097 109.832 198.134 109.81 198.176C109.787 198.217 109.774 198.263 109.77 198.311V198.714C108.865 198.878 107.943 198.929 107.026 198.868C106.699 197.296 106.532 195.695 106.525 194.089C106.509 193.855 106.267 194.186 110.827 194.105L110.819 194.081ZM106.897 112.657C102.756 112.657 83.0617 113.149 79.704 113.529C79.6233 112.156 78.687 106.515 78.461 105.159C82.3566 104.488 86.2145 103.615 90.0193 102.543C89.9244 103.092 89.9 103.651 89.9466 104.206C90.9195 105.381 92.0004 106.462 93.1752 107.435C93.2359 107.483 93.3085 107.513 93.3853 107.523C93.4621 107.533 93.5401 107.522 93.611 107.491C94.7652 106.528 95.7548 105.383 96.541 104.101C96.5745 103.434 96.5285 102.764 96.4037 102.108C98.6476 102.915 104.733 104.19 107.784 104.142C107.639 105.812 107.026 111.801 106.897 112.657ZM115.452 120.107C117.519 105.877 119.448 101.163 119.488 100.114C120.767 99.5577 121.958 98.8182 123.023 97.9185C123.442 97.5468 123.836 97.1477 124.202 96.7239C124.339 96.5948 124.153 96.393 124.024 96.514C123.895 96.6351 123.58 96.8046 123.354 96.9499C120.61 98.7902 119.98 99.4601 116.76 100.606C117.463 99.9115 117.996 99.0634 118.318 98.1283C119.73 93.3581 117.785 88.4426 114.694 84.5764C118.38 82.2994 122.301 80.4267 126.389 78.991C128.001 78.4506 129.653 78.035 131.329 77.748C131.389 78.1013 131.501 78.4438 131.66 78.765C132.951 86.6992 130.401 109.792 128.883 117.459C128.003 121.915 126.324 128.412 124.395 132.569C124.267 132.877 124.113 133.174 123.935 133.457C122.918 133.796 115.783 133.199 114.677 133.094C113.854 131.6 115.218 121.834 115.468 120.107H115.452ZM149.594 194.364H143.468C143.468 194.122 138.916 161.925 138.787 161.481C139.303 158.163 142.822 140.366 142.701 135.919C142.701 135.882 142.687 135.847 142.661 135.822C142.635 135.796 142.6 135.781 142.564 135.781C142.528 135.781 142.493 135.796 142.467 135.822C142.441 135.847 142.427 135.882 142.427 135.919C142.427 136.387 142.282 137.291 142.088 138.493C139.093 157.187 136.793 167.954 131.644 193.815L125.412 193.75C121.328 167.922 119.327 155.395 119.222 134.167C120.077 134.216 123.629 134.442 124.315 134.094C124.557 133.973 124.807 133.433 124.96 133.118C126.172 130.352 127.171 127.497 127.947 124.578C133.476 124.885 147.681 125.547 150.127 125.676C151.168 130.583 151.241 130.866 151.531 130.971C152.455 131.206 153.398 131.355 154.348 131.415C154.413 147.776 153.557 178.439 149.61 194.323L149.594 194.364ZM180.266 71.1618C179.152 73.7688 176.779 86.8122 165.915 94.4316C163.792 95.9168 159.926 96.4495 157.343 96.5221C157.226 95.2527 156.983 93.9981 156.616 92.777C156.455 92.2766 156.213 91.6873 156.068 91.3322C156.052 91.3027 156.028 91.2793 155.997 91.2658C155.967 91.2523 155.933 91.2496 155.901 91.258C155.869 91.2665 155.841 91.2857 155.821 91.3124C155.802 91.3391 155.792 91.3717 155.793 91.4048C156.237 94.9401 156.31 93.6891 156.794 96.8853C156.794 96.8853 158.126 105.901 158.174 106.345C158.796 111.995 159.191 128.574 158.562 130.874C156.333 130.926 154.105 130.753 151.911 130.357C151.047 127.476 142.596 85.6176 142.411 78.5471C144.55 78.9345 152.799 81.9048 159.708 82.1227C165.874 82.3084 175.148 69.2085 175.229 69.2085C175.867 69.0955 179.386 70.5887 180.274 71.1214L180.266 71.1618ZM182.97 65.2777C182.905 66.3189 181.694 67.0211 180.798 67.57C180.484 67.7718 179.773 70.169 179.684 70.508C178.569 69.9868 177.423 69.5314 176.254 69.1439C177.061 67.9171 177.764 67.2714 177.457 66.9808C176.9 66.4723 175.842 65.7862 176.391 65.2131C176.459 65.2279 176.524 65.2524 176.585 65.2858C177.352 65.649 177.965 66.6337 178.296 66.0284C178.444 65.317 178.646 64.6181 178.902 63.9379C179.329 62.9451 179.596 63.1307 179.491 64.0993C179.399 64.7613 179.234 65.411 178.998 66.0364C178.971 66.1242 178.979 66.2194 179.021 66.3012C179.064 66.3829 179.137 66.4445 179.224 66.4723C179.312 66.5001 179.407 66.4919 179.489 66.4496C179.571 66.4072 179.632 66.334 179.66 66.2463C179.862 65.5321 180.163 64.85 180.556 64.2204C180.952 63.6392 181.428 63.4939 181.412 63.8894C181.286 64.5984 181.011 65.2726 180.605 65.8669C180.501 66.0119 180.437 66.1817 180.419 66.3593C180.406 66.4347 180.419 66.5123 180.457 66.5789C180.495 66.6454 180.554 66.6969 180.626 66.7245C180.697 66.7521 180.776 66.7541 180.848 66.7302C180.921 66.7063 180.983 66.6579 181.024 66.5934C181.267 66.2544 181.537 65.9359 181.831 65.6409C182.308 65.1728 183.002 64.8499 182.978 65.2374L182.97 65.2777Z" fill="#2A344A"/>
<path d="M92.0699 65.9073C92.4009 66.658 94.2089 66.1898 93.8537 65.8105C93.828 65.7848 93.7932 65.7704 93.7569 65.7704C93.7206 65.7704 93.6857 65.7848 93.66 65.8105C93.5524 65.845 93.4367 65.845 93.3291 65.8105C93.1089 65.7789 92.8942 65.7164 92.6914 65.6248V62.59C92.6838 62.5583 92.6657 62.53 92.6401 62.5099C92.6145 62.4897 92.5828 62.4787 92.5502 62.4787C92.5176 62.4787 92.4859 62.4897 92.4603 62.5099C92.4347 62.53 92.4166 62.5583 92.4089 62.59C92.1192 63.4716 91.9961 64.3995 92.0457 65.3262C92.0255 65.52 92.0336 65.7158 92.0699 65.9073ZM89.7292 63.9056C89.7292 63.6877 89.7292 63.4536 89.6808 63.2518C89.6649 63.1618 89.615 63.0814 89.5413 63.0272C89.4677 62.9731 89.376 62.9495 89.2853 62.9613C89.2395 62.9681 89.1954 62.9841 89.1559 63.0082C89.1163 63.0323 89.082 63.0641 89.0549 63.1017C89.0278 63.1394 89.0085 63.182 88.9982 63.2272C88.9879 63.2724 88.9867 63.3192 88.9947 63.3648C88.9947 63.5101 88.9947 63.6796 89.0351 63.954C89.0383 63.9996 89.0504 64.0441 89.0708 64.085C89.0912 64.1259 89.1194 64.1624 89.1539 64.1924C89.1884 64.2223 89.2284 64.2452 89.2717 64.2597C89.315 64.2743 89.3608 64.2801 89.4064 64.2769C89.452 64.2737 89.4965 64.2616 89.5374 64.2412C89.5782 64.2208 89.6147 64.1926 89.6447 64.1581C89.6747 64.1236 89.6976 64.0836 89.7121 64.0403C89.7266 63.997 89.7324 63.9512 89.7292 63.9056ZM95.1774 63.8491C95.1774 63.9412 95.214 64.0294 95.2791 64.0945C95.3442 64.1596 95.4325 64.1962 95.5245 64.1962C95.6166 64.1962 95.7048 64.1596 95.7699 64.0945C95.835 64.0294 95.8716 63.9412 95.8716 63.8491V63.4859C95.9178 63.4204 95.9405 63.3412 95.9359 63.2611C95.9314 63.1811 95.8999 63.1049 95.8465 63.045C95.7932 62.9852 95.7212 62.9451 95.6422 62.9313C95.5632 62.9176 95.4819 62.931 95.4115 62.9693C95.0967 63.1711 95.1774 63.5747 95.1774 63.8491ZM93.547 68.8372C93.2568 68.9988 92.9513 69.1313 92.6349 69.2327C92.4574 69.2327 92.417 69.483 92.6349 69.5072C92.8399 69.6102 93.0675 69.6601 93.2968 69.6525C93.531 69.6248 93.7558 69.5443 93.9543 69.417C94.1529 69.2898 94.3199 69.1192 94.4429 68.918C94.5427 68.7038 94.5845 68.4672 94.564 68.2319C94.5715 68.1955 94.5642 68.1576 94.5438 68.1266C94.5234 68.0956 94.4914 68.0739 94.455 68.0664C94.4186 68.0589 94.3808 68.0662 94.3497 68.0866C94.3187 68.1071 94.2971 68.139 94.2896 68.1754C94.0692 68.4247 93.8199 68.6469 93.547 68.8372ZM138.602 69.3861C139.215 69.5798 140.216 69.709 140.644 69.2247C141.071 68.7404 140.837 67.4812 140.789 66.9485C140.688 65.9024 140.461 64.8725 140.111 63.8814C140.103 63.845 140.082 63.8131 140.051 63.7927C140.02 63.7722 139.982 63.7649 139.945 63.7724C139.909 63.7799 139.877 63.8016 139.857 63.8326C139.836 63.8636 139.829 63.9015 139.837 63.9379C139.837 64.1881 139.95 65.423 139.974 65.7378C140.128 66.766 140.182 67.8067 140.135 68.8453C139.954 68.9678 139.747 69.0452 139.53 69.0713C138.723 69.2085 138.537 69.0148 138.497 69.2247C138.492 69.2422 138.491 69.2606 138.494 69.2785C138.497 69.2965 138.503 69.3136 138.513 69.3288C138.523 69.3441 138.536 69.3571 138.551 69.3669C138.566 69.3768 138.584 69.3833 138.602 69.3861ZM137.238 64.067C137.238 63.8088 136.495 63.6796 136.011 63.7845C135.526 63.8895 134.865 64.398 135.05 64.5917C135.236 64.7854 137.205 64.3011 137.238 64.067ZM136.705 65.9961V66.6903C136.705 66.7823 136.741 66.8706 136.806 66.9357C136.872 67.0008 136.96 67.0373 137.052 67.0373C137.144 67.0373 137.232 67.0008 137.297 66.9357C137.362 66.8706 137.399 66.7823 137.399 66.6903V66.0203C137.401 65.9275 137.367 65.8375 137.304 65.7696C137.24 65.7017 137.153 65.6613 137.06 65.6571C136.968 65.657 136.881 65.6922 136.814 65.7554C136.748 65.8185 136.709 65.9047 136.705 65.9961ZM143.59 64.398C143.654 64.3011 143.396 63.7845 142.783 63.5908C142.169 63.3971 141.701 63.7038 141.701 63.8491C141.701 63.9944 143.469 64.5755 143.59 64.398ZM136.358 71.1134C136.172 71.1699 136.172 72.3322 137.278 72.6631C137.843 72.8245 138.61 72.7357 138.626 72.5339C138.642 72.3322 137.528 72.09 137.165 71.8398C136.802 71.5896 136.511 71.065 136.358 71.1134ZM142.484 65.5199C142.438 65.5188 142.393 65.5267 142.35 65.5432C142.308 65.5597 142.269 65.5843 142.236 65.6158C142.203 65.6473 142.177 65.685 142.158 65.7267C142.14 65.7684 142.13 65.8133 142.129 65.8589V66.545C142.142 66.6289 142.184 66.7056 142.248 66.7609C142.313 66.8163 142.395 66.8467 142.48 66.8467C142.565 66.8467 142.647 66.8163 142.711 66.7609C142.776 66.7056 142.818 66.6289 142.831 66.545V65.875C142.832 65.8288 142.824 65.7828 142.807 65.7397C142.79 65.6967 142.765 65.6575 142.732 65.6244C142.7 65.5913 142.661 65.565 142.619 65.5471C142.576 65.5291 142.53 65.5199 142.484 65.5199Z" fill="#2A344A"/>
<path d="M30 40C30 48.2843 23.2843 55 15 55C6.71573 55 0 48.2843 0 40C0 31.7157 6.71573 25 15 25C23.2843 25 30 31.7157 30 40Z" fill="white"/>
<path fill-rule="evenodd" clip-rule="evenodd" d="M15 25C6.71573 25 0 31.7157 0 40C0 48.2843 6.71573 55 15 55C23.2843 55 30 48.2843 30 40L29.4946 36.1058C28.638 32.9173 26.7532 30.1005 24.1324 28.0925C21.5117 26.0845 18.3016 24.9975 15 25ZM15 31.9231C15.33 31.9231 15.5769 32.17 15.5769 32.5V40H16.7308V34.8077C16.7308 34.4777 16.9777 34.2308 17.3077 34.2308C17.6377 34.2308 17.8846 34.4777 17.8846 34.8077V41.7308H19.0385V39.4231C19.0385 39.0931 19.2854 38.8462 19.6154 38.8462C19.9454 38.8462 20.1923 39.0931 20.1923 39.4231V42.8846C20.1954 43.5673 20.0631 44.2439 19.8033 44.8752C19.5434 45.5066 19.1611 46.0802 18.6783 46.5629C18.1956 47.0457 17.622 47.428 16.9906 47.6879C16.3593 47.9478 15.6827 48.08 15 48.0769C14.3173 48.08 13.6407 47.9478 13.0094 47.6879C12.378 47.428 11.8044 47.0457 11.3217 46.5629C10.8389 46.0802 10.4566 45.5066 10.1967 44.8752C9.93685 44.2439 9.80464 43.5673 9.80769 42.8846V37.1154C9.80769 36.7854 10.0546 36.5385 10.3846 36.5385C10.7146 36.5385 10.9615 36.7854 10.9615 37.1154V40C10.9615 40 11.3132 40 11.5385 40C11.7638 40 12.1154 40 12.1154 40V34.8077C12.1154 34.4777 12.3623 34.2308 12.6923 34.2308C13.0223 34.2308 13.2692 34.4777 13.2692 34.8077V40H14.4231V32.5C14.4231 32.17 14.67 31.9231 15 31.9231Z" fill="#4E6AF3"/>
<path d="M189.09 39.545C189.09 46.4734 183.473 52.09 176.545 52.09C169.617 52.09 164 46.4734 164 39.545C164 32.6166 169.617 27 176.545 27C183.473 27 189.09 32.6166 189.09 39.545Z" fill="white"/>
<path fill-rule="evenodd" clip-rule="evenodd" d="M176.545 27C169.617 27 164 32.6166 164 39.545C164 46.4734 169.617 52.09 176.545 52.09C183.473 52.09 189.09 46.4734 189.09 39.545L188.667 36.2881C187.951 33.6215 186.375 31.2657 184.183 29.5864C181.991 27.907 179.306 26.9979 176.545 27ZM176.545 32.79C176.821 32.79 177.027 32.9965 177.027 33.2725V39.545H177.992V35.2025C177.992 34.9265 178.199 34.72 178.475 34.72C178.751 34.72 178.958 34.9265 178.958 35.2025V40.9925H179.923V39.0625C179.923 38.7865 180.129 38.58 180.405 38.58C180.681 38.58 180.887 38.7865 180.887 39.0625V41.9575C180.89 42.5285 180.779 43.0943 180.562 43.6223C180.345 44.1503 180.025 44.6301 179.621 45.0338C179.218 45.4376 178.738 45.7573 178.21 45.9747C177.682 46.192 177.116 46.3026 176.545 46.3C175.974 46.3026 175.408 46.192 174.88 45.9747C174.352 45.7573 173.872 45.4376 173.469 45.0338C173.065 44.6301 172.745 44.1503 172.528 43.6223C172.311 43.0943 172.2 42.5285 172.202 41.9575V37.1325C172.202 36.8565 172.409 36.65 172.685 36.65C172.961 36.65 173.167 36.8565 173.167 37.1325V39.545C173.167 39.545 173.462 39.545 173.65 39.545C173.838 39.545 174.133 39.545 174.133 39.545V35.2025C174.133 34.9265 174.339 34.72 174.615 34.72C174.891 34.72 175.098 34.9265 175.098 35.2025V39.545H176.062V33.2725C176.062 32.9965 176.269 32.79 176.545 32.79Z" fill="#4E6AF3"/>
<path d="M135.86 13.43C135.86 20.8472 129.847 26.86 122.43 26.86C115.013 26.86 109 20.8472 109 13.43C109 6.01282 115.013 4.01049e-06 122.43 4.01049e-06C129.847 4.01049e-06 135.86 6.01282 135.86 13.43Z" fill="white"/>
<path fill-rule="evenodd" clip-rule="evenodd" d="M122.43 4.01049e-06C115.013 4.01049e-06 109 6.01282 109 13.43C109 20.8472 115.013 26.86 122.43 26.86C129.847 26.86 135.86 20.8472 135.86 13.43L135.408 9.94337C134.641 7.08858 132.953 4.56667 130.607 2.76883C128.26 0.970989 125.386 -0.00227991 122.43 4.01049e-06ZM122.43 6.19847C122.725 6.19847 122.947 6.41955 122.947 6.71501V13.43H123.98V8.78116C123.98 8.4857 124.201 8.26462 124.496 8.26462C124.792 8.26462 125.013 8.4857 125.013 8.78116V14.9796H126.046V12.9135C126.046 12.618 126.267 12.3969 126.562 12.3969C126.858 12.3969 127.079 12.618 127.079 12.9135V16.0127C127.082 16.624 126.963 17.2297 126.731 17.795C126.498 18.3602 126.156 18.8738 125.723 19.306C125.291 19.7383 124.778 20.0806 124.212 20.3132C123.647 20.5459 123.041 20.6643 122.43 20.6615C121.819 20.6643 121.213 20.5459 120.648 20.3132C120.082 20.0806 119.569 19.7383 119.137 19.306C118.704 18.8738 118.362 18.3602 118.129 17.795C117.897 17.2297 117.778 16.624 117.781 16.0127V10.8473C117.781 10.5519 118.002 10.3308 118.298 10.3308C118.593 10.3308 118.814 10.5519 118.814 10.8473V13.43C118.814 13.43 119.129 13.43 119.331 13.43C119.532 13.43 119.847 13.43 119.847 13.43V8.78116C119.847 8.4857 120.068 8.26462 120.364 8.26462C120.659 8.26462 120.88 8.4857 120.88 8.78116V13.43H121.913V6.71501C121.913 6.41955 122.135 6.19847 122.43 6.19847Z" fill="#4E6AF3"/>
<path d="M75 22.5C75 26.0899 72.0899 29 68.5 29C64.9101 29 62 26.0899 62 22.5C62 18.9101 64.9101 16 68.5 16C72.0899 16 75 18.9101 75 22.5Z" fill="white"/>
<path fill-rule="evenodd" clip-rule="evenodd" d="M68.5 16C64.9101 16 62 18.9101 62 22.5C62 26.0899 64.9101 29 68.5 29C72.0899 29 75 26.0899 75 22.5L74.781 20.8125C74.4098 19.4308 73.593 18.2102 72.4574 17.3401C71.3217 16.4699 69.9307 15.9989 68.5 16ZM68.5 19C68.643 19 68.75 19.107 68.75 19.25V22.5H69.25V20.25C69.25 20.107 69.357 20 69.5 20C69.643 20 69.75 20.107 69.75 20.25V23.25H70.25V22.25C70.25 22.107 70.357 22 70.5 22C70.643 22 70.75 22.107 70.75 22.25V23.75C70.7513 24.0458 70.694 24.339 70.5814 24.6126C70.4688 24.8862 70.3031 25.1347 70.0939 25.3439C69.8847 25.5531 69.6362 25.7188 69.3626 25.8314C69.089 25.944 68.7958 26.0013 68.5 26C68.2042 26.0013 67.911 25.944 67.6374 25.8314C67.3638 25.7188 67.1153 25.5531 66.9061 25.3439C66.6969 25.1347 66.5312 24.8862 66.4186 24.6126C66.306 24.339 66.2487 24.0458 66.25 23.75V21.25C66.25 21.107 66.357 21 66.5 21C66.643 21 66.75 21.107 66.75 21.25V22.5C66.75 22.5 66.9024 22.5 67 22.5C67.0976 22.5 67.25 22.5 67.25 22.5V20.25C67.25 20.107 67.357 20 67.5 20C67.643 20 67.75 20.107 67.75 20.25V22.5H68.25V19.25C68.25 19.107 68.357 19 68.5 19Z" fill="#4E6AF3"/>
<path d="M20 7.5C20 11.0899 17.0898 14 13.5 14C9.91015 14 7 11.0899 7 7.5C7 3.91015 9.91015 1 13.5 1C17.0898 1 20 3.91015 20 7.5Z" fill="white"/>
<path fill-rule="evenodd" clip-rule="evenodd" d="M13.5 1C9.91015 1 7 3.91015 7 7.5C7 11.0899 9.91015 14 13.5 14C17.0898 14 20 11.0899 20 7.5L19.781 5.8125C19.4098 4.43081 18.593 3.21022 17.4574 2.34009C16.3217 1.46995 14.9307 0.998897 13.5 1ZM13.5 4C13.643 4 13.75 4.107 13.75 4.25V7.5H14.25V5.25C14.25 5.107 14.357 5 14.5 5C14.643 5 14.75 5.107 14.75 5.25V8.25H15.25V7.25C15.25 7.107 15.357 7 15.5 7C15.643 7 15.75 7.107 15.75 7.25V8.75C15.7513 9.04585 15.694 9.33902 15.5814 9.6126C15.4688 9.88618 15.3031 10.1347 15.0939 10.3439C14.8847 10.5531 14.6362 10.7188 14.3626 10.8314C14.089 10.944 13.7958 11.0013 13.5 11C13.2042 11.0013 12.911 10.944 12.6374 10.8314C12.3638 10.7188 12.1153 10.5531 11.9061 10.3439C11.6969 10.1347 11.5312 9.88618 11.4186 9.6126C11.306 9.33902 11.2487 9.04585 11.25 8.75V6.25C11.25 6.107 11.357 6 11.5 6C11.643 6 11.75 6.107 11.75 6.25V7.5C11.75 7.5 11.9024 7.5 12 7.5C12.0976 7.5 12.25 7.5 12.25 7.5V5.25C12.25 5.107 12.357 5 12.5 5C12.643 5 12.75 5.107 12.75 5.25V7.5H13.25V4.25C13.25 4.107 13.357 4 13.5 4Z" fill="#4E6AF3"/>
<path d="M192 13.5C192 17.0899 189.09 20 185.5 20C181.91 20 179 17.0899 179 13.5C179 9.91015 181.91 7 185.5 7C189.09 7 192 9.91015 192 13.5Z" fill="white"/>
<path fill-rule="evenodd" clip-rule="evenodd" d="M185.5 7C181.91 7 179 9.91015 179 13.5C179 17.0899 181.91 20 185.5 20C189.09 20 192 17.0899 192 13.5L191.781 11.8125C191.41 10.4308 190.593 9.21023 189.457 8.34009C188.322 7.46995 186.931 6.9989 185.5 7ZM185.5 10C185.643 10 185.75 10.107 185.75 10.25V13.5H186.25V11.25C186.25 11.107 186.357 11 186.5 11C186.643 11 186.75 11.107 186.75 11.25V14.25H187.25V13.25C187.25 13.107 187.357 13 187.5 13C187.643 13 187.75 13.107 187.75 13.25V14.75C187.751 15.0458 187.694 15.339 187.581 15.6126C187.469 15.8862 187.303 16.1347 187.094 16.3439C186.885 16.5531 186.636 16.7188 186.363 16.8314C186.089 16.944 185.796 17.0013 185.5 17C185.204 17.0013 184.911 16.944 184.637 16.8314C184.364 16.7188 184.115 16.5531 183.906 16.3439C183.697 16.1347 183.531 15.8862 183.419 15.6126C183.306 15.339 183.249 15.0458 183.25 14.75V12.25C183.25 12.107 183.357 12 183.5 12C183.643 12 183.75 12.107 183.75 12.25V13.5C183.75 13.5 183.902 13.5 184 13.5C184.098 13.5 184.25 13.5 184.25 13.5V11.25C184.25 11.107 184.357 11 184.5 11C184.643 11 184.75 11.107 184.75 11.25V13.5H185.25V10.25C185.25 10.107 185.357 10 185.5 10Z" fill="#4E6AF3"/>
</svg>
