<svg width="24" height="25" viewBox="0 0 24 25" fill="none" xmlns="http://www.w3.org/2000/svg">
<path fill-rule="evenodd" clip-rule="evenodd" d="M12 3.25C6.89137 3.25 2.75 7.39137 2.75 12.5C2.75 17.6086 6.89137 21.75 12 21.75C17.1086 21.75 21.25 17.6086 21.25 12.5C21.25 7.39137 17.1086 3.25 12 3.25ZM1.25 12.5C1.25 6.56294 6.06294 1.75 12 1.75C17.9371 1.75 22.75 6.56294 22.75 12.5C22.75 18.4371 17.9371 23.25 12 23.25C6.06294 23.25 1.25 18.4371 1.25 12.5ZM9.46964 9.96979C9.76254 9.6769 10.2374 9.6769 10.5303 9.96979L12.1215 11.561L13.7123 9.97024C14.0052 9.67735 14.4801 9.67735 14.7729 9.97024C15.0658 10.2631 15.0658 10.738 14.7729 11.0309L13.1822 12.6217L14.7729 14.2124C15.0658 14.5053 15.0658 14.9802 14.7729 15.2731C14.4801 15.566 14.0052 15.566 13.7123 15.2731L12.1215 13.6823L10.5303 15.2735C10.2374 15.5664 9.76254 15.5664 9.46964 15.2735C9.17675 14.9807 9.17675 14.5058 9.46964 14.2129L11.0609 12.6217L9.46964 11.0305C9.17675 10.7376 9.17675 10.2627 9.46964 9.96979Z" fill="#B8C6E3"/>
</svg>
