<svg width="24" height="25" viewBox="0 0 24 25" fill="none" xmlns="http://www.w3.org/2000/svg">
<path fill-rule="evenodd" clip-rule="evenodd" d="M1.25 12.5C1.25 6.56294 6.06294 1.75 12 1.75C17.9371 1.75 22.75 6.56294 22.75 12.5C22.75 18.4371 17.9371 23.25 12 23.25C6.06294 23.25 1.25 18.4371 1.25 12.5ZM12 3.25C6.89137 3.25 2.75 7.39137 2.75 12.5C2.75 17.6086 6.89137 21.75 12 21.75C17.1086 21.75 21.25 17.6086 21.25 12.5C21.25 7.39137 17.1086 3.25 12 3.25ZM16.197 9.63634C16.4899 9.92923 16.4899 10.4041 16.197 10.697L11.8637 15.0303C11.5708 15.3232 11.0959 15.3232 10.803 15.0303L8.63634 12.8637C8.34344 12.5708 8.34344 12.0959 8.63634 11.803C8.92923 11.5101 9.4041 11.5101 9.697 11.803L11.3333 13.4393L15.1363 9.63634C15.4292 9.34344 15.9041 9.34344 16.197 9.63634Z" fill="#3B4A69"/>
</svg>
