<svg width="140" height="60" viewBox="0 0 140 60" fill="none" xmlns="http://www.w3.org/2000/svg">
<path d="M41.8223 45.8312V39.409H44.4344V50.4927H41.9016V48.5227H41.7862C41.536 49.1433 41.1247 49.6508 40.5522 50.0453C39.9846 50.4398 39.2846 50.637 38.4524 50.637C37.726 50.637 37.0838 50.4759 36.5257 50.1536C35.9725 49.8264 35.5395 49.3526 35.2269 48.732C34.9142 48.1066 34.7578 47.3514 34.7578 46.4662V39.409H37.37V46.0621C37.37 46.7645 37.5624 47.3225 37.9473 47.7362C38.3321 48.1499 38.8372 48.3568 39.4626 48.3568C39.8475 48.3568 40.2203 48.263 40.5811 48.0754C40.9419 47.8877 41.2378 47.6087 41.4687 47.2383C41.7044 46.8631 41.8223 46.394 41.8223 45.8312Z" fill="#8497F7"/>
<path d="M47.7302 50.4927V39.409H50.2269V41.2923H50.3568C50.5877 40.6573 50.9702 40.1618 51.5042 39.8058C52.0381 39.445 52.6755 39.2646 53.4164 39.2646C54.1668 39.2646 54.7994 39.4474 55.3142 39.8131C55.8337 40.1739 56.1993 40.6669 56.411 41.2923H56.5265C56.7718 40.6766 57.1855 40.1859 57.7676 39.8203C58.3545 39.4499 59.0497 39.2646 59.853 39.2646C60.8729 39.2646 61.7051 39.587 62.3498 40.2316C62.9944 40.8762 63.3167 41.8167 63.3167 43.053V50.4927H60.6973V43.4571C60.6973 42.7692 60.5145 42.2665 60.1489 41.949C59.7833 41.6267 59.3359 41.4655 58.8067 41.4655C58.1765 41.4655 57.6834 41.6628 57.3274 42.0572C56.9763 42.4469 56.8007 42.9544 56.8007 43.5798V50.4927H54.239V43.3489C54.239 42.7764 54.0658 42.3194 53.7195 41.9779C53.3779 41.6363 52.9305 41.4655 52.3773 41.4655C52.0021 41.4655 51.6605 41.5617 51.3526 41.7542C51.0447 41.9418 50.7994 42.2088 50.6166 42.5551C50.4338 42.8967 50.3424 43.296 50.3424 43.753V50.4927H47.7302Z" fill="#8497F7"/>
<path d="M69.1886 43.9983V50.4927H66.5764V39.409H69.0731V41.2923H69.203C69.458 40.6718 69.8645 40.1787 70.4225 39.8131C70.9854 39.4474 71.6805 39.2646 72.5079 39.2646C73.2728 39.2646 73.9391 39.4282 74.5067 39.7553C75.0792 40.0825 75.5218 40.5563 75.8345 41.1769C76.152 41.7975 76.3083 42.5503 76.3035 43.4355V50.4927H73.6913V43.8396C73.6913 43.0987 73.4989 42.5191 73.1141 42.1005C72.734 41.682 72.2073 41.4727 71.5338 41.4727C71.0768 41.4727 70.6703 41.5738 70.3143 41.7758C69.9631 41.973 69.6865 42.2593 69.4844 42.6345C69.2872 43.0097 69.1886 43.4643 69.1886 43.9983Z" fill="#8497F7"/>
<path d="M84.4033 50.7092C83.3209 50.7092 82.3828 50.4711 81.5891 49.9948C80.7953 49.5186 80.1796 48.8523 79.7418 47.996C79.3088 47.1397 79.0924 46.1391 79.0924 44.9941C79.0924 43.8492 79.3088 42.8462 79.7418 41.9851C80.1796 41.124 80.7953 40.4553 81.5891 39.979C82.3828 39.5028 83.3209 39.2646 84.4033 39.2646C85.4857 39.2646 86.4238 39.5028 87.2175 39.979C88.0113 40.4553 88.6247 41.124 89.0576 41.9851C89.4954 42.8462 89.7143 43.8492 89.7143 44.9941C89.7143 46.1391 89.4954 47.1397 89.0576 47.996C88.6247 48.8523 88.0113 49.5186 87.2175 49.9948C86.4238 50.4711 85.4857 50.7092 84.4033 50.7092ZM84.4177 48.6166C85.0046 48.6166 85.4953 48.4554 85.8898 48.1331C86.2843 47.806 86.5777 47.3682 86.7702 46.8198C86.9674 46.2714 87.066 45.6604 87.066 44.9869C87.066 44.3086 86.9674 43.6953 86.7702 43.1468C86.5777 42.5936 86.2843 42.1534 85.8898 41.8263C85.4953 41.4992 85.0046 41.3356 84.4177 41.3356C83.8164 41.3356 83.3161 41.4992 82.9168 41.8263C82.5224 42.1534 82.2265 42.5936 82.0293 43.1468C81.8368 43.6953 81.7406 44.3086 81.7406 44.9869C81.7406 45.6604 81.8368 46.2714 82.0293 46.8198C82.2265 47.3682 82.5224 47.806 82.9168 48.1331C83.3161 48.4554 83.8164 48.6166 84.4177 48.6166Z" fill="#8497F7"/>
<path d="M92.541 39.409H95.1532V51.1277C95.1532 51.9263 95.0016 52.5853 94.6986 53.1049C94.3955 53.6244 93.9577 54.0117 93.3853 54.2667C92.8128 54.5216 92.1177 54.6491 91.2998 54.6491C91.2036 54.6491 91.1146 54.6467 91.0329 54.6419C90.9511 54.6419 90.8621 54.6395 90.7659 54.6347V52.506C90.838 52.5108 90.903 52.5132 90.9607 52.5132C91.0184 52.518 91.0786 52.5204 91.1411 52.5204C91.6414 52.5204 91.9998 52.3977 92.2163 52.1524C92.4328 51.9119 92.541 51.5583 92.541 51.0916V39.409ZM93.8399 37.8359C93.4213 37.8359 93.0629 37.6988 92.7647 37.4246C92.4712 37.1456 92.3245 36.8112 92.3245 36.4215C92.3245 36.0271 92.4712 35.6927 92.7647 35.4185C93.0629 35.1395 93.4213 35 93.8399 35C94.2536 35 94.6072 35.1395 94.9006 35.4185C95.1989 35.6927 95.348 36.0271 95.348 36.4215C95.348 36.8112 95.1989 37.1456 94.9006 37.4246C94.6072 37.6988 94.2536 37.8359 93.8399 37.8359Z" fill="#8497F7"/>
<rect x="15.1738" y="33" width="6.46585" height="6.46585" rx="0.406404" transform="rotate(45 15.1738 33)" fill="#4E6AF3"/>
<rect x="22.9824" y="40.8076" width="6.1788" height="6.1788" rx="0.406404" transform="rotate(45 22.9824 40.8076)" fill="#8497F7"/>
<rect x="15.1738" y="48.208" width="6.46603" height="6.46603" rx="0.406404" transform="rotate(45 15.1738 48.208)" fill="#7188F5"/>
<rect x="7.4707" y="40.7051" width="6.32216" height="6.32216" rx="0.406404" transform="rotate(45 7.4707 40.7051)" fill="#6079F5"/>
<path d="M41.8223 15.8312V9.40896H44.4344V20.4927H41.9016V18.5227H41.7862C41.536 19.1433 41.1247 19.6508 40.5522 20.0453C39.9846 20.4398 39.2846 20.637 38.4524 20.637C37.726 20.637 37.0838 20.4759 36.5257 20.1536C35.9725 19.8264 35.5395 19.3526 35.2269 18.732C34.9142 18.1066 34.7578 17.3514 34.7578 16.4662V9.40896H37.37V16.0621C37.37 16.7645 37.5624 17.3225 37.9473 17.7362C38.3321 18.1499 38.8372 18.3568 39.4626 18.3568C39.8475 18.3568 40.2203 18.263 40.5811 18.0754C40.9419 17.8877 41.2378 17.6087 41.4687 17.2383C41.7044 16.8631 41.8223 16.394 41.8223 15.8312Z" fill="white"/>
<path d="M47.7302 20.4927V9.40896H50.2269V11.2923H50.3568C50.5877 10.6573 50.9702 10.1618 51.5042 9.80584C52.0381 9.44504 52.6755 9.26464 53.4164 9.26464C54.1668 9.26464 54.7994 9.44745 55.3142 9.81306C55.8337 10.1739 56.1993 10.6669 56.411 11.2923H56.5265C56.7718 10.6766 57.1855 10.1859 57.7676 9.82027C58.3545 9.44985 59.0497 9.26464 59.853 9.26464C60.8729 9.26464 61.7051 9.58696 62.3498 10.2316C62.9944 10.8762 63.3167 11.8167 63.3167 13.053V20.4927H60.6973V13.4571C60.6973 12.7692 60.5145 12.2665 60.1489 11.949C59.7833 11.6267 59.3359 11.4655 58.8067 11.4655C58.1765 11.4655 57.6834 11.6628 57.3274 12.0572C56.9763 12.4469 56.8007 12.9544 56.8007 13.5798V20.4927H54.239V13.3489C54.239 12.7764 54.0658 12.3194 53.7195 11.9779C53.3779 11.6363 52.9305 11.4655 52.3773 11.4655C52.0021 11.4655 51.6605 11.5617 51.3526 11.7542C51.0447 11.9418 50.7994 12.2088 50.6166 12.5551C50.4338 12.8967 50.3424 13.296 50.3424 13.753V20.4927H47.7302Z" fill="white"/>
<path d="M69.1886 13.9983V20.4927H66.5764V9.40896H69.0731V11.2923H69.203C69.458 10.6718 69.8645 10.1787 70.4225 9.81306C70.9854 9.44745 71.6805 9.26464 72.5079 9.26464C73.2728 9.26464 73.9391 9.42821 74.5067 9.75533C75.0792 10.0825 75.5218 10.5563 75.8345 11.1769C76.152 11.7975 76.3083 12.5503 76.3035 13.4355V20.4927H73.6913V13.8396C73.6913 13.0987 73.4989 12.5191 73.1141 12.1005C72.734 11.682 72.2073 11.4727 71.5338 11.4727C71.0768 11.4727 70.6703 11.5738 70.3143 11.7758C69.9631 11.973 69.6865 12.2593 69.4844 12.6345C69.2872 13.0097 69.1886 13.4643 69.1886 13.9983Z" fill="white"/>
<path d="M84.4033 20.7092C83.3209 20.7092 82.3828 20.4711 81.5891 19.9948C80.7953 19.5186 80.1796 18.8523 79.7418 17.996C79.3088 17.1397 79.0924 16.1391 79.0924 14.9941C79.0924 13.8492 79.3088 12.8462 79.7418 11.9851C80.1796 11.124 80.7953 10.4553 81.5891 9.97903C82.3828 9.50277 83.3209 9.26464 84.4033 9.26464C85.4857 9.26464 86.4238 9.50277 87.2175 9.97903C88.0113 10.4553 88.6247 11.124 89.0576 11.9851C89.4954 12.8462 89.7143 13.8492 89.7143 14.9941C89.7143 16.1391 89.4954 17.1397 89.0576 17.996C88.6247 18.8523 88.0113 19.5186 87.2175 19.9948C86.4238 20.4711 85.4857 20.7092 84.4033 20.7092ZM84.4177 18.6166C85.0046 18.6166 85.4953 18.4554 85.8898 18.1331C86.2843 17.806 86.5777 17.3682 86.7702 16.8198C86.9674 16.2714 87.066 15.6604 87.066 14.9869C87.066 14.3086 86.9674 13.6953 86.7702 13.1468C86.5777 12.5936 86.2843 12.1534 85.8898 11.8263C85.4953 11.4992 85.0046 11.3356 84.4177 11.3356C83.8164 11.3356 83.3161 11.4992 82.9168 11.8263C82.5224 12.1534 82.2265 12.5936 82.0293 13.1468C81.8368 13.6953 81.7406 14.3086 81.7406 14.9869C81.7406 15.6604 81.8368 16.2714 82.0293 16.8198C82.2265 17.3682 82.5224 17.806 82.9168 18.1331C83.3161 18.4554 83.8164 18.6166 84.4177 18.6166Z" fill="white"/>
<path d="M92.541 9.40896H95.1532V21.1277C95.1532 21.9263 95.0016 22.5853 94.6986 23.1049C94.3955 23.6244 93.9577 24.0117 93.3853 24.2667C92.8128 24.5216 92.1177 24.6491 91.2998 24.6491C91.2036 24.6491 91.1146 24.6467 91.0329 24.6419C90.9511 24.6419 90.8621 24.6395 90.7659 24.6347V22.506C90.838 22.5108 90.903 22.5132 90.9607 22.5132C91.0184 22.518 91.0786 22.5204 91.1411 22.5204C91.6414 22.5204 91.9998 22.3977 92.2163 22.1524C92.4328 21.9119 92.541 21.5583 92.541 21.0916V9.40896ZM93.8399 7.83588C93.4213 7.83588 93.0629 7.69878 92.7647 7.42457C92.4712 7.14555 92.3245 6.81121 92.3245 6.42155C92.3245 6.02707 92.4712 5.69273 92.7647 5.41853C93.0629 5.13951 93.4213 5 93.8399 5C94.2536 5 94.6072 5.13951 94.9006 5.41853C95.1989 5.69273 95.348 6.02707 95.348 6.42155C95.348 6.81121 95.1989 7.14555 94.9006 7.42457C94.6072 7.69878 94.2536 7.83588 93.8399 7.83588Z" fill="white"/>
<rect x="15.1738" y="3" width="6.46585" height="6.46585" rx="0.406404" transform="rotate(45 15.1738 3)" fill="white"/>
<rect x="22.9824" y="10.8076" width="6.1788" height="6.1788" rx="0.406404" transform="rotate(45 22.9824 10.8076)" fill="white" fill-opacity="0.7"/>
<rect x="15.1738" y="18.208" width="6.46603" height="6.46603" rx="0.406404" transform="rotate(45 15.1738 18.208)" fill="white" fill-opacity="0.8"/>
<rect x="7.4707" y="10.7051" width="6.32216" height="6.32216" rx="0.406404" transform="rotate(45 7.4707 10.7051)" fill="white" fill-opacity="0.9"/>
</svg>
