<svg width="101" height="30" viewBox="0 0 101 30" fill="none" xmlns="http://www.w3.org/2000/svg">
<path d="M42.3223 15.8312V9.40896H44.9344V20.4927H42.4016V18.5227H42.2862C42.036 19.1433 41.6247 19.6508 41.0522 20.0453C40.4846 20.4398 39.7846 20.637 38.9524 20.637C38.226 20.637 37.5838 20.4759 37.0257 20.1536C36.4725 19.8264 36.0395 19.3526 35.7269 18.732C35.4142 18.1066 35.2578 17.3514 35.2578 16.4662V9.40896H37.87V16.0621C37.87 16.7645 38.0624 17.3225 38.4473 17.7362C38.8321 18.1499 39.3372 18.3568 39.9626 18.3568C40.3475 18.3568 40.7203 18.263 41.0811 18.0754C41.4419 17.8877 41.7378 17.6087 41.9687 17.2383C42.2044 16.8631 42.3223 16.394 42.3223 15.8312Z" fill="white"/>
<path d="M48.2302 20.4927V9.40896H50.7269V11.2923H50.8568C51.0877 10.6573 51.4702 10.1618 52.0042 9.80584C52.5381 9.44504 53.1755 9.26464 53.9164 9.26464C54.6668 9.26464 55.2994 9.44745 55.8142 9.81306C56.3337 10.1739 56.6994 10.6669 56.911 11.2923H57.0265C57.2718 10.6766 57.6855 10.1859 58.2676 9.82027C58.8545 9.44985 59.5497 9.26464 60.353 9.26464C61.3729 9.26464 62.2051 9.58696 62.8498 10.2316C63.4944 10.8762 63.8167 11.8167 63.8167 13.053V20.4927H61.1973V13.4571C61.1973 12.7692 61.0145 12.2665 60.6489 11.949C60.2833 11.6267 59.8359 11.4655 59.3067 11.4655C58.6765 11.4655 58.1834 11.6628 57.8274 12.0572C57.4763 12.4469 57.3007 12.9544 57.3007 13.5798V20.4927H54.739V13.3489C54.739 12.7764 54.5658 12.3194 54.2195 11.9779C53.8779 11.6363 53.4305 11.4655 52.8773 11.4655C52.5021 11.4655 52.1605 11.5617 51.8526 11.7542C51.5447 11.9418 51.2994 12.2088 51.1166 12.5551C50.9338 12.8967 50.8424 13.296 50.8424 13.753V20.4927H48.2302Z" fill="white"/>
<path d="M69.6886 13.9983V20.4927H67.0764V9.40896H69.5731V11.2923H69.703C69.958 10.6718 70.3645 10.1787 70.9225 9.81306C71.4854 9.44745 72.1805 9.26464 73.0079 9.26464C73.7728 9.26464 74.4391 9.42821 75.0067 9.75533C75.5792 10.0825 76.0218 10.5563 76.3345 11.1769C76.652 11.7975 76.8083 12.5503 76.8035 13.4355V20.4927H74.1913V13.8396C74.1913 13.0987 73.9989 12.5191 73.6141 12.1005C73.234 11.682 72.7073 11.4727 72.0338 11.4727C71.5768 11.4727 71.1702 11.5738 70.8143 11.7758C70.4631 11.973 70.1865 12.2593 69.9844 12.6345C69.7872 13.0097 69.6886 13.4643 69.6886 13.9983Z" fill="white"/>
<path d="M84.9033 20.7092C83.8209 20.7092 82.8828 20.4711 82.0891 19.9948C81.2953 19.5186 80.6796 18.8523 80.2418 17.996C79.8088 17.1397 79.5924 16.1391 79.5924 14.9941C79.5924 13.8492 79.8088 12.8462 80.2418 11.9851C80.6796 11.124 81.2953 10.4553 82.0891 9.97903C82.8828 9.50277 83.8209 9.26464 84.9033 9.26464C85.9857 9.26464 86.9238 9.50277 87.7175 9.97903C88.5113 10.4553 89.1247 11.124 89.5576 11.9851C89.9954 12.8462 90.2143 13.8492 90.2143 14.9941C90.2143 16.1391 89.9954 17.1397 89.5576 17.996C89.1247 18.8523 88.5113 19.5186 87.7175 19.9948C86.9238 20.4711 85.9857 20.7092 84.9033 20.7092ZM84.9177 18.6166C85.5046 18.6166 85.9953 18.4554 86.3898 18.1331C86.7843 17.806 87.0777 17.3682 87.2702 16.8198C87.4674 16.2714 87.566 15.6604 87.566 14.9869C87.566 14.3086 87.4674 13.6953 87.2702 13.1468C87.0777 12.5936 86.7843 12.1534 86.3898 11.8263C85.9953 11.4992 85.5046 11.3356 84.9177 11.3356C84.3164 11.3356 83.8161 11.4992 83.4168 11.8263C83.0224 12.1534 82.7265 12.5936 82.5293 13.1468C82.3368 13.6953 82.2406 14.3086 82.2406 14.9869C82.2406 15.6604 82.3368 16.2714 82.5293 16.8198C82.7265 17.3682 83.0224 17.806 83.4168 18.1331C83.8161 18.4554 84.3164 18.6166 84.9177 18.6166Z" fill="white"/>
<path d="M93.041 9.40896H95.6532V21.1277C95.6532 21.9263 95.5016 22.5853 95.1986 23.1049C94.8955 23.6244 94.4577 24.0117 93.8853 24.2667C93.3128 24.5216 92.6177 24.6491 91.7998 24.6491C91.7036 24.6491 91.6146 24.6467 91.5329 24.6419C91.4511 24.6419 91.3621 24.6395 91.2659 24.6347V22.506C91.338 22.5108 91.403 22.5132 91.4607 22.5132C91.5184 22.518 91.5786 22.5204 91.6411 22.5204C92.1414 22.5204 92.4998 22.3977 92.7163 22.1524C92.9328 21.9119 93.041 21.5583 93.041 21.0916V9.40896ZM94.3399 7.83588C93.9213 7.83588 93.5629 7.69878 93.2647 7.42457C92.9712 7.14555 92.8245 6.81121 92.8245 6.42155C92.8245 6.02707 92.9712 5.69273 93.2647 5.41853C93.5629 5.13951 93.9213 5 94.3399 5C94.7536 5 95.1072 5.13951 95.4006 5.41853C95.6989 5.69273 95.848 6.02707 95.848 6.42155C95.848 6.81121 95.6989 7.14555 95.4006 7.42457C95.1072 7.69878 94.7536 7.83588 94.3399 7.83588Z" fill="white"/>
<rect x="15.6719" y="3" width="6.46585" height="6.46585" rx="0.406404" transform="rotate(45 15.6719 3)" fill="white"/>
<rect x="23.4805" y="10.8076" width="6.1788" height="6.1788" rx="0.406404" transform="rotate(45 23.4805 10.8076)" fill="white" fill-opacity="0.7"/>
<rect x="15.6719" y="18.208" width="6.46603" height="6.46603" rx="0.406404" transform="rotate(45 15.6719 18.208)" fill="white" fill-opacity="0.8"/>
<rect x="7.96875" y="10.7051" width="6.32216" height="6.32216" rx="0.406404" transform="rotate(45 7.96875 10.7051)" fill="white" fill-opacity="0.9"/>
</svg>
