<svg width="175" height="170" viewBox="0 0 175 170" fill="none" xmlns="http://www.w3.org/2000/svg">
<path d="M2.41856 124.406L3.97363 125.962L4.49199 126.48L1.9002 127.517L1.38184 129.072L2.93691 130.627H6.04707L7.60215 129.59L8.12051 128.553L7.08379 126.998L6.04707 125.962L6.56543 125.443L7.08379 124.406L8.12051 123.37L7.60215 121.815V120.778L7.08379 119.741L6.56543 118.186L5.52871 117.149L3.45527 117.668L2.41856 118.186V119.741L1.38184 120.778L1.9002 122.333L2.41856 124.406Z" fill="white"/>
<path d="M13.3043 117.15L14.8594 118.705L15.3777 119.223L12.7859 120.26L12.2676 121.815L13.8227 123.37H16.9328L18.4879 122.852L19.0063 121.296L17.9695 119.741L16.9328 118.705L17.4512 118.186L17.9695 117.15L19.0063 116.113L18.4879 114.558V113.521L17.9695 112.484L17.4512 110.929L16.4145 109.893L14.8594 110.929H13.3043V112.484L12.2676 113.521L12.7859 115.076L13.3043 117.15Z" fill="white"/>
<path d="M115.94 135.292C100.17 141.902 91.5551 145.834 77.5811 154.471V157.063L105.572 168.467L107.646 168.985L110.238 168.467C134.601 154.459 143.938 148.503 144.968 144.622C133.154 139.306 126.745 136.969 115.94 135.292Z" fill="white"/>
<path d="M143.966 143.372C142.975 142.964 139.739 141.157 132.703 139.015C129.206 137.951 125.593 136.65 121.877 135.943C117.602 135.13 116.488 134.271 110.252 136.961C94.7362 143.656 85.523 149.339 83.8099 150.255C81.1077 151.702 75.3626 154.786 77.1158 157.264C77.5047 157.814 78.1186 158.079 78.6113 158.291C86.8482 161.847 95.3655 165.525 103.985 168.582C107.316 169.765 108.682 169.781 112.418 167.882C123.432 162.285 133.92 155.501 143.543 147.75C144.299 147.141 145.312 146.212 145.373 145.182C145.444 143.98 144.624 143.642 143.965 143.37L143.966 143.372ZM136.168 141.108C134.218 142.225 132.526 142.884 130.899 143.163C128.499 143.576 126.187 143.108 124.559 141.879C124.056 141.499 123.195 140.704 123.071 139.64C122.98 138.868 123.442 137.905 124.249 137.758C124.402 137.73 124.522 137.629 124.582 137.497C126.78 138.076 134.022 140.351 136.166 141.107L136.168 141.108ZM99.841 166.091C94.7781 164.173 89.7562 162.081 84.8181 159.971C90.7152 156.456 98.0049 157.532 100.555 159.919C101.52 160.825 102 162.066 101.807 163.159C101.539 164.673 100.019 165.846 99.841 166.091ZM112.006 167.071C107.633 169.295 106.991 168.769 100.776 166.444C101.67 165.564 102.483 164.572 102.704 163.317C102.951 161.925 102.366 160.368 101.178 159.255C98.2462 156.509 90.1451 155.394 83.798 159.535C78.4975 157.252 78.1823 157.194 77.8608 156.74C76.7033 155.106 82.4838 152 84.2407 151.059C86.3463 149.933 89.2507 148.054 96.6916 144.297C100.106 145.243 103.313 146.266 106.44 147.345C103.369 150.334 106.154 155.094 112.173 155.094C115.284 155.094 118.613 153.581 119.863 152.294C123.299 153.59 126.84 154.905 130.568 156.174C124.605 160.178 118.398 163.824 112.006 167.072V167.071ZM119.572 151.21C119.074 151.021 111.623 148.203 108.373 147.054C109.932 146.192 112.074 145.738 113.485 145.771C117.792 145.849 121.034 148.995 119.573 151.21H119.572ZM118.91 151.933C117.863 152.817 116.291 153.363 115.664 153.58C112.907 154.536 110.03 154.35 107.97 153.083C106.877 152.41 106.163 151.32 106.11 150.239C106.068 149.399 106.401 148.518 107.425 147.686C111.242 149.023 115.01 150.457 118.91 151.933ZM144.465 145.13C144.436 145.625 143.933 146.268 142.972 147.042C139.273 150.022 135.449 152.855 131.516 155.532C127.654 154.231 123.99 152.875 120.44 151.537C120.972 150.612 120.944 149.622 120.511 148.643C119.415 146.164 116.157 144.909 113.501 144.86C111.996 144.828 109.22 145.316 107.267 146.666C104.253 145.618 101.17 144.62 97.9011 143.69C101.98 141.659 106.239 139.685 110.614 137.797C116.616 135.208 117.571 136.049 121.708 136.837C122.242 136.939 122.776 137.053 123.307 137.178C122.485 137.723 122.058 138.81 122.167 139.746C122.287 140.784 122.943 141.8 124.011 142.606C125.409 143.661 127.241 144.22 129.21 144.22C132.1 144.22 134.824 143 137.279 141.508C141.083 142.916 142.675 143.824 143.619 144.213C144.301 144.495 144.496 144.6 144.465 145.13Z" fill="#2A344A"/>
<path d="M48.5529 10.8857L29.3736 16.5877C26.5789 30.4964 26.2528 50.6337 27.3002 102.635V106.264H25.2268L24.19 107.819L23.1533 109.892L24.19 111.966C24.9413 113.703 25.3635 114.653 26.2635 114.558L24.7084 115.076L23.1533 117.668L26.2635 119.223H29.3736L30.9287 135.81C42.2641 142.748 49.9818 145.245 66.1772 147.214C77.6693 145.46 84.2276 143.405 96.242 135.81L100.907 115.076H101.944C120.762 123.314 131.32 127.005 150.151 132.7C164.342 125.211 170.195 121.678 173.996 117.668L157.927 112.484V110.411L151.706 108.337L151.188 110.411L148.078 109.374L132.527 103.672V102.117L125.789 99.5252L125.27 101.08L121.123 100.044V97.4518L114.385 95.8967L113.866 97.4518L110.756 96.4151V93.8233L105.054 91.7498C108.575 62.1858 110.213 45.5026 106.091 13.4775L88.985 10.3674V2.59199C79.8809 1.21719 75.011 0.777931 66.6955 0.518555C58.9088 1.46342 54.814 2.2458 48.5529 4.14707V10.8857Z" fill="white"/>
<path d="M77.4652 37.1608C77.477 37.4022 77.6755 37.5943 77.9205 37.5943C78.3586 37.5943 83.3623 35.7683 84.5035 35.3311C84.6865 35.261 84.804 35.0825 84.7958 34.8867C84.6738 32.0907 84.661 29.138 83.6729 26.4613C83.5882 26.2336 83.3395 26.1134 83.1091 26.1844C80.8969 26.8802 78.9378 27.4358 77.2857 27.8356C77.069 27.8884 76.9224 28.0897 76.9387 28.3119C77.1355 30.955 77.3031 33.7664 77.4661 37.1599L77.4652 37.1608Z" fill="#2A344A"/>
<path d="M84.4315 39.9363C78.1236 42.2596 77.6655 41.8552 77.6882 42.5137C77.9332 50.0511 77.6928 49.8107 78.0298 50.052C78.1427 50.1331 78.2903 50.1613 78.436 50.1149C80.5262 49.4336 82.028 48.5038 85.0262 47.0793C85.1892 47.0019 85.2912 46.8353 85.2867 46.6558C85.2475 45.0711 85.2411 44.3234 85.0435 40.3407C85.028 40.0356 84.722 39.8306 84.4315 39.9363Z" fill="#2A344A"/>
<path d="M85.174 51.8932C84.9336 51.7511 84.7705 51.8586 84.4581 52.0226C78.5474 55.1246 77.8716 54.2712 77.8698 55.0663C77.8643 57.3614 77.8315 59.8587 77.7687 62.7002C77.7632 62.9543 77.9681 63.1656 78.224 63.1656C78.4617 63.1656 81.6967 62.3359 85.0793 61.0554C85.2532 60.9889 85.3698 60.8241 85.3735 60.6374C85.419 57.9242 85.4263 55.1118 85.3953 52.2794C85.3935 52.1209 85.3097 51.9752 85.174 51.8932Z" fill="#2A344A"/>
<path d="M85.0303 65.8211C84.7571 65.6208 84.543 65.7993 83.9574 66.0005C82.0549 66.659 80.0485 67.1463 77.9601 67.6809C77.7643 67.731 77.625 67.904 77.6186 68.1062C77.5403 70.3457 77.4319 72.5789 77.3189 74.8112C77.3035 75.1226 77.5967 75.3522 77.8863 75.2756C80.2698 74.67 82.6113 73.7392 84.6195 72.9141C84.7817 72.8476 84.8909 72.6946 84.901 72.5197L85.217 66.2064C85.2225 66.0552 85.1523 65.9113 85.0303 65.8211Z" fill="#2A344A"/>
<path d="M84.5194 78.3383C84.5431 78.0095 84.2188 77.7618 83.9037 77.8793C77.7689 80.2044 77.053 79.4959 77.0066 80.249C76.5175 88.1561 76.3454 87.912 76.6423 88.1625C76.7543 88.2572 76.9037 88.2918 77.0457 88.2572C79.1432 87.7381 81.3427 87.1006 83.584 86.3638C83.7571 86.3073 83.8791 86.1525 83.8955 85.9712C84.095 83.7136 84.3254 81.0423 84.5203 78.3392L84.5194 78.3383Z" fill="#2A344A"/>
<path d="M74.4544 114.013C75.7467 114.013 79.0327 112.755 79.8042 112.462C80.7286 112.112 80.9226 112.107 80.969 111.767C81.3051 109.285 81.6311 106.8 81.9353 104.312C81.9772 103.976 81.6475 103.71 81.3224 103.83C75.4744 106.045 74.8888 105.289 74.8114 106.022C74.5528 108.511 74.2823 111.006 74.0017 113.508C73.9726 113.777 74.1812 114.013 74.4544 114.013Z" fill="#2A344A"/>
<path d="M79.5535 117.042C74.2911 118.78 73.4979 117.892 73.4059 118.679C73.1727 120.679 72.9287 122.691 72.68 124.741C72.6481 125.009 72.854 125.242 73.1181 125.251C74.8831 125.3 76.5999 124.767 78.8568 124.205C79.0362 124.16 79.171 124.014 79.1983 123.832C79.1983 123.832 79.8495 119.574 80.1464 117.54C80.1956 117.202 79.8704 116.936 79.5535 117.042Z" fill="#2A344A"/>
<path d="M77.7783 128.876C76.1936 129.232 74.332 129.58 72.5287 129.478C72.2946 129.468 72.0806 129.637 72.0506 129.877C71.3119 135.813 71.2573 135.568 71.4914 135.798C71.597 135.901 71.7427 135.942 71.8775 135.921C73.6908 135.647 75.414 135.322 77.1471 134.929C77.3275 134.888 77.465 134.741 77.495 134.559C77.7109 133.266 78.3275 129.392 78.3275 129.392C78.3794 129.07 78.0852 128.805 77.7783 128.876Z" fill="#2A344A"/>
<path d="M75.5067 100.977C75.6214 101.077 75.7753 101.11 75.911 101.076C78.0386 100.574 80.2581 99.6975 82.3327 98.8733C82.4894 98.8114 82.5987 98.6684 82.6178 98.5008C82.8756 96.202 83.1242 93.9006 83.3555 91.5973C83.3874 91.2767 83.085 91.0226 82.7699 91.1164C76.5476 93.0126 76.0977 92.5663 76.0422 93.2111C75.3773 100.967 75.2006 100.709 75.5067 100.977Z" fill="#2A344A"/>
<path d="M99.2228 26.0126C99.3612 27.6183 99.2683 27.8924 99.5907 28.0664C99.7273 28.1402 99.8922 28.1392 100.028 28.0646C101.585 27.2021 103.165 26.2868 104.723 25.346C104.877 25.2531 104.961 25.0782 104.939 24.8997C104.665 22.7093 104.352 20.6128 104.01 18.6665C103.983 18.5162 103.883 18.3896 103.744 18.3286C103.27 18.1191 103.446 18.58 98.7655 20.8623C98.5725 20.957 98.4714 21.1729 98.5233 21.3815C98.9304 23.0108 99.1107 24.7121 99.2228 26.0126Z" fill="#2A344A"/>
<path d="M99.7223 33.338L100.079 39.2388C100.093 39.4792 100.292 39.6677 100.534 39.6677C100.823 39.6677 105.459 37.0193 105.704 36.8781C105.853 36.7925 105.941 36.6313 105.932 36.4601C105.825 34.3981 105.689 32.4008 105.527 30.5247C105.498 30.1904 105.129 30.0028 104.843 30.1713C99.8234 33.1185 99.6932 32.8462 99.7223 33.338Z" fill="#2A344A"/>
<path d="M106.139 42.204C106.132 41.8671 105.768 41.6494 105.463 41.8161C100.421 44.6048 100.325 44.3498 100.342 44.8288C100.659 53.4992 100.271 53.3817 100.708 53.6486C100.839 53.7287 101.008 53.7396 101.154 53.665C102.752 52.8398 104.343 52.0028 105.927 51.1431C106.072 51.0648 106.163 50.9145 106.165 50.7496C106.21 47.8252 106.2 44.95 106.139 42.204Z" fill="#2A344A"/>
<path d="M105.794 56.2194C105.43 55.9908 105.605 56.1429 100.652 58.6302C100.268 58.8242 100.473 58.7786 100.219 63.3178C100.073 65.9126 99.9499 65.9754 100.262 66.1858C100.396 66.2759 100.569 66.2878 100.714 66.2186C102.368 65.4226 103.957 64.5774 105.437 63.7076C105.568 63.6311 105.651 63.4945 105.661 63.3433C105.822 60.7449 105.932 58.6101 106.007 56.6229C106.014 56.4598 105.933 56.3068 105.795 56.2203L105.794 56.2194Z" fill="#2A344A"/>
<path d="M105.022 69.0111C104.596 68.7333 104.728 69.0812 99.9263 71.2488C99.7742 71.3171 99.6722 71.4629 99.6595 71.6295C99.4536 74.3381 99.2141 76.9939 99.0283 79.0039C99.0037 79.2726 99.2159 79.5012 99.4819 79.5012C99.7915 79.5012 104.085 76.9939 104.349 76.8381C104.474 76.7643 104.557 76.6359 104.571 76.492C104.834 73.9119 105.047 71.6013 105.224 69.4282C105.238 69.2625 105.16 69.1031 105.022 69.0111Z" fill="#2A344A"/>
<path d="M103.674 82.3686C103.259 82.0881 103.334 82.416 98.6596 84.7474C98.5211 84.8166 98.4264 84.9523 98.41 85.1062L97.7242 91.2338C97.6796 91.599 98.0667 91.8631 98.3918 91.6901C99.9346 90.8631 101.45 89.9888 102.898 89.0908C103.013 89.0188 103.091 88.8995 103.11 88.7657C103.376 86.7948 103.632 84.8057 103.873 82.8012C103.893 82.6309 103.816 82.4642 103.674 82.3686Z" fill="#2A344A"/>
<path d="M101.988 94.7989C101.59 94.5239 101.758 94.7762 97.185 97.0321C96.8116 97.2152 97.0603 97.0121 95.7807 105.399C95.7388 105.675 95.9519 105.924 96.2306 105.924C96.5348 105.924 100.393 103.744 100.65 103.598C100.768 103.53 100.849 103.414 100.873 103.28C101.361 100.447 101.788 97.8172 102.18 95.2425C102.206 95.0713 102.132 94.8991 101.989 94.7999L101.988 94.7989Z" fill="#2A344A"/>
<path d="M99.5362 109.261C99.1391 108.966 99.1664 109.29 95.0425 111.217C94.7146 111.371 94.9041 111.058 93.6108 118.266C93.5607 118.545 93.7756 118.802 94.0589 118.802C94.3676 118.802 97.7584 116.953 98.1673 116.725C98.282 116.66 98.364 116.549 98.3913 116.419C98.8367 114.252 99.2793 112.015 99.7128 109.71C99.7456 109.539 99.6764 109.364 99.5371 109.26L99.5362 109.261Z" fill="#2A344A"/>
<path d="M96.827 122.495C96.4709 122.214 96.6558 122.407 92.7232 124.111C92.3461 124.275 92.5647 124.2 91.3925 129.903C91.3124 130.297 91.7441 130.591 92.0793 130.382C93.266 129.643 94.4536 128.853 95.7104 127.966C95.8835 127.844 95.8634 127.982 96.99 122.953C97.0283 122.781 96.9654 122.604 96.827 122.495V122.495Z" fill="#2A344A"/>
<path d="M80.9705 130.162C80.721 130.119 80.4869 130.284 80.4432 130.532C80.1964 131.939 79.9441 133.345 79.6873 134.751C79.6363 135.03 79.8494 135.289 80.1354 135.289C80.3512 135.289 80.5425 135.135 80.5825 134.915C80.8394 133.508 81.0916 132.099 81.3403 130.689C81.3831 130.442 81.2182 130.206 80.9705 130.162Z" fill="#2A344A"/>
<path d="M83.1654 116.749C82.915 116.71 82.6845 116.881 82.6472 117.13C82.3967 118.779 82.1381 120.428 81.8722 122.075C81.8275 122.35 82.0397 122.603 82.3221 122.603C82.5416 122.603 82.7355 122.443 82.7711 122.22C83.037 120.571 83.2957 118.92 83.547 117.268C83.5853 117.019 83.4141 116.787 83.1654 116.749V116.749Z" fill="#2A344A"/>
<path d="M84.9226 103.982C84.6713 103.951 84.4454 104.128 84.4144 104.377C84.2077 106.034 83.9918 107.69 83.7678 109.344C83.7314 109.615 83.9408 109.86 84.2195 109.86C84.4445 109.86 84.6394 109.694 84.6703 109.466C84.8953 107.809 85.1112 106.15 85.3179 104.49C85.3489 104.241 85.1722 104.013 84.9226 103.982Z" fill="#2A344A"/>
<path d="M86.3071 91.1557C86.0584 91.1302 85.8344 91.316 85.8116 91.5673C85.6577 93.2313 85.4919 94.8934 85.3162 96.5546C85.287 96.8242 85.4983 97.0583 85.7697 97.0583C85.9992 97.0583 86.1978 96.8852 86.2224 96.6512C86.3991 94.9854 86.5639 93.3196 86.7196 91.6529C86.7424 91.4025 86.5584 91.1803 86.308 91.1575L86.3071 91.1557Z" fill="#2A344A"/>
<path d="M87.2578 78.2881C87.0091 78.2717 86.7924 78.4657 86.7778 78.717C86.6831 80.3865 86.5756 82.055 86.4563 83.7216C86.4372 83.9848 86.6457 84.2098 86.9108 84.2098C87.1476 84.2098 87.347 84.0267 87.3643 83.7872C87.4836 82.116 87.5911 80.4429 87.6867 78.769C87.7013 78.5185 87.5091 78.3017 87.2578 78.2881Z" fill="#2A344A"/>
<path d="M87.2514 65.8297C87.225 67.5018 87.184 69.174 87.1302 70.8452C87.1093 71.4582 88.0218 71.4736 88.04 70.8744C88.0946 69.1986 88.1356 67.521 88.162 65.8434C88.1711 65.2586 87.2614 65.2004 87.2514 65.8297Z" fill="#2A344A"/>
<path d="M87.1488 52.2204C87.2098 54.1302 87.2508 56.0419 87.2717 57.9518C87.2744 58.2013 87.4785 58.4035 87.7271 58.4026C87.9784 58.4017 88.1851 58.194 88.1824 57.9426C88.1614 56.0255 88.1204 54.1075 88.0585 52.1912C88.0394 51.5601 87.1287 51.6384 87.1488 52.2204Z" fill="#2A344A"/>
<path d="M86.4888 40.3346C86.619 41.9621 86.7319 43.5914 86.8285 45.2217C86.8431 45.463 87.0452 45.6615 87.3103 45.6488C87.5607 45.6342 87.7529 45.4184 87.7374 45.167C87.6409 43.5304 87.527 41.8956 87.3968 40.2626C87.3768 40.0121 87.1509 39.83 86.9068 39.8446C86.6563 39.8646 86.4687 40.0841 86.4888 40.3346Z" fill="#2A344A"/>
<path d="M86.0007 32.5933C86.0189 32.8465 86.2402 33.0332 86.488 33.014C86.7384 32.9958 86.9269 32.7772 86.9087 32.5268C86.7712 30.6515 86.62 28.7772 86.4543 26.9047C86.4014 26.3018 85.4943 26.3865 85.5471 26.9849C85.712 28.8528 85.8632 30.7226 86.0007 32.5933Z" fill="#2A344A"/>
<path d="M89.9725 126.6C89.7284 126.553 89.488 126.718 89.4424 126.966L88.5408 131.878C88.4898 132.157 88.7029 132.416 88.9889 132.416C89.2047 132.416 89.396 132.263 89.436 132.042L90.3377 127.129C90.3832 126.882 90.2193 126.644 89.9716 126.599L89.9725 126.6Z" fill="#2A344A"/>
<path d="M91.8602 118.696C92.1517 117.056 92.4404 115.415 92.7245 113.773C92.7673 113.525 92.6016 113.289 92.3529 113.247C92.107 113.206 91.8702 113.369 91.8265 113.618C91.5424 115.258 91.2555 116.899 90.9631 118.537C90.914 118.815 91.1271 119.072 91.4121 119.072C91.6289 119.072 91.8211 118.918 91.8602 118.696Z" fill="#2A344A"/>
<path d="M93.5031 106.402C93.7518 106.442 93.9849 106.273 94.0259 106.025C94.3301 104.143 94.627 102.259 94.9139 100.375C94.9522 100.126 94.7809 99.8942 94.5323 99.8569C94.2837 99.8187 94.0514 99.9899 94.0141 100.239C93.7281 102.12 93.4321 104.001 93.127 105.879C93.0869 106.127 93.2545 106.361 93.5031 106.402Z" fill="#2A344A"/>
<path d="M95.6802 88.2138C95.5327 89.395 95.3815 90.5763 95.2248 91.7557C95.1911 92.0052 95.3669 92.2338 95.6165 92.2675C95.8687 92.3003 96.0955 92.1236 96.1283 91.8759C96.285 90.6937 96.438 89.5098 96.5846 88.3258C96.6584 87.732 95.7549 87.6099 95.6802 88.2138Z" fill="#2A344A"/>
<path d="M97.1468 74.002C96.9938 75.9018 96.8226 77.8007 96.6341 79.6969C96.6095 79.9474 96.7916 80.1705 97.0421 80.1951C97.3044 80.2179 97.5166 80.0284 97.5403 79.7871C97.7297 77.8854 97.9009 75.9811 98.0548 74.0748C98.1031 73.4737 97.1951 73.4009 97.1468 74.002Z" fill="#2A344A"/>
<path d="M98.1217 66.6349C98.3621 66.6367 98.5634 66.4454 98.5761 66.2022C98.6499 64.7678 98.71 63.3334 98.7601 61.8971C98.7692 61.6457 98.5716 61.4354 98.3211 61.4263C98.078 61.4053 97.8594 61.6148 97.8503 61.8652C97.8011 63.296 97.7401 64.7259 97.6663 66.1549C97.6608 66.2642 97.7319 66.6294 98.1217 66.633V66.6349Z" fill="#2A344A"/>
<path d="M98.8103 48.2485C98.803 47.9972 98.5799 47.7977 98.3422 47.8059C98.0908 47.8132 97.8932 48.0227 97.8996 48.274C97.9524 50.152 97.9797 52.0792 97.9815 54.0018C97.9815 54.2531 98.1855 54.4571 98.4369 54.4571C98.6883 54.4571 98.8923 54.2531 98.8923 54.0018C98.8905 52.0701 98.8631 50.1338 98.8103 48.2485Z" fill="#2A344A"/>
<path d="M97.5201 40.4343C97.5365 40.6674 97.7305 40.8687 98.0065 40.8569C98.2569 40.8386 98.4464 40.6219 98.4291 40.3705C98.3125 38.6929 98.1722 37.0071 98.0119 35.3577C97.9883 35.1082 97.7706 34.9288 97.5147 34.9488C97.2642 34.9734 97.0811 35.1956 97.1057 35.4461C97.2651 37.0863 97.4045 38.7648 97.5201 40.4343Z" fill="#2A344A"/>
<path d="M96.1806 28.034C96.2225 28.2781 96.4548 28.4484 96.707 28.4056C96.9548 28.3628 97.1214 28.1269 97.0786 27.8792C96.7508 25.9739 96.3008 24.3373 95.7043 22.8755C95.6087 22.6424 95.3427 22.5303 95.1105 22.626C94.8773 22.7207 94.7662 22.9866 94.8609 23.2198C95.432 24.6205 95.8637 26.1952 96.1806 28.034Z" fill="#2A344A"/>
<path d="M69.9293 28.1747C69.912 27.9516 69.7353 27.774 69.5122 27.7558C56.9192 26.7348 38.2816 22.8468 31.1622 19.7557C30.8771 19.6328 30.5575 19.8222 30.5274 20.1282C27.0283 55.3325 27.7077 90.9711 32.583 126.01C32.6003 126.136 32.6695 126.249 32.7742 126.322C40.1732 131.458 50.2434 134.749 63.5604 136.384C63.7963 136.417 64.034 136.247 64.0677 135.992C68.555 102.333 72.8201 65.3927 69.9293 28.1747ZM42.8472 130.586C43.0958 130.334 42.9355 130.576 42.5311 121.185C45.7543 122.296 49.1824 123.165 52.9237 123.926C52.6032 128.161 52.3108 131.43 52.0831 133.442C48.7352 132.643 45.6623 131.693 42.8472 130.586ZM42.4892 120.205C42.3271 116.319 42.1851 112.247 42.0667 108.047C45.9701 109.434 49.9929 110.444 53.7817 111.179C53.5148 115.606 53.2462 119.597 52.993 123.01C49.2024 122.235 45.7379 121.349 42.4892 120.205ZM32.1413 115.289C31.654 111.039 31.2278 106.781 30.8635 102.518C33.9664 104.647 37.491 106.35 41.1459 107.712C41.2625 111.909 41.4027 115.982 41.5639 119.87C38.3672 118.681 35.3735 117.223 32.4728 115.353C32.3708 115.287 32.2515 115.268 32.1413 115.289ZM30.0939 36.8606C33.6704 38.5874 37.4956 40.0655 41.522 41.285C41.2697 46.6202 41.083 52.2487 40.9546 58.0338C32.9427 55.6704 29.8616 53.6485 29.3708 53.6904C29.5055 48.0774 29.7469 42.4672 30.0939 36.8606ZM55.3882 26.8095C55.2735 27.1465 55.6433 30.2822 55.7589 43.4781C51.1441 42.8178 46.6951 41.8597 42.4656 40.6165C42.7488 34.7959 43.1113 29.3368 43.5621 24.417C47.278 25.2885 51.3409 26.1119 55.3882 26.8095ZM55.7671 44.3989C55.8072 49.8925 55.7781 55.5155 55.6961 61.1394C51.2361 60.5256 46.5703 59.6303 41.8599 58.2961C41.9856 52.5137 42.1705 46.888 42.4209 41.5519C46.6705 42.7896 51.1368 43.7422 55.7662 44.398L55.7671 44.3989ZM69.9312 62.3781C69.5723 62.3125 63.7991 62.1959 56.605 61.2606C56.6879 55.6394 56.7179 50.0182 56.6788 44.5237C60.881 45.082 65.2125 45.4289 69.6361 45.4608C69.7326 45.4608 69.8292 45.4299 69.9029 45.3789C70.0505 51.1002 70.0523 56.7578 69.9312 62.3781ZM69.2226 79.0485C64.4302 79.1523 60.3437 78.9638 56.2016 78.3572C56.371 73.0475 56.5048 67.6167 56.5904 62.1777C59.7171 62.5812 69.1097 63.3917 69.9102 63.2761C69.7836 68.5575 69.5468 73.8071 69.2226 79.0485ZM67.871 96.1606C63.5158 95.88 59.5404 95.7252 55.5422 95.2024C55.7781 90.1177 55.993 84.7661 56.1724 79.2753C60.5804 79.9137 64.7499 80.0531 69.1679 79.9602C68.8228 85.359 68.3838 90.7516 67.871 96.1606ZM66.1934 111.934C63.096 111.688 59.0905 111.242 54.738 110.435C55.0003 106.03 55.2598 101.213 55.4994 96.1159C59.4912 96.6332 63.4411 96.789 67.7845 97.0677C67.31 102.001 66.7745 106.95 66.1934 111.934ZM41.655 75.7434C46.8062 77.3846 51.0895 78.4738 55.2662 79.1377C55.0868 84.6323 54.8718 89.9893 54.6369 95.0777C50.3837 94.4611 45.4456 93.1396 41.737 91.8235C41.6696 86.5111 41.6404 81.1177 41.655 75.7434ZM29.3507 54.6194C33.1832 56.4263 37.073 57.8507 40.9355 58.9782C40.8289 64.0648 40.7679 69.267 40.7479 74.4938C37.3162 73.3736 31.736 71.0193 29.2606 68.6022C29.2177 63.9418 29.2478 59.2806 29.3507 54.6194ZM41.8408 59.2369C46.5576 60.5593 51.2234 61.4473 55.6824 62.0566C55.5977 67.4874 55.4638 72.9128 55.2953 78.217C51.1223 77.5467 46.8354 76.4456 41.6568 74.788C41.675 69.5502 41.7361 64.3362 41.8408 59.2369ZM54.5941 95.9921C54.3555 101.07 54.0968 105.871 53.8363 110.263C50.013 109.517 45.9583 108.489 42.0393 107.072C41.9136 102.437 41.8153 97.6524 41.7497 92.7944C45.6104 94.1359 50.4365 95.3955 54.5941 95.9921ZM40.7452 75.451C40.7297 80.8108 40.757 86.1896 40.8226 91.4902C36.9555 90.0339 33.1558 88.0366 29.7187 84.88L29.7068 84.8699C29.4782 79.8609 29.3343 74.8472 29.2742 69.8308C32.0921 72.1386 37.0256 74.2434 40.7452 75.451ZM40.8353 92.4674C40.9 97.3181 40.9956 102.099 41.1204 106.732C37.4109 105.324 33.8526 103.555 30.7642 101.335C30.3453 96.279 30.0137 91.2133 29.7678 86.1432C33.2333 89.145 37.0102 91.0594 40.8353 92.4674ZM54.6833 111.349C59.014 112.149 62.9958 112.592 66.0878 112.838C65.6142 116.869 65.1115 120.923 64.5887 125.01C60.7298 124.418 57.1879 123.841 53.8919 123.191C54.146 119.776 54.4156 115.783 54.6833 111.349ZM69.8838 44.6193C69.453 44.3515 65.463 44.7823 56.6724 43.6038C56.6232 37.8588 56.4975 32.2613 56.2762 26.9598C60.7517 27.7111 65.1743 28.3031 69.0523 28.6319C69.4649 34.0309 69.7363 39.3524 69.8838 44.6193ZM31.3735 20.8313C34.0548 21.9224 38.0621 23.0964 42.6678 24.2038C42.2169 29.1055 41.8526 34.5454 41.5685 40.346C37.5694 39.1229 33.7742 37.642 30.2296 35.9134C30.2059 35.9016 30.1804 35.8924 30.1558 35.8852C30.4773 30.8614 30.8826 25.8432 31.3735 20.8313ZM32.2578 116.295C35.2433 118.19 38.3207 119.661 41.6058 120.857C41.7461 124.143 41.9 127.295 42.0685 130.273C38.8608 128.957 35.9983 127.431 33.4582 125.687C33.0247 122.561 32.624 119.431 32.2578 116.295ZM63.2244 135.424C59.5595 134.961 56.1478 134.371 52.9757 133.649C53.2033 131.658 53.4984 128.376 53.8227 124.104C57.1087 124.749 60.6351 125.323 64.4712 125.913C64.0659 129.062 63.6497 132.23 63.2244 135.424Z" fill="#2A344A"/>
<path d="M106.469 13.1434C106.498 12.9047 106.34 12.6925 106.116 12.6434C102.751 11.9002 96.4835 10.8109 89.6255 9.83004C89.9124 7.18248 89.9861 4.57863 89.8131 2.48208C89.8258 2.24892 89.6592 2.04674 89.4333 2.01031C85.0125 1.27988 71.0816 -0.292988 66.5206 0.047634C59.8402 0.549459 48.9394 3.13053 48.4676 3.41469C48.3547 3.48209 48.2773 3.59593 48.2545 3.72435C47.9439 5.46753 47.6944 7.56773 47.9011 10.3983C38.2089 12.7363 29.1979 15.6743 28.7152 16.0614C28.5139 16.106 28.3791 16.2718 28.36 16.4603C24.3627 56.2402 25.1514 96.4253 30.7043 135.899C30.7225 136.026 30.7926 136.139 30.8974 136.211C40.8983 143.079 53.9076 146.316 65.9778 147.552C66.026 147.557 66.0388 147.558 66.0971 147.551C80.0334 145.82 88.3277 141.515 96.5572 136.055C96.6519 135.993 96.7184 135.897 96.7467 135.788C105.862 100.084 113.203 49.119 106.471 13.1443L106.469 13.1434ZM88.1045 13.8155C83.3795 16.1206 77.0261 17.8966 70.9368 18.6225C71.7392 15.3538 72.4496 10.8437 72.2993 7.75079C77.2647 6.86098 85.008 4.82089 88.9488 3.17972C89.1218 6.23712 88.8085 10.2235 88.1045 13.8155ZM66.588 0.955655C70.6499 0.655107 82.2966 1.89829 87.7539 2.67607C83.5863 4.26624 76.3676 6.12509 71.7948 6.91563C65.0461 6.5067 55.4376 5.0923 50.4276 3.81906C54.7964 2.73162 61.7947 1.3154 66.588 0.955655ZM49.0633 4.39102C53.6234 5.72709 64.0679 7.3282 71.3904 7.80179C71.5406 10.8792 70.8002 15.4421 69.9887 18.6598C64.3767 18.1352 59.3293 17.3265 55.3848 16.3492L55.281 10.6169C55.2728 10.1379 55.1061 9.84825 54.5988 9.6998C51.4403 8.77083 51.576 8.74533 51.3347 8.91473C51.2208 8.99397 51.1498 9.12147 51.1416 9.25991C51.0205 11.2044 51.0551 13.1698 51.2427 15.1115C50.5341 14.8519 49.8993 14.5851 49.3456 14.3128C48.4749 9.7508 48.6844 6.73074 49.0633 4.39102ZM47.9785 11.2964C48.0842 12.3346 48.2509 13.4658 48.494 14.7062C48.5214 14.8428 48.6088 14.9603 48.7327 15.0241C54.332 17.8975 65.6754 19.1835 70.2911 19.6024C71.0598 19.6789 80.874 18.4157 88.7084 14.5323C88.8349 14.4703 88.9242 14.3528 88.9524 14.2144C89.1801 13.0814 89.3696 11.9066 89.5189 10.7299C95.7084 11.6169 101.416 12.5933 104.922 13.3191C97.437 17.5623 82.0917 22.9394 72.6782 25.1116C58.903 23.9995 38.8382 19.9267 30.0595 16.5213C34.5832 14.9321 41.2526 12.9248 47.9785 11.2964ZM60.6936 145.887C50.29 144.208 41.841 141.519 35.0887 137.74C34.6624 135.566 34.3373 133.348 34.1178 131.133C49.1361 139.894 61.1571 139.273 61.4604 139.805C61.5424 139.95 61.5242 139.863 60.6936 145.887ZM65.639 146.592C64.2592 146.42 62.9104 146.233 61.5934 146.029L62.3685 140.413C62.5123 139.355 62.1171 138.84 61.0533 138.754C51.5806 137.983 42.1625 134.921 33.8182 129.896C33.5039 129.706 33.0977 129.953 33.1296 130.325C33.3254 132.604 33.6342 134.892 34.0486 137.14C33.197 136.636 32.3737 136.113 31.5777 135.572C26.0895 96.4371 25.2908 56.6018 29.2052 17.1616C37.7071 20.6097 58.1781 24.8165 72.2893 25.9941C73.9286 47.0143 73.6427 67.498 72.1254 88.3333C72.1254 88.3333 69.5898 115.206 69.5734 115.353C69.5525 115.54 65.8576 144.985 65.6408 146.592H65.639ZM95.9051 135.392C87.9442 140.656 79.8558 144.576 66.5625 146.561C71.9833 106.274 76.5252 66.9807 73.1964 25.9267C82.8285 23.6635 98.3277 18.1944 105.688 13.9303C112.184 49.6673 104.925 99.9954 95.9051 135.392Z" fill="#2A344A"/>
<path d="M174.849 117.85C174.746 117.373 174.744 117.781 157.936 112.061C157.913 112.338 157.889 112.622 157.835 113.011C163.033 114.778 168.263 116.505 173.493 118.139C167.113 123.628 159.389 127.327 151.911 130.908C150.008 131.819 149.457 131.895 147.277 131.272C134.696 127.67 124.868 124.039 114.253 119.701L142.426 107.659C145.372 108.697 148.339 109.737 151.322 110.771C151.342 110.486 151.355 110.145 151.365 109.805C147.674 108.529 134.399 103.862 132.361 103.146C132.336 103.441 132.318 103.715 132.273 104.081L141.156 107.212L113.066 119.219C109.153 117.631 105.138 116.029 101.099 114.424L100.917 115.338C119.975 122.96 129.398 127.1 147.027 132.147C149.426 132.836 150.21 132.73 152.304 131.73C160.08 128.007 168.119 124.158 174.708 118.287C174.831 118.178 174.885 118.011 174.85 117.851L174.849 117.85Z" fill="#2A344A"/>
<path d="M121.087 99.2305C121.061 99.5283 121.044 99.8015 121 100.164C122.582 100.707 124.162 101.252 125.741 101.801C125.757 101.501 125.768 101.167 125.776 100.849C124.217 100.308 122.654 99.7678 121.087 99.2305Z" fill="#2A344A"/>
<path d="M114.502 96.9974C113.228 96.5721 111.952 96.1495 110.674 95.7314C110.651 95.9874 110.621 96.2706 110.563 96.6486C111.868 97.0757 113.165 97.5111 114.467 97.9464C114.482 97.6504 114.493 97.3171 114.502 96.9974Z" fill="#2A344A"/>
<path d="M162.262 115.574C161.208 110.342 161.25 107.558 160.14 107.421L149.855 104.316C149.687 104.266 149.513 104.316 149.398 104.434C148.865 104.735 146.407 113.527 146.144 114.239C145.935 114.804 146.786 115.12 146.996 114.559C147.125 114.218 148.885 108.186 149.692 105.864C149.948 106.999 150.24 109.325 150.609 111.393L151.305 110.945C151.323 110.755 151.335 110.528 151.345 110.286C151.033 108.378 150.771 106.395 150.534 105.473L159.317 108.124C158.529 109.759 156.915 115.879 156.303 117.719C156.206 118.014 156.425 118.318 156.736 118.318C156.926 118.318 157.105 118.197 157.169 118.007C157.766 116.207 159.3 110.431 160.066 108.657C160.43 109.834 160.783 112.846 161.369 115.754C161.418 116.001 161.66 116.163 161.905 116.111C162.152 116.061 162.312 115.822 162.263 115.575L162.262 115.574Z" fill="#2A344A"/>
<path d="M158.41 110.154C158.113 109.723 153.437 108.156 151.478 107.873C151.352 107.854 151.229 107.889 151.13 107.967C150.915 108.138 150.946 108.331 150.923 109.241C150.911 109.71 150.897 110.255 150.869 110.683L148.503 112.207C148.189 112.408 148.238 112.883 148.588 113.015C155.364 115.578 154.98 115.447 155.103 115.447C155.294 115.447 155.143 115.505 158.056 113.586C158.164 113.515 158.237 113.403 158.256 113.275C158.337 112.739 158.366 112.39 158.393 112.041C158.495 110.76 158.665 110.523 158.41 110.154ZM151.845 108.856C153.625 109.18 155.39 109.865 157.632 110.68C157.484 111.657 157.508 111.89 157.429 112.593L151.786 110.627C151.815 110.114 151.829 109.486 151.845 108.856ZM155.047 114.484L149.757 112.484L151.366 111.446L156.787 113.334L155.046 114.484H155.047Z" fill="#2A344A"/>
<path d="M132.815 101.459C132.62 101.176 132.439 101.169 131.092 100.678C129.423 100.07 127.699 99.4406 125.883 99.1783C125.759 99.161 125.634 99.1947 125.536 99.2721C125.225 99.5189 125.41 99.9351 125.275 101.988C122.677 103.662 122.728 103.553 122.702 103.856C122.674 104.182 122.624 105.025 122.742 105.789C122.78 106.034 123.009 106.207 123.262 106.168C123.511 106.13 123.681 105.897 123.642 105.648C123.594 105.339 123.573 104.949 123.579 104.542L129.041 106.607C129.034 106.786 129.004 107.84 128.993 108.055C128.989 108.163 129.059 108.526 129.449 108.531C129.691 108.534 129.892 108.34 129.903 108.095C129.913 107.877 129.947 106.745 129.953 106.548L131.733 105.372C131.733 105.409 131.718 106.237 131.708 106.446C131.702 106.555 131.773 106.919 132.163 106.922C132.404 106.925 132.606 106.733 132.617 106.488C132.637 106.078 132.645 104.976 132.664 104.553C132.742 104.031 132.77 103.687 132.798 103.344C132.902 102.051 133.068 101.826 132.814 101.458L132.815 101.459ZM126.25 100.161C127.988 100.478 129.639 101.115 132.037 101.986C131.888 102.971 131.914 103.203 131.83 103.929C130.359 103.472 127.203 102.315 126.19 101.94C126.22 101.426 126.233 100.798 126.25 100.161ZM129.453 105.789L124.162 103.788L125.767 102.755C126.581 103.056 129.462 104.117 131.15 104.667L129.453 105.789Z" fill="#2A344A"/>
<path d="M121.541 97.575C121.346 97.2927 121.164 97.2854 119.817 96.7945C118.149 96.1861 116.425 95.5568 114.609 95.2945C114.484 95.2772 114.359 95.3109 114.262 95.3883C113.95 95.6351 114.135 96.0513 114 98.1042C111.402 99.7781 111.454 99.6688 111.428 99.9721C111.399 100.298 111.349 101.142 111.468 101.905C111.506 102.15 111.735 102.323 111.988 102.285C112.236 102.246 112.407 102.013 112.367 101.764C112.319 101.455 112.298 101.065 112.305 100.658L117.766 102.723C117.76 102.902 117.729 103.957 117.719 104.172C117.715 104.279 117.785 104.642 118.174 104.647C118.417 104.65 118.618 104.457 118.629 104.212C118.639 103.993 118.673 102.861 118.679 102.664L120.459 101.489C120.459 101.525 120.443 102.353 120.433 102.562C120.428 102.672 120.499 103.035 120.888 103.039C121.13 103.041 121.331 102.849 121.343 102.604C121.362 102.194 121.37 101.092 121.389 100.669C121.468 100.147 121.496 99.8036 121.523 99.4603C121.628 98.167 121.794 97.942 121.54 97.5741L121.541 97.575ZM114.976 96.2772C116.714 96.5941 118.365 97.2307 120.763 98.1023C120.613 99.0869 120.64 99.3191 120.556 100.045C119.084 99.5887 115.929 98.4311 114.916 98.0559C114.946 97.5422 114.959 96.9138 114.976 96.2772ZM118.178 101.905L112.888 99.9047L114.492 98.871C115.306 99.1725 118.187 100.233 119.876 100.784L118.178 101.905Z" fill="#2A344A"/>
<path d="M111.167 93.5942C110.972 93.3118 110.79 93.3046 109.444 92.8137C108.02 92.2936 106.555 91.7599 105.027 91.4512L104.897 92.3537C106.53 92.6871 108.127 93.2991 110.388 94.1215C110.239 95.106 110.265 95.3383 110.182 96.0641C108.754 95.6215 105.739 94.5177 104.636 94.1106L104.497 95.0304C105.61 95.4403 108.016 96.3191 109.501 96.8028L107.803 97.9239L104.257 96.5833L104.113 97.5022L107.392 98.7418C107.387 98.9203 107.355 99.9749 107.346 100.19C107.341 100.297 107.411 100.661 107.801 100.665C108.043 100.668 108.244 100.475 108.255 100.23C108.265 100.011 108.298 98.8793 108.305 98.6826L110.085 97.5068C110.085 97.5432 110.07 98.3711 110.061 98.5806C110.055 98.6898 110.126 99.0532 110.516 99.0569C110.757 99.0596 110.959 98.8674 110.97 98.6224C110.989 98.2126 110.998 97.1106 111.017 96.6871C111.095 96.1652 111.123 95.8219 111.151 95.4785C111.254 94.1853 111.421 93.9603 111.167 93.5924V93.5942Z" fill="#2A344A"/>
<path d="M136.281 121.672C136.207 121.432 135.954 121.296 135.712 121.372C135.457 121.45 135.224 121.6 135.04 121.795C135.04 121.479 135.103 121.164 135.226 120.871C135.322 120.639 135.213 120.372 134.981 120.275C134.749 120.179 134.482 120.288 134.385 120.52C134.248 120.85 134.165 121.199 134.138 121.553C134.02 121.314 133.85 121.099 133.64 120.931C133.443 120.775 133.157 120.807 133 121.003C132.843 121.2 132.875 121.487 133.072 121.643C133.25 121.785 133.376 122.005 133.409 122.232C133.467 122.641 134 122.765 134.235 122.425C134.354 122.595 134.576 122.667 134.776 122.588C134.854 122.744 135.013 122.839 135.182 122.839C135.639 122.839 135.532 122.381 135.981 122.242C136.221 122.168 136.356 121.913 136.281 121.672Z" fill="#2A344A"/>
<path d="M149.158 120.866C149.008 120.665 148.722 120.622 148.521 120.772L148.056 121.117C148.089 121.077 148.126 121.043 148.168 121.015C148.379 120.878 148.439 120.596 148.301 120.385C147.97 119.875 147.345 120.369 147.121 120.935C147.063 120.818 147 120.703 146.929 120.592C146.792 120.379 146.511 120.318 146.299 120.454C146.088 120.59 146.026 120.871 146.162 121.083C146.287 121.279 146.385 121.491 146.451 121.713C146.544 122.03 146.935 122.143 147.184 121.928C147.304 122.03 147.471 122.066 147.632 122.01C147.783 122.206 148.064 122.247 148.265 122.098L149.063 121.504C149.265 121.354 149.307 121.069 149.156 120.868L149.158 120.866Z" fill="#2A344A"/>
<path d="M143.359 113.986C143.245 113.761 142.969 113.673 142.747 113.787C142.558 113.882 142.384 114.004 142.23 114.146C142.27 114.036 142.319 113.93 142.377 113.828C142.502 113.609 142.426 113.331 142.208 113.206C141.988 113.081 141.711 113.156 141.586 113.375C141.451 113.611 141.349 113.865 141.282 114.128C141.172 113.907 141.032 113.701 140.864 113.518C140.694 113.332 140.406 113.32 140.221 113.49C140.036 113.66 140.023 113.947 140.193 114.133C140.388 114.346 140.528 114.607 140.597 114.888C140.681 115.224 141.092 115.343 141.344 115.116C141.434 115.198 141.551 115.238 141.66 115.234C141.722 115.422 141.896 115.547 142.092 115.547C142.606 115.547 142.44 114.965 143.159 114.6C143.383 114.486 143.472 114.212 143.358 113.988L143.359 113.986Z" fill="#2A344A"/>
<path d="M115.838 112.355C115.643 112.196 115.356 112.227 115.198 112.422L114.811 112.9C114.727 112.679 114.752 112.408 114.881 112.213C115.02 112.003 114.961 111.72 114.752 111.582C114.225 111.236 113.836 112.02 113.85 112.663C113.681 112.525 113.484 112.421 113.273 112.365C113.03 112.302 112.78 112.445 112.716 112.688C112.653 112.931 112.796 113.181 113.04 113.245C113.226 113.294 113.393 113.442 113.463 113.623C113.612 114 114.143 114.009 114.305 113.638C114.386 113.666 114.472 113.671 114.561 113.65C114.714 113.936 115.111 113.974 115.316 113.721L115.905 112.993C116.063 112.798 116.033 112.511 115.837 112.353L115.838 112.355Z" fill="#2A344A"/>
<path d="M116.709 106.072C116.729 106.04 116.751 106.008 116.776 105.978C116.936 105.784 116.909 105.497 116.715 105.337C116.52 105.176 116.234 105.204 116.074 105.398C115.894 105.615 115.772 105.874 115.714 106.147C115.589 105.878 115.43 105.625 115.241 105.399C115.081 105.206 114.794 105.178 114.6 105.34C114.407 105.5 114.38 105.788 114.541 105.981C114.766 106.253 114.935 106.575 115.031 106.913C115.141 107.305 115.675 107.365 115.869 107.008C115.987 107.095 116.143 107.123 116.29 107.07C116.434 107.53 117.1 107.478 117.175 107.005C117.192 106.895 117.258 106.788 117.35 106.725C117.848 106.376 117.316 105.538 116.709 106.072Z" fill="#2A344A"/>
<path d="M108.743 107.337C108.757 107.298 108.773 107.259 108.793 107.222C108.912 107 108.828 106.725 108.606 106.607C108.385 106.488 108.108 106.571 107.99 106.794C107.903 106.956 107.844 107.132 107.812 107.312C107.708 107.213 107.594 107.126 107.47 107.053C107.253 106.924 106.974 106.998 106.846 107.215C106.719 107.432 106.791 107.71 107.008 107.839C107.184 107.942 107.324 108.102 107.404 108.29C107.504 108.523 107.772 108.629 108.002 108.531C108.124 108.479 108.034 108.475 108.142 108.526C108.31 108.887 108.825 108.873 108.976 108.507C109.054 108.319 109.179 108.153 109.341 108.028C109.812 107.659 109.268 106.916 108.745 107.339L108.743 107.337Z" fill="#2A344A"/>
<path d="M2.3992 124.856C2.40102 124.738 2.42743 124.709 2.31814 124.634C1.80994 124.279 1.36094 123.684 1.54036 123.014C1.6797 122.499 1.85457 122.677 1.53853 122.226C0.447452 120.667 1.76622 119.878 1.80994 119.748C1.8236 119.657 1.49482 118.634 2.16604 117.809C2.59683 117.279 3.32179 117.055 3.93017 117.265C3.93017 117.265 4.07863 117.321 4.09957 117.329C5.19521 116.105 7.22074 116.792 7.26445 118.689C7.27174 119.019 7.27356 119.032 7.56227 119.307C8.89197 120.575 8.15517 121.689 8.08777 121.799C8.06682 121.832 8.03859 121.877 8.03222 121.894C8.04588 122.169 9.60509 123.149 7.72802 124.54C7.11144 124.998 7.2772 125.001 7.00215 125.443C6.60233 126.084 5.35277 126.539 4.62599 126.087C3.43746 126.665 2.38645 125.84 2.3992 124.856ZM3.45112 118.109C2.84729 118.109 2.55767 118.745 2.66696 119.349C2.77352 119.888 2.738 120.159 2.25985 120.592C2.20976 120.637 2.15876 120.681 2.11686 120.732C1.94564 120.942 2.02761 121.326 2.19701 121.578C2.37096 121.837 2.66605 122.183 2.62415 122.641C2.59774 122.921 2.45111 123.129 2.41832 123.251C2.36732 123.442 2.57588 123.706 2.80904 123.868C3.18062 124.124 3.33181 124.325 3.31086 124.791C3.30722 125.28 3.76715 125.607 4.42653 125.151C4.64147 125.004 4.92836 125.066 5.06588 125.277C5.20887 125.494 6.04404 125.259 6.2271 124.963C6.44477 124.613 6.39013 124.399 7.18431 123.81C7.37921 123.666 7.79542 123.361 7.73349 123.106C7.64332 122.734 6.73166 122.248 7.31454 121.317C7.55589 120.895 7.35553 120.381 7.0568 120.085C6.87009 119.901 6.57592 119.665 6.44477 119.322C6.33366 119.029 6.36281 118.734 6.3455 118.534C6.27264 117.69 5.3045 117.346 4.82453 117.883C4.23983 118.568 3.86915 118.109 3.45112 118.109Z" fill="#2A344A"/>
<path d="M8.58016 128.297C8.46176 127.272 7.77779 126.487 6.65209 126.087C4.9945 125.499 2.71489 125.858 1.67572 126.872C0.977171 127.554 0.86697 128.201 0.937098 129.175C1.10923 131.519 4.94897 132.388 7.17669 131.177C8.35338 130.538 8.73408 129.626 8.58016 128.297ZM4.88886 126.716C6.13114 126.716 7.53279 127.164 7.67578 128.401C7.87979 130.175 4.22674 130.838 2.5719 129.639C0.83054 128.377 2.38702 126.716 4.88977 126.716H4.88886Z" fill="#2A344A"/>
<path d="M5.77106 121.584C5.52515 121.527 5.28107 121.679 5.22369 121.924C5.17816 122.119 5.03972 122.287 4.89127 122.418C4.57888 121.859 4.32205 121.234 4.33844 120.592C4.34117 120.478 4.25556 120.126 3.88307 120.126C3.63625 120.126 3.43406 120.323 3.42769 120.57C3.40492 121.526 3.80292 122.393 4.29564 123.202C4.30565 124.844 4.35757 126.505 4.44864 128.142C4.48143 128.736 5.39218 128.696 5.35758 128.091C5.26923 126.51 5.21914 124.908 5.2073 123.324C5.55339 123.087 5.97871 122.693 6.11077 122.131C6.16815 121.886 6.01605 121.641 5.77106 121.583V121.584Z" fill="#2A344A"/>
<path d="M13.3845 117.935C13.3864 117.817 13.4128 117.788 13.3035 117.713C12.7953 117.359 12.3463 116.763 12.5257 116.094C12.6651 115.578 12.8399 115.757 12.5239 115.305C11.4328 113.746 12.7516 112.957 12.7953 112.828C12.809 112.736 12.4802 111.713 13.1514 110.889C13.5822 110.358 14.3071 110.134 14.9155 110.344C14.9155 110.344 15.064 110.4 15.0849 110.408C16.1806 109.185 18.2061 109.871 18.2498 111.768C18.2571 112.098 18.2589 112.111 18.5476 112.386C19.8773 113.654 19.1405 114.768 19.0731 114.878C19.0522 114.911 19.0239 114.956 19.0176 114.973C19.0312 115.248 20.5904 116.228 18.7134 117.619C18.0968 118.077 18.2625 118.08 17.9875 118.523C17.5877 119.163 16.3381 119.618 15.6113 119.166C14.4228 119.744 13.3718 118.92 13.3845 117.935ZM14.4365 111.188C13.8326 111.188 13.543 111.824 13.6523 112.428C13.7589 112.967 13.7233 113.238 13.2452 113.671C13.1951 113.716 13.1441 113.76 13.1022 113.811C12.931 114.021 13.013 114.405 13.1824 114.657C13.3563 114.916 13.6514 115.262 13.6095 115.72C13.5831 116 13.4365 116.208 13.4037 116.33C13.3527 116.521 13.5612 116.785 13.7944 116.947C14.166 117.203 14.3172 117.404 14.2962 117.87C14.2926 118.359 14.7525 118.686 15.4119 118.23C15.6268 118.083 15.9137 118.145 16.0512 118.356C16.1942 118.573 17.0294 118.338 17.2124 118.042C17.4301 117.692 17.3755 117.478 18.1696 116.889C18.3645 116.745 18.7808 116.441 18.7188 116.185C18.6287 115.813 17.717 115.327 18.2999 114.396C18.5412 113.974 18.3409 113.46 18.0421 113.165C17.8554 112.981 17.5613 112.744 17.4301 112.401C17.319 112.108 17.3481 111.813 17.3308 111.614C17.258 110.769 16.2899 110.425 15.8099 110.962C15.2252 111.647 14.8545 111.188 14.4365 111.188Z" fill="#2A344A"/>
<path d="M19.5635 121.368C19.4451 120.343 18.7612 119.558 17.6355 119.159C15.9779 118.57 13.6983 118.929 12.6591 119.944C11.9606 120.625 11.8504 121.272 11.9205 122.246C12.0926 124.59 15.9324 125.459 18.1601 124.249C19.3368 123.609 19.7175 122.698 19.5635 121.368ZM15.8723 119.787C17.1145 119.787 18.5162 120.235 18.6592 121.472C18.8632 123.246 15.2101 123.909 13.5553 122.71C11.8139 121.448 13.3695 119.787 15.8723 119.787Z" fill="#2A344A"/>
<path d="M16.7554 114.659C16.5095 114.602 16.2654 114.754 16.2081 114.999C16.1625 115.194 16.0241 115.362 15.8756 115.494C15.5633 114.934 15.3064 114.31 15.3228 113.667C15.3255 113.554 15.2399 113.201 14.8674 113.201C14.6206 113.201 14.4184 113.398 14.4121 113.646C14.3893 114.601 14.7873 115.468 15.28 116.278C15.29 117.919 15.3419 119.58 15.433 121.217C15.4658 121.811 16.3766 121.771 16.3419 121.166C16.2536 119.586 16.2035 117.984 16.1917 116.399C16.5378 116.162 16.9631 115.769 17.0951 115.206C17.1525 114.961 17.0004 114.717 16.7554 114.659Z" fill="#2A344A"/>
<path d="M29.0044 118.236C27.9142 119 25.722 119.092 24.5417 118.238C22.8003 116.976 24.3568 115.314 26.8596 115.314C27.5144 115.314 28.2148 115.439 28.7503 115.739L28.6483 114.696C27.1738 114.133 24.7676 114.377 23.6464 115.471C22.9479 116.152 22.8377 116.8 22.9078 117.773C23.0836 120.168 27.0344 120.972 29.1656 119.765C29.1109 119.255 29.0572 118.746 29.0044 118.236Z" fill="#2A344A"/>
<path d="M27.7418 110.185C27.4959 110.127 27.2518 110.279 27.1944 110.524C27.1489 110.719 27.0104 110.888 26.862 111.019C26.5496 110.46 26.2928 109.835 26.3091 109.193C26.3119 109.079 26.2263 108.727 25.8538 108.727C25.607 108.727 25.4048 108.923 25.3984 109.171C25.3756 110.126 25.7736 110.993 26.2663 111.803C26.2764 113.444 26.3283 115.105 26.4193 116.742C26.4521 117.337 27.3629 117.297 27.3283 116.691C27.2399 115.111 27.1898 113.509 27.178 111.924C27.5241 111.687 27.9494 111.294 28.0815 110.731C28.1388 110.486 27.9868 110.242 27.7418 110.185Z" fill="#2A344A"/>
<path d="M28.4914 113.039C28.3566 113.229 28.3183 113.378 28.2008 113.567C28.0178 113.862 27.1826 114.098 27.0396 113.881C26.9021 113.671 26.6152 113.608 26.4003 113.755C25.7409 114.212 25.2728 113.885 25.2846 113.396C25.2964 112.929 25.1544 112.728 24.7828 112.472C24.5505 112.31 24.3411 112.046 24.3921 111.855C24.4248 111.733 24.5715 111.525 24.5979 111.245C24.6398 110.788 24.3447 110.441 24.1707 110.182C24.0013 109.931 23.9194 109.546 24.0906 109.336C24.1316 109.285 24.1835 109.242 24.2336 109.196C24.7117 108.763 24.7472 108.492 24.6407 107.953C24.5314 107.349 24.821 106.713 25.4248 106.713C25.8429 106.713 26.2136 107.172 26.7983 106.487C27.0943 106.156 27.5742 106.16 27.9176 106.408L27.8365 105.375C27.2363 105.222 26.5615 105.387 26.0724 105.933C26.0514 105.926 25.903 105.869 25.903 105.869C25.2955 105.66 24.5706 105.884 24.1389 106.414C23.4676 107.238 23.7973 108.261 23.7828 108.353C23.7381 108.483 22.4203 109.271 23.5114 110.83C23.8274 111.282 23.6525 111.103 23.5132 111.619C23.3338 112.288 23.7828 112.885 24.291 113.238C24.4012 113.314 24.3738 113.342 24.372 113.46C24.3593 114.445 25.4094 115.269 26.5979 114.692C27.1726 115.049 28.0733 114.839 28.6225 114.419L28.4914 113.038V113.039Z" fill="#2A344A"/>
</svg>
