<svg width="60" height="60" viewBox="0 0 60 60" fill="none" xmlns="http://www.w3.org/2000/svg">
<path d="M55 30C55 43.8071 43.8071 55 30 55C16.1929 55 5 43.8071 5 30C5 16.1929 16.1929 5 30 5C43.8071 5 55 16.1929 55 30Z" fill="#F1F7FF"/>
<path d="M37.0621 38.2183C35.1077 40.1726 30.1028 38.3363 25.8833 34.1167C21.6637 29.8972 19.8274 24.8923 21.7817 22.9379L23.0685 21.6512C23.9568 20.7629 25.4205 20.7863 26.3378 21.7036L28.3309 23.6967C29.2482 24.614 29.2717 26.0778 28.3834 26.9661L28.107 27.2425C27.6274 27.7221 27.5804 28.4958 28.0261 29.0359C28.456 29.5568 28.9194 30.0756 29.4219 30.5781C29.9244 31.0806 30.4432 31.544 30.9641 31.9739C31.5042 32.4196 32.2779 32.3726 32.7575 31.893L33.0339 31.6166C33.9222 30.7283 35.386 30.7518 36.3033 31.6691L38.2964 33.6622C39.2137 34.5795 39.2371 36.0432 38.3488 36.9315L37.0621 38.2183Z" fill="#4E6AF3"/>
</svg>
