<svg width="200" height="200" viewBox="0 0 200 200" fill="none" xmlns="http://www.w3.org/2000/svg">
<path d="M31.5 156L33 157.5L33.5 158L31 159L30.5 160.5L32 162H35L36.5 161L37 160L36 158.5L35 157.5L35.5 157L36 156L37 155L36.5 153.5V152.5L36 151.5L35.5 150L34.5 149L32.5 149.5L31.5 150V151.5L30.5 152.5L31 154L31.5 156Z" fill="white"/>
<path d="M42 149L43.5 150.5L44 151L41.5 152L41 153.5L42.5 155H45.5L47 154.5L47.5 153L46.5 151.5L45.5 150.5L46 150L46.5 149L47.5 148L47 146.5V145.5L46.5 144.5L46 143L45 142L43.5 143H42V144.5L41 145.5L41.5 147L42 149Z" fill="white"/>
<circle cx="15" cy="15" r="15" fill="#4E6AF3"/>
<path d="M20.6787 10.08C21.3662 10.7702 21.7522 11.7046 21.7522 12.6787C21.7522 13.6529 21.3662 14.5873 20.6787 15.2775L15.0012 21L9.32374 15.2775C8.81317 14.7635 8.46557 14.1103 8.32445 13.3997C8.18332 12.6891 8.25495 11.9526 8.53035 11.2825C8.80576 10.6124 9.27271 10.0384 9.87276 9.63241C10.4728 9.22641 11.1793 9.00643 11.9037 9C12.8725 9.00588 13.7997 9.39402 14.4837 10.08C14.6832 10.2774 14.8571 10.4992 15.0012 10.74C15.1454 10.4992 15.3192 10.2774 15.5187 10.08C15.8558 9.73804 16.2574 9.46649 16.7003 9.28115C17.1433 9.0958 17.6186 9.00035 18.0987 9.00035C18.5789 9.00035 19.0542 9.0958 19.4971 9.28115C19.9401 9.46649 20.3417 9.73804 20.6787 10.08Z" fill="white"/>
<circle cx="32.5" cy="59.5" r="6.5" fill="#4E6AF3"/>
<path d="M34.9622 57.3694C35.2601 57.6684 35.4274 58.0734 35.4274 58.4955C35.4274 58.9176 35.2601 59.3225 34.9622 59.6216L32.502 62.1014L30.0417 59.6216C29.8205 59.3989 29.6698 59.1158 29.6087 58.8079C29.5475 58.5 29.5786 58.1808 29.6979 57.8904C29.8173 57.6001 30.0196 57.3513 30.2796 57.1754C30.5396 56.9995 30.8458 56.9042 31.1597 56.9014C31.5795 56.9039 31.9813 57.0721 32.2777 57.3694C32.3642 57.4549 32.4395 57.551 32.502 57.6554C32.5644 57.551 32.6398 57.4549 32.7262 57.3694C32.8723 57.2212 33.0463 57.1035 33.2382 57.0232C33.4302 56.9429 33.6362 56.9015 33.8442 56.9015C34.0523 56.9015 34.2583 56.9429 34.4502 57.0232C34.6421 57.1035 34.8162 57.2212 34.9622 57.3694Z" fill="white"/>
<circle cx="49.5" cy="27.5" r="9.5" fill="#4E6AF3"/>
<path d="M53.0956 24.3852C53.531 24.8223 53.7755 25.4141 53.7755 26.031C53.7755 26.648 53.531 27.2398 53.0956 27.6769L49.4999 31.3012L45.9041 27.6769C45.5808 27.3514 45.3606 26.9377 45.2712 26.4876C45.1819 26.0376 45.2272 25.5712 45.4016 25.1468C45.5761 24.7224 45.8718 24.3588 46.2518 24.1017C46.6319 23.8446 47.0793 23.7052 47.5381 23.7012C48.1517 23.7049 48.7389 23.9507 49.1721 24.3852C49.2985 24.5102 49.4086 24.6506 49.4999 24.8032C49.5912 24.6506 49.7013 24.5102 49.8276 24.3852C50.0411 24.1686 50.2955 23.9966 50.576 23.8792C50.8565 23.7618 51.1575 23.7014 51.4616 23.7014C51.7657 23.7014 52.0668 23.7618 52.3473 23.8792C52.6278 23.9966 52.8822 24.1686 53.0956 24.3852Z" fill="white"/>
<path d="M141 166.5C125.789 172.876 117.479 176.668 104 185V187.5L131 198.5L133 199L135.5 198.5C159 184.988 168.006 179.243 169 175.5C157.604 170.372 151.422 168.118 141 166.5Z" fill="white"/>
<path d="M168.036 174.294C167.08 173.9 163.959 172.158 157.172 170.091C153.799 169.065 150.313 167.81 146.729 167.128C142.606 166.345 141.531 165.515 135.516 168.11C120.55 174.568 111.663 180.05 110.01 180.934C107.404 182.329 101.862 185.304 103.553 187.695C103.929 188.224 104.521 188.48 104.996 188.685C112.941 192.115 121.157 195.663 129.471 198.612C132.684 199.752 134.001 199.768 137.605 197.936C148.229 192.537 158.346 185.994 167.627 178.517C168.357 177.929 169.334 177.033 169.393 176.04C169.462 174.881 168.67 174.555 168.035 174.292L168.036 174.294ZM160.514 172.11C158.633 173.188 157.001 173.823 155.432 174.093C153.116 174.491 150.887 174.039 149.316 172.854C148.831 172.488 148 171.721 147.881 170.695C147.794 169.95 148.239 169.021 149.017 168.879C149.165 168.852 149.281 168.754 149.338 168.627C151.459 169.186 158.445 171.38 160.513 172.109L160.514 172.11ZM125.474 196.209C120.59 194.359 115.746 192.341 110.983 190.306C116.671 186.915 123.703 187.953 126.162 190.255C127.094 191.129 127.557 192.326 127.37 193.38C127.111 194.841 125.646 195.973 125.474 196.209ZM137.208 197.154C132.99 199.299 132.371 198.792 126.376 196.549C127.238 195.7 128.022 194.744 128.236 193.533C128.474 192.19 127.909 190.689 126.763 189.615C123.935 186.965 116.121 185.89 109.999 189.885C104.886 187.682 104.582 187.627 104.272 187.189C103.156 185.613 108.731 182.617 110.426 181.709C112.457 180.623 115.259 178.81 122.436 175.187C125.729 176.099 128.823 177.086 131.839 178.126C128.877 181.009 131.563 185.601 137.369 185.601C140.369 185.601 143.58 184.142 144.787 182.9C148.101 184.15 151.517 185.418 155.112 186.643C149.361 190.505 143.374 194.022 137.208 197.155V197.154ZM144.506 181.854C144.026 181.673 136.839 178.954 133.703 177.846C135.207 177.015 137.274 176.576 138.634 176.608C142.789 176.684 145.916 179.718 144.507 181.854H144.506ZM143.868 182.552C142.857 183.405 141.341 183.931 140.737 184.14C138.077 185.063 135.302 184.883 133.315 183.661C132.26 183.012 131.572 181.961 131.52 180.918C131.48 180.108 131.802 179.258 132.789 178.455C136.471 179.745 140.105 181.129 143.868 182.552ZM168.517 175.99C168.489 176.467 168.004 177.088 167.078 177.834C163.509 180.709 159.82 183.442 156.027 186.024C152.301 184.768 148.767 183.46 145.344 182.17C145.857 181.278 145.829 180.323 145.412 179.379C144.354 176.988 141.212 175.777 138.65 175.73C137.198 175.699 134.52 176.17 132.637 177.472C129.729 176.46 126.755 175.498 123.603 174.601C127.537 172.642 131.645 170.738 135.865 168.917C141.655 166.419 142.575 167.231 146.566 167.991C147.081 168.089 147.596 168.199 148.108 168.319C147.316 168.846 146.904 169.894 147.009 170.797C147.125 171.798 147.758 172.778 148.787 173.555C150.137 174.573 151.903 175.112 153.803 175.112C156.59 175.112 159.218 173.936 161.586 172.497C165.255 173.854 166.79 174.731 167.701 175.106C168.359 175.377 168.547 175.478 168.517 175.99Z" fill="#2A344A"/>
<path d="M76 46.5L57.5 52C54.8042 65.4161 54.4897 84.8402 55.5 135V138.5H53.5L52.5 140L51.5 142L52.5 144C53.2246 145.675 53.6319 146.592 54.5 146.5L53 147L51.5 149.5L54.5 151H57.5L59 167C69.9339 173.692 77.3782 176.101 93 178C104.085 176.308 110.411 174.325 122 167L126.5 147H127.5C145.652 154.947 155.836 158.506 174 164C187.688 156.776 193.334 153.369 197 149.5L181.5 144.5V142.5L175.5 140.5L175 142.5L172 141.5L157 136V134.5L150.5 132L150 133.5L146 132.5V130L139.5 128.5L139 130L136 129V126.5L130.5 124.5C133.896 95.9831 135.477 79.8908 131.5 49L115 46V38.5C106.218 37.1739 101.521 36.7502 93.5 36.5C85.989 37.4114 82.0393 38.1661 76 40V46.5Z" fill="white"/>
<path d="M103.888 71.8456C103.899 72.0784 104.091 72.2637 104.327 72.2637C104.75 72.2637 109.576 70.5023 110.677 70.0807C110.853 70.013 110.967 69.8408 110.959 69.6519C110.841 66.955 110.829 64.1069 109.876 61.525C109.794 61.3054 109.554 61.1894 109.332 61.2579C107.198 61.9291 105.308 62.465 103.715 62.8506C103.506 62.9016 103.364 63.0957 103.38 63.3101C103.57 65.8595 103.732 68.5714 103.889 71.8447L103.888 71.8456Z" fill="#2A344A"/>
<path d="M110.607 74.5232C104.522 76.7642 104.08 76.3742 104.102 77.0093C104.339 84.2798 104.107 84.0478 104.432 84.2806C104.541 84.3588 104.683 84.3861 104.824 84.3413C106.84 83.6841 108.288 82.7872 111.18 81.4132C111.338 81.3386 111.436 81.1778 111.432 81.0047C111.394 79.4761 111.388 78.7549 111.197 74.9132C111.182 74.6189 110.887 74.4213 110.607 74.5232Z" fill="#2A344A"/>
<path d="M111.323 86.0559C111.091 85.9189 110.934 86.0225 110.632 86.1807C104.931 89.1728 104.279 88.3497 104.277 89.1166C104.272 91.3304 104.24 93.7393 104.18 96.4802C104.175 96.7253 104.372 96.9291 104.619 96.9291C104.848 96.9291 107.969 96.1288 111.231 94.8936C111.399 94.8295 111.512 94.6705 111.515 94.4904C111.559 91.8733 111.566 89.1605 111.536 86.4284C111.535 86.2755 111.454 86.135 111.323 86.0559Z" fill="#2A344A"/>
<path d="M111.185 99.4909C110.921 99.2976 110.715 99.4698 110.15 99.6639C108.315 100.299 106.38 100.769 104.365 101.285C104.176 101.333 104.042 101.5 104.036 101.695C103.96 103.855 103.856 106.009 103.747 108.162C103.732 108.463 104.015 108.684 104.294 108.611C106.593 108.026 108.852 107.129 110.789 106.333C110.945 106.268 111.05 106.121 111.06 105.952L111.365 99.8625C111.37 99.7166 111.303 99.5778 111.185 99.4909Z" fill="#2A344A"/>
<path d="M110.692 111.565C110.715 111.248 110.402 111.009 110.098 111.122C104.181 113.365 103.49 112.682 103.446 113.408C102.974 121.035 102.808 120.8 103.094 121.041C103.202 121.133 103.346 121.166 103.483 121.133C105.506 120.632 107.628 120.017 109.79 119.306C109.957 119.252 110.075 119.103 110.09 118.928C110.283 116.75 110.505 114.173 110.693 111.566L110.692 111.565Z" fill="#2A344A"/>
<path d="M100.986 145.976C102.233 145.976 105.402 144.762 106.146 144.48C107.038 144.142 107.225 144.137 107.27 143.809C107.594 141.415 107.909 139.018 108.202 136.618C108.242 136.294 107.924 136.037 107.611 136.153C101.97 138.29 101.405 137.561 101.33 138.268C101.081 140.668 100.82 143.075 100.549 145.488C100.521 145.748 100.723 145.976 100.986 145.976Z" fill="#2A344A"/>
<path d="M105.903 148.898C100.827 150.574 100.062 149.717 99.9728 150.476C99.7479 152.405 99.5125 154.347 99.2727 156.324C99.2419 156.583 99.4405 156.808 99.6952 156.816C101.398 156.863 103.054 156.349 105.231 155.807C105.404 155.764 105.534 155.623 105.56 155.447C105.56 155.447 106.188 151.34 106.475 149.378C106.522 149.052 106.208 148.796 105.903 148.898Z" fill="#2A344A"/>
<path d="M104.191 160.312C102.662 160.655 100.867 160.991 99.1273 160.893C98.9015 160.883 98.695 161.046 98.666 161.277C97.9536 167.003 97.9009 166.767 98.1266 166.989C98.2286 167.088 98.3691 167.128 98.4991 167.108C100.248 166.844 101.91 166.53 103.582 166.15C103.756 166.111 103.889 165.969 103.918 165.794C104.126 164.546 104.721 160.81 104.721 160.81C104.771 160.499 104.487 160.243 104.191 160.312Z" fill="#2A344A"/>
<path d="M102 133.402C102.11 133.498 102.259 133.53 102.39 133.497C104.442 133.012 106.583 132.167 108.584 131.372C108.735 131.313 108.84 131.175 108.859 131.013C109.107 128.796 109.347 126.576 109.57 124.354C109.601 124.045 109.31 123.8 109.006 123.89C103.004 125.719 102.57 125.289 102.516 125.911C101.875 133.392 101.704 133.143 102 133.402Z" fill="#2A344A"/>
<path d="M124.875 61.0924C125.009 62.6412 124.919 62.9056 125.23 63.0734C125.362 63.1446 125.521 63.1437 125.652 63.0716C127.154 62.2397 128.678 61.3568 130.18 60.4493C130.329 60.3597 130.411 60.191 130.389 60.0189C130.125 57.9061 129.823 55.8838 129.493 54.0064C129.467 53.8615 129.37 53.7394 129.236 53.6805C128.779 53.4785 128.949 53.923 124.434 56.1245C124.248 56.2159 124.15 56.4241 124.201 56.6252C124.593 58.1969 124.767 59.8379 124.875 61.0924Z" fill="#2A344A"/>
<path d="M125.358 68.1582L125.702 73.8499C125.716 74.0819 125.908 74.2637 126.141 74.2637C126.42 74.2637 130.892 71.7091 131.128 71.5729C131.271 71.4903 131.356 71.3348 131.348 71.1697C131.245 69.1807 131.113 67.2542 130.957 65.4445C130.929 65.1221 130.574 64.9411 130.297 65.1036C125.455 67.9465 125.33 67.6838 125.358 68.1582Z" fill="#2A344A"/>
<path d="M131.546 76.7107C131.539 76.3857 131.188 76.1757 130.894 76.3365C126.031 79.0264 125.938 78.7805 125.954 79.2426C126.26 87.6058 125.886 87.4925 126.307 87.7499C126.434 87.8272 126.596 87.8378 126.738 87.7657C128.279 86.9698 129.814 86.1625 131.341 85.3332C131.481 85.2576 131.569 85.1127 131.571 84.9537C131.614 82.1328 131.605 79.3594 131.546 76.7107Z" fill="#2A344A"/>
<path d="M131.215 90.2294C130.864 90.0089 131.033 90.1556 126.255 92.5548C125.885 92.7419 126.082 92.698 125.837 97.0764C125.697 99.5792 125.578 99.6399 125.879 99.8428C126.009 99.9298 126.175 99.9412 126.315 99.8744C127.91 99.1066 129.443 98.2914 130.871 97.4524C130.998 97.3786 131.077 97.2468 131.087 97.101C131.242 94.5947 131.348 92.5355 131.421 90.6186C131.427 90.4613 131.349 90.3137 131.216 90.2303L131.215 90.2294Z" fill="#2A344A"/>
<path d="M130.471 102.568C130.06 102.3 130.187 102.635 125.556 104.726C125.409 104.792 125.31 104.933 125.298 105.093C125.1 107.706 124.869 110.268 124.689 112.207C124.666 112.466 124.87 112.686 125.127 112.686C125.426 112.686 129.567 110.268 129.822 110.118C129.942 110.046 130.022 109.923 130.036 109.784C130.29 107.295 130.495 105.066 130.666 102.97C130.679 102.81 130.604 102.656 130.471 102.568Z" fill="#2A344A"/>
<path d="M129.168 115.453C128.768 115.182 128.841 115.498 124.331 117.747C124.198 117.814 124.107 117.945 124.091 118.093L123.429 124.004C123.386 124.356 123.76 124.611 124.073 124.444C125.561 123.646 127.023 122.803 128.42 121.937C128.531 121.867 128.606 121.752 128.624 121.623C128.881 119.722 129.128 117.803 129.36 115.87C129.379 115.706 129.305 115.545 129.168 115.453Z" fill="#2A344A"/>
<path d="M127.544 127.442C127.16 127.177 127.321 127.42 122.911 129.596C122.55 129.773 122.79 129.577 121.556 137.667C121.515 137.933 121.721 138.173 121.99 138.173C122.283 138.173 126.005 136.071 126.252 135.929C126.367 135.864 126.445 135.752 126.468 135.623C126.938 132.89 127.35 130.354 127.728 127.87C127.754 127.705 127.682 127.539 127.545 127.443L127.544 127.442Z" fill="#2A344A"/>
<path d="M125.18 141.392C124.797 141.108 124.823 141.42 120.845 143.279C120.529 143.427 120.712 143.126 119.464 150.079C119.416 150.347 119.623 150.595 119.896 150.595C120.194 150.595 123.465 148.812 123.859 148.592C123.97 148.53 124.049 148.423 124.075 148.297C124.505 146.207 124.932 144.049 125.35 141.826C125.382 141.661 125.315 141.492 125.18 141.391L125.18 141.392Z" fill="#2A344A"/>
<path d="M122.564 154.157C122.22 153.886 122.399 154.072 118.605 155.716C118.242 155.874 118.453 155.802 117.322 161.303C117.245 161.683 117.661 161.967 117.984 161.765C119.129 161.052 120.275 160.29 121.487 159.435C121.654 159.317 121.634 159.45 122.721 154.599C122.758 154.434 122.697 154.262 122.564 154.158V154.157Z" fill="#2A344A"/>
<path d="M107.269 161.553C107.028 161.512 106.802 161.671 106.76 161.91C106.522 163.267 106.278 164.624 106.031 165.98C105.982 166.249 106.187 166.498 106.463 166.498C106.671 166.498 106.856 166.35 106.894 166.138C107.142 164.781 107.385 163.422 107.625 162.062C107.666 161.823 107.507 161.596 107.269 161.553Z" fill="#2A344A"/>
<path d="M109.386 148.615C109.144 148.578 108.922 148.743 108.886 148.983C108.645 150.574 108.395 152.164 108.139 153.752C108.096 154.017 108.3 154.262 108.573 154.262C108.784 154.262 108.971 154.108 109.006 153.893C109.262 152.302 109.512 150.709 109.754 149.115C109.791 148.875 109.626 148.651 109.386 148.615V148.615Z" fill="#2A344A"/>
<path d="M111.083 136.3C110.84 136.27 110.622 136.441 110.593 136.682C110.393 138.28 110.185 139.877 109.969 141.472C109.934 141.734 110.136 141.97 110.405 141.97C110.622 141.97 110.81 141.81 110.839 141.59C111.056 139.992 111.265 138.391 111.464 136.79C111.494 136.55 111.323 136.33 111.083 136.3Z" fill="#2A344A"/>
<path d="M112.419 123.928C112.18 123.903 111.963 124.083 111.941 124.325C111.793 125.93 111.633 127.533 111.464 129.136C111.435 129.396 111.639 129.622 111.901 129.622C112.122 129.622 112.314 129.455 112.338 129.229C112.508 127.622 112.667 126.015 112.817 124.408C112.839 124.166 112.662 123.952 112.42 123.93L112.419 123.928Z" fill="#2A344A"/>
<path d="M113.337 111.517C113.097 111.501 112.888 111.688 112.874 111.93C112.782 113.541 112.679 115.15 112.564 116.758C112.545 117.012 112.746 117.229 113.002 117.229C113.23 117.229 113.423 117.052 113.44 116.821C113.555 115.209 113.658 113.595 113.751 111.98C113.765 111.739 113.579 111.53 113.337 111.517Z" fill="#2A344A"/>
<path d="M113.328 99.4993C113.303 101.112 113.263 102.725 113.211 104.337C113.191 104.928 114.071 104.943 114.089 104.365C114.142 102.749 114.181 101.131 114.207 99.5125C114.215 98.9485 113.338 98.8923 113.328 99.4993Z" fill="#2A344A"/>
<path d="M113.231 86.3717C113.29 88.2139 113.329 90.0579 113.349 91.9001C113.352 92.1408 113.549 92.3358 113.789 92.3349C114.031 92.334 114.23 92.1337 114.228 91.8913C114.208 90.042 114.168 88.1919 114.108 86.3436C114.09 85.7348 113.211 85.8103 113.231 86.3717Z" fill="#2A344A"/>
<path d="M112.595 74.907C112.721 76.4769 112.83 78.0485 112.923 79.621C112.937 79.8538 113.132 80.0453 113.388 80.033C113.629 80.019 113.815 79.8108 113.8 79.5683C113.706 77.9897 113.597 76.4128 113.471 74.8376C113.452 74.596 113.234 74.4203 112.998 74.4344C112.757 74.4537 112.576 74.6654 112.595 74.907Z" fill="#2A344A"/>
<path d="M112.123 67.4397C112.141 67.6839 112.354 67.864 112.593 67.8455C112.835 67.828 113.017 67.6171 112.999 67.3756C112.866 65.5667 112.721 63.7588 112.561 61.9526C112.51 61.371 111.635 61.4527 111.686 62.0299C111.845 63.8317 111.991 65.6353 112.123 67.4397Z" fill="#2A344A"/>
<path d="M115.951 158.117C115.715 158.072 115.483 158.231 115.44 158.47L114.57 163.209C114.521 163.478 114.726 163.727 115.002 163.727C115.21 163.727 115.395 163.579 115.433 163.367L116.303 158.627C116.347 158.389 116.189 158.16 115.95 158.116L115.951 158.117Z" fill="#2A344A"/>
<path d="M117.774 150.493C118.056 148.911 118.334 147.328 118.608 145.744C118.649 145.505 118.49 145.278 118.25 145.237C118.013 145.197 117.784 145.355 117.742 145.595C117.468 147.177 117.191 148.759 116.909 150.34C116.862 150.608 117.067 150.855 117.342 150.855C117.551 150.855 117.737 150.707 117.774 150.493Z" fill="#2A344A"/>
<path d="M119.361 138.634C119.601 138.673 119.825 138.511 119.865 138.271C120.158 136.456 120.445 134.639 120.722 132.821C120.758 132.582 120.593 132.358 120.353 132.322C120.114 132.285 119.89 132.45 119.854 132.69C119.578 134.505 119.292 136.319 118.998 138.13C118.959 138.369 119.121 138.595 119.361 138.634Z" fill="#2A344A"/>
<path d="M121.459 121.09C121.317 122.23 121.171 123.369 121.02 124.507C120.987 124.747 121.157 124.968 121.397 125.001C121.641 125.032 121.859 124.862 121.891 124.623C122.042 123.482 122.19 122.34 122.331 121.198C122.402 120.626 121.531 120.508 121.459 121.09Z" fill="#2A344A"/>
<path d="M122.872 107.382C122.724 109.214 122.559 111.046 122.377 112.875C122.353 113.117 122.529 113.332 122.771 113.356C123.024 113.378 123.228 113.195 123.251 112.962C123.434 111.128 123.599 109.291 123.748 107.452C123.794 106.872 122.918 106.802 122.872 107.382Z" fill="#2A344A"/>
<path d="M123.815 100.276C124.046 100.277 124.241 100.093 124.253 99.8582C124.324 98.4746 124.382 97.091 124.43 95.7056C124.439 95.4631 124.248 95.2602 124.007 95.2514C123.772 95.2312 123.562 95.4332 123.553 95.6748C123.505 97.0549 123.446 98.4342 123.375 99.8125C123.37 99.918 123.439 100.27 123.815 100.274V100.276Z" fill="#2A344A"/>
<path d="M124.48 82.5405C124.473 82.298 124.258 82.1056 124.029 82.1135C123.786 82.1205 123.596 82.3226 123.602 82.5651C123.653 84.3765 123.679 86.2354 123.681 88.0899C123.681 88.3324 123.878 88.5292 124.12 88.5292C124.362 88.5292 124.559 88.3324 124.559 88.0899C124.558 86.2266 124.531 84.359 124.48 82.5405Z" fill="#2A344A"/>
<path d="M123.234 75.0036C123.25 75.2285 123.437 75.4226 123.703 75.4112C123.945 75.3936 124.127 75.1846 124.111 74.9421C123.998 73.3239 123.863 71.6978 123.708 70.1069C123.685 69.8661 123.475 69.6931 123.229 69.7124C122.987 69.7361 122.81 69.9505 122.834 70.1921C122.988 71.7742 123.122 73.3933 123.234 75.0036Z" fill="#2A344A"/>
<path d="M121.942 63.0424C121.983 63.2779 122.207 63.4422 122.45 63.4009C122.689 63.3596 122.85 63.132 122.808 62.8931C122.492 61.0553 122.058 59.4766 121.483 58.0666C121.391 57.8417 121.134 57.7337 120.91 57.8259C120.685 57.9173 120.578 58.1738 120.669 58.3987C121.22 59.7498 121.637 61.2688 121.942 63.0424Z" fill="#2A344A"/>
<path d="M96.6171 63.1769C96.6004 62.9617 96.43 62.7904 96.2148 62.7728C84.0678 61.788 66.0903 58.0377 59.2231 55.0561C58.9481 54.9375 58.6397 55.1203 58.6108 55.4154C55.2356 89.3728 55.8909 123.749 60.5935 157.548C60.6102 157.669 60.677 157.778 60.778 157.848C67.9149 162.802 77.6284 165.977 90.4738 167.554C90.7013 167.585 90.9306 167.422 90.9631 167.176C95.2915 134.708 99.4055 99.0767 96.6171 63.1769ZM70.4942 161.961C70.734 161.718 70.5794 161.951 70.1893 152.893C73.2983 153.965 76.605 154.803 80.2138 155.537C79.9046 159.622 79.6226 162.775 79.403 164.716C76.1736 163.945 73.2096 163.028 70.4942 161.961ZM70.1489 151.948C69.9925 148.199 69.8555 144.272 69.7413 140.22C73.5065 141.558 77.3868 142.532 81.0414 143.241C80.784 147.512 80.5248 151.361 80.2806 154.654C76.6243 153.906 73.2825 153.051 70.1489 151.948ZM60.1674 147.206C59.6975 143.106 59.2863 138.999 58.9349 134.887C61.928 136.941 65.3277 138.583 68.8531 139.897C68.9656 143.946 69.1009 147.874 69.2564 151.625C66.1728 150.477 63.2852 149.071 60.4872 147.267C60.3888 147.204 60.2737 147.186 60.1674 147.206ZM58.1926 71.5552C61.6424 73.2208 65.3321 74.6466 69.216 75.8229C68.9726 80.9691 68.7925 86.3982 68.6687 91.9784C60.9405 89.6987 57.9686 87.7485 57.4951 87.7889C57.6251 82.3747 57.8579 76.9632 58.1926 71.5552ZM82.591 61.8601C82.4804 62.1851 82.837 65.2098 82.9486 77.9383C78.4973 77.3014 74.2058 76.3772 70.1261 75.1781C70.3993 69.5636 70.7489 64.2979 71.1838 59.5523C74.768 60.393 78.687 61.1872 82.591 61.8601ZM82.9565 78.8265C82.9952 84.1256 82.9671 89.5494 82.888 94.9741C78.586 94.382 74.0855 93.5184 69.5419 92.2314C69.6631 86.6539 69.8414 81.2274 70.083 76.0803C74.1821 77.2742 78.4902 78.1931 82.9556 78.8256L82.9565 78.8265ZM96.6189 96.1689C96.2727 96.1056 90.704 95.9932 83.7647 95.0909C83.8447 89.6689 83.8737 84.2468 83.8359 78.9468C87.8893 79.4853 92.0674 79.8201 96.3342 79.8508C96.4274 79.8508 96.5205 79.8209 96.5916 79.7717C96.734 85.2904 96.7357 90.7477 96.6189 96.1689ZM95.9354 112.249C91.3128 112.349 87.3709 112.167 83.3756 111.582C83.5389 106.46 83.6681 101.222 83.7507 95.9756C86.7665 96.3648 95.8265 97.1466 96.5987 97.0351C96.4766 102.129 96.2481 107.193 95.9354 112.249ZM94.6317 128.755C90.4307 128.484 86.5961 128.335 82.7395 127.831C82.9671 122.926 83.1744 117.764 83.3474 112.468C87.5994 113.083 91.6211 113.218 95.8827 113.128C95.5497 118.336 95.1263 123.537 94.6317 128.755ZM93.0135 143.969C90.0258 143.732 86.1621 143.302 81.9638 142.523C82.2168 138.275 82.4672 133.629 82.6982 128.712C86.5487 129.211 90.3587 129.361 94.5483 129.63C94.0906 134.389 93.574 139.162 93.0135 143.969ZM69.3442 109.061C74.313 110.644 78.4446 111.695 82.4733 112.335C82.3003 117.635 82.0929 122.802 81.8663 127.71C77.7637 127.116 73.0005 125.841 69.4233 124.571C69.3583 119.447 69.3302 114.245 69.3442 109.061ZM57.4757 88.685C61.1724 90.4279 64.9245 91.8018 68.6502 92.8894C68.5474 97.7958 68.4886 102.814 68.4692 107.855C65.1591 106.775 59.7765 104.504 57.3888 102.172C57.3475 97.6772 57.3765 93.1811 57.4757 88.685ZM69.5234 93.1389C74.0732 94.4145 78.5737 95.271 82.8748 95.8587C82.7931 101.097 82.664 106.33 82.5014 111.447C78.4762 110.8 74.3411 109.738 69.346 108.139C69.3635 103.087 69.4224 98.0576 69.5234 93.1389ZM81.825 128.592C81.5948 133.491 81.3453 138.121 81.0941 142.357C77.4062 141.638 73.4951 140.646 69.7149 139.28C69.5937 134.809 69.4988 130.194 69.4356 125.508C73.1595 126.802 77.8147 128.017 81.825 128.592ZM68.4666 108.779C68.4517 113.949 68.478 119.137 68.5413 124.25C64.8112 122.845 61.1461 120.919 57.8306 117.874L57.8192 117.864C57.5987 113.032 57.4599 108.196 57.4019 103.358C60.12 105.584 64.8788 107.614 68.4666 108.779ZM68.5536 125.193C68.6159 129.871 68.7082 134.483 68.8285 138.952C65.2504 137.593 61.8181 135.887 58.8392 133.746C58.4351 128.869 58.1153 123.983 57.8781 119.092C61.2208 121.988 64.8639 123.834 68.5536 125.193ZM81.9111 143.405C86.0883 144.177 89.9291 144.605 92.9116 144.842C92.4548 148.73 91.9699 152.64 91.4656 156.583C87.7434 156.011 84.327 155.455 81.1477 154.828C81.3928 151.534 81.6528 147.682 81.9111 143.405ZM96.5732 79.0391C96.1577 78.7808 92.309 79.1963 83.8297 78.0595C83.7823 72.518 83.6611 67.1188 83.4476 62.005C87.7645 62.7298 92.0305 63.3008 95.7711 63.618C96.1691 68.8257 96.4309 73.9587 96.5732 79.0391ZM59.4269 56.0936C62.0132 57.1461 65.8785 58.2785 70.3211 59.3467C69.8862 64.0748 69.5348 69.322 69.2608 74.9172C65.4033 73.7373 61.7426 72.3089 58.3235 70.6415C58.3006 70.6301 58.276 70.6213 58.2523 70.6143C58.5624 65.7685 58.9534 60.928 59.4269 56.0936ZM60.2799 148.177C63.1596 150.004 66.128 151.423 69.2968 152.577C69.4321 155.747 69.5805 158.786 69.7431 161.659C66.649 160.389 63.8879 158.918 61.4377 157.236C61.0196 154.221 60.633 151.201 60.2799 148.177ZM90.1496 166.628C86.6146 166.181 83.3237 165.612 80.2639 164.915C80.4835 162.995 80.7682 159.829 81.0809 155.709C84.2505 156.331 87.6521 156.884 91.3523 157.454C90.9614 160.49 90.5599 163.547 90.1496 166.628Z" fill="#2A344A"/>
<path d="M131.865 48.6778C131.893 48.4477 131.74 48.243 131.524 48.1955C128.279 47.4787 122.233 46.428 115.618 45.4819C115.895 42.9281 115.966 40.4165 115.799 38.3942C115.811 38.1693 115.65 37.9742 115.432 37.9391C111.168 37.2346 97.7307 35.7174 93.3312 36.0459C86.8874 36.53 76.3727 39.0197 75.9177 39.2937C75.8087 39.3588 75.7341 39.4686 75.7121 39.5924C75.4125 41.2739 75.1718 43.2997 75.3712 46.0301C66.0223 48.2852 57.3305 51.1192 56.8649 51.4925C56.6707 51.5356 56.5407 51.6955 56.5222 51.8773C52.6665 90.2483 53.4273 129.01 58.7835 167.086C58.8011 167.208 58.8687 167.317 58.9697 167.386C68.6165 174.011 81.1649 177.134 92.8076 178.326C92.8542 178.331 92.8665 178.331 92.9227 178.325C106.365 176.655 114.366 172.503 122.304 167.236C122.395 167.176 122.46 167.084 122.487 166.979C131.28 132.539 138.36 83.3793 131.866 48.6787L131.865 48.6778ZM114.151 49.3262C109.593 51.5496 103.465 53.2627 97.591 53.9629C98.365 50.8099 99.0502 46.4596 98.9053 43.4763C103.695 42.618 111.164 40.6501 114.965 39.0671C115.132 42.0162 114.83 45.8614 114.151 49.3262ZM93.3962 36.9218C97.3143 36.6319 108.549 37.8311 113.812 38.5813C109.792 40.1151 102.83 41.9081 98.4186 42.6707C91.9089 42.2762 82.6408 40.9119 77.8082 39.6838C82.0223 38.6349 88.7727 37.2688 93.3962 36.9218ZM76.4922 40.2355C80.8908 41.5242 90.9654 43.0686 98.0285 43.5255C98.1735 46.4939 97.4593 50.8952 96.6765 53.9989C91.2632 53.4929 86.3946 52.7128 82.5898 51.7701L82.4897 46.2409C82.4818 45.7788 82.321 45.4994 81.8317 45.3562C78.7851 44.4602 78.916 44.4356 78.6832 44.599C78.5734 44.6754 78.5048 44.7984 78.4969 44.9319C78.3801 46.8075 78.4135 48.7033 78.5944 50.5763C77.911 50.3259 77.2987 50.0685 76.7645 49.8058C75.9247 45.4054 76.1268 42.4923 76.4922 40.2355ZM75.4459 46.8962C75.5478 47.8977 75.7086 48.9888 75.9432 50.1853C75.9695 50.3171 76.0538 50.4304 76.1733 50.4919C81.5743 53.2636 92.516 54.504 96.9682 54.9081C97.7096 54.9819 107.176 53.7635 114.733 50.0175C114.855 49.9578 114.941 49.8445 114.969 49.7109C115.188 48.6181 115.371 47.4848 115.515 46.3498C121.485 47.2055 126.991 48.1472 130.372 48.8474C123.153 52.9403 108.351 58.1269 99.2707 60.2222C85.9835 59.1495 66.6293 55.2209 58.1615 51.9362C62.525 50.4032 68.9582 48.467 75.4459 46.8962ZM87.7106 176.72C77.6755 175.1 69.5257 172.507 63.0126 168.861C62.6014 166.764 62.2878 164.625 62.0761 162.489C76.5625 170.939 88.1578 170.34 88.4503 170.854C88.5294 170.993 88.5118 170.909 87.7106 176.72ZM92.4808 177.4C91.1499 177.234 89.8489 177.053 88.5786 176.857L89.3262 171.44C89.465 170.42 89.0837 169.922 88.0576 169.84C78.9204 169.096 69.8358 166.142 61.7871 161.296C61.484 161.112 61.0922 161.35 61.1229 161.709C61.3118 163.907 61.6096 166.114 62.0093 168.282C61.1879 167.797 60.3938 167.292 59.626 166.77C54.3322 129.021 53.5617 90.597 57.3375 52.5538C65.5382 55.8797 85.2842 59.9375 98.8956 61.0734C100.477 81.3491 100.201 101.107 98.7375 121.205C98.7375 121.205 96.2918 147.126 96.2759 147.267C96.2557 147.448 92.6917 175.85 92.4826 177.4H92.4808ZM121.675 166.596C113.996 171.674 106.194 175.455 93.3716 177.37C98.6004 138.51 102.981 100.608 99.7706 61.0084C109.062 58.8253 124.012 53.55 131.111 49.4369C137.377 83.9082 130.376 132.454 121.675 166.596Z" fill="#2A344A"/>
<path d="M197.821 149.675C197.722 149.215 197.72 149.609 181.507 144.091C181.485 144.358 181.462 144.632 181.41 145.007C186.424 146.711 191.468 148.377 196.513 149.954C190.36 155.249 182.909 158.816 175.696 162.271C173.86 163.149 173.328 163.223 171.226 162.622C159.09 159.147 149.611 155.645 139.372 151.461L166.547 139.845C169.388 140.846 172.25 141.849 175.127 142.847C175.147 142.572 175.159 142.243 175.169 141.915C171.609 140.684 158.804 136.183 156.838 135.492C156.814 135.776 156.797 136.04 156.754 136.394L165.322 139.414L138.226 150.995C134.452 149.464 130.58 147.919 126.684 146.371L126.508 147.252C144.891 154.604 153.98 158.598 170.984 163.465C173.299 164.13 174.055 164.028 176.075 163.063C183.575 159.472 191.329 155.759 197.685 150.096C197.804 149.991 197.856 149.83 197.822 149.676L197.821 149.675Z" fill="#2A344A"/>
<path d="M145.962 131.715C145.938 132.002 145.921 132.266 145.879 132.615C147.405 133.139 148.929 133.665 150.452 134.194C150.467 133.905 150.478 133.583 150.486 133.276C148.982 132.754 147.474 132.233 145.962 131.715Z" fill="#2A344A"/>
<path d="M139.612 129.561C138.383 129.151 137.152 128.743 135.919 128.34C135.897 128.587 135.868 128.86 135.812 129.224C137.071 129.637 138.322 130.056 139.578 130.476C139.593 130.191 139.603 129.869 139.612 129.561Z" fill="#2A344A"/>
<path d="M185.68 147.479C184.663 142.432 184.704 139.747 183.634 139.615L173.713 136.62C173.55 136.572 173.383 136.62 173.272 136.734C172.758 137.024 170.387 145.504 170.133 146.191C169.932 146.737 170.752 147.041 170.955 146.501C171.079 146.171 172.777 140.353 173.556 138.113C173.803 139.208 174.084 141.452 174.44 143.446L175.111 143.014C175.128 142.831 175.14 142.612 175.15 142.379C174.849 140.538 174.596 138.625 174.367 137.736L182.84 140.293C182.08 141.87 180.523 147.774 179.933 149.548C179.839 149.833 180.05 150.126 180.35 150.126C180.534 150.126 180.706 150.009 180.767 149.826C181.344 148.09 182.823 142.518 183.562 140.807C183.913 141.942 184.254 144.848 184.819 147.653C184.866 147.891 185.099 148.048 185.336 147.998C185.574 147.949 185.728 147.718 185.681 147.48L185.68 147.479Z" fill="#2A344A"/>
<path d="M181.965 142.252C181.678 141.836 177.168 140.324 175.278 140.052C175.157 140.033 175.038 140.067 174.943 140.142C174.735 140.307 174.765 140.494 174.742 141.371C174.731 141.824 174.718 142.349 174.691 142.762L172.408 144.232C172.106 144.426 172.153 144.884 172.491 145.012C179.027 147.484 178.656 147.357 178.775 147.357C178.959 147.357 178.813 147.414 181.624 145.563C181.727 145.494 181.798 145.385 181.816 145.262C181.894 144.745 181.922 144.408 181.949 144.072C182.046 142.837 182.211 142.607 181.965 142.252ZM175.632 141C177.349 141.312 179.052 141.973 181.214 142.759C181.072 143.701 181.095 143.926 181.018 144.604L175.575 142.708C175.603 142.213 175.617 141.608 175.632 141ZM178.721 146.428L173.618 144.499L175.17 143.498L180.399 145.319L178.72 146.428H178.721Z" fill="#2A344A"/>
<path d="M157.277 133.864C157.089 133.592 156.914 133.585 155.615 133.111C154.005 132.524 152.342 131.917 150.591 131.664C150.47 131.648 150.35 131.68 150.256 131.755C149.955 131.993 150.134 132.394 150.004 134.375C147.497 135.989 147.548 135.884 147.522 136.176C147.495 136.491 147.447 137.304 147.561 138.041C147.598 138.277 147.818 138.444 148.062 138.407C148.302 138.37 148.466 138.145 148.429 137.905C148.382 137.607 148.362 137.231 148.368 136.838L153.636 138.83C153.63 139.003 153.6 140.02 153.591 140.227C153.586 140.331 153.654 140.681 154.03 140.686C154.264 140.688 154.458 140.502 154.468 140.266C154.478 140.055 154.51 138.963 154.517 138.773L156.233 137.639C156.233 137.674 156.218 138.473 156.209 138.675C156.203 138.78 156.272 139.131 156.648 139.134C156.881 139.137 157.075 138.952 157.086 138.715C157.105 138.32 157.113 137.257 157.131 136.848C157.207 136.345 157.234 136.014 157.26 135.683C157.361 134.435 157.521 134.218 157.276 133.863L157.277 133.864ZM150.945 132.612C152.621 132.918 154.214 133.532 156.527 134.373C156.383 135.322 156.408 135.547 156.327 136.247C154.908 135.807 151.864 134.69 150.887 134.328C150.916 133.833 150.928 133.226 150.945 132.612ZM154.033 138.041L148.93 136.111L150.478 135.114C151.264 135.405 154.042 136.429 155.671 136.959L154.033 138.041Z" fill="#2A344A"/>
<path d="M146.402 130.118C146.214 129.846 146.039 129.839 144.74 129.365C143.13 128.778 141.467 128.171 139.716 127.918C139.595 127.902 139.475 127.934 139.381 128.009C139.08 128.247 139.259 128.648 139.129 130.629C136.622 132.243 136.673 132.138 136.647 132.43C136.62 132.745 136.572 133.558 136.686 134.294C136.723 134.531 136.943 134.698 137.187 134.661C137.427 134.624 137.591 134.399 137.554 134.159C137.507 133.86 137.487 133.484 137.493 133.092L142.761 135.084C142.755 135.256 142.725 136.274 142.716 136.481C142.711 136.585 142.779 136.935 143.155 136.94C143.389 136.942 143.583 136.756 143.593 136.52C143.603 136.309 143.635 135.217 143.642 135.027L145.358 133.893C145.358 133.928 145.343 134.727 145.334 134.929C145.328 135.034 145.397 135.385 145.773 135.388C146.006 135.391 146.2 135.205 146.211 134.969C146.23 134.574 146.238 133.511 146.256 133.102C146.332 132.599 146.359 132.268 146.385 131.937C146.486 130.689 146.646 130.472 146.401 130.117L146.402 130.118ZM140.07 128.866C141.746 129.172 143.339 129.786 145.652 130.627C145.508 131.576 145.533 131.8 145.452 132.501C144.033 132.06 140.989 130.944 140.012 130.582C140.041 130.086 140.053 129.48 140.07 128.866ZM143.158 134.294L138.055 132.365L139.603 131.368C140.389 131.659 143.167 132.682 144.796 133.213L143.158 134.294Z" fill="#2A344A"/>
<path d="M136.394 126.278C136.206 126.006 136.03 125.999 134.732 125.525C133.358 125.024 131.945 124.509 130.471 124.211L130.345 125.082C131.92 125.403 133.461 125.993 135.643 126.787C135.499 127.736 135.524 127.96 135.443 128.661C134.066 128.234 131.158 127.169 130.094 126.776L129.96 127.663C131.033 128.059 133.354 128.906 134.787 129.373L133.149 130.454L129.729 129.161L129.59 130.048L132.752 131.243C132.747 131.415 132.716 132.433 132.708 132.64C132.703 132.744 132.771 133.094 133.147 133.099C133.381 133.101 133.575 132.915 133.585 132.679C133.595 132.468 133.627 131.376 133.634 131.186L135.35 130.052C135.35 130.087 135.335 130.886 135.326 131.088C135.321 131.193 135.39 131.544 135.766 131.547C135.998 131.55 136.193 131.365 136.204 131.128C136.222 130.733 136.23 129.67 136.249 129.261C136.324 128.758 136.352 128.427 136.378 128.096C136.478 126.848 136.639 126.631 136.394 126.276V126.278Z" fill="#2A344A"/>
<path d="M160.62 153.362C160.549 153.13 160.305 152.999 160.071 153.072C159.825 153.148 159.601 153.292 159.423 153.481C159.423 153.176 159.484 152.872 159.602 152.589C159.695 152.365 159.59 152.107 159.366 152.014C159.143 151.921 158.885 152.027 158.791 152.251C158.659 152.569 158.579 152.905 158.553 153.247C158.439 153.016 158.275 152.808 158.073 152.647C157.883 152.497 157.607 152.527 157.455 152.716C157.304 152.906 157.335 153.183 157.525 153.334C157.697 153.471 157.818 153.683 157.85 153.901C157.906 154.297 158.42 154.416 158.646 154.088C158.762 154.252 158.976 154.321 159.168 154.245C159.244 154.396 159.397 154.487 159.56 154.487C160.001 154.487 159.897 154.045 160.331 153.911C160.562 153.84 160.693 153.594 160.62 153.362Z" fill="#2A344A"/>
<path d="M173.042 152.583C172.897 152.389 172.621 152.348 172.427 152.493L171.979 152.826C172.01 152.787 172.046 152.754 172.087 152.728C172.29 152.595 172.348 152.323 172.215 152.12C171.895 151.628 171.293 152.105 171.077 152.65C171.021 152.537 170.96 152.426 170.891 152.319C170.759 152.114 170.488 152.055 170.284 152.186C170.08 152.317 170.021 152.589 170.151 152.793C170.273 152.982 170.367 153.186 170.43 153.4C170.52 153.706 170.897 153.815 171.137 153.608C171.253 153.706 171.414 153.741 171.569 153.687C171.715 153.877 171.987 153.916 172.18 153.772L172.949 153.199C173.144 153.054 173.185 152.779 173.04 152.585L173.042 152.583Z" fill="#2A344A"/>
<path d="M167.447 145.948C167.337 145.731 167.071 145.645 166.856 145.755C166.674 145.847 166.507 145.965 166.357 146.102C166.396 145.996 166.443 145.893 166.5 145.795C166.62 145.584 166.547 145.316 166.336 145.195C166.124 145.074 165.857 145.147 165.736 145.358C165.606 145.586 165.508 145.831 165.444 146.085C165.337 145.871 165.202 145.673 165.04 145.496C164.876 145.317 164.599 145.305 164.42 145.469C164.241 145.633 164.229 145.91 164.393 146.089C164.581 146.295 164.716 146.547 164.783 146.817C164.864 147.141 165.26 147.257 165.503 147.038C165.59 147.117 165.703 147.156 165.808 147.151C165.868 147.332 166.036 147.453 166.225 147.453C166.72 147.453 166.56 146.892 167.253 146.54C167.469 146.43 167.556 146.165 167.446 145.949L167.447 145.948Z" fill="#2A344A"/>
<path d="M140.901 144.374C140.713 144.221 140.435 144.251 140.283 144.439L139.91 144.9C139.829 144.687 139.853 144.426 139.978 144.237C140.111 144.035 140.055 143.762 139.853 143.628C139.345 143.295 138.969 144.051 138.983 144.672C138.82 144.538 138.63 144.438 138.426 144.384C138.192 144.323 137.951 144.461 137.89 144.696C137.828 144.93 137.967 145.171 138.201 145.232C138.382 145.28 138.542 145.423 138.61 145.597C138.753 145.962 139.266 145.97 139.422 145.612C139.5 145.639 139.583 145.644 139.669 145.623C139.816 145.899 140.199 145.936 140.398 145.692L140.965 144.99C141.118 144.802 141.089 144.525 140.9 144.372L140.901 144.374Z" fill="#2A344A"/>
<path d="M141.74 138.314C141.759 138.283 141.78 138.252 141.804 138.223C141.959 138.036 141.932 137.759 141.745 137.604C141.557 137.45 141.282 137.477 141.127 137.663C140.954 137.873 140.836 138.123 140.78 138.386C140.66 138.127 140.506 137.883 140.324 137.665C140.169 137.479 139.893 137.451 139.705 137.608C139.519 137.762 139.493 138.04 139.648 138.226C139.865 138.488 140.029 138.799 140.121 139.125C140.227 139.503 140.742 139.561 140.929 139.216C141.043 139.301 141.194 139.327 141.336 139.276C141.475 139.72 142.117 139.67 142.189 139.214C142.206 139.107 142.27 139.005 142.358 138.943C142.838 138.607 142.325 137.798 141.74 138.314Z" fill="#2A344A"/>
<path d="M134.055 139.534C134.068 139.496 134.084 139.458 134.103 139.423C134.217 139.209 134.136 138.944 133.922 138.829C133.709 138.715 133.442 138.795 133.328 139.01C133.245 139.167 133.187 139.336 133.157 139.51C133.057 139.414 132.946 139.33 132.826 139.26C132.617 139.136 132.349 139.207 132.225 139.416C132.102 139.625 132.172 139.894 132.381 140.018C132.551 140.117 132.686 140.272 132.763 140.453C132.859 140.678 133.118 140.78 133.339 140.686C133.457 140.636 133.37 140.631 133.475 140.68C133.636 141.029 134.134 141.015 134.279 140.663C134.354 140.481 134.475 140.321 134.631 140.201C135.086 139.845 134.561 139.128 134.056 139.536L134.055 139.534Z" fill="#2A344A"/>
<path d="M31.4804 156.434C31.4822 156.32 31.5076 156.292 31.4022 156.22C30.912 155.878 30.4789 155.303 30.652 154.658C30.7864 154.16 30.9551 154.333 30.6502 153.897C29.5978 152.393 30.8698 151.632 30.912 151.507C30.9252 151.419 30.6081 150.432 31.2555 149.637C31.671 149.125 32.3703 148.91 32.9571 149.112C32.9571 149.112 33.1003 149.166 33.1205 149.173C34.1774 147.993 36.1312 148.656 36.1733 150.486C36.1804 150.804 36.1821 150.816 36.4606 151.081C37.7432 152.304 37.0325 153.379 36.9675 153.485C36.9473 153.517 36.9201 153.56 36.9139 153.577C36.9271 153.842 38.4311 154.788 36.6205 156.129C36.0257 156.571 36.1856 156.574 35.9203 157.001C35.5347 157.618 34.3294 158.057 33.6283 157.622C32.4819 158.179 31.4681 157.384 31.4804 156.434ZM32.4951 149.926C31.9126 149.926 31.6333 150.539 31.7387 151.122C31.8415 151.642 31.8072 151.903 31.346 152.321C31.2977 152.365 31.2485 152.407 31.2081 152.456C31.0429 152.658 31.122 153.029 31.2854 153.272C31.4532 153.522 31.7378 153.855 31.6974 154.297C31.6719 154.567 31.5305 154.768 31.4988 154.886C31.4496 155.07 31.6508 155.324 31.8757 155.481C32.2341 155.728 32.38 155.922 32.3598 156.371C32.3563 156.843 32.7999 157.159 33.4359 156.719C33.6433 156.576 33.92 156.637 34.0526 156.84C34.1906 157.049 34.9961 156.822 35.1727 156.537C35.3827 156.199 35.33 155.993 36.096 155.424C36.284 155.286 36.6855 154.992 36.6258 154.745C36.5388 154.387 35.6594 153.918 36.2216 153.02C36.4544 152.613 36.2612 152.117 35.973 151.832C35.7929 151.655 35.5092 151.426 35.3827 151.096C35.2755 150.813 35.3036 150.529 35.2869 150.336C35.2166 149.522 34.2828 149.19 33.8198 149.708C33.2558 150.369 32.8983 149.926 32.4951 149.926Z" fill="#2A344A"/>
<path d="M37.4446 159.752C37.3303 158.764 36.6706 158.007 35.5848 157.621C33.9859 157.054 31.787 157.4 30.7847 158.378C30.1109 159.036 30.0046 159.66 30.0722 160.599C30.2382 162.86 33.942 163.699 36.0908 162.531C37.2258 161.914 37.593 161.035 37.4446 159.752ZM33.884 158.227C35.0823 158.227 36.4343 158.66 36.5722 159.853C36.769 161.564 33.2453 162.203 31.6491 161.047C29.9694 159.83 31.4708 158.227 33.8849 158.227H33.884Z" fill="#2A344A"/>
<path d="M34.7339 153.278C34.4967 153.222 34.2613 153.369 34.2059 153.605C34.162 153.793 34.0285 153.956 33.8853 154.082C33.584 153.543 33.3362 152.94 33.3521 152.321C33.3547 152.211 33.2721 151.871 32.9128 151.871C32.6747 151.871 32.4797 152.061 32.4736 152.3C32.4516 153.221 32.8355 154.058 33.3108 154.839C33.3204 156.422 33.3705 158.024 33.4583 159.603C33.49 160.176 34.3685 160.138 34.3351 159.554C34.2499 158.029 34.2016 156.484 34.1901 154.955C34.524 154.727 34.9342 154.348 35.0616 153.805C35.1169 153.568 34.9702 153.332 34.7339 153.277V153.278Z" fill="#2A344A"/>
<path d="M42.0781 149.758C42.0798 149.644 42.1053 149.617 41.9999 149.544C41.5097 149.202 41.0766 148.627 41.2496 147.982C41.384 147.485 41.5527 147.657 41.2479 147.221C40.1954 145.717 41.4675 144.956 41.5097 144.831C41.5228 144.744 41.2057 143.756 41.8532 142.961C42.2687 142.449 42.968 142.234 43.5548 142.436C43.5548 142.436 43.698 142.49 43.7182 142.497C44.775 141.318 46.7288 141.98 46.771 143.81C46.778 144.128 46.7798 144.14 47.0582 144.405C48.3408 145.628 47.6301 146.704 47.5651 146.809C47.5449 146.841 47.5177 146.885 47.5115 146.901C47.5247 147.167 49.0287 148.112 47.2181 149.453C46.6234 149.895 46.7833 149.898 46.518 150.325C46.1323 150.942 44.927 151.382 44.226 150.946C43.0795 151.503 42.0658 150.708 42.0781 149.758ZM43.0927 143.25C42.5103 143.25 42.2309 143.863 42.3363 144.446C42.4391 144.966 42.4049 145.228 41.9436 145.645C41.8953 145.689 41.8461 145.731 41.8057 145.78C41.6406 145.982 41.7196 146.353 41.883 146.596C42.0508 146.846 42.3355 147.18 42.295 147.622C42.2696 147.891 42.1281 148.092 42.0965 148.21C42.0473 148.394 42.2485 148.649 42.4734 148.805C42.8318 149.052 42.9776 149.246 42.9574 149.696C42.9539 150.167 43.3976 150.483 44.0336 150.043C44.2409 149.9 44.5176 149.961 44.6503 150.164C44.7882 150.373 45.5938 150.146 45.7704 149.861C45.9803 149.524 45.9276 149.317 46.6937 148.749C46.8817 148.61 47.2831 148.316 47.2234 148.07C47.1364 147.711 46.2571 147.242 46.8193 146.344C47.0521 145.938 46.8588 145.441 46.5707 145.157C46.3906 144.979 46.1068 144.751 45.9803 144.42C45.8732 144.137 45.9013 143.853 45.8846 143.66C45.8143 142.846 44.8805 142.514 44.4175 143.032C43.8535 143.693 43.4959 143.25 43.0927 143.25Z" fill="#2A344A"/>
<path d="M48.0383 153.069C47.9241 152.08 47.2643 151.323 46.1785 150.938C44.5796 150.37 42.3808 150.716 41.3784 151.695C40.7046 152.352 40.5983 152.977 40.6659 153.916C40.832 156.177 44.5357 157.015 46.6845 155.847C47.8195 155.231 48.1868 154.351 48.0383 153.069ZM44.4777 151.544C45.676 151.544 47.028 151.976 47.1659 153.169C47.3627 154.88 43.8391 155.52 42.2428 154.364C40.5632 153.146 42.0636 151.544 44.4777 151.544Z" fill="#2A344A"/>
<path d="M45.3316 146.598C45.0944 146.543 44.8589 146.689 44.8036 146.926C44.7597 147.114 44.6261 147.276 44.483 147.403C44.1816 146.863 43.9339 146.261 43.9497 145.641C43.9523 145.531 43.8698 145.191 43.5105 145.191C43.2724 145.191 43.0774 145.381 43.0712 145.62C43.0492 146.542 43.4331 147.378 43.9084 148.159C43.9181 149.742 43.9682 151.344 44.056 152.923C44.0876 153.497 44.9661 153.458 44.9327 152.874C44.8475 151.35 44.7992 149.804 44.7878 148.276C45.1216 148.047 45.5319 147.668 45.6593 147.125C45.7146 146.889 45.5679 146.653 45.3316 146.598Z" fill="#2A344A"/>
<path d="M57.1443 150.049C56.0927 150.786 53.9782 150.874 52.8396 150.05C51.1599 148.833 52.6613 147.23 55.0754 147.23C55.707 147.23 56.3826 147.351 56.8992 147.64L56.8008 146.634C55.3785 146.091 53.0575 146.326 51.9761 147.381C51.3023 148.039 51.196 148.663 51.2636 149.602C51.4332 151.912 55.2441 152.688 57.2997 151.524C57.247 151.032 57.1952 150.541 57.1443 150.049Z" fill="#2A344A"/>
<path d="M55.9253 142.281C55.6881 142.226 55.4527 142.373 55.3974 142.609C55.3534 142.797 55.2199 142.96 55.0767 143.086C54.7754 142.547 54.5276 141.944 54.5435 141.325C54.5461 141.215 54.4635 140.875 54.1042 140.875C53.8661 140.875 53.6711 141.065 53.665 141.304C53.643 142.225 54.0269 143.062 54.5022 143.843C54.5118 145.426 54.5619 147.028 54.6498 148.607C54.6814 149.18 55.5599 149.142 55.5265 148.557C55.4413 147.033 55.393 145.488 55.3815 143.959C55.7154 143.731 56.1256 143.351 56.253 142.809C56.3084 142.572 56.1616 142.337 55.9253 142.281Z" fill="#2A344A"/>
<path d="M56.6493 145.035C56.5193 145.218 56.4824 145.362 56.3691 145.544C56.1925 145.829 55.3869 146.056 55.249 145.847C55.1163 145.644 54.8396 145.584 54.6323 145.726C53.9962 146.166 53.5447 145.851 53.5561 145.379C53.5675 144.929 53.4305 144.735 53.0721 144.488C52.8481 144.332 52.646 144.077 52.6952 143.894C52.7268 143.776 52.8683 143.575 52.8937 143.305C52.9341 142.864 52.6495 142.529 52.4817 142.28C52.3183 142.037 52.2393 141.666 52.4044 141.464C52.4439 141.414 52.494 141.372 52.5423 141.328C53.0035 140.911 53.0378 140.649 52.935 140.129C52.8296 139.547 53.109 138.934 53.6914 138.934C54.0946 138.934 54.4522 139.376 55.0162 138.715C55.3017 138.396 55.7647 138.399 56.0959 138.639L56.0177 137.642C55.4387 137.495 54.7878 137.654 54.316 138.181C54.2958 138.174 54.1526 138.119 54.1526 138.119C53.5667 137.917 52.8674 138.133 52.451 138.645C51.8035 139.44 52.1215 140.426 52.1075 140.515C52.0644 140.64 50.7933 141.4 51.8457 142.904C52.1505 143.34 51.9819 143.168 51.8474 143.665C51.6744 144.311 52.1075 144.886 52.5977 145.227C52.704 145.3 52.6776 145.327 52.6759 145.441C52.6636 146.391 53.6765 147.186 54.8229 146.629C55.3772 146.974 56.2461 146.772 56.7758 146.367L56.6493 145.034V145.035Z" fill="#2A344A"/>
</svg>
