<svg width="40" height="40" viewBox="0 0 40 40" fill="none" xmlns="http://www.w3.org/2000/svg">
<rect width="40" height="40" rx="10" fill="#3A465D"/>
<rect x="5" y="5" width="30" height="30" rx="10" fill="#3A465D"/>
<path d="M20.7369 25.25C15.0995 25.25 11.884 21.3086 11.75 14.75H14.5739C14.6666 19.5638 16.7484 21.6029 18.3974 22.0233V14.75H21.0564V18.9017C22.6847 18.723 24.3955 16.8311 24.9727 14.75H27.6316C27.4142 15.8293 26.9806 16.8512 26.3582 17.7519C25.7358 18.6525 24.9378 19.4125 24.0142 19.9842C25.0452 20.5067 25.9557 21.2461 26.6859 22.1538C27.416 23.0615 27.9491 24.1168 28.25 25.25H25.3231C25.053 24.2657 24.504 23.3846 23.745 22.7171C22.986 22.0496 22.0507 21.6255 21.0564 21.4977V25.25H20.7369Z" fill="white"/>
</svg>
